<svg width="28" height="28" viewBox="0 0 28 28" fill="none" xmlns="http://www.w3.org/2000/svg">
<path d="M19.586 0.666016H8.41268C3.55935 0.666016 0.666016 3.55935 0.666016 8.41268V19.5727C0.666016 24.4394 3.55935 27.3327 8.41268 27.3327H19.5727C24.426 27.3327 27.3193 24.4394 27.3193 19.586V8.41268C27.3327 3.55935 24.4394 0.666016 19.586 0.666016ZM10.146 20.5327C10.146 20.906 9.85268 21.1993 9.47935 21.1993H5.75935C5.38602 21.1993 5.09268 20.906 5.09268 20.5327V14.3727C5.09268 13.5327 5.77268 12.8527 6.61268 12.8527H9.47935C9.85268 12.8527 10.146 13.146 10.146 13.5194V20.5327ZM16.5194 20.5327C16.5194 20.906 16.226 21.1993 15.8527 21.1993H12.1327C11.7593 21.1993 11.466 20.906 11.466 20.5327V8.31935C11.466 7.47935 12.146 6.79935 12.986 6.79935H15.0127C15.8527 6.79935 16.5327 7.47935 16.5327 8.31935V20.5327H16.5194ZM22.906 20.5327C22.906 20.906 22.6127 21.1993 22.2393 21.1993H18.5194C18.146 21.1993 17.8527 20.906 17.8527 20.5327V15.7993C17.8527 15.426 18.146 15.1327 18.5194 15.1327H21.386C22.226 15.1327 22.906 15.8127 22.906 16.6527V20.5327Z" fill="#00377B"/>
</svg>
