<svg width="375" height="153" viewBox="0 0 375 153" fill="none" xmlns="http://www.w3.org/2000/svg">
<path opacity="0.9" d="M209.5 152C207.813 148.481 206.688 144.587 206.407 140.224C205.563 128.025 200.063 102.267 209.219 92.5554C214.438 87.0191 222.688 86.0807 230.188 85.9869C235.25 85.94 240.344 86.0807 245.406 86.3622C262.656 87.2537 279.906 89.2711 297.063 87.3944C324.469 84.3448 350 71.4894 377 66V152H209.5Z" fill="#FAB684"/>
<path opacity="0.95" d="M0 27C15.3701 27.4217 31.4602 27.937 43.5121 37.3073C48.6146 41.2897 52.5588 46.584 57.3796 50.9412C58.0996 51.5971 58.8509 52.2062 59.5709 52.8152C81.1078 70.2909 113.945 68.4636 139.865 69.1664C169.948 69.9629 195.304 78.2088 214.806 103.274C225.856 117.47 232.993 134.29 237 152H0V27Z" fill="#6687B0"/>
<g opacity="0.5">
<path d="M0.0236489 11.5464C22.9417 16.8605 46.0792 21.281 69.3108 21.0459C80.472 20.9518 91.6645 19.6821 102.669 16.8605C113.36 14.1329 123.863 10.0885 134.491 6.84361C145.182 3.55169 156.061 1.10626 167.003 1.71762C177.599 2.28195 188.039 5.80901 197.664 12.4869C214.155 23.9146 227.856 43.1958 238.359 65.2047C243.971 76.9616 248.799 89.659 252.31 103.109C255.571 115.571 257.766 128.927 257.546 142.424C257.483 145.575 257.295 148.772 256.95 151.876C257.138 151.688 257.295 151.453 257.483 151.265C255.163 151.265 252.875 151.265 250.555 151.265C244.316 151.265 238.108 151.265 231.869 151.265C222.62 151.265 213.403 151.265 204.154 151.265C192.899 151.265 181.612 151.265 170.357 151.265C158.067 151.265 145.777 151.265 133.456 151.265C120.947 151.265 108.469 151.265 95.9597 151.265C84.3909 151.265 72.8222 151.265 61.2534 151.265C51.4403 151.265 41.6273 151.265 31.8142 151.265C24.7601 151.265 17.706 151.265 10.6519 151.265C8.45724 151.265 6.26263 151.265 4.09936 151.265C2.9707 151.265 1.77934 151.077 0.650682 151.265C0.493924 151.312 0.368517 151.265 0.211759 151.265C0.399869 151.547 0.587978 151.829 0.776088 152.111C0.776088 147.409 0.776088 142.706 0.776088 138.003C0.776088 126.811 0.776088 115.571 0.776088 104.379C0.776088 90.7406 0.776088 77.1026 0.776088 63.4647C0.776088 51.6608 0.776088 39.9039 0.776088 28.1C0.776088 24.2438 0.776088 20.3875 0.776088 16.4842C0.776088 14.6972 0.932847 12.722 0.776088 10.935C0.776088 10.8409 0.776088 10.7469 0.776088 10.6999C0.776088 9.61822 -0.352571 9.61822 -0.352571 10.6999C-0.352571 15.4026 -0.352571 20.1053 -0.352571 24.8081C-0.352571 36.0006 -0.352571 47.2402 -0.352571 58.4327C-0.352571 72.0707 -0.352571 85.7087 -0.352571 99.3466C-0.352571 111.151 -0.352571 122.907 -0.352571 134.711C-0.352571 138.568 -0.352571 142.424 -0.352571 146.327C-0.352571 148.114 -0.509329 150.089 -0.352571 151.876C-0.352571 151.97 -0.352571 152.064 -0.352571 152.111C-0.352571 152.582 -0.101758 152.958 0.211759 152.958C2.53178 152.958 4.82045 152.958 7.14047 152.958C13.3794 152.958 19.5871 152.958 25.8261 152.958C35.0748 152.958 44.2922 152.958 53.5409 152.958C64.7961 152.958 76.0827 152.958 87.338 152.958C99.6278 152.958 111.918 152.958 124.239 152.958C136.748 152.958 149.226 152.958 161.735 152.958C173.304 152.958 184.873 152.958 196.442 152.958C206.255 152.958 216.068 152.958 225.881 152.958C232.935 152.958 239.989 152.958 247.043 152.958C250.367 152.958 253.721 153.052 257.044 152.958C257.201 152.958 257.327 152.958 257.483 152.958C257.703 152.958 257.985 152.723 258.016 152.347C261.026 125.306 253.376 97.4655 244.033 74.9394C234.534 52.037 221.868 31.439 206.38 17.5188C197.853 9.85336 188.478 4.39818 178.665 1.8587C167.912 -0.962952 156.97 -0.304571 146.248 2.0468C135.306 4.4452 124.552 8.48957 113.736 11.9696C102.575 15.5437 91.3196 18.0361 79.9076 18.9297C56.2685 20.7637 32.598 17.0486 9.24103 11.9696C6.26263 11.3112 3.31557 10.6528 0.368517 9.99444C-0.383923 9.7593 -0.666087 11.4053 0.0236489 11.5464Z" fill="#EBD8CC"/>
</g>
</svg>
