<svg width="16" height="17" viewBox="0 0 16 17" fill="none" xmlns="http://www.w3.org/2000/svg">
<path d="M11.3333 14.6673H4.66659C2.23325 14.6673 0.833252 13.2673 0.833252 10.834V6.16732C0.833252 3.73398 2.23325 2.33398 4.66659 2.33398H11.3333C13.7666 2.33398 15.1666 3.73398 15.1666 6.16732V10.834C15.1666 13.2673 13.7666 14.6673 11.3333 14.6673ZM4.66659 3.33398C2.75992 3.33398 1.83325 4.26065 1.83325 6.16732V10.834C1.83325 12.7407 2.75992 13.6673 4.66659 13.6673H11.3333C13.2399 13.6673 14.1666 12.7407 14.1666 10.834V6.16732C14.1666 4.26065 13.2399 3.33398 11.3333 3.33398H4.66659Z" fill="#F68632"/>
<path d="M7.9992 9.07998C7.4392 9.07998 6.87254 8.90665 6.4392 8.55331L4.35253 6.88665C4.1392 6.71331 4.0992 6.39998 4.27254 6.18665C4.44587 5.97331 4.75921 5.93332 4.97254 6.10665L7.0592 7.77332C7.56587 8.17998 8.42586 8.17998 8.93253 7.77332L11.0192 6.10665C11.2325 5.93332 11.5525 5.96665 11.7192 6.18665C11.8925 6.39998 11.8592 6.71998 11.6392 6.88665L9.55254 8.55331C9.12587 8.90665 8.5592 9.07998 7.9992 9.07998Z" fill="#F68632"/>
</svg>
