<svg width="24" height="24" viewBox="0 0 24 24" fill="none" xmlns="http://www.w3.org/2000/svg">
<circle cx="12" cy="12" r="12" fill="white"/>
<path d="M15.4931 19.1673H8.50644C6.63977 19.1673 5.4531 18.054 5.34644 16.194L4.99977 10.694C4.94644 9.86065 5.2331 9.06065 5.80644 8.45398C6.3731 7.84732 7.1731 7.50065 7.99977 7.50065C8.2131 7.50065 8.41977 7.37398 8.51977 7.17398L8.99977 6.22065C9.3931 5.44065 10.3798 4.83398 11.2398 4.83398H12.7664C13.6264 4.83398 14.6064 5.44065 14.9998 6.21398L15.4798 7.18732C15.5798 7.37398 15.7798 7.50065 15.9998 7.50065C16.8264 7.50065 17.6264 7.84732 18.1931 8.45398C18.7664 9.06732 19.0531 9.86065 18.9998 10.694L18.6531 16.2007C18.5331 18.0873 17.3798 19.1673 15.4931 19.1673ZM11.2398 5.83398C10.7464 5.83398 10.1198 6.22065 9.8931 6.66732L9.4131 7.62732C9.1331 8.16732 8.5931 8.50065 7.99977 8.50065C7.43977 8.50065 6.91977 8.72732 6.5331 9.13398C6.1531 9.54065 5.95977 10.074 5.99977 10.6273L6.34644 16.134C6.42644 17.4807 7.1531 18.1673 8.50644 18.1673H15.4931C16.8398 18.1673 17.5664 17.4807 17.6531 16.134L17.9998 10.6273C18.0331 10.074 17.8464 9.54065 17.4664 9.13398C17.0798 8.72732 16.5598 8.50065 15.9998 8.50065C15.4064 8.50065 14.8664 8.16732 14.5864 7.64065L14.0998 6.66732C13.8798 6.22732 13.2531 5.84065 12.7598 5.84065H11.2398V5.83398Z" fill="#64748B"/>
<path d="M13 9.83398H11C10.7267 9.83398 10.5 9.60732 10.5 9.33398C10.5 9.06065 10.7267 8.83398 11 8.83398H13C13.2733 8.83398 13.5 9.06065 13.5 9.33398C13.5 9.60732 13.2733 9.83398 13 9.83398Z" fill="#64748B"/>
<path d="M12 16.4993C10.5266 16.4993 9.33331 15.306 9.33331 13.8327C9.33331 12.3593 10.5266 11.166 12 11.166C13.4733 11.166 14.6666 12.3593 14.6666 13.8327C14.6666 15.306 13.4733 16.4993 12 16.4993ZM12 12.166C11.08 12.166 10.3333 12.9127 10.3333 13.8327C10.3333 14.7527 11.08 15.4993 12 15.4993C12.92 15.4993 13.6666 14.7527 13.6666 13.8327C13.6666 12.9127 12.92 12.166 12 12.166Z" fill="#64748B"/>
</svg>
