<svg width="16" height="17" viewBox="0 0 16 17" fill="none" xmlns="http://www.w3.org/2000/svg">
<path d="M10.0004 15.6659H6.00042C5.12042 15.6659 4.38709 15.5792 3.76709 15.3925C3.54042 15.3259 3.39376 15.1059 3.40709 14.8725C3.57376 12.8792 5.59376 11.3125 8.00042 11.3125C10.4071 11.3125 12.4204 12.8725 12.5938 14.8725C12.6138 15.1125 12.4671 15.3259 12.2338 15.3925C11.6138 15.5792 10.8804 15.6659 10.0004 15.6659ZM4.48042 14.5392C4.92042 14.6259 5.42042 14.6659 6.00042 14.6659H10.0004C10.5804 14.6659 11.0804 14.6259 11.5204 14.5392C11.1671 13.2592 9.70709 12.3125 8.00042 12.3125C6.29376 12.3125 4.83376 13.2592 4.48042 14.5392Z" fill="#00377B"/>
<path d="M9.99992 1.83398H5.99992C2.66659 1.83398 1.33325 3.16732 1.33325 6.50065V10.5007C1.33325 13.0207 2.09325 14.4006 3.90659 14.914C4.05325 13.1806 5.83325 11.814 7.99992 11.814C10.1666 11.814 11.9466 13.1806 12.0933 14.914C13.9066 14.4006 14.6666 13.0207 14.6666 10.5007V6.50065C14.6666 3.16732 13.3333 1.83398 9.99992 1.83398ZM7.99992 9.94731C6.67992 9.94731 5.61325 8.874 5.61325 7.554C5.61325 6.234 6.67992 5.16732 7.99992 5.16732C9.31992 5.16732 10.3866 6.234 10.3866 7.554C10.3866 8.874 9.31992 9.94731 7.99992 9.94731Z" stroke="#00377B" stroke-linecap="round" stroke-linejoin="round"/>
<path d="M7.99995 10.446C6.40662 10.446 5.11328 9.14603 5.11328 7.55269C5.11328 5.95936 6.40662 4.66602 7.99995 4.66602C9.59328 4.66602 10.8866 5.95936 10.8866 7.55269C10.8866 9.14603 9.59328 10.446 7.99995 10.446ZM7.99995 5.66602C6.95995 5.66602 6.11328 6.51269 6.11328 7.55269C6.11328 8.59936 6.95995 9.446 7.99995 9.446C9.03995 9.446 9.88662 8.59936 9.88662 7.55269C9.88662 6.51269 9.03995 5.66602 7.99995 5.66602Z" fill="#00377B"/>
</svg>
