<svg width="50" height="49" viewBox="0 0 50 49" fill="none" xmlns="http://www.w3.org/2000/svg">
<rect width="50" height="49" rx="4" fill="#F2F5F8"/>
<path d="M37.8277 23.8308C38.1196 24.2349 38.5368 24.5044 39.1624 24.684L39.5795 24.8187C39.8298 24.8636 39.9966 25.0882 39.9966 25.3127V25.7617C39.9966 25.8066 40.0383 26.6149 39.8297 27.8722C39.7463 28.456 39.5795 29.2194 39.3709 29.9827C38.9956 31.0604 38.4533 32.3627 37.5774 33.5751C36.6598 34.7875 35.4085 36 33.6984 36.9879L33.4482 37.1226C33.323 37.1675 33.1145 37.1675 32.9894 37.1226L32.7808 36.9879H32.7391C31.2792 36.1347 30.1531 35.1468 29.3189 34.0691C28.151 32.677 27.5254 31.1952 27.1083 29.9827C26.858 29.2194 26.6912 28.5458 26.6077 27.8722C26.3992 26.6149 26.4409 25.8066 26.4409 25.7617V25.3127C26.4409 25.0882 26.6077 24.8187 26.8997 24.8187L27.2751 24.684C27.9008 24.5044 28.3596 24.19 28.6098 23.8308C29.1103 23.1572 29.1103 22.349 29.1103 22.3041V21.855C29.1103 21.5856 29.2772 21.3611 29.5691 21.3162L29.9862 21.2263C30.028 21.1814 30.4868 21.0467 31.1541 20.9569C31.7798 20.8222 32.6139 20.6875 33.2813 20.6875C33.9487 20.6875 34.7412 20.8222 35.4085 20.9569C35.9925 21.0467 36.493 21.1815 36.5764 21.1815L36.6181 21.2263L36.9935 21.3162C37.2855 21.3611 37.4523 21.5856 37.4523 21.855V22.3041C37.2854 22.349 37.3272 23.1572 37.8277 23.8308Z" fill="#00377B"/>
<path d="M30.3125 37.1562H22.1914H22.0625H9C9 28.5383 12.2227 30.7358 18.582 27.0732V25.6082C17.4219 24.8325 17.207 23.3675 16.8203 21.9024C16.6055 21.9024 16.4766 21.6008 16.4766 21.3422C16.4766 21.2992 16.4766 21.213 16.4766 21.213C16.3906 21.0406 16.2617 20.7821 16.1758 20.4374C16.0469 20.0065 15.6602 19.0585 16.0039 18.6707C16.3047 18.369 16.5195 18.7138 16.5195 18.7138C16.0469 16.3007 15.4023 13.069 18.7969 12.121C18.7969 10.0096 26.7031 10.9576 27.6484 14.3186C28.0781 15.6113 27.5195 18.6707 27.5195 18.6707C27.6484 18.4121 27.7773 18.369 27.9922 18.4983C28.4219 18.843 27.9492 20.0495 27.8203 20.4374V20.4804L27.3906 20.5666V21.0837C27.3906 21.1268 27.3906 21.4715 27.2617 21.8593C27.2188 21.9024 27.2188 21.9024 27.1758 21.9024C27.0898 22.1609 27.0469 22.4195 26.9609 22.678C26.5742 23.4536 25.8437 24.2723 24.4258 24.6171L23.9531 24.7464L23.9101 25.2203C23.9101 25.3065 23.8242 27.4179 24.7266 30.0464C25.5 32.1578 27.0469 35.0018 30.3125 37.1562Z" fill="#00377B"/>
<path d="M39.0278 25.5312C38.1436 25.2729 37.5541 24.8424 37.133 24.3257C36.3751 23.3785 36.333 22.216 36.333 22.1299C36.2066 22.0868 35.7856 22.0007 35.1961 21.8715C34.6066 21.7854 33.8065 21.6562 33.217 21.6562C32.6696 21.6562 31.8696 21.7854 31.2801 21.8715C30.6906 22.0007 30.1853 22.1299 30.1432 22.1299C30.1432 22.216 30.1011 23.3785 29.3432 24.3257C28.9221 24.7993 28.3326 25.2729 27.4062 25.5312C27.4062 25.6174 27.4063 26.2632 27.5747 27.2965V27.3396C27.701 27.8562 27.8273 28.5021 28.0379 29.191C28.4168 30.2243 29.0063 31.516 30.0169 32.7215C30.8169 33.6257 31.8275 34.4868 33.217 35.2187C34.775 34.4007 35.954 33.3243 36.754 32.2479C37.5541 31.1715 38.1015 30.0521 38.3962 29.1479C38.6488 28.459 38.7752 27.7701 38.8594 27.2535C39.0699 26.2632 39.0278 25.5743 39.0278 25.5312Z" fill="#FEFEFE"/>
<path d="M31.8701 32.3125V29.7585H29.3438V28.0412H31.8701V25.5312H33.5543V28.0412H36.125V29.7585H33.5543V32.3125H31.8701Z" fill="#F68632"/>
</svg>
