<svg width="100" height="101" viewBox="0 0 100 101" fill="none" xmlns="http://www.w3.org/2000/svg">
<path d="M71.7053 90.1509H28.2945C12.4495 90.1509 3.33325 81.0698 3.33325 65.286V35.0157C3.33325 19.232 12.4495 10.1509 28.2945 10.1509H71.7053C87.5503 10.1509 96.6666 19.232 96.6666 35.0157V65.286C96.6666 81.0698 87.5503 90.1509 71.7053 90.1509ZM28.2945 16.6374C15.879 16.6374 9.84488 22.6482 9.84488 35.0157V65.286C9.84488 77.6536 15.879 83.6644 28.2945 83.6644H71.7053C84.1209 83.6644 90.155 77.6536 90.155 65.286V35.0157C90.155 22.6482 84.1209 16.6374 71.7053 16.6374H28.2945Z" fill="#778498"/>
<path d="M50.014 50.1509C46.6049 50.1509 43.1552 49.0268 40.5172 46.7353L27.8141 35.9264C26.5154 34.8023 26.2719 32.7702 27.3271 31.3867C28.3823 30.0031 30.2898 29.7437 31.5885 30.8679L44.2915 41.6768C47.376 44.3141 52.6114 44.3141 55.6959 41.6768L68.399 30.8679C69.6977 29.7437 71.6458 29.9599 72.6604 31.3867C73.7156 32.7702 73.5127 34.8455 72.1734 35.9264L59.4703 46.7353C56.8729 49.0268 53.4232 50.1509 50.014 50.1509Z" fill="#778498"/>
</svg>
