<svg width="280" height="136" viewBox="0 0 280 136" fill="none" xmlns="http://www.w3.org/2000/svg">
<path d="M10.5622 64.6983C9.05759 94.7425 29.1189 110.171 58.0526 113.837C90.509 117.944 123.849 112.404 156.162 109.586C168.342 108.523 180.558 107.723 192.786 107.794C204.309 107.854 216.788 111.03 228.108 109.275C256.409 104.881 271.001 75.6365 266.583 50.1299C263.86 34.3078 253.591 19.2021 235.416 20.2051C222.639 20.9097 211.319 26.4623 199.127 29.4715C183.066 33.4361 165.99 32.7912 150.227 27.6445C142.358 25.0652 134.859 21.4112 127.193 18.2109C111.944 11.8462 95.8109 7.24884 79.3797 6.99808C62.9605 6.73537 46.1711 11.0581 32.8924 21.1604C18.8972 31.812 11.3981 47.9328 10.5622 64.6983Z" stroke="#F0F0F0" stroke-width="4.2643" stroke-miterlimit="10"/>
<path d="M261.353 73.7617C262.845 103.448 242.891 118.685 214.101 122.303C181.812 126.363 148.651 120.882 116.493 118.1C104.385 117.049 92.2285 116.261 80.0603 116.332C68.5967 116.392 56.1778 119.533 44.9171 117.801C16.7596 113.454 2.25098 84.5686 6.63343 59.3725C8.68733 47.5984 13.2131 34.5824 23.387 27.4296C33.6207 20.2409 45.5262 22.0799 56.739 25.1966C77.1705 30.8806 99.4291 41.5561 121.079 37.3767C133.486 34.9884 144.292 27.955 156.078 23.7517C167.829 19.5603 180.379 16.9451 192.87 16.7541C209.205 16.5033 225.911 20.7663 239.118 30.7492C253.054 41.2695 260.517 57.1992 261.353 73.7617Z" fill="#F0F0F0"/>
<path d="M240.682 98.6596C240.682 98.6596 229.433 106.601 216.5 99.7224L228.585 92.9756L240.682 98.6596Z" fill="#05659D"/>
<path d="M157.833 45.6284C157.833 45.6284 146.883 66.1555 150.31 72.2216L162.777 65.2957L157.833 45.6284Z" fill="#05659D"/>
<path d="M153.116 66.466C151.743 65.439 150.43 64.2927 149.164 63.0388C146.668 60.567 144.375 57.6891 142.274 54.6322C140.865 52.5783 139.551 50.4288 138.333 48.2555C134.81 41.9864 132.064 35.4903 130.106 30.2959C128.064 24.8745 126.881 20.8503 126.559 19.9308C126.523 19.8234 126.499 19.7637 126.487 19.7398L132.41 2.7354C135.276 -1.85005 136.876 13.0288 136.876 13.0288C137.664 12.5631 138.62 11.2018 139.193 10.4734C139.826 9.63746 140.315 10.9629 140.399 11.4287C140.888 14.1632 138.691 19.3577 138.691 19.3577L152.806 40.0519C153.666 41.3176 154.645 42.5118 155.684 43.6223C156.352 44.3388 157.069 45.0075 157.809 45.6523C159.087 50.9543 158.968 61.2118 153.116 66.466Z" fill="#F9B384"/>
<path opacity="0.6" d="M153.116 66.4659C151.743 65.4389 150.429 64.2926 149.164 63.0387C153.594 57.9637 156.985 49.5331 157.833 45.6284C158.502 46.3448 157.093 44.9955 157.833 45.6284C159.087 50.9542 158.967 61.2117 153.116 66.4659Z" fill="#E28B6D"/>
<path d="M240.682 98.6599C232.968 97.1553 226.89 97.2508 221.755 98.2777C219.892 98.6479 218.161 99.1375 216.501 99.7226L214.949 105.287L211.88 116.297L209.886 123.45L208.07 129.946L207.055 133.612H152.341L160.998 77.1656L150.311 72.2338C151.003 71.2188 151.624 70.0247 152.209 68.7112C155.457 61.4031 157.189 50.3335 157.822 45.6406C160.879 48.2677 164.473 50.238 168.402 51.3485C173.059 52.674 178.683 53.8323 183.937 53.701C184.116 53.701 184.295 53.689 184.475 53.689C196.631 53.2114 202.052 56.9132 202.052 56.9132C204.799 57.4625 211.975 60.209 218.232 62.9674C220.991 64.1735 223.57 65.3915 225.529 66.4065C230.783 69.153 234.592 74.025 236.013 79.7927L240.682 98.6599Z" fill="#00377B"/>
<path opacity="0.6" d="M221.755 98.2773C219.892 98.6475 218.16 99.1371 216.5 99.7222L219.796 87.9004L221.755 98.2773Z" fill="#05659D"/>
<path opacity="0.3" d="M142.286 54.6202C140.877 52.5663 139.778 50.7035 137.139 46.0225C141.271 44.6015 143.754 50.7154 142.286 54.6202Z" fill="#EE6F57"/>
<path opacity="0.6" d="M215.545 103.162L211.891 116.297L209.897 123.45L160.794 127.187L155.218 117.419C191.113 116.679 206.135 111.556 215.545 103.162Z" fill="#085684"/>
<path opacity="0.6" d="M130.117 30.2837C128.075 24.8623 126.893 20.8381 126.571 19.9186L135.753 14.2227C136.112 19.4052 132.016 26.7849 130.117 30.2837Z" fill="#E28B6D"/>
<path d="M188.224 66.4302C188.761 68.3408 189.907 70.0006 191.424 71.2067C192.94 72.4008 194.767 73.2009 196.678 73.5352C198.589 73.8815 200.571 73.786 202.446 73.2845C203.389 73.0337 204.309 72.6755 205.168 72.2098C206.04 71.7679 206.864 71.1947 207.64 70.5738L207.915 70.8604C207.21 71.6127 206.398 72.2575 205.527 72.8188C204.643 73.3561 203.688 73.7979 202.696 74.1323C200.702 74.7771 198.553 74.9085 196.487 74.5264C194.433 74.1442 192.439 73.2606 190.863 71.8635C190.075 71.1709 189.394 70.3589 188.868 69.4513C188.355 68.5438 187.985 67.5407 187.83 66.5257L188.224 66.4302Z" fill="#AE5140"/>
<path d="M210.542 46.9775L209.013 58.883C208.452 63.3251 204.595 66.6329 200.117 66.5015C195.317 66.3702 191.615 62.4295 191.615 57.7844C191.615 57.3306 191.651 56.8649 191.722 56.3992L191.997 54.6558L193.072 47.8731L199.126 47.5627L210.542 46.9775Z" fill="#F9B384"/>
<path d="M189.358 27.3701C189.525 25.6147 190.349 23.525 191.28 21.6263C193.072 18.0081 196.535 15.4885 200.523 14.9034C206.529 14.0317 214.303 14.8795 218.53 20.6471C223.295 27.1551 219.331 40.1592 214.22 41.2697C209.121 42.3922 189.358 27.3701 189.358 27.3701Z" fill="#102048"/>
<path d="M205.025 50.0224C202.983 51.9569 198.278 56.4826 191.734 56.399L193.084 47.873L199.138 47.5625L205.025 50.0224Z" fill="#E28B6D"/>
<path d="M213.73 30.4268L212.823 35.1675L212.596 36.3258L211.7 40.9949L211.187 43.6697L210.554 46.9655L207.437 48.8283C207.437 48.8283 206.589 49.4015 205.025 50.0105C202.673 50.9419 198.696 51.9808 193.585 51.3121C193.227 51.2643 192.893 51.1808 192.582 51.0733C190.182 50.2493 188.952 47.7178 188.403 44.5653C188.009 42.2487 187.973 39.5977 188.128 37.0303C188.355 33.0181 189.024 29.2208 189.37 27.334C194.72 22.5575 202.028 21.6858 207.449 20.623L213.73 30.4268Z" fill="#F9B384"/>
<path d="M189.358 27.3703C197.884 20.6593 209.371 27.4538 209.371 27.4538C209.371 27.4538 207.616 38.0219 211.007 37.1502C214.399 36.2784 217.85 29.2092 217.85 29.2092L210.076 18.0083L193.084 20.9339L189.358 27.3703Z" fill="#102048"/>
<path d="M210.565 37.4963C212.237 34.5588 215.485 33.6274 217.241 35.8484C218.984 38.0695 219.056 45.0671 210.458 43.5625L210.565 37.4963Z" fill="#F9B384"/>
<path d="M196.272 35.18C195.723 36.6726 194.863 38.01 194.302 39.4072C194.242 39.5744 194.159 39.7654 194.111 39.9206C194.063 40.0639 194.039 40.2192 194.063 40.3267C194.063 40.4461 194.135 40.5297 194.218 40.6252C194.326 40.7088 194.445 40.7924 194.612 40.8521C195.257 41.1028 196.045 41.1625 196.821 41.2342L196.833 41.5327C196.045 41.6402 195.245 41.7238 194.397 41.4849C194.182 41.4252 193.967 41.3178 193.764 41.1625C193.573 40.9954 193.382 40.7446 193.347 40.4699C193.287 40.1953 193.335 39.9445 193.394 39.7176C193.454 39.4908 193.526 39.3236 193.609 39.1325C194.242 37.6279 195.174 36.3621 196.009 35.0605L196.272 35.18Z" fill="#E28B6D"/>
<path d="M200.701 36.5015C201.201 36.6493 201.774 36.2001 201.982 35.4982C202.189 34.7962 201.953 34.1073 201.453 33.9595C200.954 33.8117 200.38 34.2609 200.173 34.9629C199.965 35.6649 200.202 36.3537 200.701 36.5015Z" fill="#102048"/>
<path d="M191.65 36.0723C192.15 36.2201 192.723 35.7709 192.931 35.069C193.138 34.367 192.902 33.6781 192.402 33.5303C191.903 33.3825 191.329 33.8317 191.122 34.5337C190.914 35.2357 191.15 35.9245 191.65 36.0723Z" fill="#102048"/>
<path d="M198.803 32.7797C199.233 32.3737 199.747 32.0274 200.32 31.8005C200.893 31.5736 201.538 31.4781 202.171 31.5498C202.804 31.6214 203.413 31.8841 203.902 32.2424C204.404 32.6006 204.81 33.0544 205.132 33.5559L204.905 33.747C204.452 33.3887 204.01 33.0544 203.544 32.8036C203.078 32.5409 202.577 32.3618 202.075 32.3021C201.562 32.2304 201.048 32.2782 200.523 32.4095C199.998 32.5409 199.496 32.7678 198.971 33.0066L198.803 32.7797Z" fill="#102048"/>
<path d="M194.313 32.8154C193.896 32.1467 193.215 31.8362 192.522 31.8362C192.176 31.8362 191.83 31.9198 191.495 32.0631C191.161 32.2064 190.839 32.4214 190.504 32.6602L190.265 32.4691C190.468 32.0751 190.767 31.7168 191.161 31.4661C191.555 31.2034 192.033 31.0601 192.51 31.0601C192.988 31.0601 193.478 31.2153 193.872 31.5138C194.254 31.8004 194.54 32.2422 194.588 32.708L194.313 32.8154Z" fill="#102048"/>
<path d="M193.024 43.7417L198.564 43.8611C198.564 43.8611 195.496 48.0286 193.239 44.1477L193.024 43.7417Z" fill="white"/>
<path d="M211.891 39.7295C211.891 39.2519 211.975 38.7742 212.154 38.3085C212.321 37.8428 212.596 37.401 212.99 37.0428C213.384 36.6845 213.945 36.4576 214.482 36.4935C215.032 36.5054 215.509 36.7562 215.879 37.0786L215.724 37.3413C215.294 37.2099 214.876 37.1263 214.494 37.1741C214.112 37.2219 213.778 37.3771 213.479 37.6279C213.181 37.8786 212.942 38.2249 212.739 38.5951C212.536 38.9653 212.357 39.3832 212.178 39.8012L211.891 39.7295Z" fill="#E28B6D"/>
<path opacity="0.3" d="M204.989 45.294C207.146 45.294 208.894 43.5457 208.894 41.3892C208.894 39.2326 207.146 37.4844 204.989 37.4844C202.832 37.4844 201.084 39.2326 201.084 41.3892C201.084 43.5457 202.832 45.294 204.989 45.294Z" fill="#EE6F57"/>
<path opacity="0.3" d="M191.137 40.864C191.137 42.6074 189.979 44.0881 188.403 44.5896C188.009 42.273 187.973 39.6221 188.128 37.0547C189.848 37.4607 191.137 39.0131 191.137 40.864Z" fill="#EE6F57"/>
<path d="M112.6 24.6235C112.6 24.6235 123.717 30.0688 121.651 39.0844L114.295 41.1383L112.6 24.6235Z" fill="#102048"/>
<path d="M112.6 24.6236C113.794 23.4534 119.908 16.6946 119.693 8.24018C119.526 1.83966 122.368 4.72944 122.738 9.14771C122.738 9.14771 124.302 0.108169 128.601 1.02765L127.335 2.75913C127.335 2.75913 128.971 -0.297833 130.285 0.514174C131.598 1.33812 130.404 3.95326 130.404 3.95326C130.404 3.95326 131.025 1.68442 132.147 1.5053C133.282 1.32618 134.309 4.88468 131.789 14.175C131.789 14.175 134.524 11.4643 135.61 10.9986C136.697 10.5448 136.613 17.638 128.947 25.2087C121.269 32.7675 115.848 38.6188 115.848 38.6188L112.6 24.6236Z" fill="#F9B384"/>
<path d="M67.8083 61.6534C68.083 62.0714 112.588 24.6235 112.588 24.6235L121.64 39.0844L76.2031 92.5813L67.8083 61.6534Z" fill="#F6821D"/>
<path d="M128.685 1.08741C128.16 1.89941 127.658 2.75918 127.216 3.61896C126.774 4.49067 126.344 5.36238 125.998 6.26992C125.628 7.16551 125.329 8.09694 125.079 9.0403L124.9 9.74483L124.756 10.4613C124.637 10.939 124.613 11.4285 124.517 11.9062L124.314 11.8943C124.326 10.9031 124.422 9.90006 124.637 8.93282C124.852 7.96558 125.15 7.01027 125.521 6.07886C125.903 5.15938 126.321 4.26379 126.834 3.40401C127.336 2.54424 127.885 1.7203 128.53 0.956055L128.685 1.08741Z" fill="#E28B6D"/>
<path d="M130.512 3.97697C130.369 4.78897 130.189 5.58904 130.01 6.38911C129.843 7.18917 129.628 7.97729 129.449 8.77736L128.84 11.1537C128.625 11.9418 128.41 12.7299 128.183 13.518L127.992 13.4822C128.1 12.6702 128.255 11.8582 128.422 11.0581C128.589 10.2581 128.78 9.45801 128.971 8.65795C129.186 7.86982 129.377 7.06975 129.604 6.28163C129.831 5.49351 130.058 4.70538 130.333 3.9292L130.512 3.97697Z" fill="#E28B6D"/>
<path d="M133.211 1.87549C133.497 4.6578 133.378 7.47594 132.96 10.2344C132.852 10.927 132.733 11.6196 132.566 12.3002C132.482 12.6465 132.399 12.9809 132.303 13.3152L132.232 13.566L132.196 13.6854C132.196 13.6735 132.196 13.6496 132.184 13.6257C132.172 13.5899 132.1 13.5779 132.064 13.6018L132.243 13.4466C132.769 12.9809 133.294 12.5271 133.82 12.0733L134.632 11.4046C134.775 11.2972 134.894 11.1897 135.062 11.0703C135.3 10.9031 135.647 10.9389 135.85 11.1419C135.957 11.2255 136.029 11.4046 136.041 11.5002L136.089 11.7748C136.112 11.9539 136.136 12.133 136.136 12.3241C136.148 12.5032 136.148 12.6823 136.136 12.8615C136.136 13.0406 136.124 13.2197 136.101 13.3988C136.041 14.1153 135.874 14.8079 135.659 15.4885C135.217 16.8379 134.584 18.1037 133.844 19.2978C133.103 20.4919 132.255 21.6025 131.36 22.6891C130.906 23.2265 130.428 23.728 129.975 24.2534L128.518 25.7461L128.375 25.6028L129.772 24.0624C130.213 23.525 130.667 22.9996 131.097 22.4622C131.957 21.3756 132.769 20.2531 133.473 19.0709C134.166 17.8768 134.787 16.6468 135.205 15.3452C135.408 14.7004 135.563 14.0317 135.623 13.351C135.647 13.1839 135.647 13.0167 135.647 12.8495C135.659 12.6823 135.647 12.5152 135.635 12.348C135.635 12.1808 135.599 12.0136 135.587 11.8584L135.539 11.6196C135.527 11.5479 135.515 11.5479 135.503 11.524C135.468 11.4882 135.384 11.4763 135.336 11.5121L134.942 11.8106L134.142 12.4674C133.605 12.9092 133.079 13.363 132.566 13.8168L132.351 13.9959C132.172 14.1392 131.885 14.0675 131.778 13.8765C131.718 13.7809 131.706 13.6615 131.73 13.566L131.766 13.4346L131.837 13.1839C131.933 12.8495 132.017 12.5152 132.1 12.1808C132.267 11.5121 132.399 10.8314 132.53 10.1508C132.769 8.78948 132.912 7.41624 132.996 6.03105C133.079 4.64586 133.115 3.26068 133.008 1.87549H133.211Z" fill="#E28B6D"/>
<path d="M49.8368 94.1816C49.8368 94.1816 34.4564 88.1154 28.1753 99.7223C20.2821 114.315 32.1398 131.462 32.1398 131.462H53.0132L49.8368 94.1816Z" fill="#FBC343"/>
<path d="M34.779 98.9582C34.3849 99.3642 34.0506 99.818 33.752 100.296C33.4535 100.773 33.2027 101.287 32.9758 101.8C32.5221 102.839 32.1758 103.926 31.9489 105.036C31.4712 107.257 31.316 109.538 31.4235 111.807C31.519 114.076 31.9011 116.333 32.4743 118.53C33.0475 120.739 33.8595 122.877 34.8148 124.954L34.6357 125.038C34.373 124.524 34.0983 124.023 33.8714 123.498C33.752 123.235 33.6207 122.972 33.5132 122.709L33.1788 121.909C32.7609 120.835 32.3788 119.748 32.0564 118.637C31.4354 116.416 31.0294 114.124 30.9339 111.819C30.8384 109.514 31.0055 107.174 31.5429 104.929C31.8175 103.806 32.1877 102.696 32.6773 101.645C32.9281 101.12 33.2027 100.606 33.5371 100.128C33.8595 99.6508 34.2297 99.197 34.6596 98.791L34.779 98.9582Z" fill="#102048"/>
<path d="M89.5058 43.2759C94.545 46.3568 98.0319 44.5178 99.0588 41.1981C100.074 37.8785 103.8 25.364 88.24 27.3821C88.24 27.3821 69.1698 19.6919 61.0975 31.0361C53.9805 41.0429 60.5124 47.9688 49.6339 56.2561C42.0512 62.0476 33.4535 72.2096 50.5056 89.5961L69.0026 84.4972L89.5058 43.2759Z" fill="#AE5140"/>
<path d="M83.7619 57.7964C84.144 59.5518 88.216 64.1133 89.852 65.8209C94.7837 70.9915 95.8823 80.6878 81.8035 83.6492L73.8865 65.2L83.7619 57.7964Z" fill="#6F3428"/>
<path d="M84.4664 60.1014L82.7946 67.7677L80.2153 79.685L65.7783 76.64L69.1696 53.2471L83.8932 59.8387L84.4664 60.1014Z" fill="#F9B384"/>
<path d="M93.3508 44.9478C93.3508 44.9478 97.5183 49.6168 97.375 50.8109C97.2318 52.005 93.3508 54.1306 93.3508 54.1306V44.9478Z" fill="#E28B6D"/>
<path d="M84.4667 60.1013L82.8069 67.7676C78.3648 65.4032 75.1287 59.564 75.1287 59.564L83.9055 59.8506L84.4667 60.1013Z" fill="#E28B6D"/>
<path d="M94.3182 55.5752C93.7331 60.0174 92.2524 63.4326 89.0999 63.7311C80.3708 64.5789 67.8086 54.799 67.8086 54.799L68.4892 36.8991L77.9826 31.0479L93.351 33.9018C93.5301 35.9199 94.4735 42.1055 94.6287 48.3269C94.6884 50.8226 94.6167 53.3303 94.3182 55.5752Z" fill="#F9B384"/>
<path d="M95.7631 36.8993L93.8644 38.3562C83.989 30.6541 86.0429 41.7475 85.1234 45.306C84.2039 48.8645 79.5229 47.9211 75.8808 45.6284L75.2241 50.6079L64.2501 50.9542L63.6052 37.0426L74.5434 28.4927L94.7958 32.4452L95.7631 36.8993Z" fill="#AE5140"/>
<path d="M81.577 88.5334C86.9626 85.6436 85.4341 78.0967 83.3444 75.5174C81.2427 72.9381 72.3345 68.6034 71.2479 60.4714C70.6508 55.9457 75.2243 50.6079 75.2243 50.6079L65.9459 45.6284L56.4407 60.567L63.6174 86.2287L81.577 88.5334Z" fill="#AE5140"/>
<path d="M88.2993 129.958L43.0538 129.993C41.0835 101.024 48.296 86.2167 54.5413 78.9325C58.4699 74.359 64.4048 72.0902 70.3993 72.8186C75.6057 73.4634 80.1314 75.9353 84.7169 86.7183L63.2942 96.6773L77.0386 120.882C78.4238 123.318 80.418 125.348 82.8301 126.757L88.2993 129.958Z" fill="#F6821D"/>
<path d="M63.2944 96.6772C63.2944 96.6772 70.0293 123.629 72.525 127.163C75.1282 130.853 80.7048 129.934 90.4131 129.946L78.1374 102.588L63.2944 96.6772Z" fill="#DE781F"/>
<path d="M118.224 122.638L116.278 129.802L90.4131 129.97H88.2995L82.8423 126.781C80.4302 125.36 78.424 123.342 77.0508 120.906L63.3064 96.7012L84.729 86.7422C87.0337 92.1396 89.3384 99.6388 91.7625 110.028C92.0849 111.425 93.064 112.595 94.3776 113.18L118.224 122.638Z" fill="#F6821D"/>
<path d="M78.1376 47.5988C77.3614 43.288 72.2386 42.7148 71.3549 45.6285C70.4593 48.5421 70.6862 53.5575 77.1106 53.2589L78.1376 47.5988Z" fill="#F9B384"/>
<path d="M76.0835 47.9331L75.2835 47.0137C75.0208 46.7271 74.7461 46.4524 74.4595 46.2853C74.1729 46.1181 73.9341 46.0703 73.6714 46.2136C73.3967 46.3569 73.134 46.6554 72.8594 46.954L72.5967 46.8226C72.7161 46.4047 72.8952 45.9748 73.3132 45.6524C73.5162 45.4852 73.8147 45.3896 74.0893 45.3896C74.3759 45.4016 74.6386 45.4971 74.8536 45.6285C75.2835 45.8912 75.5701 46.2375 75.8089 46.6077C76.0477 46.9778 76.2268 47.36 76.3582 47.7779L76.0835 47.9331Z" fill="#E28B6D"/>
<path opacity="0.2" d="M94.0911 56.9965C93.8761 57.0442 89.7683 55.8621 89.7683 51.9931C89.7683 49.9272 91.5714 48.1719 93.6373 48.1719C93.9836 48.1719 94.306 48.2196 94.6165 48.3152C94.6881 50.8228 94.6284 54.5724 94.0911 56.9965Z" fill="#EE6F57"/>
<path d="M168.676 130.232H114.857L125.019 86.4434H178.839L168.676 130.232Z" fill="#06517C"/>
<path opacity="0.6" d="M168.676 130.232L178.838 86.4434C163.458 122.04 140.59 125.993 114.845 130.232" fill="#102048"/>
<path d="M145.367 111.874C147.009 112.563 149.004 111.538 149.822 109.586C150.641 107.634 149.974 105.493 148.331 104.804C146.689 104.116 144.695 105.14 143.876 107.093C143.057 109.045 143.725 111.186 145.367 111.874Z" fill="white"/>
<path d="M235.392 97.8473L235.225 102.301L234.496 122.243V122.267C234.437 123.772 234.043 125.229 233.362 126.542C232.681 127.844 231.714 129.002 230.52 129.934H208.094L161.261 130.089C160.425 130.089 159.565 128.142 160.807 127.187C163.541 125.05 167.828 122.697 170.802 120.786C172.45 119.736 174.408 119.282 176.342 119.533C179.567 119.951 184.212 121.575 190.003 119.879C191.006 119.58 192.021 119.354 193.048 119.198L211.904 116.297L219.319 115.15L219.522 102.588L219.594 98.7787C220.298 98.5877 221.027 98.4205 221.767 98.2772C225.648 97.501 230.09 97.2622 235.392 97.8473Z" fill="#F9B384"/>
<path opacity="0.6" d="M235.392 97.8473L235.225 102.301C232.49 101.334 221.898 98.325 219.582 98.7787C220.286 98.5877 221.014 98.4205 221.755 98.2772C225.648 97.501 230.09 97.2622 235.392 97.8473Z" fill="#E28B6D"/>
<path opacity="0.3" d="M234.484 122.243V122.267C234.425 123.772 234.031 125.229 233.35 126.542C232.669 127.844 231.702 129.002 230.508 129.933H223.689C224.884 123.378 229.851 121.348 234.484 122.243Z" fill="#EE6F57"/>
<path d="M216.453 115.437C217.253 115.114 218.089 114.84 218.949 114.744C219.809 114.613 220.693 114.613 221.564 114.708C222.436 114.804 223.296 115.007 224.108 115.305C224.932 115.604 225.696 116.01 226.4 116.547L226.233 116.798C225.481 116.452 224.693 116.177 223.905 115.95C223.117 115.723 222.305 115.556 221.481 115.473C220.669 115.377 219.845 115.341 219.021 115.401C218.197 115.437 217.373 115.58 216.549 115.735L216.453 115.437Z" fill="#E28B6D"/>
<path d="M272.231 129.981H0.435791V136H272.231V129.981Z" fill="#D3DFFF"/>
<path d="M0.436035 129.994H272.231" stroke="#102048" stroke-width="6" stroke-miterlimit="10"/>
<path d="M41.1076 23.8235C39.0179 12.5628 28.211 5.13538 16.9504 7.2251C5.6898 9.31482 -1.73767 20.1217 0.352053 31.3823C2.44178 42.6429 13.2486 50.0704 24.5092 47.9807C27.3274 47.4552 29.9067 46.3925 32.1517 44.8998L39.3164 48.0284L35.8654 41.7593C40.2001 37.1141 42.3614 30.5464 41.1076 23.8235Z" fill="#FDDABD"/>
<path d="M12.9738 34.8456V28.5406L12.6036 28.7197C12.2215 28.9107 11.8155 29.0063 11.3856 29.0063C9.86909 29.0063 8.6272 27.7644 8.6272 26.2478C8.6272 24.7313 9.86909 23.4894 11.3856 23.4894C11.8155 23.4894 12.2215 23.5849 12.6036 23.7641L12.9738 23.9432V17.6382H18.431C18.3474 17.9367 18.2996 18.2352 18.2996 18.5457C18.2996 20.3488 19.7684 21.8176 21.5715 21.8176C23.3747 21.8176 24.8434 20.3488 24.8434 18.5457C24.8434 18.2352 24.7957 17.9367 24.7121 17.6382H30.1692V23.155C29.823 23.0356 29.4647 22.9759 29.0945 22.9759C27.2914 22.9759 25.8226 24.4447 25.8226 26.2478C25.8226 28.051 27.2914 29.5197 29.0945 29.5197C29.4647 29.5197 29.823 29.46 30.1692 29.3406V34.8575H12.9738V34.8456Z" fill="white"/>
<path d="M29.9185 17.8887V22.8085C29.6558 22.7488 29.3812 22.713 29.0946 22.713C27.1481 22.713 25.5719 24.2893 25.5719 26.2357C25.5719 28.1821 27.1481 29.7584 29.0946 29.7584C29.3692 29.7584 29.6439 29.7225 29.9185 29.6628V34.5826H13.2246V28.9464V28.1224L12.4843 28.4926C12.138 28.6598 11.7678 28.7434 11.3857 28.7434C10.0005 28.7434 8.878 27.6209 8.878 26.2357C8.878 24.8505 10.0005 23.728 11.3857 23.728C11.7678 23.728 12.1499 23.8116 12.4962 23.9788L13.2246 24.337V23.525V17.8887H18.1086C18.0728 18.1037 18.0489 18.3186 18.0489 18.5455C18.0489 20.4919 19.6251 22.0682 21.5716 22.0682C23.518 22.0682 25.0942 20.4919 25.0942 18.5455C25.0942 18.3186 25.0704 18.1037 25.0345 17.8887H29.9185V17.8887ZM30.432 17.3872H24.3539C24.5091 17.7454 24.5927 18.1395 24.5927 18.5455C24.5927 20.2053 23.2433 21.5667 21.5716 21.5667C19.9117 21.5667 18.5504 20.2173 18.5504 18.5455C18.5504 18.1395 18.634 17.7454 18.7893 17.3872H12.7111V23.537C12.3051 23.3459 11.8633 23.2265 11.3857 23.2265C9.72583 23.2265 8.37646 24.5759 8.37646 26.2476C8.37646 27.9075 9.72583 29.2568 11.3857 29.2568C11.8633 29.2568 12.3171 29.1494 12.7111 28.9464V35.0961H30.4201V28.9464C30.026 29.1494 29.5722 29.2568 29.0946 29.2568C27.4228 29.2568 26.0734 27.9075 26.0734 26.2476C26.0734 24.5759 27.4228 23.2265 29.0946 23.2265C29.5722 23.2265 30.026 23.334 30.4201 23.537V17.3872H30.432Z" fill="#8CBFBE"/>
<path d="M238.282 24.0742C238.975 12.6464 248.79 3.94124 260.218 4.63384C271.646 5.32643 280.351 15.1422 279.659 26.57C278.966 37.9977 269.15 46.7029 257.723 46.0103C254.869 45.8432 252.17 45.0909 249.758 43.8967L243.023 47.8732L245.674 41.2219C240.814 37.1499 237.876 30.9046 238.282 24.0742Z" fill="#BFE3F9"/>
<path d="M262.499 34.0692C261.962 32.9347 260.828 32.2183 259.562 32.2183C258.296 32.2183 257.162 32.9347 256.636 34.0692H250.952V27.7642L250.606 27.9313C250.224 28.1224 249.818 28.2179 249.388 28.2179C247.859 28.2179 246.605 26.976 246.605 25.4476C246.605 23.9191 247.847 22.6652 249.388 22.6652C249.818 22.6652 250.236 22.7608 250.606 22.9518L250.952 23.119V16.826H257.066L256.959 16.5036C256.851 16.205 256.803 15.8945 256.803 15.5841C256.803 14.0556 258.045 12.8018 259.574 12.8018C261.102 12.8018 262.356 14.0436 262.356 15.5841C262.356 15.8945 262.308 16.205 262.201 16.5036L262.093 16.826H268.207V34.0692H262.499Z" fill="white"/>
<path d="M259.561 13.0646C260.958 13.0646 262.105 14.199 262.105 15.6081C262.105 15.8947 262.057 16.1812 261.962 16.444L261.735 17.0768H262.403H267.932V33.8304H262.642C262.045 32.696 260.863 31.9795 259.561 31.9795C258.26 31.9795 257.078 32.696 256.48 33.8304H251.179V28.1583V27.3822L250.486 27.7285C250.14 27.9076 249.758 27.9912 249.375 27.9912C247.978 27.9912 246.832 26.8567 246.832 25.4596C246.832 24.0625 247.966 22.9161 249.375 22.9161C249.769 22.9161 250.152 22.9997 250.486 23.1788L251.179 23.5251V22.7489V17.0768H256.707H257.376L257.149 16.444C257.054 16.1693 257.006 15.8947 257.006 15.6081C257.03 14.199 258.164 13.0646 259.561 13.0646ZM259.561 12.5869C257.901 12.5869 256.552 13.9363 256.552 15.6081C256.552 15.9544 256.612 16.2887 256.719 16.5992H250.713V22.7489C250.319 22.5459 249.865 22.4385 249.387 22.4385C247.716 22.4385 246.366 23.7878 246.366 25.4596C246.366 27.1194 247.716 28.4688 249.387 28.4688C249.865 28.4688 250.319 28.3613 250.713 28.1583V34.3081H256.791C257.245 33.2214 258.319 32.4572 259.561 32.4572C260.815 32.4572 261.89 33.2214 262.344 34.3081H268.422V16.5992H262.415C262.523 16.2887 262.582 15.9544 262.582 15.6081C262.582 13.9363 261.233 12.5869 259.561 12.5869Z" fill="#708CD5"/>
</svg>
