<svg width="21" height="16" viewBox="0 0 21 16" fill="none" xmlns="http://www.w3.org/2000/svg">
<path fill-rule="evenodd" clip-rule="evenodd" d="M4.77368 2.59077e-05H16.2263C17.3588 -0.00277035 18.4459 0.445148 19.2476 1.24495C20.0494 2.04475 20.5 3.1307 20.5 4.26318V11.5263C20.5 12.6588 20.0494 13.7448 19.2476 14.5446C18.4459 15.3444 17.3588 15.7923 16.2263 15.7895H4.77368C3.6412 15.7923 2.55414 15.3444 1.75237 14.5446C0.950594 13.7448 0.499997 12.6588 0.5 11.5263V4.26318C0.499997 3.1307 0.950594 2.04475 1.75237 1.24495C2.55414 0.445148 3.6412 -0.00277035 4.77368 2.59077e-05ZM16.2263 14.2106C17.6903 14.211 18.8867 13.0425 18.9211 11.579V4.26318C18.9153 2.77903 17.7105 1.57896 16.2263 1.57897H4.77368C3.28952 1.57896 2.08474 2.77903 2.07895 4.26318V11.5263C2.08474 13.0105 3.28952 14.2106 4.77368 14.2106H16.2263Z" fill="#64748B"/>
<path fill-rule="evenodd" clip-rule="evenodd" d="M6.21579 8.18904C6.21579 5.86363 8.10091 3.97852 10.4263 3.97852C12.7517 3.97852 14.6368 5.86363 14.6368 8.18904C14.6368 10.5145 12.7517 12.3996 10.4263 12.3996C8.10091 12.3996 6.21579 10.5145 6.21579 8.18904ZM7.79474 8.18904C7.79474 9.64242 8.97294 10.8206 10.4263 10.8206C11.8797 10.8206 13.0579 9.64242 13.0579 8.18904C13.0579 6.73566 11.8797 5.55746 10.4263 5.55746C8.97294 5.55746 7.79474 6.73566 7.79474 8.18904Z" fill="#64748B"/>
<rect x="14.6368" y="2.91602" width="2.10526" height="2.11579" rx="0.5" fill="#64748B"/>
</svg>
