<svg width="25" height="24" viewBox="0 0 25 24" fill="none" xmlns="http://www.w3.org/2000/svg">
<path d="M22.8596 8.27L22.5696 5.5C22.1496 2.48 20.7796 1.25 17.8497 1.25H15.4896H14.0097H10.9697H9.48965H7.08965C4.14965 1.25 2.78965 2.48 2.35965 5.53L2.08965 8.28C1.98965 9.35 2.27965 10.39 2.90965 11.2C3.66965 12.19 4.83965 12.75 6.13965 12.75C7.39965 12.75 8.60965 12.12 9.36965 11.11C10.0496 12.12 11.2097 12.75 12.4997 12.75C13.7896 12.75 14.9197 12.15 15.6096 11.15C16.3797 12.14 17.5696 12.75 18.8096 12.75C20.1396 12.75 21.3396 12.16 22.0896 11.12C22.6896 10.32 22.9597 9.31 22.8596 8.27Z" fill="#00377B"/>
<path d="M11.8491 16.6602C10.5791 16.7902 9.61914 17.8702 9.61914 19.1502V21.8902C9.61914 22.1602 9.83914 22.3802 10.1091 22.3802H14.8791C15.1491 22.3802 15.3691 22.1602 15.3691 21.8902V19.5002C15.3791 17.4102 14.1491 16.4202 11.8491 16.6602Z" fill="#00377B"/>
<path d="M21.8709 14.4001V17.3801C21.8709 20.1401 19.6309 22.3801 16.8709 22.3801C16.6009 22.3801 16.3809 22.1601 16.3809 21.8901V19.5001C16.3809 18.2201 15.9909 17.2201 15.2309 16.5401C14.5609 15.9301 13.6509 15.6301 12.5209 15.6301C12.2709 15.6301 12.0209 15.6401 11.7509 15.6701C9.97086 15.8501 8.62086 17.3501 8.62086 19.1501V21.8901C8.62086 22.1601 8.40086 22.3801 8.13086 22.3801C5.37086 22.3801 3.13086 20.1401 3.13086 17.3801V14.4201C3.13086 13.7201 3.82086 13.2501 4.47086 13.4801C4.74086 13.5701 5.01086 13.6401 5.29086 13.6801C5.41086 13.7001 5.54086 13.7201 5.66086 13.7201C5.82086 13.7401 5.98086 13.7501 6.14086 13.7501C7.30086 13.7501 8.44086 13.3201 9.34086 12.5801C10.2009 13.3201 11.3209 13.7501 12.5009 13.7501C13.6909 13.7501 14.7909 13.3401 15.6509 12.6001C16.5509 13.3301 17.6709 13.7501 18.8109 13.7501C18.9909 13.7501 19.1709 13.7401 19.3409 13.7201C19.4609 13.7101 19.5709 13.7001 19.6809 13.6801C19.9909 13.6401 20.2709 13.5501 20.5509 13.4601C21.2009 13.2401 21.8709 13.7201 21.8709 14.4001Z" fill="#00377B"/>
</svg>
