<svg width="24" height="24" viewBox="0 0 24 24" fill="none" xmlns="http://www.w3.org/2000/svg">
<path d="M15.3899 5.2093L16.7999 8.0293C16.9899 8.4193 17.4999 8.7893 17.9299 8.8693L20.4799 9.2893C22.1099 9.5593 22.4899 10.7393 21.3199 11.9193L19.3299 13.9093C18.9999 14.2393 18.8099 14.8893 18.9199 15.3593L19.4899 17.8193C19.9399 19.7593 18.8999 20.5193 17.1899 19.4993L14.7999 18.0793C14.3699 17.8193 13.6499 17.8193 13.2199 18.0793L10.8299 19.4993C9.11994 20.5093 8.07994 19.7593 8.52994 17.8193L9.09994 15.3593C9.18994 14.8793 8.99994 14.2293 8.66994 13.8993L6.67994 11.9093C5.50994 10.7393 5.88994 9.5593 7.51994 9.2793L10.0699 8.8593C10.4999 8.7893 11.0099 8.4093 11.1999 8.0193L12.6099 5.1993C13.3799 3.6793 14.6199 3.6793 15.3899 5.2093Z" fill="#F68632"/>
<path d="M8 5.75H2C1.59 5.75 1.25 5.41 1.25 5C1.25 4.59 1.59 4.25 2 4.25H8C8.41 4.25 8.75 4.59 8.75 5C8.75 5.41 8.41 5.75 8 5.75Z" fill="#F68632"/>
<path d="M5 19.75H2C1.59 19.75 1.25 19.41 1.25 19C1.25 18.59 1.59 18.25 2 18.25H5C5.41 18.25 5.75 18.59 5.75 19C5.75 19.41 5.41 19.75 5 19.75Z" fill="#F68632"/>
<path d="M3 12.75H2C1.59 12.75 1.25 12.41 1.25 12C1.25 11.59 1.59 11.25 2 11.25H3C3.41 11.25 3.75 11.59 3.75 12C3.75 12.41 3.41 12.75 3 12.75Z" fill="#F68632"/>
</svg>
