<svg width="25" height="24" viewBox="0 0 25 24" fill="none" xmlns="http://www.w3.org/2000/svg">
<path d="M20.54 6.81969L14.78 2.78969C13.21 1.68969 10.8 1.74969 9.28999 2.91969L4.27999 6.82969C3.27999 7.60969 2.48999 9.20969 2.48999 10.4697V17.3697C2.48999 19.9197 4.55999 21.9997 7.10999 21.9997H17.89C20.44 21.9997 22.51 19.9297 22.51 17.3797V10.5997C22.51 9.24969 21.64 7.58969 20.54 6.81969ZM13.25 17.9997C13.25 18.4097 12.91 18.7497 12.5 18.7497C12.09 18.7497 11.75 18.4097 11.75 17.9997V14.9997C11.75 14.5897 12.09 14.2497 12.5 14.2497C12.91 14.2497 13.25 14.5897 13.25 14.9997V17.9997Z" fill="#00377B"/>
</svg>
