<svg width="25" height="24" viewBox="0 0 25 24" fill="none" xmlns="http://www.w3.org/2000/svg">
<path d="M15.1998 22.75H9.79977C4.85977 22.75 2.75977 20.64 2.75977 15.71V11.22C2.75977 10.81 3.09977 10.47 3.50977 10.47C3.91977 10.47 4.25977 10.81 4.25977 11.22V15.71C4.25977 19.8 5.70977 21.25 9.79977 21.25H15.1898C19.2798 21.25 20.7298 19.8 20.7298 15.71V11.22C20.7298 10.81 21.0698 10.47 21.4798 10.47C21.8898 10.47 22.2298 10.81 22.2298 11.22V15.71C22.2398 20.64 20.1298 22.75 15.1998 22.75Z" fill="#64748B"/>
<path d="M12.499 12.75C11.399 12.75 10.399 12.32 9.68902 11.53C8.97902 10.74 8.64902 9.71 8.75902 8.61L9.42903 1.93C9.46903 1.55 9.78903 1.25 10.179 1.25H14.849C15.239 1.25 15.559 1.54 15.599 1.93L16.269 8.61C16.379 9.71 16.049 10.74 15.339 11.53C14.599 12.32 13.599 12.75 12.499 12.75ZM10.849 2.75L10.249 8.76C10.179 9.43 10.379 10.06 10.799 10.52C11.649 11.46 13.349 11.46 14.199 10.52C14.619 10.05 14.819 9.42 14.749 8.76L14.149 2.75H10.849Z" fill="#64748B"/>
<path d="M18.81 12.75C16.78 12.75 14.97 11.11 14.76 9.09L14.06 2.08C14.04 1.87 14.11 1.66 14.25 1.5C14.39 1.34 14.59 1.25 14.81 1.25H17.86C20.8 1.25 22.17 2.48 22.58 5.5L22.86 8.28C22.98 9.46 22.62 10.58 21.85 11.43C21.08 12.28 20 12.75 18.81 12.75ZM15.64 2.75L16.26 8.94C16.39 10.19 17.55 11.25 18.81 11.25C19.57 11.25 20.25 10.96 20.74 10.43C21.22 9.9 21.44 9.19 21.37 8.43L21.09 5.68C20.78 3.42 20.05 2.75 17.86 2.75H15.64Z" fill="#64748B"/>
<path d="M6.13904 12.75C4.94904 12.75 3.86904 12.28 3.09904 11.43C2.32904 10.58 1.96904 9.46 2.08904 8.28L2.35904 5.53C2.77904 2.48 4.14904 1.25 7.08905 1.25H10.139C10.349 1.25 10.549 1.34 10.699 1.5C10.849 1.66 10.909 1.87 10.889 2.08L10.189 9.09C9.97904 11.11 8.16904 12.75 6.13904 12.75ZM7.08905 2.75C4.89904 2.75 4.16904 3.41 3.84904 5.7L3.57904 8.43C3.49904 9.19 3.72904 9.9 4.20904 10.43C4.68904 10.96 5.36904 11.25 6.13904 11.25C7.39904 11.25 8.56904 10.19 8.68904 8.94L9.30905 2.75H7.08905Z" fill="#64748B"/>
<path d="M15 22.75H10C9.59 22.75 9.25 22.41 9.25 22V19.5C9.25 17.4 10.4 16.25 12.5 16.25C14.6 16.25 15.75 17.4 15.75 19.5V22C15.75 22.41 15.41 22.75 15 22.75ZM10.75 21.25H14.25V19.5C14.25 18.24 13.76 17.75 12.5 17.75C11.24 17.75 10.75 18.24 10.75 19.5V21.25Z" fill="#64748B"/>
</svg>
