<svg width="272" height="181" viewBox="0 0 272 181" fill="none" xmlns="http://www.w3.org/2000/svg">
<path d="M79.7312 44.2541L39.0356 71.4258L79.1222 131.244L119.818 104.072L79.7312 44.2541Z" fill="#F5F5F5"/>
<path d="M98.7904 101.249L98.3189 104.072L78.1184 101.176L78.5536 98.3164L98.7904 101.249Z" fill="#E0E0E0"/>
<path d="M88.5995 91.0391L91.5008 91.4735L88.3094 111.347L85.408 110.949L88.5995 91.0391Z" fill="#E0E0E0"/>
<path d="M69.9947 65.7738C70.0309 65.81 65.9328 68.5974 60.8917 71.964C55.8144 75.3306 51.7163 78.0456 51.68 78.0094C51.6437 77.9732 55.7419 75.1858 60.7829 71.8192C65.824 68.4526 69.9584 65.7376 69.9947 65.7738Z" fill="#E0E0E0"/>
<path d="M84.9365 62.0432C84.9728 62.0794 78.1909 66.6768 69.7771 72.2516C61.3995 77.8626 54.5451 82.3514 54.5088 82.3152C54.4725 82.279 61.2544 77.6816 69.6683 72.1068C78.0821 66.4958 84.9003 62.007 84.9365 62.0432Z" fill="#E0E0E0"/>
<path d="M87.9467 66.5321C87.9829 66.5683 81.2011 71.1657 72.7872 76.7405C64.4096 82.3515 57.5552 86.8403 57.5189 86.8041C57.4827 86.7679 64.2645 82.1705 72.6784 76.5957C81.0923 70.9847 87.9104 66.4597 87.9467 66.5321Z" fill="#E0E0E0"/>
<path d="M90.9568 70.9846C90.9931 71.0208 84.2112 75.6182 75.7973 81.193C67.4197 86.804 60.5653 91.2928 60.5291 91.2566C60.4928 91.2204 67.2747 86.623 75.6885 81.0482C84.1024 75.4734 90.9205 70.9484 90.9568 70.9846Z" fill="#E0E0E0"/>
<path d="M93.9306 75.4729C93.9669 75.5091 87.185 80.1065 78.7712 85.6813C70.3936 91.2923 63.5392 95.7811 63.5029 95.7449C63.4666 95.7087 70.2485 91.1113 78.6624 85.5365C87.0762 79.9255 93.8944 75.4367 93.9306 75.4729Z" fill="#E0E0E0"/>
<path d="M215.825 84.3164L181.641 107.141L215.295 157.36L249.48 134.536L215.825 84.3164Z" fill="#F5F5F5"/>
<path d="M231.817 132.204L231.418 134.593L214.445 132.131L214.844 129.742L231.817 132.204Z" fill="#E0E0E0"/>
<path d="M223.258 123.66L225.687 123.986L223.004 140.71L220.574 140.348L223.258 123.66Z" fill="#E0E0E0"/>
<path d="M199.96 107.642C204.206 104.807 207.62 102.469 207.587 102.419C207.553 102.369 204.085 104.627 199.839 107.461C195.594 110.296 192.18 112.634 192.213 112.684C192.246 112.734 195.715 110.476 199.96 107.642Z" fill="#E0E0E0"/>
<path d="M220.175 99.2581C220.211 99.2943 214.517 103.168 207.482 107.874C200.446 112.58 194.679 116.344 194.679 116.308C194.643 116.272 200.337 112.399 207.409 107.693C214.409 103.023 220.139 99.2219 220.175 99.2581Z" fill="#E0E0E0"/>
<path d="M222.714 103.024C222.75 103.06 217.056 106.933 210.02 111.639C202.984 116.345 197.218 120.11 197.218 120.074C197.182 120.038 202.876 116.164 209.948 111.458C216.947 106.788 222.677 102.987 222.714 103.024Z" fill="#E0E0E0"/>
<path d="M225.216 106.789C225.252 106.826 219.558 110.699 212.523 115.405C205.487 120.111 199.721 123.876 199.721 123.84C199.684 123.803 205.378 119.93 212.45 115.224C219.45 110.518 225.18 106.753 225.216 106.789Z" fill="#E0E0E0"/>
<path d="M227.755 110.555C227.791 110.591 222.097 114.465 215.061 119.171C208.026 123.877 202.259 127.641 202.259 127.605C202.223 127.569 207.917 123.696 214.989 118.99C221.988 114.284 227.718 110.519 227.755 110.555Z" fill="#E0E0E0"/>
<path d="M161.744 46.4566L124.456 26.5508L95.0893 81.3594L132.378 101.265L161.744 46.4566Z" fill="#F5F5F5"/>
<path d="M125.99 84.1265L123.633 84.9229L117.613 68.3433L120.006 67.5469L125.99 84.1265Z" fill="#E0E0E0"/>
<path d="M129.617 72.2148L130.487 74.604L113.986 80.2512L113.152 77.862L129.617 72.2148Z" fill="#E0E0E0"/>
<path d="M132.903 43.3909C137.531 45.8612 141.305 47.8209 141.333 47.768C141.361 47.7151 137.633 45.6697 133.006 43.1994C128.378 40.7291 124.604 38.7694 124.576 38.8223C124.547 38.8752 128.276 40.9207 132.903 43.3909Z" fill="#E0E0E0"/>
<path d="M150.289 57.6294C150.253 57.7018 144.015 54.4076 136.326 50.2808C128.638 46.1902 122.436 42.7874 122.436 42.7512C122.473 42.6788 128.71 45.973 136.399 50.0998C144.087 54.2266 150.325 57.5932 150.289 57.6294Z" fill="#E0E0E0"/>
<path d="M148.077 61.7544C148.041 61.8268 141.803 58.5326 134.114 54.4058C126.426 50.3152 120.224 46.9124 120.224 46.8762C120.26 46.8038 126.498 50.098 134.187 54.2248C141.911 58.3154 148.113 61.682 148.077 61.7544Z" fill="#E0E0E0"/>
<path d="M145.901 65.8481C145.865 65.9205 139.627 62.6263 131.938 58.4995C124.25 54.4089 118.048 51.0061 118.048 50.9699C118.084 50.8975 124.322 54.1917 132.011 58.3185C139.699 62.4091 145.937 65.7757 145.901 65.8481Z" fill="#E0E0E0"/>
<path d="M143.688 69.938C143.652 70.0104 137.414 66.7162 129.726 62.5894C122.037 58.4988 115.836 55.096 115.836 55.0598C115.872 54.9874 122.11 58.2816 129.798 62.4084C137.523 66.5352 143.725 69.9018 143.688 69.938Z" fill="#E0E0E0"/>
<path d="M240.702 159.206C240.702 159.242 193.809 159.315 136 159.315C78.1547 159.315 31.2982 159.279 31.2982 159.206C31.2982 159.17 78.1547 159.098 136 159.098C193.809 159.134 240.702 159.17 240.702 159.206Z" fill="#263238"/>
<path d="M42.9035 136.547C44.1365 136.583 45.2971 137.271 46.0949 138.176C46.8928 139.081 47.4005 140.239 47.727 141.434C48.3435 143.714 47.9808 146.429 47.2917 148.71C44.8256 147.841 43.2661 145.199 42.5771 143.787C41.4891 141.579 40.8363 136.945 42.9035 136.547Z" fill="#00377B"/>
<path d="M50.8458 151.499C50.048 150.377 50.048 148.82 50.6645 147.589C51.281 146.358 52.4778 145.49 53.7834 145.091C54.4 144.91 55.089 144.838 55.633 145.164C56.1408 145.49 56.3221 146.141 56.2858 146.72C56.2133 147.3 55.9232 147.843 55.5605 148.313C54.3637 149.942 52.8768 151.318 50.8458 151.499Z" fill="#00377B"/>
<path d="M51.136 159.135C51.136 159.135 51.0997 158.954 51.0272 158.664C50.9547 158.338 50.8821 157.904 50.7733 157.361C50.592 156.275 50.2656 154.718 50.5195 152.981C50.7371 151.279 51.4261 149.795 52.1515 148.926C52.5141 148.492 52.8405 148.166 53.0944 147.985C53.2032 147.876 53.312 147.804 53.3845 147.768C53.4571 147.732 53.4933 147.695 53.4933 147.695C53.5296 147.732 52.9131 148.094 52.224 148.999C51.5349 149.867 50.8821 151.315 50.6645 153.017C50.4469 154.718 50.7371 156.239 50.8821 157.361C50.9547 157.904 51.0272 158.374 51.0997 158.664C51.136 158.954 51.136 159.135 51.136 159.135Z" fill="#263238"/>
<path d="M43.7013 140.023C43.7013 140.023 43.7376 140.096 43.8101 140.204C43.8826 140.349 43.9552 140.53 44.064 140.747C44.2816 141.218 44.608 141.942 44.9706 142.811C45.7322 144.548 46.7114 146.938 47.7632 149.653C48.8149 152.331 49.6853 154.793 50.3018 156.567C50.6282 157.472 50.8458 158.196 51.0272 158.703C51.0997 158.956 51.1722 159.137 51.2085 159.282C51.2448 159.427 51.281 159.499 51.2448 159.499C51.2448 159.499 51.2085 159.427 51.1722 159.318C51.0997 159.173 51.0634 158.992 50.9546 158.739C50.7733 158.232 50.5194 157.508 50.193 156.639C49.5402 154.865 48.6336 152.44 47.5818 149.725C46.5301 147.046 45.5509 144.621 44.8256 142.883C44.4629 142.014 44.1728 141.327 43.9914 140.82C43.8826 140.603 43.8101 140.385 43.7738 140.241C43.7013 140.096 43.7013 140.023 43.7013 140.023Z" fill="#263238"/>
<path d="M48.1984 154.066C46.7477 151.568 43.9915 149.867 41.1264 149.686C40.4011 149.65 39.4944 149.758 39.168 150.41C38.8416 151.061 39.2768 151.858 39.7845 152.401C41.8517 154.645 45.3696 155.442 48.2346 154.283" fill="#00377B"/>
<path d="M42.2144 151.641C42.2144 151.641 42.3957 151.641 42.6858 151.641C42.8309 151.641 43.0122 151.677 43.2298 151.713C43.4474 151.749 43.665 151.785 43.9189 151.858C44.1728 151.93 44.4629 151.966 44.753 152.075C45.0432 152.147 45.3696 152.292 45.696 152.437C46.3488 152.727 47.0016 153.089 47.6544 153.595C48.3072 154.102 48.8512 154.645 49.2864 155.188C49.504 155.478 49.6853 155.731 49.8666 156.021C50.048 156.274 50.1568 156.528 50.3018 156.781C50.4469 156.998 50.5194 157.252 50.592 157.433C50.6645 157.614 50.737 157.795 50.7733 157.939C50.8458 158.229 50.9184 158.374 50.8821 158.374C50.8458 158.374 50.6645 157.758 50.193 156.817C50.048 156.6 49.9392 156.347 49.7578 156.093C49.6128 155.84 49.3952 155.586 49.1776 155.297C48.7424 154.754 48.1984 154.211 47.5818 153.74C46.929 153.27 46.2762 152.871 45.6597 152.582C45.3333 152.437 45.0432 152.328 44.753 152.22C44.4629 152.111 44.1728 152.039 43.9189 151.966C42.8672 151.713 42.2144 151.677 42.2144 151.641Z" fill="#263238"/>
<path d="M108.437 84.888L95.5989 150.7L93.9307 159.315L179.52 158.917C183.364 158.881 186.773 155.478 188.006 150.446L203.202 88.327C204.145 84.4898 202.078 80.5078 199.177 80.5078L112.535 80.6164C110.613 80.544 108.909 82.3178 108.437 84.888Z" fill="#F68632"/>
<g opacity="0.5">
<path d="M108.437 84.888L95.5989 150.7L93.9307 159.315L179.52 158.917C183.364 158.881 186.773 155.478 188.006 150.446L203.202 88.327C204.145 84.4898 202.078 80.5078 199.177 80.5078L112.535 80.6164C110.613 80.544 108.909 82.3178 108.437 84.888Z" fill="black"/>
</g>
<path d="M171.324 146.249L162.257 73.3417C161.894 70.3371 159.501 68.1289 156.672 68.1289L136.798 68.2013C135.311 68.2013 133.933 68.8167 132.881 69.9389L123.452 79.9663L68.1813 80.2559C64.8085 80.2559 62.1973 83.4777 62.6688 87.0615L71.0827 154.466C71.4453 157.434 73.8389 159.679 76.6315 159.679L172.956 159.498C183.691 159.715 184.706 156.566 184.706 156.566C172.412 159.208 171.324 146.249 171.324 146.249Z" fill="#F68632"/>
<g opacity="0.5">
<path d="M129.762 131.66L126.534 135.135L101.51 112.691L104.738 109.18L129.762 131.66Z" fill="#00377B"/>
<path d="M125.156 108.418L128.747 111.64L106.116 135.93L102.526 132.708L125.156 108.418Z" fill="#00377B"/>
</g>
</svg>
