<svg width="16" height="17" viewBox="0 0 16 17" fill="none" xmlns="http://www.w3.org/2000/svg">
<path d="M8.00065 9.9463C6.58065 9.9463 5.42065 8.79297 5.42065 7.3663C5.42065 5.93964 6.58065 4.79297 8.00065 4.79297C9.42065 4.79297 10.5807 5.9463 10.5807 7.37297C10.5807 8.79964 9.42065 9.9463 8.00065 9.9463ZM8.00065 5.79297C7.13399 5.79297 6.42065 6.49964 6.42065 7.37297C6.42065 8.2463 7.12732 8.95297 8.00065 8.95297C8.87399 8.95297 9.58065 8.2463 9.58065 7.37297C9.58065 6.49964 8.86732 5.79297 8.00065 5.79297Z" fill="#00377B"/>
<path d="M7.99987 15.674C7.01321 15.674 6.01987 15.3007 5.24654 14.5607C3.27987 12.6673 1.10654 9.64732 1.92654 6.05398C2.66654 2.79398 5.51321 1.33398 7.99987 1.33398C7.99987 1.33398 7.99987 1.33398 8.00654 1.33398C10.4932 1.33398 13.3399 2.79398 14.0799 6.06065C14.8932 9.65398 12.7199 12.6673 10.7532 14.5607C9.97987 15.3007 8.98654 15.674 7.99987 15.674ZM7.99987 2.33398C6.05987 2.33398 3.56654 3.36732 2.90654 6.27398C2.18654 9.41398 4.15987 12.1207 5.94654 13.834C7.09987 14.9473 8.90654 14.9473 10.0599 13.834C11.8399 12.1207 13.8132 9.41398 13.1065 6.27398C12.4399 3.36732 9.93987 2.33398 7.99987 2.33398Z" fill="#00377B"/>
</svg>
