<svg width="12" height="14" viewBox="0 0 12 14" fill="none" xmlns="http://www.w3.org/2000/svg">
<path d="M11.7467 4.63268C11.0467 1.55268 8.36 0.166016 6 0.166016C6 0.166016 6 0.166016 5.99334 0.166016C3.64 0.166016 0.946669 1.54602 0.246669 4.62602C-0.533331 8.06601 1.57334 10.9793 3.48 12.8127C4.18667 13.4927 5.09334 13.8327 6 13.8327C6.90667 13.8327 7.81334 13.4927 8.51334 12.8127C10.42 10.9793 12.5267 8.07268 11.7467 4.63268ZM6 7.97268C4.84 7.97268 3.9 7.03268 3.9 5.87268C3.9 4.71268 4.84 3.77268 6 3.77268C7.16 3.77268 8.1 4.71268 8.1 5.87268C8.1 7.03268 7.16 7.97268 6 7.97268Z" fill="#00377B"/>
</svg>
