<svg width="24" height="24" viewBox="0 0 24 24" fill="none" xmlns="http://www.w3.org/2000/svg">
<path d="M23.2501 6.78687V5.21487H21.4111V1.96962C21.4082 1.65925 21.2824 1.3627 21.0611 1.14504C20.8398 0.927376 20.5412 0.806389 20.2308 0.808624H3.76938C3.459 0.806389 3.16042 0.927376 2.93914 1.14504C2.71787 1.3627 2.59198 1.65925 2.58911 1.96962V22.1259C2.59198 22.4362 2.71787 22.7328 2.93914 22.9505C3.16042 23.1681 3.459 23.2891 3.76938 23.2869H20.2308C20.5412 23.2891 20.8398 23.1681 21.0611 22.9505C21.2824 22.7328 21.4082 22.4362 21.4111 22.1259V18.7869H23.2501V17.2149H21.4111V12.7869H23.2501V11.2149H21.4111V6.78687H23.2501ZM19.8391 11.2149H17.6251V12.7869H19.8391V17.2149H17.6251V18.7869H19.8391V21.7149H4.16111V2.38062H19.8391V5.21487H17.6251V6.78687H19.8391V11.2149Z" fill="#00377B"/>
<path d="M14.7018 14.3871L13.3544 13.5112L14.0022 11.9337V9.45534C14.0022 8.63839 13.6777 7.85489 13.1 7.27721C12.5223 6.69954 11.7388 6.375 10.9219 6.375C10.1049 6.375 9.32142 6.69954 8.74375 7.27721C8.16607 7.85489 7.84154 8.63839 7.84154 9.45534V11.919L8.43783 13.5448L7.14193 14.3871C6.81964 14.5957 6.55482 14.8818 6.37171 15.2193C6.18859 15.5567 6.09303 15.9346 6.09375 16.3185V18.75H15.75V16.3185C15.7507 15.9346 15.6552 15.5567 15.472 15.2193C15.2889 14.8818 15.0241 14.5957 14.7018 14.3871ZM14.25 17.25H7.59375V16.3185C7.59351 16.1846 7.62684 16.0528 7.69072 15.9351C7.75459 15.8174 7.84696 15.7176 7.95938 15.6448L10.2578 14.1508L9.34154 11.6524V9.45534C9.34154 9.03621 9.50804 8.63424 9.80441 8.33787C10.1008 8.0415 10.5027 7.875 10.9219 7.875C11.341 7.875 11.743 8.0415 12.0394 8.33787C12.3357 8.63424 12.5022 9.03621 12.5022 9.45534V11.6377L11.4944 14.0915L13.8844 15.6448C13.9968 15.7176 14.0892 15.8174 14.153 15.9351C14.2169 16.0528 14.2503 16.1846 14.25 16.3185V17.25Z" fill="#00377B"/>
</svg>
