<svg width="280" height="187" viewBox="0 0 280 187" fill="none" xmlns="http://www.w3.org/2000/svg">
<path d="M10.5622 115.698C9.05759 145.742 29.1189 161.17 58.0526 164.836C90.509 168.944 123.849 163.403 156.162 160.585C168.342 159.522 180.558 158.722 192.786 158.794C204.309 158.854 216.788 162.03 228.108 160.275C256.409 155.88 271.001 126.636 266.583 101.129C263.86 85.3073 253.591 70.2016 235.416 71.2046C222.639 71.9092 211.319 77.4619 199.127 80.4711C183.066 84.4356 165.99 83.7907 150.227 78.644C142.358 76.0647 134.859 72.4107 127.193 69.2104C111.944 62.8457 95.8109 58.2484 79.3797 57.9976C62.9605 57.7349 46.1711 62.0576 32.8924 72.1599C18.8972 82.8116 11.3981 98.9323 10.5622 115.698Z" stroke="#F0F0F0" stroke-width="4.2643" stroke-miterlimit="10"/>
<path d="M261.353 124.762C262.845 154.448 242.891 169.685 214.101 173.303C181.812 177.364 148.651 171.882 116.493 169.1C104.385 168.049 92.2285 167.261 80.0603 167.333C68.5967 167.393 56.1778 170.533 44.9171 168.802C16.7596 164.455 2.25098 135.569 6.63343 110.373C8.68733 98.5989 13.2131 85.5829 23.387 78.4301C33.6207 71.2414 45.5261 73.0804 56.739 76.197C77.1705 81.8811 99.4291 92.5566 121.079 88.3771C133.486 85.9889 144.292 78.9555 156.078 74.7521C167.829 70.5608 180.379 67.9456 192.87 67.7546C209.205 67.5038 225.911 71.7668 239.118 81.7497C253.054 92.27 260.517 108.2 261.353 124.762Z" fill="#F0F0F0"/>
<path d="M240.682 149.659C240.682 149.659 229.433 157.6 216.5 150.721L228.585 143.975L240.682 149.659Z" fill="#05659D"/>
<path d="M157.833 96.6289C157.833 96.6289 146.883 117.156 150.31 123.222L162.777 116.296L157.833 96.6289Z" fill="#05659D"/>
<path d="M153.116 117.465C151.743 116.439 150.43 115.292 149.164 114.038C146.668 111.566 144.375 108.689 142.274 105.632C140.865 103.578 139.551 101.428 138.333 99.255C134.81 92.9859 132.064 86.4898 130.106 81.2954C128.064 75.874 126.881 71.8498 126.559 70.9303C126.523 70.8229 126.499 70.7632 126.487 70.7393L132.41 53.7349C135.276 49.1495 136.876 64.0283 136.876 64.0283C137.664 63.5626 138.62 62.2013 139.193 61.4729C139.826 60.637 140.315 61.9625 140.399 62.4282C140.888 65.1627 138.691 70.3572 138.691 70.3572L152.806 91.0514C153.666 92.3172 154.645 93.5113 155.684 94.6218C156.352 95.3383 157.069 96.007 157.809 96.6518C159.087 101.954 158.968 112.211 153.116 117.465Z" fill="#F9B384"/>
<path opacity="0.6" d="M153.116 117.465C151.743 116.438 150.429 115.292 149.164 114.038C153.594 108.963 156.985 100.532 157.833 96.6274C158.502 97.3439 157.093 95.9945 157.833 96.6274C159.087 101.953 158.967 112.211 153.116 117.465Z" fill="#E28B6D"/>
<path d="M240.682 149.66C232.968 148.155 226.89 148.251 221.755 149.278C219.892 149.648 218.161 150.138 216.501 150.723L214.949 156.287L211.88 167.297L209.886 174.45L208.07 180.946L207.055 184.612H152.341L160.998 128.166L150.311 123.234C151.003 122.219 151.624 121.025 152.209 119.711C155.457 112.403 157.189 101.334 157.822 96.6406C160.879 99.2677 164.473 101.238 168.402 102.349C173.059 103.674 178.683 104.832 183.937 104.701C184.116 104.701 184.295 104.689 184.475 104.689C196.631 104.211 202.052 107.913 202.052 107.913C204.799 108.462 211.975 111.209 218.232 113.967C220.991 115.173 223.57 116.391 225.529 117.406C230.783 120.153 234.592 125.025 236.013 130.793L240.682 149.66Z" fill="#00377B"/>
<path opacity="0.6" d="M221.755 149.277C219.892 149.648 218.16 150.137 216.5 150.722L219.796 138.9L221.755 149.277Z" fill="#05659D"/>
<path opacity="0.3" d="M142.286 105.62C140.877 103.566 139.778 101.703 137.139 97.0225C141.271 95.6015 143.754 101.715 142.286 105.62Z" fill="#EE6F57"/>
<path opacity="0.6" d="M215.545 154.16L211.891 167.296L209.897 174.448L160.794 178.186L155.218 168.418C191.113 167.678 206.135 162.555 215.545 154.16Z" fill="#085684"/>
<path opacity="0.6" d="M130.117 81.2837C128.075 75.8623 126.893 71.8381 126.571 70.9186L135.753 65.2227C136.112 70.4052 132.016 77.7849 130.117 81.2837Z" fill="#E28B6D"/>
<path d="M188.224 117.43C188.761 119.34 189.907 121 191.424 122.206C192.94 123.4 194.767 124.2 196.678 124.535C198.589 124.881 200.571 124.786 202.446 124.284C203.389 124.033 204.309 123.675 205.168 123.209C206.04 122.767 206.864 122.194 207.64 121.573L207.915 121.86C207.21 122.612 206.398 123.257 205.527 123.818C204.643 124.356 203.688 124.797 202.696 125.132C200.702 125.777 198.553 125.908 196.487 125.526C194.433 125.144 192.439 124.26 190.863 122.863C190.075 122.17 189.394 121.358 188.868 120.451C188.355 119.543 187.985 118.54 187.83 117.525L188.224 117.43Z" fill="#AE5140"/>
<path d="M210.542 97.9785L209.013 109.884C208.452 114.326 204.595 117.634 200.117 117.502C195.317 117.371 191.615 113.431 191.615 108.785C191.615 108.332 191.651 107.866 191.722 107.4L191.997 105.657L193.072 98.8741L199.126 98.5636L210.542 97.9785Z" fill="#F9B384"/>
<path d="M189.358 78.3701C189.525 76.6147 190.349 74.525 191.28 72.6263C193.072 69.0081 196.535 66.4885 200.523 65.9034C206.529 65.0317 214.303 65.8795 218.53 71.6471C223.295 78.1551 219.331 91.1592 214.22 92.2697C209.121 93.3922 189.358 78.3701 189.358 78.3701Z" fill="#102048"/>
<path d="M205.025 101.023C202.983 102.957 198.278 107.483 191.734 107.399L193.084 98.8732L199.138 98.5627L205.025 101.023Z" fill="#E28B6D"/>
<path d="M213.73 81.4271L212.823 86.1678L212.596 87.3261L211.7 91.9951L211.187 94.6699L210.554 97.9657L207.437 99.8286C207.437 99.8286 206.589 100.402 205.025 101.011C202.673 101.942 198.696 102.981 193.585 102.312C193.227 102.265 192.893 102.181 192.582 102.074C190.182 101.25 188.952 98.718 188.403 95.5655C188.009 93.2489 187.973 90.598 188.128 88.0306C188.355 84.0183 189.024 80.221 189.37 78.3343C194.72 73.5578 202.028 72.6861 207.449 71.6233L213.73 81.4271Z" fill="#F9B384"/>
<path d="M189.358 78.3698C197.884 71.6588 209.371 78.4534 209.371 78.4534C209.371 78.4534 207.616 89.0214 211.007 88.1497C214.399 87.278 217.85 80.2087 217.85 80.2087L210.076 69.0078L193.084 71.9334L189.358 78.3698Z" fill="#102048"/>
<path d="M210.565 88.4963C212.237 85.5588 215.485 84.6274 217.241 86.8484C218.984 89.0695 219.056 96.0671 210.458 94.5625L210.565 88.4963Z" fill="#F9B384"/>
<path d="M196.272 86.18C195.723 87.6726 194.863 89.01 194.302 90.4072C194.242 90.5744 194.159 90.7654 194.111 90.9206C194.063 91.0639 194.039 91.2192 194.063 91.3267C194.063 91.4461 194.135 91.5297 194.218 91.6252C194.326 91.7088 194.445 91.7924 194.612 91.8521C195.257 92.1028 196.045 92.1625 196.821 92.2342L196.833 92.5327C196.045 92.6402 195.245 92.7238 194.397 92.4849C194.182 92.4252 193.967 92.3178 193.764 92.1625C193.573 91.9954 193.382 91.7446 193.347 91.4699C193.287 91.1953 193.335 90.9445 193.394 90.7176C193.454 90.4908 193.526 90.3236 193.609 90.1325C194.242 88.6279 195.174 87.3621 196.009 86.0605L196.272 86.18Z" fill="#E28B6D"/>
<path d="M200.701 87.501C201.201 87.6489 201.774 87.1996 201.982 86.4977C202.189 85.7957 201.953 85.1068 201.453 84.959C200.954 84.8112 200.38 85.2605 200.173 85.9624C199.965 86.6644 200.202 87.3532 200.701 87.501Z" fill="#102048"/>
<path d="M191.65 87.0733C192.15 87.2211 192.723 86.7719 192.931 86.0699C193.138 85.368 192.902 84.6791 192.402 84.5313C191.903 84.3835 191.329 84.8327 191.122 85.5347C190.914 86.2366 191.15 86.9255 191.65 87.0733Z" fill="#102048"/>
<path d="M198.803 83.7807C199.233 83.3747 199.747 83.0284 200.32 82.8015C200.893 82.5746 201.538 82.4791 202.171 82.5507C202.804 82.6224 203.413 82.8851 203.902 83.2433C204.404 83.6016 204.81 84.0553 205.132 84.5569L204.905 84.7479C204.452 84.3897 204.01 84.0553 203.544 83.8046C203.078 83.5419 202.577 83.3627 202.075 83.303C201.562 83.2314 201.048 83.2792 200.523 83.4105C199.998 83.5419 199.496 83.7687 198.971 84.0076L198.803 83.7807Z" fill="#102048"/>
<path d="M194.313 83.8159C193.896 83.1472 193.215 82.8367 192.522 82.8367C192.176 82.8367 191.83 82.9203 191.495 83.0636C191.161 83.2069 190.839 83.4219 190.504 83.6607L190.265 83.4696C190.468 83.0756 190.767 82.7173 191.161 82.4666C191.555 82.2038 192.033 82.0605 192.51 82.0605C192.988 82.0605 193.478 82.2158 193.872 82.5143C194.254 82.8009 194.54 83.2427 194.588 83.7084L194.313 83.8159Z" fill="#102048"/>
<path d="M193.024 94.7422L198.564 94.8616C198.564 94.8616 195.496 99.0291 193.239 95.1482L193.024 94.7422Z" fill="white"/>
<path d="M211.891 90.73C211.891 90.2524 211.975 89.7747 212.154 89.309C212.321 88.8433 212.596 88.4015 212.99 88.0432C213.384 87.685 213.945 87.4581 214.482 87.4939C215.032 87.5059 215.509 87.7567 215.879 88.0791L215.724 88.3418C215.294 88.2104 214.876 88.1268 214.494 88.1746C214.112 88.2224 213.778 88.3776 213.479 88.6284C213.181 88.8791 212.942 89.2254 212.739 89.5956C212.536 89.9658 212.357 90.3837 212.178 90.8017L211.891 90.73Z" fill="#E28B6D"/>
<path opacity="0.3" d="M204.989 96.294C207.146 96.294 208.894 94.5457 208.894 92.3892C208.894 90.2326 207.146 88.4844 204.989 88.4844C202.832 88.4844 201.084 90.2326 201.084 92.3892C201.084 94.5457 202.832 96.294 204.989 96.294Z" fill="#EE6F57"/>
<path opacity="0.3" d="M191.137 91.864C191.137 93.6074 189.979 95.0881 188.403 95.5896C188.009 93.273 187.973 90.6221 188.128 88.0547C189.848 88.4607 191.137 90.0131 191.137 91.864Z" fill="#EE6F57"/>
<path d="M112.6 75.623C112.6 75.623 123.717 81.0683 121.651 90.0839L114.295 92.1378L112.6 75.623Z" fill="#102048"/>
<path d="M112.6 75.6236C113.794 74.4534 119.908 67.6946 119.693 59.2402C119.526 52.8397 122.368 55.7294 122.738 60.1477C122.738 60.1477 124.302 51.1082 128.601 52.0276L127.335 53.7591C127.335 53.7591 128.971 50.7022 130.285 51.5142C131.598 52.3381 130.404 54.9533 130.404 54.9533C130.404 54.9533 131.025 52.6844 132.147 52.5053C133.282 52.3262 134.309 55.8847 131.789 65.175C131.789 65.175 134.524 62.4643 135.61 61.9986C136.697 61.5448 136.613 68.638 128.947 76.2087C121.269 83.7675 115.848 89.6188 115.848 89.6188L112.6 75.6236Z" fill="#F9B384"/>
<path d="M67.8083 112.653C68.083 113.071 112.588 75.623 112.588 75.623L121.64 90.0839L76.2031 143.581L67.8083 112.653Z" fill="#F6821D"/>
<path d="M128.685 52.0864C128.16 52.8984 127.658 53.7582 127.216 54.618C126.774 55.4897 126.344 56.3614 125.998 57.2689C125.628 58.1645 125.329 59.096 125.079 60.0393L124.9 60.7438L124.756 61.4603C124.637 61.938 124.613 62.4276 124.517 62.9052L124.314 62.8933C124.326 61.9022 124.422 60.8991 124.637 59.9318C124.852 58.9646 125.15 58.0093 125.521 57.0779C125.903 56.1584 126.321 55.2628 126.834 54.403C127.336 53.5433 127.885 52.7193 128.53 51.9551L128.685 52.0864Z" fill="#E28B6D"/>
<path d="M130.512 54.9755C130.369 55.7875 130.189 56.5876 130.01 57.3876C129.843 58.1877 129.628 58.9758 129.449 59.7759L128.84 62.1522C128.625 62.9403 128.41 63.7285 128.183 64.5166L127.992 64.4808C128.1 63.6687 128.255 62.8567 128.422 62.0567C128.589 61.2566 128.78 60.4565 128.971 59.6565C129.186 58.8684 129.377 58.0683 129.604 57.2802C129.831 56.492 130.058 55.7039 130.333 54.9277L130.512 54.9755Z" fill="#E28B6D"/>
<path d="M133.211 52.875C133.497 55.6573 133.378 58.4755 132.96 61.2339C132.852 61.9265 132.733 62.6191 132.566 63.2997C132.482 63.646 132.399 63.9804 132.303 64.3147L132.232 64.5655L132.196 64.6849C132.196 64.673 132.196 64.6491 132.184 64.6252C132.172 64.5894 132.1 64.5774 132.064 64.6013L132.243 64.4461C132.769 63.9804 133.294 63.5266 133.82 63.0728L134.632 62.4041C134.775 62.2967 134.894 62.1892 135.062 62.0698C135.3 61.9026 135.647 61.9384 135.85 62.1414C135.957 62.225 136.029 62.4041 136.041 62.4997L136.089 62.7743C136.112 62.9534 136.136 63.1326 136.136 63.3236C136.148 63.5027 136.148 63.6819 136.136 63.861C136.136 64.0401 136.124 64.2192 136.101 64.3983C136.041 65.1148 135.874 65.8074 135.659 66.4881C135.217 67.8374 134.584 69.1032 133.844 70.2973C133.103 71.4914 132.255 72.602 131.36 73.6886C130.906 74.226 130.428 74.7275 129.975 75.2529L128.518 76.7456L128.375 76.6023L129.772 75.0619C130.213 74.5245 130.667 73.9991 131.097 73.4617C131.957 72.3751 132.769 71.2526 133.473 70.0704C134.166 68.8763 134.787 67.6464 135.205 66.3448C135.408 65.6999 135.563 65.0312 135.623 64.3506C135.647 64.1834 135.647 64.0162 135.647 63.849C135.659 63.6818 135.647 63.5147 135.635 63.3475C135.635 63.1803 135.599 63.0131 135.587 62.8579L135.539 62.6191C135.527 62.5474 135.515 62.5474 135.503 62.5235C135.468 62.4877 135.384 62.4758 135.336 62.5116L134.942 62.8101L134.142 63.4669C133.605 63.9087 133.079 64.3625 132.566 64.8163L132.351 64.9954C132.172 65.1387 131.885 65.067 131.778 64.876C131.718 64.7804 131.706 64.661 131.73 64.5655L131.766 64.4341L131.837 64.1834C131.933 63.849 132.017 63.5147 132.1 63.1803C132.267 62.5116 132.399 61.831 132.53 61.1503C132.769 59.789 132.912 58.4157 132.996 57.0306C133.079 55.6454 133.115 54.2602 133.008 52.875H133.211Z" fill="#E28B6D"/>
<path d="M49.8368 145.18C49.8368 145.18 34.4564 139.114 28.1753 150.721C20.2821 165.313 32.1398 182.461 32.1398 182.461H53.0132L49.8368 145.18Z" fill="#FBC343"/>
<path d="M34.779 149.956C34.3849 150.362 34.0506 150.816 33.752 151.294C33.4535 151.771 33.2027 152.285 32.9758 152.798C32.5221 153.837 32.1758 154.924 31.9489 156.034C31.4712 158.255 31.316 160.536 31.4235 162.805C31.519 165.074 31.9011 167.331 32.4743 169.528C33.0475 171.737 33.8595 173.875 34.8148 175.952L34.6357 176.036C34.373 175.523 34.0983 175.021 33.8714 174.496C33.752 174.233 33.6207 173.97 33.5132 173.707L33.1788 172.907C32.7609 171.833 32.3788 170.746 32.0564 169.635C31.4354 167.414 31.0294 165.122 30.9339 162.817C30.8384 160.512 31.0055 158.172 31.5429 155.927C31.8175 154.804 32.1877 153.694 32.6773 152.643C32.9281 152.118 33.2027 151.604 33.5371 151.126C33.8595 150.649 34.2297 150.195 34.6596 149.789L34.779 149.956Z" fill="#102048"/>
<path d="M89.5058 94.2749C94.545 97.3558 98.0319 95.5168 99.0588 92.1972C100.074 88.8775 103.8 76.363 88.24 78.3811C88.24 78.3811 69.1698 70.6909 61.0975 82.0351C53.9805 92.0419 60.5124 98.9679 49.6339 107.255C42.0512 113.047 33.4535 123.209 50.5056 140.595L69.0026 135.496L89.5058 94.2749Z" fill="#AE5140"/>
<path d="M83.7619 108.795C84.144 110.55 88.216 115.112 89.852 116.819C94.7837 121.99 95.8823 131.686 81.8035 134.648L73.8865 116.199L83.7619 108.795Z" fill="#6F3428"/>
<path d="M84.4664 111.1L82.7946 118.766L80.2153 130.684L65.7783 127.639L69.1696 104.246L83.8932 110.837L84.4664 111.1Z" fill="#F9B384"/>
<path d="M93.3508 95.9473C93.3508 95.9473 97.5183 100.616 97.375 101.81C97.2318 103.005 93.3508 105.13 93.3508 105.13V95.9473Z" fill="#E28B6D"/>
<path d="M84.4667 111.1L82.8069 118.766C78.3648 116.402 75.1287 110.562 75.1287 110.562L83.9055 110.849L84.4667 111.1Z" fill="#E28B6D"/>
<path d="M94.3182 106.574C93.7331 111.017 92.2524 114.432 89.0999 114.73C80.3708 115.578 67.8086 105.798 67.8086 105.798L68.4892 87.8983L77.9826 82.0471L93.351 84.9011C93.5301 86.9192 94.4735 93.1047 94.6287 99.3261C94.6884 101.822 94.6167 104.33 94.3182 106.574Z" fill="#F9B384"/>
<path d="M95.7631 87.8988L93.8644 89.3557C83.989 81.6536 86.0429 92.747 85.1234 96.3055C84.2039 99.864 79.5229 98.9206 75.8808 96.6279L75.2241 101.607L64.2501 101.954L63.6052 88.0421L74.5434 79.4922L94.7958 83.4448L95.7631 87.8988Z" fill="#AE5140"/>
<path d="M81.577 139.532C86.9626 136.642 85.4341 129.095 83.3444 126.516C81.2427 123.937 72.3345 119.602 71.2479 111.47C70.6508 106.944 75.2243 101.606 75.2243 101.606L65.9459 96.627L56.4407 111.565L63.6174 137.227L81.577 139.532Z" fill="#AE5140"/>
<path d="M88.2993 180.957L43.0538 180.992C41.0835 152.023 48.296 137.216 54.5413 129.932C58.4699 125.358 64.4048 123.089 70.3993 123.818C75.6057 124.462 80.1314 126.934 84.7169 137.717L63.2942 147.676L77.0386 171.881C78.4238 174.317 80.418 176.347 82.8301 177.756L88.2993 180.957Z" fill="#F6821D"/>
<path d="M63.2944 147.676C63.2944 147.676 70.0293 174.627 72.525 178.162C75.1282 181.852 80.7048 180.932 90.4131 180.944L78.1374 153.587L63.2944 147.676Z" fill="#DE781F"/>
<path d="M118.224 173.636L116.278 180.8L90.4131 180.968H88.2995L82.8423 177.779C80.4302 176.358 78.424 174.34 77.0508 171.904L63.3064 147.699L84.729 137.74C87.0337 143.138 89.3384 150.637 91.7625 161.026C92.0849 162.423 93.064 163.593 94.3776 164.178L118.224 173.636Z" fill="#F6821D"/>
<path d="M78.1373 98.5968C77.3611 94.286 72.2383 93.7128 71.3547 96.6265C70.4591 99.5402 70.686 104.556 77.1104 104.257L78.1373 98.5968Z" fill="#F9B384"/>
<path d="M76.0835 98.9319L75.2835 98.0124C75.0208 97.7259 74.7461 97.4512 74.4595 97.284C74.1729 97.1169 73.9341 97.0691 73.6714 97.2124C73.3967 97.3557 73.134 97.6542 72.8594 97.9527L72.5967 97.8214C72.7161 97.4034 72.8952 96.9736 73.3132 96.6511C73.5162 96.484 73.8147 96.3884 74.0893 96.3884C74.3759 96.4004 74.6386 96.4959 74.8536 96.6273C75.2835 96.89 75.5701 97.2363 75.8089 97.6064C76.0477 97.9766 76.2268 98.3587 76.3582 98.7767L76.0835 98.9319Z" fill="#E28B6D"/>
<path opacity="0.2" d="M94.0908 107.995C93.8759 108.042 89.7681 106.86 89.7681 102.991C89.7681 100.925 91.5712 99.1699 93.637 99.1699C93.9833 99.1699 94.3057 99.2177 94.6162 99.3132C94.6879 101.821 94.6282 105.57 94.0908 107.995Z" fill="#EE6F57"/>
<path d="M168.676 181.232H114.857L125.019 137.444H178.839L168.676 181.232Z" fill="#06517C"/>
<path opacity="0.6" d="M168.676 181.232L178.838 137.444C163.458 173.041 140.59 176.993 114.845 181.232" fill="#102048"/>
<path d="M145.367 162.875C147.009 163.564 149.004 162.54 149.823 160.587C150.641 158.635 149.974 156.494 148.332 155.806C146.69 155.117 144.695 156.141 143.876 158.094C143.057 160.046 143.725 162.187 145.367 162.875Z" fill="white"/>
<path d="M235.392 148.848L235.225 153.302L234.496 173.244V173.267C234.437 174.772 234.043 176.229 233.362 177.542C232.681 178.844 231.714 180.002 230.52 180.934H208.094L161.261 181.089C160.425 181.089 159.565 179.143 160.807 178.187C163.541 176.05 167.828 173.697 170.802 171.787C172.45 170.736 174.408 170.282 176.342 170.533C179.567 170.951 184.212 172.575 190.003 170.879C191.006 170.581 192.021 170.354 193.048 170.199L211.904 167.297L219.319 166.15L219.522 153.588L219.594 149.779C220.298 149.588 221.027 149.421 221.767 149.277C225.648 148.501 230.09 148.262 235.392 148.848Z" fill="#F9B384"/>
<path opacity="0.6" d="M235.392 148.848L235.225 153.302C232.49 152.334 221.898 149.325 219.582 149.779C220.286 149.588 221.014 149.421 221.755 149.277C225.648 148.501 230.09 148.262 235.392 148.848Z" fill="#E28B6D"/>
<path opacity="0.3" d="M234.484 173.243V173.267C234.425 174.772 234.031 176.229 233.35 177.542C232.669 178.844 231.702 180.002 230.508 180.934H223.689C224.884 174.378 229.851 172.348 234.484 173.243Z" fill="#EE6F57"/>
<path d="M216.453 166.437C217.253 166.115 218.089 165.84 218.949 165.744C219.809 165.613 220.693 165.613 221.564 165.709C222.436 165.804 223.296 166.007 224.108 166.306C224.932 166.604 225.696 167.01 226.4 167.548L226.233 167.798C225.481 167.452 224.693 167.177 223.905 166.95C223.117 166.724 222.305 166.556 221.481 166.473C220.669 166.377 219.845 166.341 219.021 166.401C218.197 166.437 217.373 166.58 216.549 166.736L216.453 166.437Z" fill="#E28B6D"/>
<path d="M272.231 180.98H0.435791V186.999H272.231V180.98Z" fill="#D3DFFF"/>
<path d="M0.436035 180.992H272.231" stroke="#102048" stroke-width="6" stroke-miterlimit="10"/>
<path d="M41.1076 74.8235C39.0179 63.5628 28.211 56.1354 16.9504 58.2251C5.6898 60.3148 -1.73767 71.1217 0.352053 82.3823C2.44178 93.6429 13.2486 101.07 24.5092 98.9807C27.3274 98.4552 29.9067 97.3925 32.1517 95.8998L39.3164 99.0284L35.8654 92.7593C40.2001 88.1141 42.3614 81.5464 41.1076 74.8235Z" fill="#FDDABD"/>
<path d="M12.9741 85.8441V79.5391L12.6039 79.7182C12.2218 79.9093 11.8158 80.0048 11.3859 80.0048C9.86933 80.0048 8.62744 78.7629 8.62744 77.2464C8.62744 75.7298 9.86933 74.4879 11.3859 74.4879C11.8158 74.4879 12.2218 74.5835 12.6039 74.7626L12.9741 74.9417V68.6367H18.4312C18.3476 68.9353 18.2999 69.2338 18.2999 69.5443C18.2999 71.3474 19.7686 72.8162 21.5718 72.8162C23.3749 72.8162 24.8437 71.3474 24.8437 69.5443C24.8437 69.2338 24.7959 68.9353 24.7123 68.6367H30.1695V74.1536C29.8232 74.0342 29.465 73.9745 29.0948 73.9745C27.2916 73.9745 25.8229 75.4432 25.8229 77.2464C25.8229 79.0495 27.2916 80.5183 29.0948 80.5183C29.465 80.5183 29.8232 80.4586 30.1695 80.3392V85.856H12.9741V85.8441Z" fill="white"/>
<path d="M29.9185 68.8883V73.8081C29.6558 73.7484 29.3812 73.7125 29.0946 73.7125C27.1481 73.7125 25.5719 75.2888 25.5719 77.2352C25.5719 79.1816 27.1481 80.7579 29.0946 80.7579C29.3692 80.7579 29.6439 80.722 29.9185 80.6623V85.5821H13.2246V79.9459V79.1219L12.4843 79.4921C12.138 79.6593 11.7678 79.7429 11.3857 79.7429C10.0005 79.7429 8.878 78.6204 8.878 77.2352C8.878 75.85 10.0005 74.7275 11.3857 74.7275C11.7678 74.7275 12.1499 74.8111 12.4962 74.9783L13.2246 75.3365V74.5245V68.8883H18.1086C18.0728 69.1032 18.0489 69.3181 18.0489 69.545C18.0489 71.4915 19.6251 73.0677 21.5716 73.0677C23.518 73.0677 25.0942 71.4915 25.0942 69.545C25.0942 69.3181 25.0704 69.1032 25.0345 68.8883H29.9185ZM30.432 68.3867H24.3539C24.5091 68.745 24.5927 69.139 24.5927 69.545C24.5927 71.2049 23.2433 72.5662 21.5716 72.5662C19.9117 72.5662 18.5504 71.2168 18.5504 69.545C18.5504 69.139 18.634 68.745 18.7893 68.3867H12.7111V74.5365C12.3051 74.3454 11.8633 74.226 11.3857 74.226C9.72583 74.226 8.37646 75.5754 8.37646 77.2471C8.37646 78.907 9.72583 80.2563 11.3857 80.2563C11.8633 80.2563 12.3171 80.1489 12.7111 79.9459V86.0956H30.42V79.9459C30.026 80.1489 29.5722 80.2563 29.0946 80.2563C27.4228 80.2563 26.0734 78.907 26.0734 77.2471C26.0734 75.5754 27.4228 74.226 29.0946 74.226C29.5722 74.226 30.026 74.3335 30.42 74.5365V68.3867H30.432Z" fill="#8CBFBE"/>
<path d="M238.282 75.0747C238.975 63.6469 248.79 54.9417 260.218 55.6343C271.646 56.3269 280.351 66.1426 279.659 77.5704C278.966 88.9982 269.15 97.7034 257.723 97.0108C254.869 96.8436 252.17 96.0913 249.758 94.8972L243.023 98.8737L245.674 92.2224C240.814 88.1504 237.876 81.9051 238.282 75.0747Z" fill="#BFE3F9"/>
<path d="M262.499 85.0704C261.962 83.936 260.828 83.2195 259.562 83.2195C258.296 83.2195 257.162 83.936 256.636 85.0704H250.952V78.7654L250.606 78.9326C250.224 79.1236 249.818 79.2192 249.388 79.2192C247.859 79.2192 246.605 77.9773 246.605 76.4488C246.605 74.9203 247.847 73.6665 249.388 73.6665C249.818 73.6665 250.236 73.762 250.606 73.9531L250.952 74.1202V67.8272H257.066L256.959 67.5048C256.851 67.2062 256.803 66.8958 256.803 66.5853C256.803 65.0568 258.045 63.803 259.574 63.803C261.102 63.803 262.356 65.0449 262.356 66.5853C262.356 66.8958 262.308 67.2062 262.201 67.5048L262.093 67.8272H268.207V85.0704H262.499Z" fill="white"/>
<path d="M259.561 64.0655C260.958 64.0655 262.105 65.2 262.105 66.609C262.105 66.8956 262.057 67.1822 261.962 67.4449L261.735 68.0778H262.403H267.932V84.8314H262.642C262.045 83.697 260.863 82.9805 259.561 82.9805C258.26 82.9805 257.078 83.697 256.48 84.8314H251.179V79.1593V78.3831L250.486 78.7294C250.14 78.9085 249.758 78.9921 249.375 78.9921C247.978 78.9921 246.832 77.8577 246.832 76.4606C246.832 75.0635 247.966 73.9171 249.375 73.9171C249.769 73.9171 250.152 74.0007 250.486 74.1798L251.179 74.5261V73.7499V68.0778H256.707H257.376L257.149 67.4449C257.054 67.1703 257.006 66.8956 257.006 66.609C257.03 65.2 258.164 64.0655 259.561 64.0655ZM259.561 63.5879C257.901 63.5879 256.552 64.9373 256.552 66.609C256.552 66.9553 256.612 67.2897 256.719 67.6002H250.713V73.7499C250.319 73.5469 249.865 73.4394 249.387 73.4394C247.716 73.4394 246.366 74.7888 246.366 76.4606C246.366 78.1204 247.716 79.4698 249.387 79.4698C249.865 79.4698 250.319 79.3623 250.713 79.1593V85.3091H256.791C257.245 84.2224 258.319 83.4582 259.561 83.4582C260.815 83.4582 261.89 84.2224 262.344 85.3091H268.422V67.6002H262.415C262.523 67.2897 262.582 66.9553 262.582 66.609C262.582 64.9373 261.233 63.5879 259.561 63.5879Z" fill="#708CD5"/>
<path d="M63.3665 39.6655L62.3 37.1769L59.642 36.6521C59.3373 36.5844 59.2357 36.2119 59.4727 36.0087L61.5043 34.2311L61.1826 31.5393C61.1488 31.2346 61.4704 31.0145 61.7413 31.1838L64.0607 32.572L66.5154 31.4378C66.8033 31.3023 67.108 31.5563 67.0403 31.861L66.4477 34.502L68.2761 36.4828C68.4793 36.7029 68.3438 37.0753 68.0391 37.1092L65.3473 37.3631L64.0268 39.7163C63.8914 39.9703 63.4851 39.9364 63.3665 39.6655Z" fill="#FCAC66"/>
<path d="M188.171 4.21396L189.001 3.1474L191.591 5.17894L193.775 1.33594L194.96 1.99619L191.997 7.19356L188.171 4.21396Z" fill="#50BFA5"/>
<path d="M87.2207 7.26099C86.8482 10.8839 83.6147 13.5249 79.9917 13.1694C76.3688 12.797 73.7278 9.56341 74.0833 5.94048C74.4558 2.31756 77.6893 -0.323452 81.3122 0.032069C84.9521 0.404519 87.5931 3.63807 87.2207 7.26099Z" fill="#79C3ED"/>
<path d="M77.0459 7.27734C76.8428 9.22424 78.2649 10.9511 80.1948 11.1373C82.1417 11.3404 83.8685 9.91835 84.0548 7.98838L77.0459 7.27734Z" fill="#EFEFEF"/>
<path d="M203.899 28.2541L205.897 26.121L204.796 25.393C204.559 25.2406 204.492 24.902 204.644 24.665C204.796 24.428 205.135 24.3603 205.372 24.5127L206.642 25.3591L208.436 23.4461L207.251 22.6673C207.014 22.515 206.946 22.1764 207.099 21.9394C207.251 21.7024 207.59 21.6346 207.827 21.787L209.181 22.6843L211.247 20.4834C211.416 20.2972 211.704 20.2633 211.924 20.3988L212.127 20.5342C212.398 20.7204 212.449 21.0929 212.229 21.3299L210.299 23.4122L212.262 24.7158L214.328 22.515C214.497 22.3288 214.785 22.2949 215.005 22.4303L215.225 22.5827C215.496 22.7689 215.547 23.1414 215.327 23.3784L213.397 25.4607L214.497 26.1887C214.734 26.3411 214.802 26.6796 214.649 26.9167C214.497 27.1537 214.158 27.2214 213.921 27.069L212.652 26.2225L210.891 28.1525L212.076 28.9313C212.313 29.0836 212.381 29.4222 212.229 29.6592C212.076 29.8963 211.738 29.964 211.501 29.8116L210.146 28.9143L208.03 31.1829C207.861 31.3691 207.573 31.403 207.353 31.2676L207.116 31.1152C206.845 30.929 206.794 30.5565 207.014 30.3195L209.012 28.1864L207.048 26.8828L204.932 29.1514C204.763 29.3376 204.475 29.3714 204.255 29.236L204.018 29.0836C203.73 28.8805 203.679 28.508 203.899 28.2541ZM209.74 27.4076L211.534 25.4946L209.571 24.191L207.776 26.104L209.74 27.4076Z" fill="#FCAC66"/>
<path d="M135.47 12.0007C135.47 12.0007 136.706 9.83371 139.618 9.51205C142.208 9.22424 144.223 11.0696 144.494 13.4736C144.798 16.25 142.75 19.8052 136.757 23.3604C130.12 21.2104 127.327 18.2138 127.022 15.4374C126.751 13.0503 128.309 10.7818 130.899 10.494C133.777 10.1554 135.47 12.0007 135.47 12.0007Z" fill="#FCAC66"/>
<path d="M114.19 15.4869C116.746 15.6054 118.811 15.5885 120.843 15.4531C121.503 15.4192 122.688 15.5377 123.111 14.9452C123.332 14.6405 123.348 14.268 123.061 13.9802C122.536 13.4554 121.537 13.7432 120.86 13.777C118.811 13.8956 116.475 13.9463 114.122 13.8448C113.682 13.8278 113.326 14.2849 113.343 14.6912C113.36 15.1822 113.749 15.47 114.19 15.4869Z" fill="#FCAC66"/>
<path d="M148.794 18.687C149.776 18.6363 150.758 18.5855 151.74 18.5177C152.688 18.467 153.805 18.5685 154.668 18.1792C155.312 17.9083 155.312 17.0279 154.618 16.8248C153.703 16.5539 152.62 16.7909 151.672 16.8417C150.69 16.9094 149.708 16.9602 148.726 17.0449C147.677 17.1465 147.727 18.7378 148.794 18.687Z" fill="#FCAC66"/>
<path d="M124.009 27.829C125.126 25.6959 126.582 24.9679 127.683 24.1045C128.275 23.6474 127.886 22.7501 127.141 22.9194C125.092 23.3596 123.467 25.3065 122.553 27.0841C122.096 28.0152 123.535 28.7601 124.009 27.829Z" fill="#FCAC66"/>
<path d="M135.639 32.3493C135.538 31.3335 135.639 30.3347 135.961 29.3697C136.164 28.7771 137.231 27.1011 136.063 26.8641C134.962 26.644 134.471 28.4555 134.268 29.2342C133.98 30.2669 133.896 31.3674 134.014 32.417C134.099 33.4666 135.741 33.4158 135.639 32.3493Z" fill="#FCAC66"/>
<path d="M143.613 25.6962C144.189 26.0686 144.747 26.4242 145.323 26.7966C145.899 27.1691 146.44 27.7108 147.151 27.5246C147.558 27.423 147.693 26.9998 147.626 26.6442C147.507 25.984 146.61 25.6454 146.085 25.3068C145.509 24.9513 144.951 24.5788 144.375 24.2233C144.003 23.9863 143.444 24.2064 143.258 24.5788C143.038 25.0021 143.241 25.4423 143.613 25.6962Z" fill="#FCAC66"/>
<path d="M128.36 6.36192C125.99 1.46928 126.024 1.43542 125.584 1.04604C125.127 0.639728 124.348 0.978322 124.382 1.60472C124.416 2.23111 124.416 2.1126 126.938 7.27612C127.141 7.68243 127.751 7.75014 128.106 7.53006C128.529 7.25919 128.563 6.76823 128.36 6.36192Z" fill="#FCAC66"/>
<path d="M137.333 5.78674C137.621 4.94027 137.79 4.05993 137.892 3.16266C137.976 2.33312 138.213 1.08033 137.418 0.538583C137.248 0.420077 136.944 0.453938 136.774 0.572445C136.097 1.08033 136.317 2.19768 136.233 2.95951C136.148 3.78906 135.962 4.6186 135.742 5.43122C135.623 5.85446 135.945 6.31156 136.368 6.39621C136.825 6.51472 137.181 6.20998 137.333 5.78674Z" fill="#FCAC66"/>
<path d="M150.03 5.88796C150.148 5.49858 149.827 5.15999 149.488 5.04148C148.794 4.80447 147.948 5.51551 147.389 5.88796C146.746 6.3112 146.153 6.80215 145.594 7.32697C145.273 7.6317 145.34 8.20731 145.662 8.49511C146.018 8.81677 146.492 8.73212 146.83 8.42739C149.014 6.53128 149.708 6.85294 150.03 5.88796Z" fill="#FCAC66"/>
<path d="M240.806 39.6133L239.35 41.2724L236.827 40.3751L234.457 42.6606L232.307 42.3389L231.681 43.4563L234.542 43.8965L236.793 41.7295L239.417 42.6606L241.601 40.155L240.806 39.6133Z" fill="#79C3ED"/>
<path d="M22.8712 33.0108C20.7888 35.9227 22.7188 40.1551 25.7153 41.5095C29.0335 43.0162 33.1474 41.8481 35.3144 38.97C37.6507 35.8381 37.0751 32.0289 34.0447 30.0651C31.0989 28.169 27.6622 29.845 27.0528 33.0786C26.6295 35.3979 28.0347 37.1078 29.2367 37.057C30.1847 37.0062 30.7096 35.9227 29.9477 35.2625C29.643 35.0085 29.1859 35.0085 28.8642 35.1609C28.2717 34.4498 28.2886 32.7061 29.5753 31.4872C31.2174 29.9297 33.6553 31.1147 34.6711 32.7907C35.9577 34.9239 34.9589 37.4972 33.2151 39.0547C31.4037 40.6799 28.5595 41.2047 26.3079 40.2059C23.7684 39.0547 22.6172 36.0243 23.7346 33.4849C24.0224 32.8923 23.2436 32.486 22.8712 33.0108Z" fill="#66C3FA"/>
</svg>
