<svg width="24" height="24" viewBox="0 0 24 24" fill="none" xmlns="http://www.w3.org/2000/svg">
<path d="M15.2605 22.2503H8.74047C3.83047 22.2503 1.73047 20.1503 1.73047 15.2403V15.1103C1.73047 10.6703 3.48047 8.53027 7.40047 8.16027C7.80047 8.13027 8.18047 8.43027 8.22047 8.84027C8.26047 9.25027 7.96047 9.62027 7.54047 9.66027C4.40047 9.95027 3.23047 11.4303 3.23047 15.1203V15.2503C3.23047 19.3203 4.67047 20.7603 8.74047 20.7603H15.2605C19.3305 20.7603 20.7705 19.3203 20.7705 15.2503V15.1203C20.7705 11.4103 19.5805 9.93027 16.3805 9.66027C15.9705 9.62027 15.6605 9.26027 15.7005 8.85027C15.7405 8.44027 16.0905 8.13027 16.5105 8.17027C20.4905 8.51027 22.2705 10.6603 22.2705 15.1303V15.2603C22.2705 20.1503 20.1705 22.2503 15.2605 22.2503Z" fill="#64748B"/>
<path d="M12 15.63C11.59 15.63 11.25 15.29 11.25 14.88V2C11.25 1.59 11.59 1.25 12 1.25C12.41 1.25 12.75 1.59 12.75 2V14.88C12.75 15.3 12.41 15.63 12 15.63Z" fill="#64748B"/>
<path d="M12 16.7498C11.81 16.7498 11.62 16.6798 11.47 16.5298L8.12003 13.1798C7.83003 12.8898 7.83003 12.4098 8.12003 12.1198C8.41003 11.8298 8.89003 11.8298 9.18003 12.1198L12 14.9398L14.82 12.1198C15.11 11.8298 15.59 11.8298 15.88 12.1198C16.17 12.4098 16.17 12.8898 15.88 13.1798L12.53 16.5298C12.38 16.6798 12.19 16.7498 12 16.7498Z" fill="#64748B"/>
</svg>
