<svg width="100" height="100" viewBox="0 0 100 100" fill="none" xmlns="http://www.w3.org/2000/svg">
<path d="M66.9186 94H33.8023C18.693 94 10 85.307 10 70.1977V28.8023C10 13.693 18.693 5 33.8023 5H66.9186C82.0279 5 90.7209 13.693 90.7209 28.8023V70.1977C90.7209 85.307 82.0279 94 66.9186 94ZM33.8023 11.2093C21.9633 11.2093 16.2093 16.9633 16.2093 28.8023V70.1977C16.2093 82.0367 21.9633 87.7907 33.8023 87.7907H66.9186C78.7577 87.7907 84.5116 82.0367 84.5116 70.1977V28.8023C84.5116 16.9633 78.7577 11.2093 66.9186 11.2093H33.8023Z" fill="#778498"/>
<path d="M77.268 38.1163H68.9889C62.6969 38.1163 57.6052 33.0247 57.6052 26.7326V18.4535C57.6052 16.7563 59.0127 15.3489 60.7099 15.3489C62.4071 15.3489 63.8145 16.7563 63.8145 18.4535V26.7326C63.8145 29.5889 66.1327 31.907 68.9889 31.907H77.268C78.9652 31.907 80.3727 33.3145 80.3727 35.0117C80.3727 36.7089 78.9652 38.1163 77.268 38.1163Z" fill="#778498"/>
<path d="M50.3608 56.7447H33.8026C32.1054 56.7447 30.698 55.3373 30.698 53.6401C30.698 51.9428 32.1054 50.5354 33.8026 50.5354H50.3608C52.058 50.5354 53.4654 51.9428 53.4654 53.6401C53.4654 55.3373 52.058 56.7447 50.3608 56.7447Z" fill="#778498"/>
<path d="M66.9189 73.3018H33.8026C32.1054 73.3018 30.698 71.8944 30.698 70.1972C30.698 68.5 32.1054 67.0925 33.8026 67.0925H66.9189C68.6161 67.0925 70.0236 68.5 70.0236 70.1972C70.0236 71.8944 68.6161 73.3018 66.9189 73.3018Z" fill="#778498"/>
</svg>
