<svg width="17" height="17" viewBox="0 0 17 17" fill="none" xmlns="http://www.w3.org/2000/svg">
<path fill-rule="evenodd" clip-rule="evenodd" d="M0.666687 8.82092C0.666687 4.31749 4.31743 0.666748 8.82085 0.666748C13.3243 0.666748 16.975 4.31749 16.975 8.82092C16.975 13.3243 13.3243 16.9751 8.82085 16.9751C4.31743 16.9751 0.666687 13.3243 0.666687 8.82092ZM8.82505 11.9335C8.47988 11.9335 8.20005 11.6536 8.20005 11.3085V8.72512C8.20005 8.37994 8.47988 8.10012 8.82505 8.10012C9.17023 8.10012 9.45006 8.37994 9.45006 8.72512V11.3251C9.43678 11.6619 9.16207 11.9293 8.82505 11.9335ZM8.20005 6.70839C8.20005 7.05357 8.47988 7.33339 8.82505 7.33339C9.16207 7.32922 9.43678 7.06184 9.45006 6.72506V6.41673C9.45006 6.07155 9.17023 5.79173 8.82505 5.79173C8.47988 5.79173 8.20005 6.07155 8.20005 6.41673V6.70839Z" fill="#64748B"/>
</svg>
