<svg width="155" height="74" viewBox="0 0 155 74" fill="none" xmlns="http://www.w3.org/2000/svg">
<path fill-rule="evenodd" clip-rule="evenodd" d="M35.1708 8.43393C26.4397 7.47737 18.3605 11.9262 14.1609 19.1087C18.8809 15.7477 24.778 14.0397 30.9616 14.7148C43.2715 16.0602 52.4729 26.3676 52.9527 38.5309C53.6857 36.6918 54.1799 34.719 54.3996 32.6556C55.6936 20.5805 47.0771 9.73876 35.1708 8.43393Z" fill="#00377B"/>
<path fill-rule="evenodd" clip-rule="evenodd" d="M51.5322 5.75747C51.7925 3.04523 49.7989 0.647872 47.0987 0.399787C44.396 0.146931 41.999 2.12923 41.7459 4.83669C41.4952 7.54416 43.484 9.94151 46.1843 10.1968C48.8845 10.4496 51.2815 8.46255 51.5322 5.75747Z" fill="#00377B"/>
<path fill-rule="evenodd" clip-rule="evenodd" d="M55.2495 50.6584C55.3712 48.9385 54.0772 47.45 52.3606 47.3236C50.644 47.2043 49.1471 48.4924 49.0253 50.2123C48.9035 51.9251 50.1928 53.4184 51.907 53.5424C53.6284 53.6688 55.1205 52.3783 55.2495 50.6584Z" fill="#F68632"/>
<path fill-rule="evenodd" clip-rule="evenodd" d="M21.3042 53.6045C30.0519 54.4394 38.0667 49.8904 42.1708 42.653C37.4961 46.0713 31.6205 47.8628 25.425 47.2736C13.1032 46.0952 3.74901 35.9165 3.10917 23.7651C2.40247 25.6115 1.93453 27.5866 1.73875 29.6571C0.621408 41.7489 9.38109 52.4714 21.3042 53.6045Z" fill="#F68632"/>
<path fill-rule="evenodd" clip-rule="evenodd" d="M14.359 57.0777C14.6073 54.3702 12.6209 51.9753 9.91828 51.72C7.22043 51.4672 4.82339 53.459 4.57032 56.1569C4.31963 58.8644 6.30363 61.2617 9.00626 61.5146C11.7065 61.7698 14.1035 59.7828 14.359 57.0777Z" fill="#F68632"/>
<path fill-rule="evenodd" clip-rule="evenodd" d="M7.06768 11.5779C7.11543 9.85561 5.76411 8.41958 4.04035 8.36233C2.31897 8.31939 0.879318 9.66716 0.826793 11.3871C0.781431 13.1117 2.13275 14.5501 3.85174 14.6026C5.5755 14.6527 7.01515 13.3026 7.06768 11.5779Z" fill="#F68632"/>
<path fill-rule="evenodd" clip-rule="evenodd" d="M23.3169 9.1853C22.1231 8.78217 20.8387 8.53408 19.5136 8.46967C11.771 8.08323 5.17916 14.0468 4.79238 21.7828C4.51782 27.4458 7.64304 32.4981 12.3846 34.9432C10.0687 32.0234 8.758 28.2783 8.95855 24.2612C9.35009 16.2772 15.579 9.94149 23.3169 9.1853Z" fill="#F68632"/>
<path fill-rule="evenodd" clip-rule="evenodd" d="M32.5374 52.8864C33.7311 53.3158 35.0084 53.5782 36.3311 53.6689C44.0713 54.1674 50.7491 48.3112 51.2505 40.58C51.6134 34.9098 48.5645 29.8145 43.866 27.2955C46.1365 30.2535 47.3851 34.0201 47.1297 38.03C46.6092 46.0164 40.2871 52.2471 32.5374 52.8864Z" fill="#F68632"/>
<path d="M23.1474 26.6991C23.1474 26.9687 23.0471 27.2025 22.8466 27.4005C22.646 27.5984 22.3762 27.7726 22.0396 27.9229C21.9298 27.441 21.7579 27.0784 21.5263 26.8351C21.2947 26.5918 20.9628 26.4701 20.5259 26.4701C20.2108 26.4701 19.9195 26.5512 19.6569 26.7135C19.3942 26.8757 19.1579 27.0927 18.9454 27.3671C18.7329 27.6414 18.5491 27.9539 18.3915 28.3117C18.2339 28.6671 18.1026 29.0392 17.9976 29.4257C17.8925 29.8121 17.8137 30.1986 17.7612 30.5874C17.7087 30.9762 17.68 31.3388 17.68 31.6752C17.68 32.0163 17.7135 32.324 17.7803 32.5983C17.8472 32.8726 17.9498 33.1016 18.0883 33.2901C18.2268 33.4785 18.4011 33.6217 18.6135 33.7219C18.8236 33.822 19.0767 33.8721 19.3656 33.8721C19.5661 33.8721 19.7762 33.8411 19.9935 33.7815C20.2108 33.7219 20.4304 33.6384 20.6525 33.5286C20.8745 33.4189 21.0917 33.2901 21.3066 33.1374C21.5191 32.9871 21.722 32.8178 21.9154 32.6341C21.9632 32.7629 22.0014 32.8798 22.0348 32.9824C22.0658 33.0873 22.0826 33.1827 22.0826 33.2686C22.0826 33.4141 22.0348 33.5596 21.9393 33.7028C21.8438 33.8483 21.7125 33.9866 21.5454 34.1202C21.3782 34.2514 21.1825 34.3755 20.9557 34.4876C20.7289 34.5997 20.4877 34.6999 20.2275 34.7858C19.9696 34.8716 19.6998 34.9384 19.4157 34.9837C19.134 35.0315 18.8547 35.0529 18.5753 35.0529C18.0811 35.0529 17.6562 34.9814 17.3028 34.8382C16.9495 34.6951 16.663 34.4852 16.4385 34.2085C16.2141 33.9318 16.0494 33.5907 15.9419 33.1899C15.8345 32.7891 15.782 32.3288 15.782 31.8064C15.782 31.2768 15.8441 30.7544 15.9706 30.2344C16.0971 29.7167 16.2762 29.2229 16.5054 28.7554C16.737 28.2878 17.0139 27.8561 17.3386 27.4577C17.6633 27.0617 18.0238 26.7182 18.4225 26.4272C18.8189 26.1362 19.2462 25.9096 19.7046 25.745C20.1606 25.5804 20.6405 25.4993 21.1395 25.4993C21.4212 25.4993 21.6838 25.5231 21.9274 25.5684C22.1709 25.6162 22.3834 25.6877 22.5624 25.7831C22.7415 25.8786 22.8847 26.0026 22.9874 26.1553C23.0972 26.3103 23.1474 26.4892 23.1474 26.6991Z" fill="#00377B"/>
<path d="M28.7938 33.2234C28.9824 33.0182 29.1352 32.868 29.2522 32.7749C29.3692 32.6819 29.4575 32.6342 29.5172 32.6342C29.5554 32.6342 29.5745 32.67 29.5745 32.7439C29.5745 32.8846 29.5435 33.0373 29.479 33.1995C29.4145 33.3617 29.3286 33.5216 29.2188 33.679C29.1089 33.8364 28.9848 33.9891 28.8439 34.1322C28.7031 34.2777 28.555 34.4066 28.3975 34.5163C28.2423 34.6284 28.0847 34.7167 27.9271 34.7811C27.7696 34.8479 27.6215 34.8813 27.4855 34.8813C27.156 34.8813 26.8981 34.7787 26.7143 34.5759C26.5281 34.3732 26.435 34.0583 26.435 33.6313C26.435 33.5621 26.435 33.4858 26.4374 33.3999C26.4397 33.314 26.4445 33.2282 26.4493 33.1399C26.4564 33.0516 26.4612 32.9681 26.4684 32.887C26.4755 32.8059 26.4827 32.7368 26.4899 32.6771C26.0458 33.4023 25.6113 33.9486 25.1863 34.3159C24.7613 34.6833 24.3531 34.8765 23.9591 34.8932H23.8302C23.5962 34.8932 23.3957 34.8526 23.2333 34.7715C23.071 34.6904 22.9397 34.5759 22.8394 34.428C22.7391 34.2801 22.6675 34.106 22.6221 33.9032C22.5768 33.7005 22.5553 33.4786 22.5553 33.2353C22.5648 32.856 22.6174 32.472 22.7176 32.0831C22.8179 31.6943 22.954 31.3198 23.1235 30.9596C23.293 30.5994 23.496 30.2607 23.7299 29.9458C23.9639 29.6309 24.2146 29.3542 24.4892 29.1204C24.7613 28.8843 25.0526 28.7006 25.3582 28.567C25.6638 28.4334 25.9742 28.3643 26.2893 28.3643C26.5209 28.3643 26.731 28.3881 26.9244 28.4382C27.1178 28.4883 27.2921 28.5718 27.4496 28.6911C27.5404 28.5885 27.6478 28.5122 27.7767 28.4597C27.9057 28.4096 28.0441 28.3833 28.1922 28.3833C28.3712 28.3833 28.5479 28.4072 28.7198 28.4573C28.8917 28.5074 29.0636 28.5766 29.2355 28.6648C29.1639 28.7722 29.0827 28.9368 28.9991 29.1586C28.9156 29.3804 28.8296 29.6333 28.7437 29.9148C28.6577 30.1963 28.5765 30.4944 28.4977 30.8069C28.419 31.1194 28.3473 31.4248 28.2877 31.7182C28.2256 32.0116 28.1754 32.2859 28.1396 32.5388C28.1038 32.7916 28.0847 32.992 28.0847 33.1399C28.0847 33.1995 28.0847 33.2592 28.0871 33.3188C28.0895 33.3784 28.0943 33.4309 28.1038 33.4786C28.111 33.5263 28.1253 33.5645 28.142 33.5931C28.1587 33.6217 28.1826 33.6361 28.2113 33.6313C28.3091 33.6217 28.4022 33.5812 28.4906 33.5025C28.5837 33.4285 28.6816 33.3331 28.7938 33.2234ZM25.7378 32.5769C25.8882 32.3599 26.0315 32.1332 26.17 31.8947C26.3084 31.6585 26.4373 31.4248 26.5543 31.1934C26.6713 30.962 26.7788 30.7378 26.8743 30.5207C26.9698 30.3036 27.0509 30.1056 27.1154 29.9243C27.0844 29.8051 27.0366 29.7025 26.9674 29.6142C26.8981 29.526 26.8217 29.4544 26.7334 29.3995C26.6451 29.3447 26.5519 29.3041 26.4541 29.2779C26.3562 29.2516 26.2607 29.2397 26.1723 29.2397C26.0148 29.2397 25.8572 29.2993 25.7044 29.4162C25.5516 29.5331 25.4036 29.6906 25.2627 29.8862C25.1218 30.0818 24.9905 30.3084 24.8712 30.5684C24.7518 30.826 24.6467 31.0956 24.5608 31.3771C24.4725 31.6585 24.4056 31.9424 24.3555 32.2287C24.3053 32.5149 24.2815 32.7845 24.2815 33.0421C24.2934 33.252 24.3316 33.4071 24.3937 33.5072C24.4557 33.6074 24.5489 33.6575 24.673 33.6575C24.7971 33.6575 24.9476 33.5645 25.1242 33.3761C25.3033 33.19 25.5062 32.9228 25.7378 32.5769Z" fill="#00377B"/>
<path d="M34.0797 33.1279C34.5071 32.6794 34.7697 32.4719 34.87 32.5077C34.9703 32.5411 34.9034 32.8011 34.6694 33.2829C34.5716 33.4833 34.4379 33.6765 34.2731 33.865C34.106 34.0534 33.9269 34.2204 33.7312 34.3659C33.5378 34.5114 33.342 34.6283 33.1438 34.7166C32.9481 34.8072 32.769 34.8502 32.6114 34.8502C32.4443 34.8502 32.2939 34.8287 32.1626 34.7858C32.0289 34.7428 31.9191 34.676 31.8283 34.583C31.7376 34.4924 31.6732 34.3755 31.6326 34.2347C31.592 34.094 31.5848 33.9246 31.6111 33.729C31.623 33.6097 31.6445 33.4785 31.6755 33.333C31.7066 33.1875 31.74 33.042 31.7782 32.8941C31.8164 32.7462 31.857 32.6031 31.8976 32.4647C31.9382 32.3264 31.9764 32.2047 32.0098 32.1021C32.0313 32.0306 32.0623 31.9304 32.1029 31.8064C32.1435 31.6823 32.1889 31.544 32.2366 31.3937C32.2867 31.241 32.3369 31.0883 32.3894 30.9285C32.4419 30.7711 32.4921 30.6208 32.5398 30.4801C32.5876 30.3393 32.6258 30.2153 32.6592 30.1127C32.6902 30.0077 32.7141 29.9338 32.726 29.8908C32.7642 29.7716 32.7881 29.6833 32.7953 29.6285C32.8048 29.5736 32.769 29.5521 32.6926 29.564C32.6663 29.5688 32.6186 29.576 32.5517 29.5855C32.4825 29.5951 32.4013 29.6046 32.3082 29.6141C32.2151 29.6237 32.1101 29.6308 31.9979 29.6404C31.8833 29.6499 31.771 29.6523 31.6541 29.6523C31.6111 29.7716 31.5562 29.9195 31.4917 30.0936C31.4249 30.2677 31.3365 30.4514 31.2267 30.6446C31.1193 30.8379 31.0023 31.0215 30.8733 31.1981C30.7444 31.3746 30.6155 31.5129 30.4818 31.6107C30.3314 31.7205 30.1714 31.7992 30.0019 31.8398C29.83 31.8827 29.6653 31.8731 29.5029 31.8135C29.6557 31.6346 29.7847 31.4605 29.8897 31.2959C29.9948 31.1289 30.0831 30.9619 30.1523 30.7902C30.2216 30.6184 30.2741 30.4419 30.3099 30.2558C30.3433 30.0698 30.3672 29.8694 30.3791 29.6499C30.1953 29.5807 30.064 29.4853 29.9852 29.3613C29.9064 29.2372 29.8658 29.106 29.8658 28.9653C29.8658 28.8246 29.8945 28.6814 29.9518 28.5359C30.0091 28.3904 30.0807 28.2616 30.169 28.1495C30.2574 28.0374 30.3505 27.9467 30.4531 27.8847C30.5558 27.8203 30.6465 27.7964 30.7277 27.8131C30.7229 27.8632 30.7086 27.9276 30.6847 28.0016C30.6609 28.0755 30.6513 28.1495 30.6537 28.2234C30.6561 28.295 30.6871 28.3642 30.7468 28.4286C30.8065 28.493 30.9211 28.5383 31.0906 28.5669C31.2601 28.5956 31.4965 28.6003 31.8021 28.586C32.1077 28.5717 32.5064 28.5216 32.9982 28.4357C33.0961 28.4143 33.2179 28.3904 33.3611 28.3618C33.5044 28.3332 33.6452 28.326 33.7885 28.3403C33.9293 28.3522 34.0559 28.3952 34.1705 28.4691C34.2827 28.5407 34.3591 28.6647 34.3973 28.8413C34.4402 29.0416 34.445 29.2492 34.4092 29.4591C34.3758 29.6714 34.3233 29.8837 34.254 30.096C34.1848 30.3083 34.1084 30.523 34.0224 30.7329C33.9365 30.9452 33.8649 31.148 33.8052 31.3436C33.7025 31.6799 33.6046 31.99 33.5115 32.2715C33.4184 32.553 33.3611 32.8035 33.3444 33.0205C33.3396 33.0849 33.3372 33.1494 33.3348 33.2161C33.3325 33.2829 33.3348 33.3402 33.3372 33.3927C33.342 33.4428 33.3516 33.4857 33.3683 33.5167C33.385 33.5477 33.4112 33.562 33.4447 33.5573C33.5139 33.5525 33.5999 33.5072 33.7073 33.4189C33.8219 33.3378 33.9437 33.2376 34.0797 33.1279Z" fill="#00377B"/>
<path d="M38.1051 33.9795C38.5277 33.9365 38.9049 33.8268 39.2391 33.6503C39.571 33.4738 39.8933 33.2352 40.1989 32.937C40.2801 33.0873 40.3159 33.2447 40.3039 33.4141C40.292 33.5835 40.2323 33.7361 40.1201 33.8721C40.0222 33.9962 39.8981 34.113 39.7524 34.2204C39.6044 34.3301 39.4349 34.4255 39.2439 34.5114C38.659 34.7762 38.0358 34.9098 37.3721 34.9098C36.6797 34.9098 36.1426 34.7595 35.7606 34.4613C35.3786 34.1631 35.1732 33.7075 35.1422 33.0969C35.1303 32.7939 35.1446 32.4933 35.1899 32.1952C35.2353 31.897 35.3069 31.606 35.4048 31.3245C35.5027 31.043 35.6292 30.7734 35.782 30.5182C35.9348 30.263 36.1163 30.0244 36.3216 29.8073C36.7227 29.3279 37.1668 28.9677 37.6538 28.722C38.1409 28.4763 38.6518 28.3546 39.1842 28.3546C39.6808 28.3546 40.0461 28.4572 40.2872 28.6647C40.526 28.8723 40.643 29.1776 40.6334 29.5831C40.6334 29.7835 40.5713 29.9934 40.4472 30.2129C40.323 30.4323 40.1464 30.6494 39.9148 30.8665C39.6832 31.0812 39.4062 31.2863 39.0815 31.4771C38.7569 31.6704 38.3963 31.835 37.9976 31.9757C37.9045 32.0091 37.7899 32.0544 37.6586 32.1093C37.5273 32.1641 37.4008 32.2262 37.2814 32.2953C37.162 32.3645 37.0593 32.4385 36.9734 32.5172C36.8875 32.5959 36.8421 32.6746 36.8397 32.751C36.8302 32.8965 36.8373 33.0277 36.8588 33.1446C36.8803 33.2615 36.9185 33.3593 36.9734 33.4356C37.1023 33.6264 37.2647 33.7743 37.4628 33.8745C37.6658 33.9723 37.8783 34.0081 38.1051 33.9795ZM37.0784 31.4175C37.0689 31.4604 37.0593 31.5082 37.045 31.5582C37.0355 31.606 37.0259 31.6608 37.0092 31.7252C36.9949 31.7896 36.9782 31.8612 36.9615 31.9423C37.0116 31.835 37.0713 31.7443 37.1405 31.668C37.2074 31.5916 37.2838 31.5225 37.3673 31.4628C37.4509 31.4032 37.5416 31.3459 37.6395 31.2935C37.7374 31.241 37.8424 31.1837 37.9547 31.1241C38.1433 31.0215 38.3008 30.919 38.425 30.8164C38.5515 30.7138 38.6542 30.6136 38.7354 30.5158C38.8165 30.418 38.8786 30.3178 38.924 30.2153C38.9693 30.1127 39.0051 30.0101 39.0362 29.9075C39.0648 29.805 39.0792 29.7072 39.0744 29.6141C39.0696 29.5211 39.0505 29.4376 39.0123 29.3684C38.9765 29.2992 38.9216 29.242 38.8524 29.2014C38.7807 29.1609 38.6924 29.1394 38.5873 29.1394C38.2674 29.1394 37.9761 29.335 37.7183 29.7262C37.4652 30.1151 37.2503 30.678 37.0784 31.4175Z" fill="#00377B"/>
<path d="M154.612 8.3075H140.975V53.7333H154.612V8.3075Z" fill="#00377B"/>
<path fill-rule="evenodd" clip-rule="evenodd" d="M96.4934 8.3075C100.239 10.192 102.768 15.137 102.746 19.1731H111.036V53.7333H124.639V19.1731H137.477V8.3075H96.4934Z" fill="#00377B"/>
<path fill-rule="evenodd" clip-rule="evenodd" d="M95.9776 11.8212C93.5328 9.47153 89.8322 8.30505 84.9188 8.30505H62.2974V53.7332H75.9657V35.9808H83.4075C88.8963 35.9808 92.9742 34.7261 95.6458 32.2309C98.3221 29.731 99.6591 26.2602 99.6591 21.8161C99.6591 17.4961 98.4248 14.1494 95.9776 11.8212ZM84.8209 25.7044C83.7561 26.6085 81.9297 27.0665 79.2939 27.0665H75.9681V17.2528H79.843C82.3785 17.2528 84.1166 17.7299 85.0262 18.7008C85.9478 19.6478 86.4134 20.8262 86.4134 22.2074C86.4157 23.6219 85.8786 24.7932 84.8209 25.7044Z" fill="#00377B"/>
<path d="M30.305 61.2831C30.2621 61.9845 30.009 62.5904 29.5482 63.1032C29.0874 63.6161 28.45 64.0359 27.6406 64.3651C28.0298 64.4462 28.3712 64.5655 28.6648 64.7206C28.9585 64.878 29.2068 65.0641 29.405 65.2787C29.6055 65.4934 29.7535 65.7367 29.8538 66.0063C29.9541 66.2758 30.0042 66.5645 30.0042 66.8722V66.9438C29.9875 67.4948 29.8514 67.9934 29.596 68.4394C29.3405 68.8879 28.9824 69.2886 28.524 69.6441C28.0226 70.0496 27.4496 70.3454 26.8074 70.5386C26.1651 70.7318 25.4752 70.8249 24.735 70.8249C24.5727 70.8249 24.3817 70.8177 24.1597 70.8034C23.9376 70.7891 23.7132 70.77 23.4888 70.7461C23.262 70.7223 23.0447 70.6961 22.837 70.665C22.6293 70.6364 22.455 70.6078 22.3141 70.5792C22.221 70.5577 22.1303 70.51 22.0396 70.4384C21.9488 70.3669 21.8653 70.2786 21.7913 70.176C21.7173 70.0735 21.66 69.9613 21.6122 69.8397C21.5668 69.718 21.543 69.5964 21.543 69.4723C21.543 69.3912 21.5454 69.3054 21.5477 69.2171C21.5501 69.1288 21.5621 69.0382 21.5836 68.9475C21.7029 68.4466 21.8271 67.9194 21.9608 67.3708C22.0921 66.8221 22.2234 66.2735 22.3523 65.7296C22.4813 65.1857 22.6054 64.6585 22.7248 64.148C22.8441 63.6376 22.9492 63.1724 23.0399 62.7526C23.1306 62.3327 23.2047 61.9701 23.2572 61.6696C23.3121 61.3666 23.3384 61.1519 23.3384 61.0231C23.3384 60.9707 23.336 60.9134 23.3312 60.8585C23.3264 60.8013 23.3193 60.7512 23.3097 60.7059C23.3025 60.6605 23.2906 60.6248 23.2787 60.6009C23.2643 60.5771 23.2476 60.5675 23.2261 60.5723C23.1235 60.5938 23.0304 60.6057 22.942 60.6081C22.8561 60.6104 22.7892 60.6128 22.7391 60.6128C22.6961 60.5961 22.6818 60.5126 22.6985 60.3624C22.6985 60.2932 22.7057 60.2216 22.7176 60.1477C22.7319 60.0761 22.7558 60.0069 22.794 59.9425C22.8585 59.8066 22.9182 59.7016 22.9755 59.6277C23.0328 59.5513 23.0924 59.4917 23.1545 59.4487C23.2166 59.4058 23.2858 59.3724 23.3598 59.3486C23.4362 59.3247 23.527 59.2961 23.6344 59.2627C24.1143 59.1339 24.5989 59.0337 25.0884 58.9669C25.5778 58.9001 26.0696 58.8667 26.5662 58.8667H26.8909C26.9984 58.8667 27.1106 58.8715 27.2228 58.8834C27.7194 58.9096 28.1587 58.974 28.5431 59.0742C28.9275 59.1744 29.2474 59.3175 29.5076 59.506C29.7679 59.6944 29.9636 59.9354 30.0997 60.2312C30.2358 60.5222 30.305 60.8728 30.305 61.2831ZM27.7624 67.0988C27.7624 66.5597 27.5976 66.1447 27.2682 65.8536C26.9387 65.5626 26.4564 65.3718 25.819 65.2787C25.7426 65.262 25.6685 65.2525 25.5969 65.2501C25.5229 65.2477 25.4489 65.2501 25.3749 65.262C25.2985 65.2716 25.2245 65.2787 25.1481 65.2787H24.9141C24.8592 65.2787 24.8043 65.2668 24.7446 65.243C24.6849 65.2191 24.6324 65.169 24.5822 65.0927C24.5178 65.3503 24.4509 65.6318 24.3793 65.93C24.3101 66.2281 24.2384 66.5311 24.1692 66.8364C24.1 67.1418 24.0331 67.4399 23.971 67.7334C23.909 68.0268 23.8588 68.3011 23.8206 68.5539C23.8111 68.6613 23.8039 68.7615 23.8015 68.8521C23.7991 68.9451 23.7968 69.0334 23.7968 69.1193C23.9758 69.2767 24.1859 69.3936 24.4271 69.4723C24.6706 69.551 24.9404 69.594 25.2364 69.6059C25.6518 69.6059 26.01 69.5463 26.3084 69.427C26.6068 69.3077 26.8718 69.1264 27.0986 68.8855C27.5308 68.4108 27.7528 67.8383 27.7624 67.1704V67.0988ZM28.1921 61.4931C28.1921 61.2235 28.1467 60.9993 28.0536 60.818C27.9629 60.6367 27.8364 60.4912 27.674 60.3814C27.5117 60.2717 27.3207 60.1906 27.1034 60.1429C26.8862 60.0952 26.645 60.0713 26.3872 60.0713C26.3442 60.0713 26.2797 60.0761 26.1938 60.0833C26.1078 60.0904 26.0123 60.1024 25.9073 60.1167C25.8022 60.131 25.6948 60.1453 25.5874 60.1644C25.4799 60.1835 25.3844 60.2002 25.3033 60.2169C25.3558 60.3194 25.394 60.422 25.4155 60.5246C25.437 60.6272 25.4489 60.744 25.4489 60.8728C25.4489 60.9587 25.4441 61.0541 25.4322 61.1591C25.4202 61.2641 25.4011 61.3881 25.3749 61.5265C25.3319 61.7364 25.2865 61.9534 25.2364 62.1777C25.1887 62.4019 25.1385 62.6238 25.086 62.8456C25.0335 63.0674 24.9857 63.2845 24.9356 63.4968C24.8878 63.7091 24.8377 63.9095 24.7899 64.0979C24.8711 64.0932 24.9642 64.086 25.0693 64.0789C25.1743 64.0717 25.2818 64.0622 25.394 64.055C25.5038 64.0479 25.6112 64.0383 25.7139 64.0264C25.8166 64.0145 25.9073 64.0025 25.9885 63.9858C26.3394 63.9214 26.6498 63.8165 26.9196 63.671C27.1894 63.5255 27.4162 63.3465 27.6024 63.1366C27.7886 62.9267 27.9295 62.6905 28.0274 62.4281C28.1253 62.1657 28.1778 61.889 28.1897 61.598V61.4931H28.1921Z" fill="#00377B"/>
<path d="M38.5299 68.604C38.7662 68.3464 38.9596 68.1556 39.1077 68.0387C39.2557 67.9194 39.3679 67.8598 39.4443 67.8598C39.4944 67.8598 39.5183 67.9051 39.5183 67.9981C39.5183 68.177 39.4777 68.3679 39.3965 68.573C39.3154 68.7782 39.2055 68.9809 39.0695 69.1789C38.931 69.3793 38.7734 69.5701 38.5967 69.7538C38.4177 69.9375 38.2314 70.0997 38.0333 70.2381C37.8375 70.3788 37.637 70.4909 37.4388 70.5744C37.2383 70.6579 37.052 70.7008 36.8801 70.7008C36.4647 70.7008 36.14 70.572 35.9036 70.3168C35.6697 70.0615 35.5503 69.6632 35.5503 69.1241C35.5503 69.0382 35.5527 68.9404 35.5551 68.833C35.5575 68.7257 35.5622 68.616 35.5718 68.5062C35.5789 68.3965 35.5885 68.2892 35.5957 68.1866C35.6052 68.084 35.6124 67.9957 35.6243 67.9194C35.0633 68.8354 34.5141 69.5272 33.9769 69.99C33.4398 70.4527 32.9241 70.6961 32.4275 70.7175H32.2651C31.9691 70.7175 31.7184 70.6674 31.5131 70.5625C31.3077 70.4599 31.143 70.3168 31.0141 70.1307C30.8875 69.9446 30.7944 69.7228 30.7395 69.4676C30.6822 69.2123 30.6536 68.9284 30.6536 68.6231C30.6631 68.1436 30.7324 67.657 30.8589 67.168C30.9854 66.6766 31.1573 66.2043 31.3722 65.7487C31.5871 65.2931 31.8425 64.8661 32.1386 64.4653C32.4322 64.0669 32.7522 63.7187 33.0984 63.4229C33.4445 63.1271 33.8098 62.8933 34.1966 62.7239C34.5834 62.5546 34.9749 62.4687 35.3736 62.4687C35.6649 62.4687 35.9323 62.4997 36.1758 62.5617C36.4193 62.6237 36.639 62.7311 36.8395 62.8814C36.9518 62.7526 37.0902 62.6548 37.2526 62.5904C37.4149 62.5259 37.5892 62.4926 37.7778 62.4926C38.0046 62.4926 38.2267 62.5236 38.4463 62.5856C38.6636 62.6476 38.8808 62.7359 39.0981 62.848C39.0074 62.984 38.9071 63.1891 38.7997 63.4706C38.6922 63.7521 38.5848 64.0693 38.475 64.4247C38.3675 64.7802 38.2625 65.1571 38.1646 65.5531C38.0643 65.949 37.976 66.3331 37.8972 66.7052C37.8184 67.0773 37.7563 67.4232 37.711 67.7405C37.6656 68.0578 37.6417 68.313 37.6417 68.5015C37.6417 68.5778 37.6441 68.6517 37.6465 68.7281C37.6489 68.8044 37.6561 68.8712 37.6656 68.9308C37.6752 68.9905 37.6919 69.0382 37.7134 69.0763C37.7348 69.1145 37.7635 69.1312 37.8017 69.1241C37.9258 69.1121 38.0428 69.0596 38.155 68.9618C38.2625 68.8617 38.389 68.7424 38.5299 68.604ZM34.6669 67.7858C34.8555 67.5115 35.037 67.2229 35.2137 66.9247C35.3879 66.6241 35.5503 66.3307 35.6983 66.0397C35.8463 65.7487 35.9824 65.4648 36.1042 65.1905C36.226 64.9162 36.3262 64.6657 36.4074 64.4391C36.3692 64.2888 36.3071 64.1576 36.2212 64.0479C36.1352 63.9381 36.0373 63.8475 35.9251 63.7759C35.8153 63.7067 35.6959 63.6543 35.5742 63.6232C35.45 63.5899 35.3307 63.5755 35.2184 63.5755C35.0179 63.5755 34.8221 63.6495 34.6263 63.7974C34.433 63.9453 34.2467 64.1433 34.0677 64.3914C33.8886 64.6394 33.7239 64.9257 33.5735 65.2525C33.4231 65.5793 33.2917 65.9204 33.1819 66.2758C33.0721 66.6313 32.9838 66.9915 32.9217 67.3517C32.8596 67.7143 32.8286 68.0554 32.8286 68.3798C32.8453 68.6446 32.893 68.8402 32.9694 68.9666C33.0482 69.093 33.1652 69.1575 33.3228 69.1575C33.478 69.1575 33.669 69.0382 33.8934 68.802C34.1178 68.5611 34.3757 68.2224 34.6669 67.7858ZM37.0329 58.3777C37.2597 58.3777 37.4722 58.4015 37.6728 58.4469C37.8733 58.4922 38.0476 58.5566 38.198 58.6401C38.3484 58.7236 38.4702 58.8261 38.5609 58.9478C38.654 59.0695 38.7066 59.2054 38.7233 59.3557C38.728 59.4153 38.728 59.4774 38.7233 59.5418C38.7185 59.6062 38.7042 59.6754 38.6779 59.7469C38.654 59.8209 38.6134 59.8924 38.5561 59.9664C38.4988 60.0379 38.4224 60.1095 38.3246 60.1811C38.2768 60.2145 38.1932 60.2526 38.0786 60.3027C37.9617 60.3504 37.8399 60.4125 37.711 60.4888H37.7277C37.582 60.5866 37.4507 60.6916 37.3314 60.8084C37.212 60.9253 37.1619 61.0661 37.1786 61.233C37.1833 61.2927 37.1595 61.338 37.1069 61.3714C37.0544 61.4048 36.9876 61.4286 36.9136 61.4453C36.8372 61.462 36.7631 61.4716 36.6915 61.474C36.6175 61.4764 36.565 61.4787 36.5339 61.4787C36.4575 61.4787 36.374 61.4597 36.2785 61.4215C36.183 61.3833 36.0994 61.3332 36.023 61.2688C35.9466 61.2044 35.8917 61.1281 35.8535 61.0422C35.8153 60.9563 35.8153 60.8609 35.8535 60.7583C35.9562 60.6462 36.0827 60.546 36.2307 60.4626C36.3788 60.3791 36.5244 60.2908 36.6676 60.2002C36.8109 60.1095 36.9398 60.0045 37.052 59.8877C37.1666 59.7732 37.2382 59.6253 37.2717 59.4464C37.2669 59.37 37.2502 59.308 37.2239 59.2603C37.1977 59.2126 37.1666 59.1744 37.1308 59.1482C37.095 59.1219 37.0592 59.1029 37.021 59.0909C36.9828 59.079 36.9494 59.0742 36.9159 59.0742C36.873 59.0742 36.8204 59.0838 36.7631 59.1076C36.7035 59.1291 36.6605 59.1792 36.6342 59.2603C36.608 59.3032 36.5435 59.3486 36.4408 59.3939C36.3382 59.4392 36.1687 59.4774 35.9299 59.5036C35.832 59.4821 35.7532 59.4535 35.6959 59.4177C35.6362 59.3819 35.5909 59.3486 35.5575 59.3128C35.524 59.277 35.5025 59.246 35.493 59.215C35.4834 59.1863 35.4763 59.1625 35.4763 59.1458C35.4644 59.0432 35.5025 58.9454 35.5861 58.85C35.6697 58.7546 35.7843 58.6735 35.9275 58.6043C36.0708 58.5351 36.2379 58.4779 36.4289 58.4373C36.6127 58.3992 36.8157 58.3777 37.0329 58.3777Z" fill="#00377B"/>
<path d="M40.9102 64.1147C41.3758 63.5971 41.8938 63.1892 42.4644 62.8934C43.0374 62.5976 43.6486 62.4497 44.3028 62.4497C44.7087 62.4497 45.0764 62.5093 45.413 62.631C45.7472 62.7527 46.0361 62.9268 46.2749 63.1534C46.516 63.38 46.7022 63.6567 46.8335 63.9859C46.9649 64.3151 47.0317 64.6849 47.0317 65.0952C47.0317 65.5651 46.9744 66.0279 46.8574 66.4859C46.7404 66.9439 46.5781 67.3828 46.368 67.8002C46.1579 68.2177 45.9048 68.6065 45.6112 68.9643C45.3175 69.3221 44.9904 69.6322 44.6323 69.8946C44.2742 70.157 43.8874 70.3622 43.4744 70.5101C43.0613 70.658 42.634 70.7319 42.1899 70.7319C41.7792 70.7319 41.4068 70.6675 41.0725 70.5411C40.7383 70.4147 40.4518 70.2334 40.2107 69.9948C39.9695 69.7587 39.7857 69.4677 39.6568 69.1241C39.5278 68.783 39.4634 68.3942 39.4634 67.9624C39.4634 67.2349 39.5851 66.5503 39.8311 65.9086C40.0746 65.2669 40.4351 64.6705 40.9102 64.1147ZM44.8113 65.0928C44.8113 64.8781 44.7946 64.6753 44.7636 64.4869C44.7302 64.2984 44.6776 64.1338 44.6012 63.9931C44.5248 63.8523 44.427 63.7426 44.3004 63.6663C44.1763 63.5876 44.0259 63.5494 43.8468 63.5494C43.6248 63.5494 43.4171 63.6233 43.2237 63.7689C43.0279 63.9144 42.8512 64.11 42.6889 64.3557C42.5265 64.6014 42.3809 64.8829 42.252 65.1977C42.123 65.5126 42.0132 65.8418 41.9249 66.1805C41.8365 66.5193 41.7697 66.858 41.7219 67.1967C41.6766 67.5331 41.6527 67.8456 41.6527 68.1318C41.6527 68.3537 41.6694 68.5564 41.7052 68.7425C41.741 68.9285 41.796 69.0884 41.8747 69.2243C41.9535 69.3603 42.0562 69.4653 42.1827 69.5392C42.3093 69.6155 42.4621 69.6513 42.6411 69.6513C42.856 69.6513 43.0613 69.5798 43.2571 69.4343C43.4505 69.2887 43.6271 69.0955 43.7871 68.8546C43.9471 68.6137 44.0903 68.337 44.2169 68.0221C44.3434 67.7072 44.4508 67.3804 44.5416 67.0441C44.6299 66.7077 44.6991 66.369 44.7445 66.0326C44.7899 65.6891 44.8113 65.379 44.8113 65.0928Z" fill="#00377B"/>
<path d="M59.2317 68.6041C59.4681 68.3465 59.6615 68.1556 59.8095 68.0387C59.9575 67.9195 60.0697 67.8598 60.1461 67.8598C60.1939 67.8598 60.2178 67.9051 60.2178 67.9982C60.2178 68.1771 60.1772 68.3679 60.096 68.5731C60.0148 68.7782 59.905 68.981 59.7689 69.179C59.6304 69.3793 59.4729 69.5702 59.2938 69.7539C59.1147 69.9375 58.9285 70.0997 58.7304 70.2381C58.5322 70.3788 58.334 70.491 58.1359 70.5744C57.9353 70.6579 57.7491 70.7009 57.5772 70.7009C57.1618 70.7009 56.8371 70.5721 56.6007 70.3168C56.3667 70.0616 56.2474 69.6632 56.2474 69.1241C56.2474 69.0382 56.2498 68.9404 56.2522 68.8331C56.2545 68.7257 56.2593 68.616 56.2689 68.5063C56.276 68.3965 56.2856 68.2892 56.2927 68.1866C56.2999 68.0841 56.3094 67.9958 56.3214 67.9195C55.7603 68.8355 55.2112 69.5272 54.674 69.99C54.1368 70.4528 53.6211 70.6961 53.1245 70.7176H52.9622C52.6661 70.7176 52.4131 70.6675 52.2101 70.5649C52.0048 70.4623 51.8401 70.3192 51.7112 70.1308C51.5846 69.9447 51.4915 69.7228 51.4366 69.4676C51.3793 69.2124 51.353 68.9285 51.353 68.6232C51.3626 68.1437 51.4318 67.6571 51.5584 67.168C51.6849 66.6766 51.8568 66.2043 52.0717 65.7487C52.2865 65.2931 52.542 64.8661 52.8357 64.4654C53.1293 64.067 53.4492 63.7187 53.7954 63.4229C54.1416 63.1271 54.5069 62.8934 54.8937 62.724C55.2804 62.5546 55.672 62.4688 56.0707 62.4688C56.362 62.4688 56.6294 62.4998 56.8729 62.5618C57.1164 62.6238 57.3361 62.7311 57.5366 62.8814C57.6512 62.7526 57.7873 62.6548 57.9497 62.5904C58.112 62.526 58.2863 62.4926 58.4749 62.4926C58.7017 62.4926 58.9237 62.5236 59.1434 62.5856C59.363 62.6477 59.5803 62.7359 59.7952 62.848C59.7045 62.984 59.6042 63.1915 59.4944 63.4706C59.3869 63.7497 59.2795 64.0694 59.1697 64.4248C59.0622 64.7802 58.9572 65.1571 58.8593 65.5531C58.759 65.9491 58.6707 66.3331 58.5919 66.7053C58.5131 67.0774 58.451 67.4233 58.4057 67.7406C58.3603 68.0578 58.3364 68.3131 58.3364 68.5015C58.3364 68.5778 58.3388 68.6518 58.3412 68.7281C58.3436 68.8045 58.3508 68.8712 58.3627 68.9309C58.3722 68.9905 58.3889 69.0382 58.4104 69.0764C58.4319 69.1146 58.4606 69.1289 58.4988 69.1241C58.6229 69.1122 58.7399 69.0597 58.8521 68.9619C58.9643 68.8617 59.0909 68.7448 59.2317 68.6041ZM55.3688 67.7859C55.5574 67.5116 55.7388 67.2229 55.9155 66.9247C56.0898 66.6242 56.2522 66.3308 56.4002 66.0397C56.5482 65.7487 56.6843 65.4649 56.806 65.1905C56.9278 64.9162 57.0281 64.6657 57.1093 64.4391C57.0711 64.2888 57.009 64.1576 56.923 64.0479C56.8371 63.9382 56.7392 63.8475 56.627 63.776C56.5172 63.7068 56.4002 63.6543 56.2736 63.6209C56.1495 63.5875 56.0301 63.5732 55.9179 63.5732C55.7173 63.5732 55.5216 63.6472 55.3258 63.795C55.1324 63.9429 54.9462 64.1409 54.7671 64.389C54.5905 64.6371 54.4257 64.9234 54.2729 65.2502C54.1225 65.577 53.9912 65.9181 53.879 66.2735C53.7692 66.6289 53.6832 66.9891 53.6211 67.3493C53.5591 67.7119 53.528 68.053 53.528 68.3775C53.5447 68.6422 53.5925 68.8378 53.6689 68.9643C53.7477 69.0907 53.8647 69.1551 54.0199 69.1551C54.175 69.1551 54.366 69.0358 54.5905 68.7997C54.8197 68.5611 55.0775 68.2224 55.3688 67.7859Z" fill="#00377B"/>
<path d="M65.6686 64.2912C65.5659 64.2912 65.4465 64.3461 65.3081 64.4582C65.1696 64.5679 65.0216 64.7158 64.8616 64.9043C64.7016 65.0903 64.5345 65.305 64.3602 65.5507C64.1859 65.7964 64.0117 66.0564 63.8374 66.3307C63.6535 66.6265 63.4983 66.8937 63.367 67.1322C63.2381 67.3684 63.114 67.6165 62.9994 67.8717C62.8824 68.127 62.7606 68.4108 62.6341 68.7209C62.5075 69.0311 62.3547 69.4056 62.1757 69.8421C62.1208 69.9757 62.0611 70.095 61.9966 70.1928C61.9322 70.293 61.8534 70.3764 61.7626 70.4432C61.6719 70.51 61.5573 70.5601 61.4236 70.5935C61.2875 70.6269 61.1276 70.6412 60.9366 70.6412C60.7862 70.6412 60.6143 70.6317 60.4233 70.6126C60.2323 70.5935 60.015 70.5649 59.7715 70.5267C59.9386 70.1117 60.0962 69.6918 60.2442 69.2696C60.3922 68.8474 60.5283 68.4252 60.6525 68.0029C60.9437 67.0392 61.1514 66.2091 61.2756 65.5149C61.3997 64.8208 61.4618 64.2721 61.4618 63.869C61.4618 63.6805 61.4475 63.504 61.4212 63.3394C61.395 63.1748 61.352 63.0293 61.2923 62.9053C61.6218 62.755 61.9178 62.6453 62.1781 62.5808C62.4407 62.5164 62.6675 62.483 62.8633 62.483C62.954 62.483 63.0471 62.4974 63.1426 62.5236C63.2381 62.5498 63.3217 62.5928 63.3981 62.65C63.4745 62.7073 63.5365 62.7788 63.5843 62.8695C63.632 62.9577 63.6583 63.0675 63.6583 63.1963C63.6583 63.504 63.6034 63.8857 63.4936 64.3461C63.3837 64.8041 63.2572 65.3265 63.1164 65.9157C63.3479 65.4839 63.6177 65.0617 63.9257 64.6466C64.2337 64.2316 64.556 63.8594 64.8974 63.535C65.2364 63.2082 65.5826 62.9458 65.9288 62.7454C66.2774 62.5451 66.6069 62.4473 66.9196 62.4473C67.0867 62.4473 67.2419 62.4735 67.3804 62.5284C67.5213 62.5832 67.6406 62.6572 67.7409 62.755C67.8412 62.8528 67.92 62.9673 67.9749 63.0985C68.0322 63.2297 68.0608 63.3752 68.0608 63.5302C68.0608 63.869 68.0131 64.2912 67.9152 64.7921C67.8173 65.2931 67.7003 65.8393 67.5595 66.4262C67.5045 66.6098 67.452 66.7935 67.4019 66.9772C67.3517 67.1609 67.304 67.3422 67.261 67.5187C67.218 67.6976 67.1822 67.8646 67.156 68.0244C67.1297 68.1842 67.1154 68.3297 67.1154 68.4657C67.1154 68.542 67.1178 68.616 67.1202 68.6923C67.1226 68.7687 67.1297 68.8378 67.1417 68.8999C67.1536 68.9619 67.1679 69.012 67.1894 69.0501C67.2109 69.0883 67.2395 69.1074 67.2777 69.1074C67.3541 69.1074 67.4568 69.0597 67.5881 68.9619C67.7194 68.8641 67.8579 68.74 67.9964 68.5898C68.2399 68.3417 68.4285 68.1556 68.5622 68.0316C68.6959 67.9075 68.8057 67.8455 68.8869 67.8455C68.9203 67.8455 68.9442 67.8526 68.9585 67.8693C68.9752 67.886 68.9824 67.9171 68.9824 67.9672C68.9824 68.1508 68.9418 68.344 68.8606 68.5492C68.7795 68.7543 68.6696 68.9571 68.5312 69.1599C68.3927 69.3626 68.2351 69.5535 68.0537 69.7348C67.8722 69.916 67.6836 70.0759 67.4878 70.2166C67.2921 70.3574 67.0915 70.4695 66.8933 70.553C66.6928 70.6364 66.5066 70.6794 66.3347 70.6794C65.9407 70.6794 65.6184 70.5697 65.3701 70.3478C65.1218 70.126 64.9977 69.7825 64.9977 69.3125C64.9977 69.0525 65.0263 68.7901 65.086 68.5206C65.1457 68.251 65.2126 67.9457 65.289 67.607C65.4823 66.7601 65.6328 66.0803 65.7354 65.5698C65.8381 65.0569 65.8882 64.7444 65.8882 64.6323C65.8882 64.5083 65.8643 64.4224 65.819 64.3723C65.7808 64.3151 65.7283 64.2912 65.6686 64.2912Z" fill="#00377B"/>
<path d="M79.2127 68.1675C79.2605 68.2534 79.2939 68.3369 79.3106 68.418C79.3273 68.4991 79.3345 68.585 79.3345 68.678C79.3345 68.8927 79.2748 69.0931 79.153 69.2768C79.0313 69.4604 78.8689 69.6274 78.6684 69.7825C78.4654 69.9351 78.2362 70.0711 77.976 70.1904C77.7182 70.3096 77.4508 70.4074 77.1786 70.4862C76.9064 70.5649 76.639 70.6245 76.3764 70.6675C76.1138 70.7104 75.8798 70.7319 75.6673 70.7319C73.8767 70.7319 72.979 69.8946 72.979 68.2152C72.979 67.7191 73.0411 67.2324 73.1652 66.7554C73.2894 66.2783 73.4637 65.8274 73.6881 65.4004C73.9125 64.9734 74.1799 64.5798 74.4903 64.2196C74.8007 63.8594 75.1445 63.5469 75.5217 63.2845C75.8989 63.0221 76.3048 62.817 76.7369 62.6691C77.169 62.5212 77.6131 62.4473 78.0739 62.4473C78.7161 62.4473 79.1888 62.526 79.4944 62.681C79.8 62.8361 79.9528 63.0722 79.9528 63.3847C79.9528 63.5255 79.917 63.6591 79.8478 63.7855C79.7786 63.9119 79.6783 64.0288 79.5518 64.1361C79.4252 64.2435 79.2748 64.3413 79.1029 64.4272C78.931 64.513 78.7448 64.5894 78.5442 64.6538C78.4965 64.4391 78.4416 64.2554 78.3819 64.1051C78.3222 63.9549 78.253 63.8332 78.1718 63.7449C78.0906 63.6567 77.9951 63.5923 77.8853 63.5517C77.7755 63.5112 77.6441 63.4897 77.4913 63.4897C77.1786 63.4897 76.8873 63.5875 76.6223 63.7855C76.3549 63.9835 76.1233 64.2674 75.9252 64.6395C75.7294 65.0116 75.5742 65.4648 75.4644 65.9992C75.3546 66.5335 75.2996 67.137 75.2996 67.8121C75.2996 68.0387 75.3211 68.2534 75.3641 68.4585C75.4071 68.6637 75.4739 68.8426 75.5623 68.9977C75.6506 69.1503 75.7676 69.272 75.9108 69.3626C76.0541 69.4509 76.226 69.4962 76.4241 69.4962C76.6892 69.4962 76.9518 69.4652 77.2144 69.4032C77.477 69.3412 77.7277 69.2529 77.9665 69.136C78.2052 69.0191 78.432 68.8808 78.6421 68.7186C78.8474 68.554 79.0384 68.3703 79.2127 68.1675Z" fill="#00377B"/>
<path d="M87.034 62.4878C87.1534 62.4997 87.268 62.5188 87.3778 62.545C87.4876 62.5713 87.5879 62.6166 87.6738 62.6786C87.7598 62.7407 87.8266 62.8218 87.8768 62.9219C87.9245 63.0221 87.9508 63.1486 87.9508 63.2988C87.9508 63.4563 87.9341 63.6256 87.8983 63.8117C87.8625 63.9978 87.8171 64.1982 87.7574 64.4152C87.6548 64.7826 87.5521 65.1452 87.4447 65.5078C87.3396 65.868 87.2441 66.2186 87.1605 66.5597C87.077 66.8985 87.0077 67.2253 86.9552 67.5354C86.9003 67.8455 86.874 68.1317 86.874 68.3965C86.874 68.4728 86.8764 68.5468 86.8788 68.6231C86.8812 68.6995 86.8884 68.7686 86.8979 68.8283C86.9099 68.8903 86.9242 68.9404 86.9457 68.9786C86.9672 69.0167 86.9958 69.0358 87.034 69.0358C87.1032 69.0358 87.1892 69.0048 87.2895 68.9428C87.3897 68.8807 87.4948 68.802 87.6094 68.7042C87.724 68.6064 87.8362 68.5039 87.9484 68.3965C88.063 68.2892 88.1681 68.1866 88.2636 68.0888C88.3614 67.991 88.445 67.9123 88.519 67.8502C88.5906 67.7882 88.6408 67.7572 88.6694 67.7572C88.7291 67.7572 88.7578 67.8002 88.7578 67.886C88.7578 68.0649 88.7172 68.2558 88.636 68.4609C88.5548 68.6661 88.445 68.8688 88.3089 69.0716C88.1704 69.2743 88.0129 69.4652 87.8314 69.6489C87.65 69.8325 87.4614 69.9947 87.2656 70.1379C87.0698 70.281 86.8693 70.3931 86.6663 70.4766C86.4634 70.5601 86.2748 70.603 86.0957 70.603C85.6803 70.603 85.3556 70.4718 85.1192 70.2118C84.8853 69.9494 84.7659 69.5487 84.7659 69.0096C84.7659 68.8044 84.7802 68.6136 84.8065 68.4347C84.8327 68.2558 84.8662 68.0649 84.9044 67.8598C84.3266 68.8044 83.756 69.5177 83.1878 70.0043C82.6219 70.4885 82.0322 70.7318 81.4234 70.7318C81.1489 70.7318 80.9244 70.6865 80.7549 70.5983C80.5854 70.51 80.4541 70.3931 80.3634 70.25C80.2726 70.1069 80.2106 69.9447 80.1771 69.761C80.1461 69.5773 80.1294 69.3912 80.1294 69.2028C80.1294 69.0096 80.1557 68.7615 80.2106 68.4585C80.2655 68.158 80.3299 67.8288 80.4087 67.471C80.4875 67.1155 80.5735 66.7458 80.6666 66.3617C80.7621 65.9801 80.848 65.6127 80.9244 65.2621C81.0032 64.9114 81.0701 64.587 81.1226 64.2912C81.1775 63.9954 81.2038 63.7521 81.2038 63.5636C81.2038 63.4396 81.1942 63.3108 81.1751 63.1748C81.156 63.0388 81.1154 62.9148 81.0486 62.8027C81.3231 62.6953 81.5905 62.6142 81.846 62.5641C82.1015 62.514 82.3259 62.4878 82.5145 62.4878C82.6864 62.4878 82.8296 62.5093 82.9395 62.5522C83.0493 62.5951 83.1376 62.6548 83.2021 62.7311C83.2666 62.8074 83.3119 62.8933 83.3406 62.9935C83.3668 63.0937 83.3812 63.1987 83.3812 63.3132C83.3812 63.4634 83.3644 63.6185 83.3286 63.7783C83.2928 63.9381 83.2594 64.0836 83.2284 64.2196C83.109 64.742 82.9944 65.2382 82.8798 65.7081C82.7676 66.1781 82.6649 66.6051 82.5718 66.9939C82.4811 67.3827 82.4071 67.7262 82.3498 68.0244C82.2925 68.3226 82.2638 68.5659 82.2638 68.7496C82.2638 68.8521 82.2829 68.9428 82.3211 69.0215C82.3593 69.1002 82.4333 69.1384 82.5479 69.1384C82.6506 69.1384 82.7819 69.0787 82.9442 68.9571C83.1066 68.8354 83.2833 68.6661 83.4743 68.4442C83.6653 68.2224 83.8682 67.96 84.0807 67.6523C84.2932 67.3445 84.5033 67.0058 84.7086 66.6337C85.093 65.9371 85.3795 65.2931 85.5705 64.7015C85.7615 64.1075 85.857 63.6089 85.857 63.2058C85.857 63.1295 85.8498 63.046 85.8379 62.9553C85.8235 62.8647 85.7973 62.7788 85.7519 62.7049C85.9453 62.6357 86.1602 62.5832 86.3965 62.5474C86.6329 62.5045 86.8454 62.4878 87.034 62.4878Z" fill="#00377B"/>
<path d="M90.0782 64.1147C90.5414 63.5971 91.0595 63.1892 91.6325 62.8934C92.2055 62.5976 92.8167 62.4497 93.4708 62.4497C93.8767 62.4497 94.2444 62.5093 94.581 62.631C94.9153 62.7526 95.2041 62.9268 95.4429 63.1534C95.684 63.38 95.8703 63.6567 96.0016 63.9859C96.1329 64.3151 96.1997 64.6848 96.1997 65.0951C96.1997 65.565 96.1424 66.0278 96.0254 66.4858C95.9108 66.9438 95.7461 67.3828 95.536 67.8002C95.3259 68.2177 95.0728 68.6065 94.7792 68.9643C94.4855 69.3221 94.1584 69.6322 93.8003 69.8946C93.4422 70.157 93.0554 70.3622 92.6424 70.51C92.2293 70.6579 91.802 70.7319 91.3603 70.7319C90.9496 70.7319 90.5772 70.6675 90.243 70.5411C89.9087 70.4146 89.6198 70.2333 89.3811 69.9948C89.1399 69.7586 88.9561 69.4676 88.8272 69.1241C88.6983 68.783 88.6338 68.3942 88.6338 67.9624C88.6338 67.2349 88.7555 66.5502 89.0015 65.9085C89.2426 65.2669 89.6031 64.6705 90.0782 64.1147ZM92.0933 71.9938C92.0933 72.1131 92.0742 72.2443 92.036 72.3898C91.9978 72.5353 91.9476 72.6951 91.8832 72.8669C91.7256 72.948 91.5656 73.0124 91.3961 73.0601C91.229 73.1078 91.069 73.134 90.9186 73.134C90.7133 73.134 90.5557 73.0911 90.4459 73.0076C90.3361 72.9241 90.2716 72.8072 90.2549 72.6546V72.4685C90.2811 72.3015 90.3098 72.1536 90.3361 72.0224C90.3623 71.8936 90.3767 71.791 90.3767 71.7147V71.6431C90.3767 71.6217 90.3743 71.5978 90.3695 71.5692C90.699 71.3974 91.0117 71.3116 91.3078 71.3116C91.5608 71.3116 91.7566 71.3712 91.8903 71.4905C92.0264 71.6097 92.0933 71.7767 92.0933 71.9938ZM93.9794 65.0927C93.9794 64.878 93.9626 64.6753 93.9316 64.4868C93.8982 64.2984 93.8457 64.1338 93.7693 63.993C93.6929 63.8523 93.595 63.7426 93.4684 63.6662C93.3443 63.5875 93.1939 63.5494 93.0148 63.5494C92.7928 63.5494 92.5851 63.6233 92.3917 63.7688C92.1983 63.9143 92.0192 64.1099 91.8569 64.3556C91.6945 64.6013 91.5489 64.8828 91.42 65.1977C91.2911 65.5126 91.1812 65.8418 91.0929 66.1805C91.0046 66.5192 90.9377 66.858 90.89 67.1967C90.8446 67.533 90.8207 67.8455 90.8207 68.1318C90.8207 68.3536 90.8374 68.5564 90.8732 68.7424C90.9091 68.9285 90.964 69.0883 91.0428 69.2243C91.1215 69.3603 91.2242 69.4652 91.3507 69.5392C91.4773 69.6155 91.6301 69.6513 91.8091 69.6513C92.024 69.6513 92.2293 69.5797 92.4251 69.4342C92.6209 69.2887 92.7952 69.0955 92.9551 68.8546C93.1151 68.6136 93.256 68.3369 93.3849 68.022C93.5114 67.7072 93.6189 67.3804 93.7096 67.044C93.7979 66.7077 93.8648 66.3689 93.9125 66.0326C93.9555 65.6891 93.9794 65.379 93.9794 65.0927ZM96.1162 61.0971C96.0517 61.183 95.9777 61.2498 95.8965 61.2951C95.8153 61.3404 95.7389 61.3738 95.6649 61.3953C95.5933 61.4168 95.5288 61.4287 95.4739 61.4311C95.419 61.4335 95.3856 61.4359 95.3689 61.4359C95.2877 61.4359 95.185 61.4072 95.0609 61.3476C94.9367 61.288 94.8007 61.2069 94.6526 61.1019C94.5046 60.9969 94.347 60.8729 94.1823 60.7298C94.0176 60.5867 93.8576 60.4292 93.7 60.2575C93.4684 60.4292 93.2345 60.589 93.0005 60.7345C92.7665 60.8801 92.5421 61.0041 92.3272 61.1114C92.1147 61.2164 91.919 61.2975 91.7447 61.3548C91.568 61.412 91.4248 61.4406 91.3125 61.4406C91.2147 61.4406 91.1192 61.4239 91.026 61.3929C90.9305 61.3595 90.8852 61.3023 90.8852 61.214C91.0093 61.1067 91.1383 60.9946 91.2743 60.8825C91.3889 60.7846 91.5131 60.6773 91.6516 60.5556C91.79 60.434 91.9261 60.3171 92.0598 60.2026C92.2914 59.9975 92.5182 59.809 92.7355 59.6373C92.9551 59.4655 93.1581 59.3176 93.3515 59.1959C93.5425 59.0743 93.7167 58.9789 93.8695 58.9121C94.0223 58.8453 94.156 58.8119 94.2706 58.8119C94.421 58.8119 94.5428 58.8405 94.6359 58.9002C94.6908 59.0576 94.7696 59.2317 94.8747 59.4249C94.9797 59.6182 95.0991 59.8162 95.2304 60.0165C95.3617 60.2169 95.505 60.4101 95.6602 60.5986C95.813 60.7846 95.9658 60.9516 96.1162 61.0971Z" fill="#00377B"/>
<path d="M102.789 68.1675C102.837 68.2534 102.87 68.3369 102.887 68.418C102.904 68.4991 102.911 68.585 102.911 68.678C102.911 68.8927 102.851 69.0931 102.729 69.2768C102.608 69.4604 102.445 69.6274 102.245 69.7825C102.042 69.9351 101.81 70.0711 101.552 70.1904C101.292 70.3096 101.027 70.4074 100.755 70.4862C100.483 70.5649 100.215 70.6245 99.9528 70.6675C99.6902 70.7104 99.4538 70.7319 99.2437 70.7319C97.4531 70.7319 96.5554 69.8946 96.5554 68.2152C96.5554 67.7191 96.6175 67.2324 96.7416 66.7554C96.8658 66.2783 97.0401 65.8274 97.2645 65.4004C97.4889 64.9734 97.7563 64.5798 98.0667 64.2196C98.3771 63.8594 98.7209 63.5469 99.0981 63.2845C99.4753 63.0221 99.8812 62.817 100.313 62.6691C100.745 62.5212 101.19 62.4473 101.65 62.4473C102.293 62.4473 102.765 62.526 103.071 62.681C103.376 62.8361 103.529 63.0722 103.529 63.3847C103.529 63.5255 103.493 63.6591 103.424 63.7855C103.355 63.9119 103.255 64.0288 103.128 64.1361C103.002 64.2435 102.851 64.3413 102.679 64.4272C102.507 64.513 102.321 64.5894 102.121 64.6538C102.073 64.4391 102.018 64.2554 101.958 64.1051C101.899 63.9549 101.829 63.8332 101.748 63.7449C101.667 63.6567 101.572 63.5923 101.462 63.5517C101.352 63.5112 101.221 63.4897 101.068 63.4897C100.755 63.4897 100.464 63.5875 100.199 63.7855C99.9313 63.9835 99.6997 64.2674 99.5016 64.6395C99.3058 65.0116 99.1506 65.4648 99.0408 65.9992C98.931 66.5335 98.8737 67.137 98.8737 67.8121C98.8737 68.0387 98.8952 68.2534 98.9381 68.4585C98.9811 68.6637 99.048 68.8426 99.1363 68.9977C99.2246 69.1503 99.3416 69.272 99.4849 69.3626C99.6281 69.4509 99.8 69.4962 99.9982 69.4962C100.263 69.4962 100.526 69.4652 100.788 69.4032C101.051 69.3412 101.302 69.2529 101.54 69.136C101.782 69.0191 102.006 68.8808 102.216 68.7186C102.424 68.554 102.615 68.3703 102.789 68.1675Z" fill="#00377B"/>
<path d="M111.694 63.1581C111.391 63.1581 111.171 63.2392 111.031 63.4014C110.89 63.5636 110.821 63.7902 110.821 64.0812C110.821 64.2315 110.854 64.377 110.921 64.5178C110.988 64.6585 111.083 64.8016 111.207 64.9471C111.37 65.1404 111.527 65.3336 111.68 65.522C111.835 65.7105 111.971 65.9085 112.093 66.1136C112.215 66.3188 112.313 66.5358 112.389 66.7648C112.466 66.9938 112.504 67.2443 112.504 67.5139C112.504 67.9623 112.408 68.3798 112.22 68.7686C112.031 69.1574 111.778 69.4938 111.458 69.78C111.14 70.0663 110.773 70.2905 110.362 70.4503C109.949 70.6125 109.517 70.6937 109.063 70.6937C108.806 70.6937 108.545 70.6531 108.283 70.572C108.02 70.4909 107.784 70.3716 107.574 70.2118C107.363 70.052 107.189 69.8588 107.055 69.6345C106.919 69.4079 106.853 69.1503 106.853 68.8569C106.853 68.7328 106.872 68.6207 106.91 68.5181C106.948 68.4156 106.996 68.3249 107.051 68.2438C107.108 68.1627 107.17 68.0935 107.242 68.0339C107.311 67.9743 107.383 67.9266 107.452 67.8884C107.538 68.1198 107.64 68.3416 107.755 68.5515C107.872 68.7615 108.003 68.9499 108.151 69.1145C108.299 69.2791 108.466 69.4127 108.653 69.5153C108.839 69.6178 109.044 69.6751 109.271 69.6846C109.622 69.6846 109.901 69.5868 110.109 69.3888C110.317 69.1908 110.419 68.8903 110.419 68.4871C110.419 68.3154 110.384 68.1508 110.314 67.9981C110.245 67.8454 110.152 67.6952 110.04 67.5497C109.928 67.4041 109.799 67.2586 109.655 67.1131C109.512 66.9676 109.369 66.8126 109.221 66.6527C109.032 66.4213 108.887 66.1637 108.784 65.8846C108.681 65.6031 108.631 65.3193 108.631 65.0282C108.631 64.5488 108.741 64.1337 108.958 63.7854C109.176 63.4372 109.462 63.1509 109.813 62.9267C110.164 62.7025 110.556 62.5379 110.988 62.4305C111.42 62.3232 111.852 62.2683 112.284 62.2683C112.554 62.2683 112.752 62.3017 112.879 62.3661C113.005 62.4305 113.091 62.5498 113.134 62.7215C113.134 62.8718 113.096 63.0173 113.017 63.1533C112.938 63.2917 112.785 63.4372 112.559 63.5946C112.408 63.4491 112.258 63.3418 112.115 63.2702C111.969 63.1939 111.828 63.1581 111.694 63.1581Z" fill="#00377B"/>
<path d="M114.965 64.1147C115.429 63.597 115.947 63.1891 116.52 62.8933C117.093 62.5975 117.704 62.4472 118.358 62.4472C118.764 62.4472 119.132 62.5069 119.468 62.6285C119.802 62.7502 120.091 62.9243 120.33 63.1509C120.571 63.3776 120.757 63.6543 120.889 63.9835C121.02 64.3127 121.087 64.6824 121.087 65.0927C121.087 65.5626 121.03 66.0254 120.913 66.4834C120.796 66.9414 120.633 67.3803 120.423 67.7978C120.213 68.2152 119.96 68.604 119.666 68.9619C119.373 69.3197 119.046 69.6298 118.687 69.8922C118.329 70.1546 117.943 70.3597 117.53 70.5076C117.116 70.6555 116.689 70.7295 116.245 70.7295C115.834 70.7295 115.462 70.6651 115.128 70.5386C114.793 70.4122 114.505 70.2309 114.266 69.9924C114.027 69.7562 113.841 69.4652 113.712 69.1241C113.583 68.7806 113.519 68.3941 113.519 67.9624C113.519 67.2348 113.64 66.5502 113.886 65.9085C114.13 65.2668 114.49 64.6681 114.965 64.1147ZM118.867 65.0927C118.867 64.878 118.85 64.6752 118.819 64.4868C118.785 64.2983 118.733 64.1337 118.656 63.993C118.58 63.8523 118.482 63.7425 118.356 63.6662C118.231 63.5875 118.081 63.5493 117.902 63.5493C117.68 63.5493 117.472 63.6209 117.279 63.7688C117.085 63.9143 116.906 64.1099 116.744 64.3556C116.582 64.6013 116.436 64.8804 116.307 65.1976C116.178 65.5125 116.068 65.8417 115.98 66.1804C115.892 66.5192 115.822 66.8579 115.777 67.1966C115.732 67.533 115.708 67.8455 115.708 68.1317C115.708 68.3536 115.725 68.5563 115.76 68.7424C115.796 68.9285 115.854 69.0883 115.93 69.2243C116.009 69.3602 116.111 69.4652 116.238 69.5391C116.364 69.6155 116.517 69.6512 116.696 69.6512C116.911 69.6512 117.116 69.5797 117.312 69.4342C117.506 69.2887 117.682 69.0954 117.842 68.8569C118.002 68.616 118.146 68.3393 118.272 68.0244C118.399 67.7095 118.506 67.3827 118.597 67.0464C118.685 66.71 118.754 66.3713 118.8 66.0349C118.845 65.689 118.867 65.3789 118.867 65.0927ZM121.003 61.0971C120.939 61.183 120.865 61.2498 120.786 61.2951C120.705 61.3404 120.628 61.3738 120.554 61.3953C120.48 61.4167 120.418 61.4287 120.363 61.431C120.309 61.4334 120.275 61.4358 120.258 61.4358C120.177 61.4358 120.075 61.4072 119.95 61.3476C119.826 61.2879 119.69 61.2068 119.542 61.1019C119.394 60.9969 119.237 60.8729 119.072 60.7297C118.907 60.5866 118.747 60.4292 118.59 60.2574C118.358 60.4292 118.124 60.589 117.89 60.7345C117.656 60.88 117.432 61.0064 117.217 61.1114C117.004 61.2164 116.809 61.2975 116.634 61.3547C116.46 61.412 116.314 61.4406 116.202 61.4406C116.104 61.4406 116.009 61.4239 115.916 61.3929C115.82 61.3595 115.775 61.3022 115.775 61.214C115.899 61.1066 116.028 60.9945 116.164 60.8824C116.276 60.7846 116.403 60.6773 116.541 60.5556C116.68 60.4339 116.816 60.3171 116.949 60.2026C117.181 59.9974 117.408 59.809 117.625 59.6372C117.842 59.4655 118.048 59.3176 118.241 59.1959C118.432 59.0742 118.606 58.9812 118.759 58.912C118.912 58.8452 119.046 58.8118 119.16 58.8118C119.311 58.8118 119.432 58.8405 119.525 58.9001C119.58 59.0552 119.659 59.2317 119.764 59.4249C119.869 59.6181 119.989 59.8161 120.12 60.0165C120.251 60.2169 120.395 60.4101 120.55 60.5985C120.7 60.7846 120.853 60.9516 121.003 61.0971ZM120.316 59.5203C120.316 59.4607 120.347 59.4106 120.414 59.3677C120.688 59.1959 120.934 59.0218 121.151 58.85C121.366 58.6783 121.567 58.5041 121.751 58.3324C121.934 58.1606 122.104 57.9817 122.257 57.798C122.412 57.6144 122.562 57.4235 122.715 57.2231C123.288 57.2231 123.711 57.2923 123.985 57.4331C124.26 57.5738 124.398 57.7575 124.398 57.9841C124.398 58.1248 124.32 58.2775 124.164 58.4421C124.007 58.6067 123.778 58.7594 123.477 58.9001C123.326 58.986 123.152 59.0719 122.954 59.1601C122.756 59.246 122.548 59.3295 122.326 59.4058C122.104 59.4822 121.877 59.5561 121.641 59.6205C121.407 59.6849 121.173 59.7398 120.941 59.7827C120.882 59.7946 120.815 59.7946 120.743 59.7875C120.671 59.7779 120.602 59.7636 120.54 59.7398C120.478 59.7159 120.426 59.6849 120.383 59.6467C120.337 59.6038 120.316 59.5633 120.316 59.5203Z" fill="#00377B"/>
<path d="M127.003 64.2912C126.9 64.2912 126.781 64.3461 126.642 64.4582C126.504 64.5679 126.356 64.7158 126.198 64.9043C126.038 65.0903 125.871 65.305 125.697 65.5507C125.523 65.7964 125.348 66.0564 125.174 66.3307C124.99 66.6265 124.835 66.8937 124.704 67.1322C124.575 67.3684 124.451 67.6165 124.336 67.8717C124.219 68.127 124.1 68.4108 123.971 68.7209C123.844 69.0311 123.691 69.4056 123.512 69.8421C123.457 69.9757 123.4 70.095 123.333 70.1928C123.269 70.293 123.19 70.3764 123.099 70.4432C123.009 70.51 122.894 70.5601 122.76 70.5935C122.627 70.6269 122.464 70.6412 122.276 70.6412C122.125 70.6412 121.953 70.6317 121.762 70.6126C121.571 70.5935 121.354 70.5649 121.111 70.5267C121.278 70.1117 121.435 69.6918 121.583 69.2696C121.731 68.8474 121.867 68.4252 121.992 68.0029C122.283 67.0392 122.491 66.2091 122.615 65.5149C122.739 64.8208 122.801 64.2721 122.801 63.869C122.801 63.6805 122.787 63.504 122.76 63.3394C122.734 63.1748 122.691 63.0293 122.631 62.9053C122.961 62.755 123.257 62.6453 123.517 62.5808C123.78 62.5164 124.007 62.483 124.202 62.483C124.293 62.483 124.386 62.4974 124.482 62.5236C124.577 62.5498 124.661 62.5928 124.737 62.65C124.814 62.7073 124.876 62.7788 124.923 62.8695C124.971 62.9577 124.995 63.0675 124.995 63.1963C124.995 63.504 124.94 63.8857 124.828 64.3461C124.718 64.8041 124.592 65.3265 124.451 65.9157C124.682 65.4839 124.952 65.0617 125.26 64.6466C125.568 64.2316 125.89 63.8594 126.232 63.535C126.571 63.2082 126.917 62.9458 127.263 62.7454C127.612 62.5451 127.941 62.4473 128.254 62.4473C128.421 62.4473 128.576 62.4735 128.715 62.5284C128.856 62.5832 128.975 62.6572 129.075 62.755C129.176 62.8528 129.254 62.9673 129.309 63.0985C129.367 63.2297 129.395 63.3752 129.395 63.5302C129.395 63.869 129.347 64.2912 129.25 64.7921C129.152 65.2931 129.035 65.8393 128.894 66.4262C128.839 66.6098 128.786 66.7935 128.736 66.9772C128.686 67.1609 128.638 67.3422 128.595 67.5187C128.552 67.6976 128.517 67.8646 128.49 68.0244C128.464 68.1842 128.45 68.3297 128.45 68.4657C128.45 68.542 128.452 68.616 128.455 68.6923C128.457 68.7687 128.464 68.8378 128.476 68.8999C128.486 68.9619 128.502 69.012 128.524 69.0501C128.545 69.0883 128.574 69.1074 128.612 69.1074C128.688 69.1074 128.791 69.0597 128.925 68.9619C129.056 68.8641 129.195 68.74 129.333 68.5898C129.577 68.3417 129.765 68.1556 129.899 68.0316C130.035 67.9075 130.142 67.8455 130.224 67.8455C130.257 67.8455 130.281 67.8526 130.298 67.8693C130.314 67.886 130.322 67.9171 130.322 67.9672C130.322 68.1508 130.281 68.344 130.2 68.5492C130.119 68.7543 130.009 68.9571 129.873 69.1599C129.734 69.3626 129.577 69.5535 129.395 69.7348C129.214 69.916 129.025 70.0759 128.827 70.2166C128.629 70.3574 128.431 70.4695 128.232 70.553C128.032 70.6364 127.846 70.6794 127.674 70.6794C127.28 70.6794 126.96 70.5697 126.712 70.3478C126.463 70.126 126.339 69.7825 126.339 69.3125C126.339 69.0525 126.37 68.7901 126.428 68.5206C126.487 68.251 126.554 67.9457 126.63 67.607C126.824 66.7601 126.974 66.0803 127.077 65.5698C127.18 65.0569 127.23 64.7444 127.23 64.6323C127.23 64.5083 127.206 64.4224 127.16 64.3723C127.115 64.3151 127.063 64.2912 127.003 64.2912Z" fill="#00377B"/>
<path d="M137.415 72.0176C137.637 72.1584 137.785 72.2657 137.864 72.3421C137.942 72.4184 137.981 72.4661 137.981 72.4876C137.942 72.4876 137.864 72.4518 137.747 72.3779C137.627 72.3039 137.477 72.2276 137.293 72.1465C137.298 72.1465 137.255 72.1274 137.164 72.0868C137.071 72.0463 136.961 71.9986 136.832 71.9413C136.703 71.8841 136.565 71.8268 136.419 71.7672C136.274 71.7075 136.149 71.6622 136.047 71.6288C135.658 72.2657 135.14 72.7524 134.493 73.0935C133.846 73.4322 133.103 73.604 132.265 73.604C131.845 73.604 131.434 73.561 131.035 73.4775C130.637 73.394 130.279 73.2819 129.966 73.1412C129.653 73.0004 129.402 72.8406 129.214 72.6641C129.025 72.4852 128.93 72.2991 128.93 72.1059C128.93 71.9556 128.973 71.791 129.056 71.6169C129.14 71.4404 129.29 71.2805 129.51 71.1303C129.729 70.9824 130.028 70.8583 130.408 70.7581C130.787 70.658 131.279 70.6079 131.878 70.6079C132.298 70.6079 132.731 70.6293 133.17 70.6723C133.609 70.7152 134.013 70.7772 134.38 70.8583C134.521 70.4695 134.662 69.9972 134.805 69.439C134.949 68.8808 135.099 68.2272 135.254 67.4782C134.937 67.9195 134.621 68.2988 134.316 68.6113C134.008 68.9285 133.707 69.1885 133.409 69.3889C133.113 69.5893 132.824 69.7348 132.547 69.8254C132.27 69.9185 132.002 69.9638 131.749 69.9638C131.48 69.9638 131.25 69.9113 131.066 69.8063C130.88 69.7014 130.727 69.5559 130.608 69.3746C130.489 69.1909 130.403 68.9738 130.35 68.7234C130.295 68.4729 130.269 68.1986 130.269 67.9028C130.269 67.4543 130.324 67.0106 130.431 66.5669C130.539 66.1256 130.692 65.7034 130.89 65.3003C131.088 64.8995 131.322 64.525 131.599 64.1791C131.873 63.8332 132.184 63.5351 132.525 63.2822C132.869 63.0293 133.237 62.829 133.631 62.6835C134.025 62.5379 134.438 62.464 134.87 62.464C135.156 62.464 135.431 62.4974 135.696 62.5642C135.961 62.631 136.212 62.7359 136.448 62.8743C136.589 62.7502 136.746 62.6572 136.925 62.5952C137.104 62.5332 137.288 62.5022 137.477 62.5022C137.854 62.5022 138.255 62.6119 138.675 62.8337C138.578 62.9792 138.487 63.1438 138.403 63.3275C138.32 63.5112 138.236 63.7259 138.153 63.9716C138.069 64.2173 137.985 64.5011 137.902 64.8208C137.818 65.1428 137.728 65.5126 137.63 65.9324C137.489 66.66 137.348 67.347 137.205 67.9958C137.061 68.6423 136.933 69.1933 136.82 69.6465C136.82 69.6513 136.818 69.6585 136.813 69.6632C136.72 70.0449 136.622 70.3765 136.517 70.6532C136.412 70.9299 136.305 71.1756 136.197 71.3855C136.369 71.4499 136.57 71.5382 136.796 71.6527C137.018 71.7672 137.226 71.8864 137.415 72.0176ZM133.812 71.9198C133.958 71.7576 134.108 71.5072 134.266 71.1684C133.915 71.0921 133.53 71.0372 133.113 71.0015C132.695 70.9657 132.289 70.949 131.895 70.949H131.425C131.257 70.949 131.1 70.9609 130.954 70.9824C130.809 71.0038 130.687 71.0396 130.589 71.0921C130.491 71.1422 130.443 71.2161 130.443 71.3139C130.443 71.3617 130.46 71.4117 130.491 71.4595C130.718 71.7767 131.002 72.0296 131.346 72.2109C131.687 72.3945 132.06 72.4852 132.458 72.4852C133.022 72.4852 133.473 72.2967 133.812 71.9198ZM132.914 68.3775C133.141 68.3775 133.394 68.2606 133.671 68.0244C133.948 67.7907 134.23 67.4829 134.514 67.1037C134.798 66.7244 135.07 66.295 135.335 65.8179C135.6 65.3408 135.832 64.8566 136.032 64.3652C136.016 64.2674 135.966 64.172 135.882 64.0789C135.798 63.9835 135.696 63.9 135.574 63.8237C135.452 63.7474 135.319 63.6877 135.173 63.6424C135.027 63.5971 134.886 63.5732 134.753 63.5732C134.435 63.5732 134.134 63.6925 133.855 63.9334C133.573 64.1743 133.33 64.4892 133.122 64.8804C132.914 65.2716 132.75 65.7153 132.628 66.2115C132.506 66.7077 132.446 67.211 132.446 67.7239C132.446 67.9386 132.492 68.1032 132.58 68.2129C132.666 68.3226 132.778 68.3775 132.914 68.3775Z" fill="#00377B"/>
</svg>
