<svg width="360" height="335" viewBox="0 0 360 335" fill="none" xmlns="http://www.w3.org/2000/svg">
<g clip-path="url(#clip0_5611_36732)">
<path d="M94.6002 250.7H88.2002V283.5H94.6002V250.7Z" fill="#F38020"/>
<mask id="mask0_5611_36732" style="mask-type:luminance" maskUnits="userSpaceOnUse" x="0" y="0" width="360" height="335">
<path d="M359.7 0H0V334.3H359.7V0Z" fill="white"/>
</mask>
<g mask="url(#mask0_5611_36732)">
<path d="M119.3 261.6C121 263.3 121.8 265.6 121.8 268.6V283.5H115.8V269.4C115.8 266.3 114 264.6 111.2 264.6C108.1 264.6 106.1 266.5 106.1 270.3V283.5H100.1V259.7H106.1V262.3C107.5 260.1 109.8 259.1 113 259.1C115.6 259 117.7 259.9 119.3 261.6Z" fill="#F38020"/>
</g>
<mask id="mask1_5611_36732" style="mask-type:luminance" maskUnits="userSpaceOnUse" x="0" y="0" width="360" height="335">
<path d="M359.7 0H0V334.3H359.7V0Z" fill="white"/>
</mask>
<g mask="url(#mask1_5611_36732)">
<path d="M136.6 268.8C140 269.5 144.4 271.1 144.3 276.1C144.3 278.5 143.4 280.3 141.6 281.6C139.8 282.8 137.6 283.5 135 283.5C130.2 283.5 127 281.7 125.3 278L130.5 275.1C131.2 277.1 132.7 278.1 135 278.1C137.1 278.1 138.2 277.5 138.2 276.1C138.2 274.9 136.4 274.2 134 273.6C130.6 272.7 126.3 271.3 126.3 266.5C126.3 264.2 127.1 262.4 128.8 261.1C130.5 259.8 132.6 259.1 135.1 259.1C138.8 259.1 142.1 260.9 143.9 264L138.8 266.8C138.1 265.2 136.8 264.4 135.1 264.4C133.6 264.4 132.4 265.1 132.4 266.3C132.4 267.5 134.3 268.2 136.6 268.8Z" fill="#F38020"/>
</g>
<mask id="mask2_5611_36732" style="mask-type:luminance" maskUnits="userSpaceOnUse" x="0" y="0" width="360" height="335">
<path d="M359.7 0H0V334.3H359.7V0Z" fill="white"/>
</mask>
<g mask="url(#mask2_5611_36732)">
<path d="M163.4 259.7H169.4V283.5H163.4V280.2C162 282.4 159.7 283.4 156.5 283.4C154 283.4 151.9 282.6 150.2 280.9C148.6 279.2 147.8 276.9 147.8 273.9V259.7H153.8V273.1C153.8 276.2 155.6 277.9 158.4 277.9C161.5 277.9 163.5 276 163.5 272.2V259.7H163.4Z" fill="#F38020"/>
</g>
<mask id="mask3_5611_36732" style="mask-type:luminance" maskUnits="userSpaceOnUse" x="0" y="0" width="360" height="335">
<path d="M359.7 0H0V334.3H359.7V0Z" fill="white"/>
</mask>
<g mask="url(#mask3_5611_36732)">
<path d="M180.8 263.7C181.9 260.7 184.7 259.3 187.8 259.3V266C186 265.8 184.3 266.1 182.9 267.1C181.5 268.1 180.8 269.6 180.8 271.9V283.6H174.8V259.8H180.8V263.7Z" fill="#F38020"/>
</g>
<mask id="mask4_5611_36732" style="mask-type:luminance" maskUnits="userSpaceOnUse" x="0" y="0" width="360" height="335">
<path d="M359.7 0H0V334.3H359.7V0Z" fill="white"/>
</mask>
<g mask="url(#mask4_5611_36732)">
<path d="M207.9 259.7H213.9V283.5H207.9V280.1C206.1 282.4 203.6 283.5 200.4 283.5C197.3 283.5 194.7 282.3 192.5 280C190.3 277.6 189.2 274.7 189.2 271.3C189.2 267.9 190.3 265 192.5 262.7C194.7 260.3 197.3 259.1 200.4 259.1C203.6 259.1 206.1 260.2 207.9 262.5V259.7ZM201.5 277.8C203.3 277.8 204.9 277.2 206.1 276C207.3 274.8 207.9 273.2 207.9 271.3C207.9 269.4 207.3 267.8 206.1 266.6C204.9 265.4 203.4 264.8 201.5 264.8C199.7 264.8 198.1 265.4 196.9 266.6C195.7 267.8 195.1 269.4 195.1 271.3C195.1 273.2 195.7 274.8 196.9 276C198.2 277.2 199.7 277.8 201.5 277.8Z" fill="#F38020"/>
</g>
<mask id="mask5_5611_36732" style="mask-type:luminance" maskUnits="userSpaceOnUse" x="0" y="0" width="360" height="335">
<path d="M359.7 0H0V334.3H359.7V0Z" fill="white"/>
</mask>
<g mask="url(#mask5_5611_36732)">
<path d="M238.4 261.6C240.1 263.3 240.9 265.6 240.9 268.6V283.5H234.9V269.4C234.9 266.3 233.1 264.6 230.3 264.6C227.2 264.6 225.2 266.5 225.2 270.3V283.5H219.2V259.7H225.2V262.3C226.6 260.1 228.9 259.1 232.1 259.1C234.7 259 236.8 259.9 238.4 261.6Z" fill="#F38020"/>
</g>
<mask id="mask6_5611_36732" style="mask-type:luminance" maskUnits="userSpaceOnUse" x="0" y="0" width="360" height="335">
<path d="M359.7 0H0V334.3H359.7V0Z" fill="white"/>
</mask>
<g mask="url(#mask6_5611_36732)">
<path d="M248.2 279.9C245.9 277.5 244.7 274.7 244.7 271.2C244.7 267.7 245.9 264.9 248.2 262.5C250.6 260.1 253.5 259 256.9 259C261.4 259 265.4 261.3 267.2 265L262.1 268C261.2 266.1 259.2 264.9 256.8 264.9C253.2 264.9 250.6 267.5 250.6 271.2C250.6 273 251.2 274.5 252.4 275.7C253.6 276.9 255 277.5 256.8 277.5C259.2 277.5 261.2 276.3 262.1 274.5L267.3 277.5C265.3 281.2 261.3 283.5 256.9 283.5C253.5 283.4 250.6 282.3 248.2 279.9Z" fill="#F38020"/>
</g>
<mask id="mask7_5611_36732" style="mask-type:luminance" maskUnits="userSpaceOnUse" x="0" y="0" width="360" height="335">
<path d="M359.7 0H0V334.3H359.7V0Z" fill="white"/>
</mask>
<g mask="url(#mask7_5611_36732)">
<path d="M275.8 273.7C276.6 276.6 278.8 278 282.3 278C284.6 278 286.3 277.2 287.5 275.7L292.3 278.5C290 281.8 286.7 283.4 282.2 283.4C278.4 283.4 275.3 282.2 273 279.9C270.7 277.6 269.5 274.7 269.5 271.2C269.5 267.7 270.7 264.8 272.9 262.5C275.2 260.1 278.1 259 281.7 259C285.1 259 287.9 260.2 290.1 262.5C292.3 264.9 293.4 267.7 293.4 271.2C293.4 272 293.3 272.8 293.2 273.6H275.8V273.7ZM287.5 269.1C286.8 266 284.5 264.4 281.8 264.4C278.6 264.4 276.4 266.1 275.7 269.1H287.5Z" fill="#F38020"/>
</g>
<mask id="mask8_5611_36732" style="mask-type:luminance" maskUnits="userSpaceOnUse" x="0" y="0" width="360" height="335">
<path d="M359.7 0H0V334.3H359.7V0Z" fill="white"/>
</mask>
<g mask="url(#mask8_5611_36732)">
<path d="M177 112.5H197.5V91.4004H225.4V112.6H249.8V137.5H225.4V182.5C225.4 187.7 225.7 191.9 226.2 195.1C226.7 198.3 227.9 200.8 229.6 202.5C231.3 204.2 233.8 205.3 237 205.9C240.2 206.4 245.4 206.7 250.8 206.7V232.8H246C236.7 232.8 228.9 232 222.7 230.3C216.5 228.7 211.5 225.9 207.8 222C204.1 218.1 201.5 213 199.9 206.6C198.3 200.2 197.5 192.3 197.5 182.7V137.5H177V112.5Z" fill="#0E4E95"/>
</g>
<mask id="mask9_5611_36732" style="mask-type:luminance" maskUnits="userSpaceOnUse" x="0" y="0" width="360" height="335">
<path d="M359.7 0H0V334.3H359.7V0Z" fill="white"/>
</mask>
<g mask="url(#mask9_5611_36732)">
<path d="M293.3 112.6H265.4V232.8H293.3V112.6Z" fill="#0E4E95"/>
</g>
<mask id="mask10_5611_36732" style="mask-type:luminance" maskUnits="userSpaceOnUse" x="0" y="0" width="360" height="335">
<path d="M359.7 0H0V334.3H359.7V0Z" fill="white"/>
</mask>
<g mask="url(#mask10_5611_36732)">
<path d="M112.4 112.8C79.3999 112.8 52.5999 139.5 52.3999 172.5V283.5H79.7999V223.1C89.1999 229.2 100.4 232.7 112.4 232.7C145.5 232.7 172.4 205.8 172.4 172.7C172.4 139.6 145.5 112.8 112.4 112.8ZM112.4 205.4C94.3999 205.4 79.7999 190.8 79.7999 172.8C79.7999 154.8 94.3999 140.2 112.4 140.2C130.4 140.2 145 154.8 145 172.8C145 190.8 130.4 205.4 112.4 205.4Z" fill="#0E4E95"/>
</g>
<mask id="mask11_5611_36732" style="mask-type:luminance" maskUnits="userSpaceOnUse" x="0" y="0" width="360" height="335">
<path d="M359.7 0H0V334.3H359.7V0Z" fill="white"/>
</mask>
<g mask="url(#mask11_5611_36732)">
<path d="M213.9 69.1004C250 69.1004 282.8 83.1004 307.2 106C289.1 73.1004 254.1 50.9004 213.9 50.9004C173.7 50.9004 138.7 73.2004 120.6 106C145 83.1004 177.8 69.1004 213.9 69.1004Z" fill="#F38020"/>
</g>
<mask id="mask12_5611_36732" style="mask-type:luminance" maskUnits="userSpaceOnUse" x="0" y="0" width="360" height="335">
<path d="M359.7 0H0V334.3H359.7V0Z" fill="white"/>
</mask>
<g mask="url(#mask12_5611_36732)">
<path d="M112.4 192.3C101.6 192.3 92.7998 183.5 92.7998 172.7C92.7998 161.9 101.6 153.1 112.4 153.1C123.2 153.1 132 162 132 172.8C132 183.6 123.2 192.3 112.4 192.3Z" fill="#F38020"/>
</g>
</g>
<defs>
<clipPath id="clip0_5611_36732">
<rect width="359.7" height="334.3" fill="white"/>
</clipPath>
</defs>
</svg>
