<svg width="156" height="124" viewBox="0 0 156 124" fill="none" xmlns="http://www.w3.org/2000/svg">
<path fill-rule="evenodd" clip-rule="evenodd" d="M8.85857 79.536C8.85857 79.536 -8.44024 0.282496 71.7546 17.3776C71.7546 17.3776 39.2619 -5.83458 13.4603 15.8653C-13.4648 38.5065 8.85857 79.536 8.85857 79.536Z" fill="#F58220"/>
<path d="M41.9285 98.8595H45.4654V117.069H41.9285V98.8595Z" fill="#F58220"/>
<path d="M59.2304 104.915C60.1532 105.862 60.6162 107.143 60.6162 108.81V117.069H57.3107V109.22C57.3107 107.504 56.3108 106.581 54.7738 106.581C53.0578 106.581 51.956 107.631 51.956 109.76V117.072H48.6505V103.865H51.956V105.301C52.7491 104.097 54.0331 103.507 55.7737 103.507C57.178 103.504 58.3323 103.967 59.2304 104.915Z" fill="#F58220"/>
<path d="M68.8165 108.912C70.6868 109.297 73.1219 110.192 73.0972 112.936C73.0972 114.245 72.6096 115.269 71.6096 115.985C70.6344 116.677 69.406 117.038 67.9431 117.038C65.3043 117.038 63.508 116.013 62.5605 113.989L65.4308 112.374C65.8166 113.476 66.6345 114.041 67.9431 114.041C69.1221 114.041 69.7115 113.683 69.7115 112.939C69.7115 112.248 68.6869 111.862 67.3783 111.529C65.4802 111.041 63.0976 110.248 63.0976 107.581C63.0976 106.325 63.5574 105.325 64.4802 104.609C65.4277 103.866 66.582 103.508 67.9647 103.508C70.0418 103.508 71.8349 104.483 72.8349 106.223L70.0171 107.76C69.6066 106.89 68.9153 106.452 67.9678 106.452C67.1221 106.452 66.4802 106.862 66.4802 107.504C66.4833 108.196 67.5079 108.578 68.8165 108.912Z" fill="#F58220"/>
<path d="M83.6833 103.862H86.9887V117.069H83.6833V115.245C82.8901 116.448 81.6062 117.038 79.8655 117.038C78.4551 117.038 77.3008 116.578 76.381 115.627C75.4829 114.68 75.0231 113.399 75.0231 111.732V103.862H78.3285V111.322C78.3285 113.038 79.3285 113.961 80.8655 113.961C82.5815 113.961 83.6864 112.908 83.6864 110.782V103.862H83.6833Z" fill="#F58220"/>
<path d="M93.3219 106.069C93.936 104.427 95.4761 103.609 97.2168 103.609V107.301C96.2168 107.171 95.294 107.378 94.5008 107.915C93.7077 108.452 93.3219 109.325 93.3219 110.554V117.069H90.0164V103.862H93.3219V106.069V106.069Z" fill="#F58220"/>
<path d="M108.392 103.862H111.698V117.069H108.392V115.168C107.392 116.424 106.01 117.038 104.213 117.038C102.497 117.038 101.035 116.396 99.8062 115.09C98.6025 113.782 97.9853 112.168 97.9853 110.273C97.9853 108.375 98.5995 106.788 99.8062 105.48C101.038 104.171 102.497 103.508 104.213 103.508C106.007 103.508 107.392 104.122 108.392 105.378V103.862ZM104.831 113.887C105.855 113.887 106.701 113.553 107.368 112.887C108.059 112.195 108.392 111.322 108.392 110.273C108.392 109.22 108.059 108.35 107.368 107.683C106.701 106.992 105.855 106.659 104.831 106.659C103.806 106.659 102.96 106.992 102.294 107.683C101.627 108.35 101.294 109.22 101.294 110.273C101.294 111.325 101.627 112.195 102.294 112.887C102.96 113.553 103.806 113.887 104.831 113.887Z" fill="#F58220"/>
<path d="M125.284 104.915C126.207 105.862 126.67 107.143 126.67 108.81V117.069H123.364V109.22C123.364 107.504 122.364 106.581 120.827 106.581C119.111 106.581 118.009 107.631 118.009 109.76V117.072H114.698V103.865H118.003V105.301C118.796 104.097 120.08 103.507 121.821 103.507C123.234 103.504 124.389 103.967 125.284 104.915Z" fill="#F58220"/>
<path d="M130.743 115.09C129.463 113.782 128.821 112.192 128.821 110.273C128.821 108.35 129.463 106.76 130.743 105.455C132.052 104.146 133.666 103.508 135.589 103.508C138.073 103.508 140.28 104.788 141.33 106.813L138.484 108.48C137.972 107.427 136.87 106.764 135.561 106.764C133.589 106.764 132.126 108.223 132.126 110.276C132.126 111.276 132.459 112.121 133.101 112.788C133.743 113.43 134.561 113.763 135.561 113.763C136.894 113.763 137.996 113.121 138.509 112.072L141.379 113.714C140.252 115.739 138.073 117.047 135.586 117.047C133.666 117.038 132.052 116.399 130.743 115.09Z" fill="#F58220"/>
<path d="M146.021 111.631C146.456 113.245 147.663 114.041 149.635 114.041C150.891 114.041 151.863 113.606 152.505 112.76L155.172 114.297C153.916 116.118 152.045 117.041 149.585 117.041C147.459 117.041 145.768 116.399 144.484 115.118C143.203 113.837 142.561 112.22 142.561 110.273C142.561 108.35 143.203 106.736 144.459 105.455C145.715 104.146 147.357 103.508 149.329 103.508C151.2 103.508 152.764 104.149 153.968 105.455C155.199 106.764 155.814 108.353 155.814 110.273C155.814 110.708 155.761 111.143 155.687 111.631H146.021V111.631ZM152.505 109.066C152.119 107.322 150.838 106.477 149.326 106.477C147.558 106.477 146.354 107.424 145.968 109.066H152.505Z" fill="#F58220"/>
<path d="M89.9435 26.0785H101.601V20.5478C101.601 16.9739 104.499 14.0758 108.073 14.0758H117.455V26.0785H131.328V40.183H117.455V65.713C117.455 68.6666 117.609 71.0585 117.921 72.8825C118.23 74.7096 118.872 76.1077 119.844 77.0799C120.816 78.0521 122.214 78.694 124.041 79.0027C125.865 79.3144 128.819 79.4687 131.85 79.4687V94.2738H129.112C123.825 94.2738 119.418 93.8077 115.881 92.8757C112.344 91.9436 109.529 90.3696 107.431 88.1536C105.332 85.9376 103.835 83.0242 102.943 79.4101C102.048 75.796 101.604 71.2715 101.604 65.8303V40.1861H89.9466V26.0785H89.9435Z" fill="#0F4F94"/>
<path d="M156 40.1984H140.146V94.2831H156V40.1984Z" fill="#0F4F94"/>
<path d="M7.25678 14.2697C11.1192 14.2697 14.2504 11.1385 14.2504 7.27607C14.2504 3.41361 11.1192 0.282471 7.25678 0.282471C3.39432 0.282471 0.263184 3.41361 0.263184 7.27607C0.263184 11.1385 3.39432 14.2697 7.25678 14.2697Z" fill="#F58220"/>
<path d="M148.061 36.6486C151.923 36.6486 155.054 33.5174 155.054 29.655C155.054 25.7925 151.923 22.6614 148.061 22.6614C144.198 22.6614 141.067 25.7925 141.067 29.655C141.067 33.5174 144.198 36.6486 148.061 36.6486Z" fill="#0F4F94"/>
<path d="M53.3645 26.2112C34.6182 26.2112 19.415 41.365 19.3316 60.0928H19.3286V123.066H34.8712V88.8233C40.1951 92.2769 46.5468 94.283 53.3645 94.283C72.1632 94.283 87.4004 79.0459 87.4004 60.2471C87.4004 41.4483 72.1632 26.2112 53.3645 26.2112ZM53.3645 78.7403C43.1518 78.7403 34.8712 70.4597 34.8712 60.2471C34.8712 50.0345 43.1518 41.7539 53.3645 41.7539C63.5771 41.7539 71.8577 50.0345 71.8577 60.2471C71.8608 70.4597 63.5802 78.7403 53.3645 78.7403Z" fill="#0F4F94"/>
</svg>
