<svg width="25" height="24" viewBox="0 0 25 24" fill="none" xmlns="http://www.w3.org/2000/svg">
<path d="M19 4.11031L14.01 2.24031C13.18 1.93031 11.82 1.93031 10.99 2.24031L6.00003 4.11031C4.85003 4.54031 3.91003 5.90031 3.91003 7.12031V14.5503C3.91003 15.7303 4.69003 17.2803 5.64003 17.9903L9.94003 21.2003C11.35 22.2603 13.67 22.2603 15.08 21.2003L19.38 17.9903C20.33 17.2803 21.11 15.7303 21.11 14.5503V7.12031C21.09 5.90031 20.15 4.54031 19 4.11031ZM12.43 7.03031C13.61 7.03031 14.57 7.99031 14.57 9.17031C14.57 10.3303 13.66 11.2603 12.51 11.3003H12.49H12.47C12.45 11.3003 12.43 11.3003 12.41 11.3003C11.21 11.2603 10.31 10.3303 10.31 9.17031C10.3 7.99031 11.26 7.03031 12.43 7.03031ZM14.69 16.3603C14.08 16.7603 13.29 16.9703 12.5 16.9703C11.71 16.9703 10.91 16.7703 10.31 16.3603C9.74003 15.9803 9.43003 15.4603 9.42003 14.8903C9.42003 14.3303 9.74003 13.7903 10.31 13.4103C11.52 12.6103 13.49 12.6103 14.7 13.4103C15.27 13.7903 15.59 14.3103 15.59 14.8803C15.58 15.4403 15.26 15.9803 14.69 16.3603Z" fill="#00377B"/>
</svg>
