<svg width="25" height="24" viewBox="0 0 25 24" fill="none" xmlns="http://www.w3.org/2000/svg">
<path d="M12.5004 22.7602C11.4104 22.7602 10.3304 22.4402 9.48041 21.8102L5.18039 18.6002C4.04039 17.7502 3.15039 15.9802 3.15039 14.5602V7.13019C3.15039 5.59019 4.28041 3.95019 5.73041 3.41019L10.7204 1.5402C11.7104 1.1702 13.2704 1.1702 14.2604 1.5402L19.2604 3.41019C20.7104 3.95019 21.8404 5.59019 21.8404 7.13019V14.5602C21.8404 15.9802 20.9504 17.7502 19.8104 18.6002L15.5104 21.8102C14.6704 22.4402 13.5904 22.7602 12.5004 22.7602ZM11.2504 2.94019L6.26041 4.81018C5.40041 5.13018 4.65039 6.21019 4.65039 7.13019V14.5602C4.65039 15.5102 5.3204 16.8402 6.0704 17.4002L10.3704 20.6102C11.5204 21.4702 13.4704 21.4702 14.6204 20.6102L18.9204 17.4002C19.6804 16.8302 20.3404 15.5002 20.3404 14.5602V7.13019C20.3404 6.22019 19.5904 5.14018 18.7304 4.81018L13.7404 2.94019C13.0804 2.69019 11.9204 2.69019 11.2504 2.94019Z" fill="#64748B"/>
<path d="M12.4999 11.6702C12.4799 11.6702 12.4599 11.6702 12.4299 11.6702C10.9799 11.6302 9.91992 10.5202 9.91992 9.17017C9.91992 7.79017 11.0499 6.66016 12.4299 6.66016C13.8099 6.66016 14.9399 7.79017 14.9399 9.17017C14.9299 10.5302 13.8699 11.6301 12.5199 11.6801C12.5099 11.6701 12.5099 11.6702 12.4999 11.6702ZM12.4299 8.16016C11.8699 8.16016 11.4199 8.61017 11.4199 9.17017C11.4199 9.72017 11.8499 10.1601 12.3899 10.1801C12.3899 10.1801 12.4399 10.1801 12.4999 10.1801C13.0299 10.1501 13.4399 9.71017 13.4399 9.17017C13.4499 8.61017 12.9899 8.16016 12.4299 8.16016Z" fill="#64748B"/>
<path d="M12.5008 17.35C11.6408 17.35 10.7708 17.12 10.1008 16.67C9.4308 16.23 9.05078 15.58 9.05078 14.89C9.05078 14.2 9.4308 13.55 10.1008 13.1C11.4508 12.2 13.5608 12.21 14.9008 13.1C15.5708 13.54 15.9508 14.19 15.9508 14.88C15.9508 15.57 15.5708 16.22 14.9008 16.67C14.2308 17.12 13.3608 17.35 12.5008 17.35ZM10.9308 14.34C10.6808 14.5 10.5408 14.7 10.5508 14.88C10.5508 15.06 10.6908 15.26 10.9308 15.42C11.7708 15.98 13.2308 15.98 14.0708 15.42C14.3208 15.26 14.4608 15.06 14.4608 14.88C14.4608 14.7 14.3208 14.5 14.0808 14.34C13.2408 13.79 11.7708 13.79 10.9308 14.34Z" fill="#64748B"/>
</svg>
