<svg width="19" height="18" viewBox="0 0 19 18" fill="none" xmlns="http://www.w3.org/2000/svg">
<path d="M11.4399 1.53675L12.0999 3.53675C12.3982 4.46244 13.2574 5.09174 14.2299 5.09675H16.3099C17.2854 5.09056 18.1528 5.7164 18.4544 6.64412C18.756 7.57184 18.4226 8.58809 17.6299 9.15675L15.9199 10.3968C15.1328 10.9682 14.802 11.9808 15.0999 12.9068L15.7599 14.9068C16.0864 15.8359 15.7677 16.8692 14.9746 17.4531C14.1816 18.037 13.1002 18.0344 12.3099 17.4468L10.6299 16.1968C9.8424 15.6262 8.77746 15.6262 7.98993 16.1968L6.30993 17.4468C5.52407 18.0219 4.45662 18.0235 3.66913 17.4505C2.88163 16.8776 2.55454 15.8615 2.85993 14.9368L3.51993 12.9368C3.81789 12.0108 3.48709 10.9982 2.69993 10.4268L0.949928 9.16675C0.141226 8.59692 -0.197894 7.56405 0.115641 6.62575C0.429177 5.68745 1.32111 5.06595 2.30993 5.09675H4.38993C5.35713 5.09459 6.21473 4.47454 6.51993 3.55675L7.17993 1.55675C7.4758 0.632962 8.33266 0.00457893 9.30267 2.49081e-05C10.2727 -0.00452912 11.1354 0.615781 11.4399 1.53675Z" fill="#F68632"/>
</svg>
