<svg width="279" height="289" viewBox="0 0 279 289" fill="none" xmlns="http://www.w3.org/2000/svg">
<circle opacity="0.1" cx="216" cy="89" r="34" fill="#00377B"/>
<circle opacity="0.1" cx="105.5" cy="105.5" r="105.5" fill="#00377B"/>
<circle opacity="0.15" cx="216.5" cy="164.5" r="62.5" fill="#F6821D"/>
<g clip-path="url(#clip0_406_9085)">
<path d="M229.86 273.367H117.071L126.47 129.234H220.461L229.86 273.367Z" fill="#00377B"/>
<path d="M155 273H46L52.4118 198H148.588L155 273Z" fill="#F6821D"/>
<path d="M129.603 198.167V185.439C129.621 183.571 128.791 181.795 127.343 180.611C103.486 161.63 82.3884 175.016 75.5395 180.476C74.0571 181.66 73.1989 183.458 73.2081 185.355V198.167H85.7403V188.329C85.7403 188.329 101.405 175.213 117.071 188.329V198.167H129.603Z" fill="#F6821D"/>
<path d="M198.53 132.367V118.894C198.548 117.192 197.857 115.559 196.622 114.389C175.277 94.611 156.394 108.651 150.387 114.231C149.117 115.414 148.397 117.074 148.401 118.81V132.367H160.933V125.787C160.939 123.932 161.759 122.173 163.176 120.975C165.934 118.235 169.672 116.71 173.559 116.737C177.444 116.763 181.16 118.34 183.88 121.119C185.225 122.318 185.996 124.035 185.998 125.837V132.367H198.53Z" fill="#F6821D"/>
<path d="M173.426 188.767L211.06 214.964L192.224 242.032L154.588 215.833L173.426 188.767Z" fill="#F6821D"/>
<path d="M157.843 154.3L195.479 180.498L176.641 207.566L139.005 181.367L157.843 154.3Z" fill="#F6821D"/>
<path d="M101.405 210.7L109.151 227.204L126.47 229.849L113.938 242.695L116.895 260.834L101.405 252.271L85.9162 260.834L88.8733 242.695L76.3411 229.849L93.6601 227.204L101.405 210.7Z" fill="#F6821D"/>
<path d="M48.1438 276.5H229.86C230.728 276.502 231.557 276.144 232.15 275.512C232.745 274.88 233.05 274.03 232.993 273.164L223.594 129.03C223.487 127.379 222.115 126.097 220.461 126.1H201.663V118.894C201.68 116.319 200.626 113.855 198.752 112.089C175.211 90.2812 154.147 106.448 148.254 111.938C146.35 113.715 145.268 116.205 145.268 118.81V126.1H126.47C124.816 126.097 123.444 127.379 123.337 129.03L120.517 172.433C98.251 160.913 79.3549 173.432 73.5905 178.027C71.3586 179.803 70.0643 182.503 70.075 185.355V195.034H54.4098C52.776 195.029 51.4129 196.279 51.2768 197.907L45.0107 273.107C44.9373 273.982 45.2356 274.848 45.8307 275.494C46.4273 276.138 47.2656 276.503 48.1438 276.5ZM151.534 118.81C151.528 117.943 151.886 117.112 152.521 116.523C158.787 110.694 175.448 99.0417 194.503 116.685C195.095 117.266 195.418 118.065 195.397 118.894V126.1H189.131V125.837C189.134 123.137 187.979 120.563 185.956 118.772C179.13 111.927 168.068 111.846 161.143 118.59C159.029 120.383 157.806 123.014 157.8 125.787V126.1H151.534V118.81ZM164.066 126.1V125.787C164.074 124.849 164.493 123.96 165.214 123.356C167.38 121.075 170.394 119.792 173.539 119.812C176.686 119.834 179.683 121.156 181.818 123.466C182.488 124.073 182.874 124.936 182.877 125.84V126.1H164.066ZM129.406 132.367H217.525L226.518 270.234H157.549L153.257 218.728L190.434 244.607C190.959 244.971 191.583 245.167 192.222 245.167C192.409 245.169 192.594 245.152 192.778 245.117C193.596 244.973 194.323 244.506 194.796 243.824L213.634 216.757C214.622 215.336 214.271 213.384 212.85 212.396L188.764 195.626L198.048 182.291C199.036 180.871 198.687 178.919 197.268 177.929L159.63 151.729C158.209 150.74 156.257 151.091 155.268 152.512L136.43 179.577C135.442 180.998 135.792 182.95 137.214 183.939L161.3 200.708L152.787 212.951L151.534 197.91C151.4 196.281 150.036 195.029 148.401 195.034H132.736V185.439C132.745 182.617 131.478 179.941 129.289 178.158C128.374 177.429 127.46 176.754 126.548 176.111L129.406 132.367ZM174.207 193.129L180.042 197.202L175.857 203.219L170.022 199.145L174.207 193.129ZM164.877 195.563L143.363 180.586L158.622 158.653L191.113 181.272L183.623 192.038L175.217 186.186C173.796 185.198 171.844 185.548 170.856 186.969L164.877 195.563ZM174.847 210.14C175.373 210.506 175.999 210.702 176.64 210.7C176.825 210.7 177.008 210.684 177.191 210.65C178.009 210.506 178.736 210.039 179.208 209.357L185.187 200.771L206.7 215.749L191.442 237.683L158.951 215.053L166.441 204.287L174.847 210.14ZM76.3411 185.355C76.332 184.413 76.7557 183.518 77.4915 182.927C84.6602 177.208 103.677 165.787 125.393 183.062C126.092 183.651 126.488 184.525 126.47 185.439V195.034H120.204V188.329C120.204 187.402 119.792 186.524 119.082 185.929C108.877 177.302 93.9354 177.302 83.7286 185.929C83.0187 186.524 82.6072 187.402 82.6072 188.329V195.034H76.3411V185.355ZM88.8733 195.034V189.905C96.2975 184.35 106.486 184.326 113.938 189.843V195.034H88.8733ZM57.292 201.3H145.519L151.262 270.234H51.5491L57.292 201.3Z" fill="#052B42"/>
<path d="M119.988 260.33L117.283 243.752L128.713 232.039C129.534 231.199 129.816 229.969 129.442 228.855C129.069 227.741 128.104 226.93 126.943 226.753L111.277 224.358L104.242 209.369C103.728 208.269 99.0832 208.269 98.5707 209.369L91.5336 224.358L75.8684 226.753C74.7073 226.93 73.742 227.741 73.3687 228.855C72.997 229.969 73.2769 231.199 74.0984 232.039L85.5276 243.752L82.8229 260.33C82.6302 261.515 83.1304 262.705 84.111 263.396C85.0932 264.086 86.3828 264.157 87.4322 263.575L101.405 255.852L115.379 263.575C115.844 263.831 116.365 263.966 116.895 263.967C117.814 263.967 118.688 263.563 119.283 262.864C119.878 262.163 120.135 261.236 119.988 260.33ZM111.695 240.508C111 241.22 110.685 242.219 110.846 243.2L112.766 254.968L102.922 249.529C101.979 249.007 100.833 249.007 99.8894 249.529L90.0451 254.968L91.965 243.2C92.1257 242.219 91.8105 241.22 91.116 240.508L82.8428 232.026L94.1205 230.304C95.1547 230.144 96.0404 229.482 96.4841 228.535L101.405 218.076L106.315 228.535C106.758 229.482 107.644 230.144 108.677 230.304L119.956 232.026L111.695 240.508Z" fill="#00377B"/>
</g>
<defs>
<clipPath id="clip0_406_9085">
<rect width="188" height="188" fill="white" transform="translate(45 101)"/>
</clipPath>
</defs>
</svg>
