<svg width="257" height="305" viewBox="0 0 257 305" fill="none" xmlns="http://www.w3.org/2000/svg">
<circle opacity="0.1" cx="34" cy="125" r="34" fill="#00377B"/>
<circle opacity="0.1" cx="151.5" cy="141.5" r="105.5" fill="#00377B"/>
<circle opacity="0.15" cx="71.5" cy="62.5" r="62.5" fill="#F6821D"/>
<path d="M143.788 241.445L154.231 231.001L181.339 258.107L170.894 268.553L143.788 241.445Z" fill="#FACFAA"/>
<path d="M143.788 241.445L149.009 236.223L176.116 263.33L170.894 268.553L143.788 241.445Z" fill="#E8B992"/>
<path d="M174.615 194.127C174.615 230.848 144.848 260.615 108.127 260.615C71.4083 260.615 41.6409 230.848 41.6409 194.127C41.6409 157.407 71.4083 127.641 108.127 127.641C144.848 127.641 174.615 157.407 174.615 194.127Z" fill="#F6821D"/>
<path d="M163.75 266.839L179.625 250.964L215.112 286.451L199.237 302.326L163.75 266.839Z" fill="#4391BE"/>
<path d="M163.751 266.84L170.075 260.515L205.562 296.002L199.237 302.326L163.751 266.84Z" fill="#00377B"/>
<path d="M144.794 230.791C142.339 233.247 139.698 235.406 136.914 237.262C132.164 240.441 127.003 242.751 121.657 244.186C117.114 245.413 112.434 246.009 107.759 245.973C106.779 245.969 105.795 245.933 104.819 245.869C100.014 245.567 95.2431 244.593 90.6563 242.955C85.9061 241.257 81.3509 238.844 77.1637 235.72C75.1752 234.241 73.2718 232.597 71.4646 230.791C51.2154 210.541 51.2154 177.711 71.4646 157.462C91.7151 137.215 124.544 137.215 144.794 157.462C165.039 177.711 165.039 210.541 144.794 230.791Z" fill="#00377B"/>
<path d="M144.794 157.462C133.58 146.25 118.509 141.251 103.852 142.457C115.664 143.428 127.205 148.427 136.241 157.462C156.486 177.711 156.486 210.541 136.241 230.791C133.786 233.247 131.145 235.406 128.361 237.262C123.611 240.441 118.45 242.751 113.104 244.186C110.072 245.005 106.977 245.536 103.865 245.792C104.182 245.818 104.5 245.849 104.819 245.869C105.796 245.933 106.779 245.969 107.759 245.973C112.434 246.009 117.114 245.413 121.657 244.186C127.003 242.751 132.164 240.441 136.914 237.262C139.698 235.406 142.339 233.247 144.794 230.791C165.039 210.541 165.039 177.711 144.794 157.462Z" fill="#4391BE"/>
<path d="M114.087 228.385V245.634C111.989 245.877 109.871 245.991 107.758 245.973C106.779 245.969 105.794 245.933 104.818 245.869C102.57 245.73 100.324 245.438 98.1037 245.004V228.379H103.628L114.087 228.385Z" fill="#FACFAA"/>
<path d="M114.087 228.385V237.769C111.583 238.61 108.895 239.065 106.109 239.065C105.271 239.065 104.444 239.02 103.628 238.942V245.779C101.779 245.623 99.9329 245.359 98.1037 245.004V228.379H103.628L114.087 228.385Z" fill="#E8B992"/>
<path d="M81.0241 213.804C76.863 213.804 73.4902 210.784 73.4902 207.06C73.4902 203.335 76.863 200.315 81.0241 200.315H131.192C135.353 200.315 138.726 203.335 138.726 207.06C138.726 210.784 135.353 213.804 131.192 213.804" fill="#FACFAA"/>
<path d="M131.192 185.557V210.64C131.192 224.494 119.961 235.724 106.109 235.724C92.2548 235.724 81.024 224.494 81.024 210.64V185.557" fill="#FACFAA"/>
<path d="M105.93 235.724C99.0732 235.678 92.8728 232.879 88.3698 228.378C83.8311 223.838 81.0227 217.568 81.0227 210.641V185.555H92.3167V210.641C92.3167 217.568 93.8589 223.838 96.3555 228.378C98.8123 232.847 102.192 235.638 105.93 235.724Z" fill="#E8B992"/>
<path d="M124.975 192.372C115.885 195.648 107.086 194.545 100.863 192.81C100.863 192.81 100.86 192.81 100.86 192.808C95.4409 191.298 91.9761 189.306 91.9761 189.306C91.9761 189.306 89.6882 200.315 81.0241 200.315C81.0241 200.315 75.259 190.119 75.4403 180.686C75.5337 175.793 79.567 172.134 84.1524 172.134C85.0094 172.134 85.8842 172.26 86.7562 172.532C89.2116 165.939 95.6991 161.766 102.723 162.193C103.817 162.26 104.918 162.348 106.022 162.448C106.234 162.465 106.448 162.485 106.659 162.505C106.681 162.506 106.702 162.509 106.724 162.51C118.188 163.587 129.801 165.684 136.625 158.135C136.625 158.135 147.901 184.113 124.975 192.372Z" fill="#515F75"/>
<path d="M102.723 162.193C103.817 162.26 104.918 162.348 106.022 162.448C95.9064 162.021 87.8699 184.299 100.86 192.808C95.4409 191.297 91.9761 189.306 91.9761 189.306C91.9761 189.306 89.6882 200.314 81.0241 200.314C81.0241 200.314 75.259 190.119 75.4403 180.684C75.5337 175.792 79.567 172.134 84.1524 172.134C85.0094 172.134 85.8842 172.26 86.7562 172.532C89.2116 165.939 95.7004 161.766 102.723 162.193Z" fill="#3B485B"/>
<path d="M106.728 162.513C106.705 162.509 106.683 162.507 106.658 162.505C106.68 162.507 106.702 162.509 106.724 162.511L106.728 162.513Z" fill="#F4AF9D"/>
<path d="M217.005 284.563L201.537 269.094C200.494 268.05 198.802 268.05 197.757 269.094C196.713 270.138 196.713 271.831 197.757 272.874L211.336 286.452L199.24 298.547L167.532 266.839L179.628 254.744L189.916 265.033C190.96 266.078 192.652 266.078 193.697 265.033C194.741 263.989 194.741 262.297 193.697 261.254L181.517 249.074C181.016 248.573 180.336 248.291 179.626 248.291C178.918 248.291 178.238 248.573 177.737 249.074L176.91 249.901L163.103 236.091C183.812 208.999 181.791 169.983 157.032 145.224C130.066 118.259 86.189 118.259 59.2245 145.224C32.2585 172.189 32.2585 216.066 59.2245 243.032C72.7074 256.514 90.4174 263.256 108.127 263.256C122.388 263.256 136.646 258.881 148.701 250.14L162.688 264.124L161.861 264.949C161.36 265.451 161.079 266.13 161.079 266.84C161.079 267.549 161.36 268.229 161.861 268.73L197.349 304.217C197.871 304.739 198.556 305 199.24 305C199.924 305 200.607 304.739 201.129 304.217L217.005 288.342C217.506 287.841 217.787 287.161 217.787 286.452C217.787 285.744 217.506 285.062 217.005 284.563ZM63.0038 239.251C38.1238 214.37 38.1238 173.885 63.0038 149.004C75.4444 136.563 91.7866 130.343 108.127 130.343C124.47 130.343 140.81 136.563 153.251 149.004C178.132 173.885 178.132 214.37 153.251 239.251C128.37 264.132 87.8864 264.132 63.0038 239.251ZM152.934 246.811C154.337 245.616 155.705 244.357 157.032 243.032C157.946 242.116 158.828 241.18 159.681 240.227L173.131 253.681L166.467 260.343L152.934 246.811Z" fill="#052B42"/>
<path d="M115.031 211.377C116.507 211.377 117.703 210.18 117.703 208.703V205.218C117.703 203.742 116.507 202.546 115.031 202.546C113.555 202.546 112.358 203.742 112.358 205.218V208.703C112.358 210.18 113.555 211.377 115.031 211.377Z" fill="#052B42"/>
<path d="M99.8574 208.703V205.218C99.8574 203.742 98.6613 202.546 97.185 202.546C95.7087 202.546 94.5112 203.742 94.5112 205.218V208.703C94.5112 210.18 95.7087 211.377 97.185 211.377C98.6613 211.377 99.8574 210.18 99.8574 208.703Z" fill="#052B42"/>
<path d="M114.152 221.379C115.196 220.335 115.196 218.643 114.152 217.6C113.108 216.555 111.415 216.556 110.371 217.6C109.233 218.738 107.718 219.366 106.107 219.366C104.496 219.366 102.983 218.738 101.843 217.6C100.799 216.556 99.1076 216.556 98.0639 217.6C97.0202 218.643 97.0202 220.335 98.0639 221.379C100.212 223.528 103.07 224.712 106.107 224.712C109.146 224.712 112.003 223.528 114.152 221.379Z" fill="#052B42"/>
<path d="M146.678 155.578C136.381 145.279 122.69 139.609 108.127 139.609C93.5663 139.609 79.8746 145.279 69.5777 155.578C64.8027 160.351 61.0056 165.875 58.2892 171.995C57.6905 173.344 58.2988 174.923 59.6474 175.522C60.996 176.121 62.5766 175.514 63.1754 174.164C65.624 168.647 69.0503 163.666 73.357 159.358C82.6459 150.071 94.9932 144.955 108.127 144.955C121.261 144.955 133.61 150.071 142.898 159.358C152.185 168.646 157.299 180.993 157.299 194.129C157.299 207.263 152.185 219.61 142.898 228.898C135.678 236.117 126.61 240.814 116.761 242.548V236.269C125.114 232.784 131.413 225.331 133.287 216.277C137.914 215.382 141.398 211.59 141.398 207.06C141.398 202.721 138.2 199.059 133.864 197.972V190.507C136.604 188.294 138.682 185.573 140.07 182.358C144.993 170.963 139.319 157.633 139.076 157.072C138.713 156.238 137.954 155.646 137.057 155.498C136.16 155.351 135.25 155.67 134.641 156.344C129.4 162.139 120.17 161.193 110.397 160.192C107.936 159.939 105.39 159.678 102.884 159.526C95.3859 159.07 88.5387 163.013 85.1783 169.506C82.4688 169.254 79.7593 169.985 77.4878 171.625C74.5559 173.739 72.8365 177.023 72.7665 180.633C72.6374 187.423 75.2727 194.414 77.0745 198.376C73.4023 199.804 70.8164 203.159 70.8164 207.061C70.8164 211.589 74.299 215.38 78.9229 216.276C80.0037 221.542 82.5924 226.382 86.4801 230.269C89.088 232.877 92.1257 234.902 95.4312 236.279V241.651C87.1572 239.455 79.5711 235.113 73.357 228.898C61.6744 217.215 56.6564 200.558 59.9331 184.34C60.2256 182.894 59.2904 181.483 57.8429 181.191C56.3968 180.9 54.9865 181.835 54.6939 183.281C51.0602 201.26 56.6248 219.725 69.5777 232.678C79.8746 242.975 93.5649 248.645 108.127 248.645C122.69 248.645 136.381 242.975 146.678 232.678C156.975 222.381 162.646 208.69 162.646 194.129C162.646 179.565 156.975 165.875 146.678 155.578ZM136.053 207.06C136.053 208.478 135.181 209.728 133.864 210.457V203.662C135.181 204.391 136.053 205.641 136.053 207.06ZM78.1127 180.735C78.1498 178.821 79.0616 177.081 80.6162 175.959C81.6681 175.199 82.8972 174.806 84.1483 174.806C84.7539 174.806 85.365 174.898 85.9638 175.085C87.3192 175.507 88.7667 174.795 89.2624 173.465C91.3114 167.959 96.6549 164.503 102.56 164.861C104.955 165.008 107.445 165.262 109.854 165.509C119.001 166.447 128.418 167.411 135.364 162.743C136.541 166.943 137.808 174.139 135.154 180.261C133.243 184.668 129.514 187.897 124.068 189.858C108.48 195.473 93.4523 187.071 93.3068 186.988C92.5638 186.56 91.6616 186.515 90.8788 186.867C90.0974 187.218 89.5316 187.923 89.3572 188.762C89.3407 188.843 87.7463 196.216 82.558 197.464C81.0639 194.407 77.9863 187.292 78.1127 180.735ZM76.1626 207.06C76.1626 205.642 77.0346 204.391 78.3503 203.662V210.457C77.0346 209.728 76.1626 208.478 76.1626 207.06ZM83.6965 210.64V202.705C89.3228 201.472 92.2287 196.46 93.5801 193.066C99.2133 195.539 112.141 199.837 125.881 194.887C126.799 194.556 127.676 194.193 128.519 193.8V210.64C128.519 222.998 118.465 233.053 106.107 233.053C100.121 233.053 94.4933 230.721 90.2608 226.489C86.0283 222.255 83.6965 216.627 83.6965 210.64ZM100.777 242.757V237.887C102.515 238.224 104.299 238.398 106.109 238.398C107.923 238.398 109.697 238.218 111.415 237.883V243.189C110.326 243.261 109.23 243.299 108.129 243.299C105.644 243.299 103.189 243.117 100.777 242.757Z" fill="#052B42"/>
</svg>
