<svg width="281" height="288" viewBox="0 0 281 288" fill="none" xmlns="http://www.w3.org/2000/svg">
<circle opacity="0.1" cx="211" cy="125" r="34" fill="#00377B"/>
<circle opacity="0.1" cx="105.5" cy="121.5" r="105.5" fill="#00377B"/>
<circle opacity="0.15" cx="218.5" cy="62.5" r="62.5" fill="#F6821D"/>
<path d="M81.2833 166.45H199.717V284.883H81.2833V166.45Z" fill="#00377B"/>
<path d="M140.5 104.117C130.172 104.117 121.8 113.884 121.8 125.933V135.283L140.5 153.983L159.2 135.283V125.933C159.2 113.884 150.829 104.117 140.5 104.117Z" fill="#F6821D"/>
<path d="M146.733 116.583C145.012 116.583 143.617 117.979 143.617 119.7V122.817H137.383V119.7C137.383 117.979 135.988 116.583 134.267 116.583C132.546 116.583 131.15 117.979 131.15 119.7V132.167C131.15 133.888 132.546 135.283 134.267 135.283C135.988 135.283 137.383 133.888 137.383 132.167V129.05H143.617V132.167C143.617 133.888 145.012 135.283 146.733 135.283C148.455 135.283 149.85 133.888 149.85 132.167V119.7C149.85 117.979 148.455 116.583 146.733 116.583Z" fill="white"/>
<path d="M96.8667 178.917H109.333C111.055 178.917 112.45 180.312 112.45 182.033V197.617H93.75V182.033C93.75 180.312 95.1455 178.917 96.8667 178.917Z" fill="#F6821D"/>
<path d="M134.267 178.917H146.733C148.455 178.917 149.85 180.312 149.85 182.033V197.617H131.15V182.033C131.15 180.312 132.546 178.917 134.267 178.917Z" fill="#F6821D"/>
<path d="M171.667 178.917H184.133C185.855 178.917 187.25 180.312 187.25 182.033V197.617H168.55V182.033C168.55 180.312 169.946 178.917 171.667 178.917Z" fill="#F6821D"/>
<path d="M96.8667 216.317H109.333C111.055 216.317 112.45 217.712 112.45 219.433V235.017H93.75V219.433C93.75 217.712 95.1455 216.317 96.8667 216.317Z" fill="#F6821D"/>
<path d="M134.267 216.317H146.733C148.455 216.317 149.85 217.712 149.85 219.433V235.017H131.15V219.433C131.15 217.712 132.546 216.317 134.267 216.317Z" fill="#F6821D"/>
<path d="M171.667 216.317H184.133C185.855 216.317 187.25 217.712 187.25 219.433V235.017H168.55V219.433C168.55 217.712 169.946 216.317 171.667 216.317Z" fill="#F6821D"/>
<path d="M81.2833 272.417H199.717V284.883H81.2833V272.417Z" fill="#F6821D"/>
<path d="M131.15 247.483H149.85C153.292 247.483 156.083 250.274 156.083 253.717V284.883H124.917V253.717C124.917 250.274 127.708 247.483 131.15 247.483Z" fill="#F6821D"/>
<path d="M230.883 288H50.1167C48.3955 288 47 286.604 47 284.883C47 283.162 48.3955 281.767 50.1167 281.767H230.883C232.604 281.767 234 283.162 234 284.883C234 286.604 232.604 288 230.883 288Z" fill="#C8D952"/>
<path d="M230.883 281.767H202.833V166.45C202.833 164.729 201.438 163.333 199.717 163.333H81.2833C79.5622 163.333 78.1667 164.729 78.1667 166.45V281.767H50.1167C48.3955 281.767 47 283.162 47 284.883C47 286.605 48.3955 288 50.1167 288H230.883C232.604 288 234 286.605 234 284.883C234 283.162 232.604 281.767 230.883 281.767ZM196.6 169.567V269.3H159.2V253.717C159.2 248.553 155.013 244.367 149.85 244.367H131.15C125.986 244.367 121.8 248.553 121.8 253.717V269.3H84.4V169.567H196.6ZM84.4 275.533H121.8V281.767H84.4V275.533ZM128.033 281.767V253.717C128.033 251.996 129.429 250.6 131.15 250.6H149.85C151.571 250.6 152.967 251.996 152.967 253.717V281.767H128.033ZM159.2 281.767V275.533H196.6V281.767H159.2Z" fill="#052B42"/>
<path d="M140.5 157.1C141.326 157.1 142.119 156.771 142.704 156.187L161.404 137.487C161.988 136.903 162.317 136.11 162.317 135.283V125.933C162.317 112.185 152.53 101 140.5 101C128.47 101 118.683 112.185 118.683 125.933V135.283C118.683 136.11 119.012 136.903 119.596 137.487L138.296 156.187C138.881 156.771 139.674 157.1 140.5 157.1ZM124.917 125.933C124.917 115.62 131.908 107.233 140.5 107.233C149.092 107.233 156.083 115.62 156.083 125.933V133.993L140.5 149.576L124.917 133.993V125.933Z" fill="#052B42"/>
<path d="M143.617 132.167C143.617 133.888 145.012 135.283 146.733 135.283C148.455 135.283 149.85 133.888 149.85 132.167V119.7C149.85 117.979 148.455 116.583 146.733 116.583C145.012 116.583 143.617 117.979 143.617 119.7V122.817H137.383V119.7C137.383 117.979 135.988 116.583 134.267 116.583C132.546 116.583 131.15 117.979 131.15 119.7V132.167C131.15 133.888 132.546 135.283 134.267 135.283C135.988 135.283 137.383 133.888 137.383 132.167V129.05H143.617V132.167Z" fill="#052B42"/>
<path d="M93.75 200.733H112.45C114.171 200.733 115.567 199.338 115.567 197.617V182.033C115.567 178.591 112.776 175.8 109.333 175.8H96.8666C93.4243 175.8 90.6333 178.591 90.6333 182.033V197.617C90.6333 199.338 92.0288 200.733 93.75 200.733ZM96.8666 182.033H109.333V194.5H96.8666V182.033Z" fill="#052B42"/>
<path d="M131.15 200.733H149.85C151.571 200.733 152.967 199.338 152.967 197.617V182.033C152.967 178.591 150.176 175.8 146.733 175.8H134.267C130.824 175.8 128.033 178.591 128.033 182.033V197.617C128.033 199.338 129.429 200.733 131.15 200.733ZM134.267 182.033H146.733V194.5H134.267V182.033Z" fill="#052B42"/>
<path d="M168.55 200.733H187.25C188.971 200.733 190.367 199.338 190.367 197.617V182.033C190.367 178.591 187.576 175.8 184.133 175.8H171.667C168.224 175.8 165.433 178.591 165.433 182.033V197.617C165.433 199.338 166.829 200.733 168.55 200.733ZM171.667 182.033H184.133V194.5H171.667V182.033Z" fill="#052B42"/>
<path d="M93.75 238.133H112.45C114.171 238.133 115.567 236.738 115.567 235.017V219.433C115.567 215.991 112.776 213.2 109.333 213.2H96.8666C93.4243 213.2 90.6333 215.991 90.6333 219.433V235.017C90.6333 236.738 92.0288 238.133 93.75 238.133ZM96.8666 219.433H109.333V231.9H96.8666V219.433Z" fill="#052B42"/>
<path d="M131.15 238.133H149.85C151.571 238.133 152.967 236.738 152.967 235.017V219.433C152.967 215.991 150.176 213.2 146.733 213.2H134.267C130.824 213.2 128.033 215.991 128.033 219.433V235.017C128.033 236.738 129.429 238.133 131.15 238.133ZM134.267 219.433H146.733V231.9H134.267V219.433Z" fill="#052B42"/>
<path d="M168.55 238.133H187.25C188.971 238.133 190.367 236.738 190.367 235.017V219.433C190.367 215.991 187.576 213.2 184.133 213.2H171.667C168.224 213.2 165.433 215.991 165.433 219.433V235.017C165.433 236.738 166.829 238.133 168.55 238.133ZM171.667 219.433H184.133V231.9H171.667V219.433Z" fill="#052B42"/>
</svg>
