<svg width="279" height="287" viewBox="0 0 279 287" fill="none" xmlns="http://www.w3.org/2000/svg">
<circle opacity="0.1" cx="216" cy="89" r="34" fill="#00377B"/>
<circle opacity="0.1" cx="105.5" cy="105.5" r="105.5" fill="#00377B"/>
<circle opacity="0.15" cx="216.5" cy="164.5" r="62.5" fill="#F6821D"/>
<g clip-path="url(#clip0_406_9086)">
<path d="M144.569 154.649V166.121C144.851 166.232 145.146 166.292 145.417 166.426L149.535 168.483C151.231 169.33 151.919 171.388 151.072 173.082C150.226 174.777 148.163 175.465 146.468 174.618L142.35 172.561C141.586 172.187 140.691 172.187 139.927 172.561L139.2 172.925C138.283 173.382 137.704 174.319 137.707 175.341C137.712 176.191 138.111 176.991 138.788 177.507L147.607 184.113C150.015 185.925 151.43 188.762 151.432 191.773C151.444 195.396 149.391 198.711 146.141 200.321L145.414 200.685C145.142 200.818 144.851 200.88 144.569 200.989V209.034C158.291 207.317 168.586 195.664 168.586 181.85C168.586 168.036 158.291 156.384 144.569 154.667V154.649Z" fill="#F6821D"/>
<path d="M111.019 138.509L89.7702 146.468L91.8661 196.681C92.6418 214.601 100.754 231.415 114.303 243.186L141.066 266.35L167.363 241.956C179.279 230.922 186.627 215.831 187.964 199.657L192.401 146.43L171.259 138.509C151.839 131.23 130.437 131.23 111.019 138.509ZM134.276 229.819H127.413V222.964H134.276V229.819ZM144.569 243.529H137.707V236.674H144.569V243.529ZM154.863 229.819H148.001V222.964H154.863V229.819ZM141.138 216.108C122.188 216.108 106.826 200.763 106.826 181.833C106.826 162.903 122.188 147.558 141.138 147.558C160.089 147.558 175.451 162.903 175.451 181.833C175.43 200.755 160.08 216.088 141.138 216.108Z" fill="#00377B"/>
<path d="M108.175 250.255L108.172 250.253C94.1397 238.064 85.207 221.143 82.9868 202.837L85.1361 237.182L141.026 283.709L193.786 237.209L196.881 204.223C194.579 221.28 186.414 237.056 173.72 248.809L108.175 250.255ZM108.175 250.255L137.247 275.428L108.175 250.255ZM145.17 275.293L173.718 248.811L138.885 273.54C140.208 274.688 142.185 274.653 143.469 273.461L145.169 275.294L145.17 275.293ZM203.424 134.486L197.76 194.844L201.96 144.623L201.961 144.622C202.181 141.967 200.602 139.499 198.112 138.576C198.11 138.575 198.108 138.574 198.106 138.574L174.54 129.748C153.002 121.68 129.268 121.68 107.73 129.748C107.73 129.748 107.73 129.748 107.73 129.748L84.1536 138.578L84.1532 138.578C81.7544 139.477 80.2 141.816 80.3094 144.38C80.3094 144.38 80.3095 144.381 80.3095 144.382L82.2858 191.635L78.7123 134.533L102.288 126.289C102.289 126.289 102.289 126.289 102.29 126.289C127.447 117.533 154.829 117.533 179.987 126.289C179.987 126.289 179.988 126.289 179.988 126.289L203.424 134.486Z" fill="#00377B" stroke="#00377B" stroke-width="5"/>
<path d="M143.489 189.59L134.671 182.985C132.267 181.175 130.851 178.345 130.844 175.338C130.834 171.715 132.885 168.399 136.135 166.789L136.863 166.426C137.134 166.292 137.425 166.232 137.707 166.121V154.649C123.985 156.366 113.692 168.019 113.692 181.833C113.692 195.647 123.985 207.3 137.707 209.017V200.969C137.425 200.862 137.131 200.802 136.859 200.668L132.743 198.611C131.046 197.764 130.359 195.706 131.205 194.012C132.052 192.317 134.113 191.629 135.81 192.476L139.927 194.532C140.691 194.907 141.586 194.907 142.35 194.532L143.077 194.169C143.988 193.716 144.564 192.789 144.569 191.773C144.571 190.916 144.171 190.109 143.489 189.59Z" fill="#F6821D"/>
<path d="M220.057 123.565H226.919V130.42H220.057V123.565Z" fill="#F6821D"/>
<path d="M209.763 113.283H216.625V120.138H209.763V113.283Z" fill="#F6821D"/>
<path d="M230.35 113.283H237.213V120.138H230.35V113.283Z" fill="#F6821D"/>
<path d="M220.057 103H226.919V109.855H220.057V103Z" fill="#F6821D"/>
</g>
<defs>
<clipPath id="clip0_406_9086">
<rect width="184" height="184" fill="white" transform="translate(76 103)"/>
</clipPath>
</defs>
</svg>
