<svg width="326" height="126" viewBox="0 0 326 126" fill="none" xmlns="http://www.w3.org/2000/svg">
<path d="M123 1.00047C88.8596 -1.16269 95.461 9.86059 78.093 27.2913C60.7563 44.6907 52.7306 63.0933 62.8254 89.2393C72.9202 115.417 96.715 122.063 134.053 122.063C171.423 122.063 209.889 125.7 229.358 111.467C248.826 97.2336 255.472 64.7235 227.257 47.7003C210.642 37.6682 170.182 3.94739 123 1.00047Z" fill="#FEDFCE"/>
<path d="M86.9965 116.576C86.6203 112.03 85.1469 107.735 83.7047 103.471C82.2626 99.239 80.6324 94.7873 80.5384 90.2729C80.507 88.3292 81.3848 84.3477 84.175 85.1001C85.1155 85.3509 85.7112 86.3854 86.1187 87.1692C86.683 88.2038 87.1219 89.3324 87.4981 90.461C88.9402 94.6933 89.2224 99.2077 89.191 103.659C89.191 106.983 88.9402 110.337 89.2224 113.691C89.2537 113.88 89.5359 113.911 89.5359 113.691C89.5359 109.02 89.7867 104.349 90.6018 99.7406C91.0093 97.5461 91.5423 95.383 92.1693 93.2198C92.3888 92.4674 93.1098 91.2761 93.8936 91.088C95.0535 90.7745 96.4956 91.1193 96.9659 92.3733C98.6588 97.0759 97.2167 102.155 95.6492 106.7C94.9908 108.613 94.3325 110.525 93.486 112.375C92.7963 113.88 92.1066 115.384 91.4482 116.889C91.2601 117.328 91.072 117.767 90.8839 118.237C90.8212 118.425 91.1034 118.519 91.1974 118.331C92.3888 115.478 93.8622 112.72 94.8968 109.804C96.4643 105.446 98.2199 100.963 98.0004 96.2294C97.9691 95.1949 97.781 94.1603 97.5302 93.1571C97.2794 92.2479 96.9972 91.5582 96.1821 91.0566C95.6178 90.7118 94.8654 90.6804 94.2384 90.7431C93.4233 90.8372 93.1412 91.0566 92.6709 91.7463C92.5142 91.9971 92.1066 92.3733 92.0125 92.6555C91.8558 93.1884 91.699 93.7214 91.5423 94.223C91.2288 95.3516 90.9466 96.4802 90.6958 97.6088C90.2256 99.6779 89.9121 101.778 89.6613 103.91C89.2851 107.171 89.191 110.431 89.191 113.723C89.2851 113.723 89.4105 113.723 89.5045 113.723C89.191 109.898 89.5045 106.042 89.4732 102.186C89.4105 97.8283 88.9402 93.4706 87.3727 89.3951C86.8084 87.8903 86.1187 86.1033 84.7707 85.1314C83.3599 84.1282 81.7924 85.2255 81.04 86.4482C80.0054 88.0784 80.0681 90.2415 80.2876 92.0912C80.5384 94.223 81.04 96.2921 81.6356 98.3299C83.3912 104.412 86.1187 110.243 86.6203 116.607C86.683 116.764 86.9965 116.764 86.9965 116.576Z" fill="#FFBC45"/>
<path d="M86.9651 116.514C86.8711 115.636 86.777 114.789 86.6203 113.912C86.5889 113.755 86.3068 113.786 86.3068 113.943C86.3695 114.821 86.4949 115.667 86.6203 116.545C86.6516 116.733 86.9651 116.67 86.9338 116.451C86.8084 115.605 86.683 114.789 86.6203 113.943C86.5262 113.943 86.4008 113.974 86.3068 113.974C86.4949 114.789 86.5889 115.636 86.6516 116.482C86.683 116.702 86.9965 116.702 86.9651 116.514Z" fill="#FFBC45"/>
<path d="M82.6701 116.639C81.3534 113.128 78.5632 110.557 76.0866 107.861C74.7699 106.419 73.5159 104.883 72.6381 103.127C71.7916 101.466 70.663 98.9578 71.7916 97.2022C72.7948 95.6661 74.958 96.9201 76.0239 97.6411C77.4033 98.5816 78.5005 99.8043 79.5351 101.09C82.4193 104.632 84.6138 108.77 85.8365 113.159C86.15 114.225 86.3695 115.354 86.5576 116.451C86.5889 116.639 86.9024 116.577 86.8711 116.357C86.1813 112.094 84.5511 108.018 82.2626 104.35C80.4756 101.497 78.2811 98.4249 75.2715 96.7947C74.2996 96.2617 73.0143 95.8542 72.0111 96.5125C70.7257 97.359 70.9451 99.24 71.2586 100.525C72.1992 104.162 74.7699 106.952 77.2779 109.617C79.2843 111.749 81.2907 113.943 82.3566 116.733C82.4507 116.89 82.7642 116.827 82.6701 116.639Z" fill="#FFBC45"/>
<path d="M94.9282 93.0322C92.8591 96.2612 93.2353 100.399 92.6083 104.036C92.2321 106.137 91.4797 108.112 91.1035 110.212C90.6959 112.407 90.257 114.601 89.7241 116.796C89.6614 116.984 89.9749 117.078 90.0376 116.89C90.5392 114.789 90.9781 112.72 91.3543 110.588C91.6991 108.613 92.3888 106.701 92.7964 104.726C93.1726 102.845 93.3293 100.932 93.4861 99.0514C93.6742 97.0136 94.0504 94.9759 95.179 93.2203C95.3044 93.0008 95.0536 92.8441 94.9282 93.0322Z" fill="#FFBC45"/>
<path d="M83.2031 88.2973C83.3599 90.6486 84.1436 92.9058 84.6766 95.1944C85.2722 97.7337 85.7738 100.336 86.3068 102.907C86.8084 105.415 87.2473 107.923 87.7803 110.431C88.3446 113.001 88.7835 115.635 88.7835 118.268C88.7835 118.456 89.097 118.456 89.097 118.268C89.097 115.886 88.7208 113.534 88.2505 111.214C87.7176 108.612 87.216 106.042 86.7144 103.439C86.2127 100.963 85.7425 98.4548 85.1782 95.9781C84.6139 93.4388 83.6734 90.9307 83.5166 88.2973C83.4853 88.1092 83.1718 88.1092 83.2031 88.2973Z" fill="#FFBC45"/>
<path d="M75.3971 101.371C77.7483 103.628 79.692 106.262 81.479 108.958C82.3882 110.337 83.2033 111.78 84.0184 113.222C84.9275 114.82 85.4605 116.513 86.1188 118.238C86.1815 118.426 86.495 118.332 86.4323 118.144C85.8367 116.607 85.3978 115.04 84.614 113.566C83.7676 112.03 82.8898 110.494 81.9493 109.021C80.1309 106.199 78.1245 103.44 75.6792 101.12C75.4911 101.026 75.2403 101.246 75.3971 101.371Z" fill="#FFBC45"/>
<path d="M75.8358 105.604C77.7482 106.889 79.8173 107.892 81.6356 109.303C81.7923 109.428 82.0118 109.209 81.855 109.083C80.0367 107.641 77.9363 106.607 75.9926 105.321C75.8358 105.227 75.6791 105.478 75.8358 105.604Z" fill="#FFBC45"/>
<path d="M81.0714 105.353C81.7611 106.262 82.1686 107.453 82.5762 108.519C83.0464 109.836 83.3913 111.215 83.7048 112.594C83.7361 112.783 84.0496 112.72 84.0183 112.5C83.6734 111.058 83.3286 109.616 82.7956 108.237C82.4194 107.202 82.0119 106.074 81.3222 105.196C81.2281 105.039 80.946 105.196 81.0714 105.353Z" fill="#FFBC45"/>
<path d="M91.3855 101.715C91.4795 103.032 92.1379 104.255 92.1693 105.571C92.1693 105.76 92.4828 105.76 92.4828 105.571C92.4514 104.223 91.7931 103.032 91.699 101.715C91.699 101.496 91.3855 101.496 91.3855 101.715Z" fill="#FFBC45"/>
<path d="M85.2722 90.6805C84.8333 92.0599 84.896 93.5648 84.7079 94.9755C84.6765 95.1636 84.99 95.1636 85.0214 94.9755C85.2095 93.5648 85.1468 92.1226 85.5857 90.7432C85.6484 90.5865 85.3349 90.4924 85.2722 90.6805Z" fill="#FFBC45"/>
<path d="M82.7956 96.3867C83.4853 97.3586 84.0496 98.3931 84.7706 99.365C85.429 100.243 85.9619 101.089 86.1814 102.187C86.2128 102.375 86.5263 102.312 86.4949 102.092C86.2755 101.152 85.8992 100.462 85.3663 99.6785C84.5825 98.5499 83.8615 97.3586 83.0777 96.23C82.9523 96.0732 82.6702 96.23 82.7956 96.3867Z" fill="#FFBC45"/>
<path d="M87.8116 100.181C87.4981 102.124 87.1846 104.037 86.9965 105.98C86.9651 106.168 87.2786 106.168 87.31 105.98C87.4981 104.068 87.8116 102.156 88.1251 100.243C88.1564 100.086 87.8429 99.9924 87.8116 100.181Z" fill="#FFBC45"/>
<path d="M96.088 95.1953C95.3042 97.2331 93.9875 99.02 93.0784 100.964C92.9843 101.152 93.2665 101.309 93.3605 101.12C94.301 99.1454 95.6177 97.3271 96.4015 95.2894C96.4642 95.1013 96.1507 95.0072 96.088 95.1953Z" fill="#FFBC45"/>
<path d="M15.9788 104.836C15.6026 100.291 14.1292 95.9957 12.687 91.7321C11.2449 87.4998 9.61472 83.0481 9.52067 78.5336C9.48932 76.5899 10.3671 72.6084 13.1573 73.3608C14.0978 73.6116 14.6935 74.6462 15.101 75.4299C15.6653 76.4645 16.1042 77.5931 16.4804 78.7217C17.9225 82.954 18.2047 87.4684 18.1733 91.9202C18.1733 95.2433 17.9225 98.5978 18.2047 101.952C18.236 102.14 18.5182 102.172 18.5182 101.952C18.5182 97.281 18.769 92.6099 19.5841 88.0014C19.9916 85.8069 20.5246 83.6437 21.1516 81.4805C21.3711 80.7281 22.0921 79.5368 22.8759 79.3487C24.0358 79.0352 25.4779 79.3801 25.9482 80.6341C27.6411 85.3366 26.199 90.4154 24.6315 94.9611C23.9731 96.8735 23.3148 98.7859 22.4683 100.636C21.7786 102.14 21.0889 103.645 20.4305 105.15C20.2424 105.589 20.0543 106.028 19.8662 106.498C19.8035 106.686 20.0857 106.78 20.1797 106.592C21.3711 103.739 22.8445 100.98 23.8791 98.0648C25.4466 93.7071 27.2022 89.224 26.9827 84.4902C26.9514 83.4556 26.7633 82.421 26.5125 81.4178C26.2617 80.5087 25.9795 79.819 25.1644 79.3174C24.6001 78.9725 23.8477 78.9412 23.2207 79.0039C22.4056 79.0979 22.1235 79.3174 21.6532 80.0071C21.4965 80.2579 21.0889 80.6341 20.9948 80.9162C20.8381 81.4492 20.6813 81.9821 20.5246 82.4837C20.2111 83.6124 19.9289 84.741 19.6781 85.8696C19.2079 87.9387 18.8944 90.0392 18.6436 92.171C18.2674 95.4314 18.1733 98.6918 18.1733 101.984C18.2674 101.984 18.3928 101.984 18.4868 101.984C18.1733 98.1589 18.4868 94.3028 18.4555 90.4467C18.3928 86.089 17.9225 81.7313 16.355 77.6558C15.7907 76.151 15.101 74.364 13.753 73.3922C12.3422 72.389 10.7747 73.4862 10.0223 74.7089C8.98772 76.3391 9.05042 78.5023 9.26987 80.3519C9.52067 82.4837 10.0223 84.5529 10.6179 86.5906C12.3735 92.6726 15.101 98.5037 15.6026 104.868C15.6653 105.025 15.9788 105.025 15.9788 104.836Z" fill="#FFBC45"/>
<path d="M15.9474 104.774C15.8534 103.897 15.7593 103.05 15.6026 102.172C15.5712 102.016 15.2891 102.047 15.2891 102.204C15.3518 103.082 15.4772 103.928 15.6026 104.806C15.6339 104.994 15.9474 104.931 15.9161 104.712C15.7907 103.865 15.6653 103.05 15.6026 102.204C15.5085 102.204 15.3831 102.235 15.2891 102.235C15.4772 103.05 15.5712 103.897 15.6339 104.743C15.6653 104.963 15.9788 104.963 15.9474 104.774Z" fill="#FFBC45"/>
<path d="M11.6524 104.9C10.3357 101.389 7.54555 98.8182 5.06888 96.122C3.75217 94.6799 2.49816 93.1438 1.62036 91.3882C0.773902 89.7266 -0.354708 87.2186 0.7739 85.463C1.77711 83.9268 3.94027 85.1808 5.00618 85.9019C6.38559 86.8424 7.48284 88.065 8.5174 89.3504C11.4016 92.893 13.5961 97.0312 14.8188 101.42C15.1323 102.486 15.3518 103.615 15.5399 104.712C15.5712 104.9 15.8847 104.837 15.8534 104.618C15.1636 100.354 13.5334 96.2788 11.2449 92.6108C9.45791 89.7579 7.2634 86.6856 4.25378 85.0554C3.28192 84.5225 1.99656 84.1149 0.993353 84.7733C-0.292006 85.6197 -0.0725547 87.5007 0.240947 88.7861C1.18145 92.4227 3.75217 95.2129 6.26019 97.8777C8.2666 100.009 10.273 102.204 11.3389 104.994C11.433 105.151 11.7465 105.088 11.6524 104.9Z" fill="#FFBC45"/>
<path d="M23.9105 81.2929C21.8414 84.522 22.2176 88.6602 21.5906 92.2968C21.2144 94.3973 20.462 96.3724 20.0858 98.4728C19.6782 100.667 19.2393 102.862 18.7064 105.056C18.6437 105.244 18.9572 105.339 19.0199 105.15C19.5215 103.05 19.9604 100.981 20.3366 98.849C20.6814 96.874 21.3711 94.9616 21.7787 92.9865C22.1549 91.1055 22.3116 89.1932 22.4684 87.3122C22.6565 85.2744 23.0327 83.2366 24.1613 81.481C24.2867 81.2616 24.0359 81.1048 23.9105 81.2929Z" fill="#FFBC45"/>
<path d="M12.1854 76.5581C12.3422 78.9093 13.1259 81.1666 13.6589 83.4551C14.2545 85.9945 14.7561 88.5966 15.2891 91.1673C15.7907 93.6753 16.2296 96.1833 16.7626 98.6913C17.3269 101.262 17.7658 103.895 17.7658 106.529C17.7658 106.717 18.0793 106.717 18.0793 106.529C18.0793 104.146 17.7031 101.795 17.2328 99.4751C16.6999 96.873 16.1983 94.3023 15.6967 91.7002C15.195 89.2236 14.7248 86.7155 14.1605 84.2389C13.5962 81.6995 12.6557 79.1915 12.4989 76.5581C12.4676 76.37 12.1541 76.37 12.1854 76.5581Z" fill="#FFBC45"/>
<path d="M4.37936 89.632C6.73063 91.8892 8.67435 94.5226 10.4613 97.2187C11.3705 98.5982 12.1856 100.04 13.0007 101.482C13.9098 103.081 14.4428 104.774 15.1011 106.498C15.1638 106.687 15.4773 106.592 15.4146 106.404C14.819 104.868 14.3801 103.301 13.5963 101.827C12.7499 100.291 11.8721 98.7549 10.9316 97.2814C9.11325 94.4599 7.10684 91.7011 4.66152 89.3812C4.47342 89.2871 4.22261 89.5066 4.37936 89.632Z" fill="#FFBC45"/>
<path d="M4.8181 93.8643C6.73047 95.1497 8.79958 96.1529 10.6179 97.5636C10.7746 97.689 10.9941 97.4696 10.8373 97.3442C9.01903 95.9021 6.91857 94.8675 4.97485 93.5822C4.8181 93.4881 4.66135 93.7389 4.8181 93.8643Z" fill="#FFBC45"/>
<path d="M10.0537 93.6133C10.7434 94.5224 11.1509 95.7137 11.5585 96.7797C12.0287 98.0964 12.3736 99.4758 12.6871 100.855C12.7184 101.043 13.0319 100.981 13.0006 100.761C12.6557 99.319 12.3109 97.8769 11.7779 96.4975C11.4017 95.4629 10.9942 94.3343 10.3045 93.4565C10.2104 93.2998 9.92828 93.4565 10.0537 93.6133Z" fill="#FFBC45"/>
<path d="M20.3678 89.9761C20.4618 91.2928 21.1202 92.5155 21.1516 93.8322C21.1516 94.0203 21.4651 94.0203 21.4651 93.8322C21.4337 92.4841 20.7754 91.2928 20.6813 89.9761C20.6813 89.7567 20.3678 89.7567 20.3678 89.9761Z" fill="#FFBC45"/>
<path d="M14.2545 78.9413C13.8156 80.3207 13.8783 81.8255 13.6902 83.2363C13.6588 83.4244 13.9723 83.4244 14.0037 83.2363C14.1918 81.8255 14.1291 80.3834 14.568 79.004C14.6307 78.8472 14.3172 78.7532 14.2545 78.9413Z" fill="#FFBC45"/>
<path d="M11.7779 84.6475C12.4676 85.6193 13.0319 86.6539 13.7529 87.6257C14.4113 88.5035 14.9442 89.35 15.1637 90.4473C15.1951 90.6354 15.5086 90.5726 15.4772 90.3532C15.2578 89.4127 14.8815 88.723 14.3486 87.9392C13.5648 86.8106 12.8438 85.6193 12.06 84.4907C11.9346 84.334 11.6525 84.4907 11.7779 84.6475Z" fill="#FFBC45"/>
<path d="M16.7939 88.4413C16.4804 90.385 16.1669 92.2973 15.9788 94.2411C15.9474 94.4292 16.2609 94.4292 16.2923 94.2411C16.4804 92.3287 16.7939 90.4163 17.1074 88.504C17.1387 88.3472 16.8252 88.2532 16.7939 88.4413Z" fill="#FFBC45"/>
<path d="M25.0703 83.456C24.2865 85.4938 22.9698 87.2808 22.0607 89.2245C21.9666 89.4126 22.2488 89.5693 22.3428 89.3812C23.2833 87.4062 24.6 85.5879 25.3838 83.5501C25.4465 83.362 25.133 83.2679 25.0703 83.456Z" fill="#FFBC45"/>
<path d="M208.008 121.468C207.413 119.994 206.629 118.677 205.532 117.517C204.184 116.044 202.428 115.072 201.237 113.442C200.077 111.843 199.073 110.056 198.102 108.332C197.537 107.329 197.067 106.294 196.879 105.134C196.691 104.005 196.754 102.845 196.816 101.717C196.722 101.748 196.66 101.811 196.565 101.842C197.318 102.156 197.882 102.751 198.478 103.284C199.073 103.817 199.795 104.225 200.453 104.695C201.958 105.792 203.337 107.266 204.434 108.771C205.469 110.181 206.19 111.812 206.88 113.411C207.475 114.79 207.977 116.357 208.855 117.58C208.949 117.705 209.2 117.643 209.137 117.455C208.04 114.288 207.601 110.934 207.695 107.611C207.726 106.106 207.914 104.57 208.165 103.065C208.385 101.623 208.729 100.149 209.482 98.864C209.388 98.864 209.294 98.864 209.2 98.864C209.576 99.5537 209.639 100.337 209.795 101.121C209.952 101.999 210.266 102.814 210.579 103.629C211.269 105.416 211.645 107.36 211.99 109.241C212.366 111.247 212.46 113.128 212.147 115.166C211.864 117.016 211.363 118.834 210.955 120.684C210.924 120.841 211.143 120.966 211.237 120.809C211.802 119.681 212.303 118.552 212.774 117.392C213.275 116.138 213.62 114.821 214.059 113.536C214.749 111.529 215.971 109.711 217.884 108.708C220.172 107.517 225.439 106.325 226.035 110.056C226.097 109.993 226.191 109.931 226.254 109.868C222.774 108.394 220.078 111.655 218.323 114.226C217.131 115.981 215.909 117.611 214.561 119.242C214.028 119.9 213.557 120.684 212.93 121.248C212.366 121.75 211.3 122.502 210.516 122.439C210.328 122.408 210.328 122.722 210.516 122.753C211.551 122.847 213.024 121.781 213.589 120.997C214.78 119.367 216.191 117.894 217.382 116.263C219.326 113.567 221.928 108.394 226.097 110.15C226.223 110.213 226.348 110.119 226.317 109.962C225.721 106.263 220.893 107.109 218.417 108.112C216.536 108.896 215.219 110.244 214.341 112.062C213.714 113.316 213.401 114.665 212.962 115.981C212.429 117.58 211.708 119.116 210.955 120.621C211.049 120.652 211.143 120.715 211.237 120.746C211.645 118.834 212.178 116.922 212.46 114.978C212.742 113.097 212.648 111.31 212.303 109.46C211.958 107.454 211.52 105.448 210.83 103.535C210.516 102.72 210.234 101.905 210.046 101.027C209.889 100.243 209.795 99.4597 209.419 98.7073C209.356 98.6132 209.2 98.6132 209.137 98.7073C207.695 101.153 207.507 104.319 207.319 107.078C207.099 110.589 207.601 114.226 208.761 117.58C208.855 117.549 208.949 117.486 209.043 117.455C208.102 116.169 207.569 114.476 206.942 113.034C206.19 111.341 205.406 109.68 204.278 108.206C203.274 106.89 202.052 105.636 200.735 104.632C199.983 104.037 199.136 103.567 198.415 102.94C197.851 102.438 197.318 101.936 196.597 101.623C196.471 101.56 196.377 101.623 196.346 101.748C196.189 103.755 196.283 105.698 197.161 107.548C198.07 109.46 199.262 111.279 200.39 113.034C200.892 113.787 201.425 114.476 202.083 115.103C202.804 115.793 203.619 116.326 204.372 116.984C205.782 118.27 206.817 119.837 207.538 121.593C207.789 121.75 208.071 121.656 208.008 121.468Z" fill="#FFBC45"/>
<path d="M205.877 121.686C204.09 118.802 202.679 114.915 199.293 113.598C197.475 112.908 195.28 113.285 193.587 114.1C191.675 115.009 190.139 116.639 188.791 118.238C188.697 118.363 188.791 118.551 188.947 118.489C191.863 117.642 195.5 117.454 198.196 119.053C199.481 119.805 200.484 121.122 201.519 122.188C202.177 122.909 202.679 124.1 203.713 124.351C203.902 124.414 203.996 124.1 203.807 124.038C203.118 123.881 202.647 123.097 202.24 122.564C201.864 122.063 201.425 121.624 200.986 121.153C199.951 120.056 198.917 118.928 197.506 118.301C194.841 117.172 191.612 117.329 188.885 118.144C188.947 118.238 188.979 118.332 189.042 118.395C191.518 115.479 195.092 112.438 199.23 113.849C200.923 114.444 202.146 115.981 203.086 117.423C204.027 118.833 204.748 120.37 205.657 121.78C205.72 122 205.971 121.843 205.877 121.686Z" fill="#FFBC45"/>
<path d="M201.111 108.049C202.365 110.714 204.622 112.689 206.253 115.103C207.068 116.294 207.757 117.642 208.353 118.959C209.106 120.589 208.855 122.251 208.855 123.975C208.855 124.163 209.168 124.163 209.168 123.975C209.168 122.502 209.419 120.965 208.949 119.555C208.447 118.081 207.569 116.67 206.786 115.354C205.218 112.689 202.71 110.683 201.393 107.861C201.299 107.704 201.049 107.861 201.111 108.049Z" fill="#FFBC45"/>
<path d="M196.816 116.107C199.136 117.329 201.393 118.615 203.024 120.746C203.588 121.499 204.152 122.283 204.748 123.004C204.905 123.223 205.406 124.038 205.751 124.007C205.939 123.975 205.939 123.662 205.751 123.693C205.5 123.725 204.654 122.345 204.528 122.188C203.995 121.499 203.494 120.778 202.961 120.088C201.456 118.144 199.167 116.953 197.004 115.824C196.816 115.762 196.659 116.012 196.816 116.107Z" fill="#FFBC45"/>
<path d="M209.827 107.516C209.858 108.896 210.234 110.212 210.391 111.592C210.579 113.222 210.422 114.915 210.171 116.545C209.733 119.523 209.921 122.564 209.106 125.511C209.2 125.511 209.325 125.543 209.419 125.543C209.419 125.417 209.419 125.292 209.419 125.198C209.419 125.01 209.106 125.01 209.106 125.198C209.106 125.323 209.106 125.448 209.106 125.543C209.106 125.731 209.356 125.762 209.419 125.574C210.203 122.721 210.14 119.774 210.454 116.859C210.61 115.291 210.83 113.755 210.736 112.156C210.673 110.588 210.171 109.084 210.14 107.516C210.14 107.297 209.827 107.297 209.827 107.516Z" fill="#FFBC45"/>
<path d="M220.015 109.49C217.633 110.995 215.877 113.628 214.498 116.074C213.181 118.425 212.021 121.309 209.419 122.469C209.231 122.563 209.388 122.814 209.576 122.751C211.896 121.717 213.15 119.303 214.278 117.171C215.72 114.475 217.539 111.465 220.172 109.804C220.36 109.647 220.203 109.365 220.015 109.49Z" fill="#FFBC45"/>
<path d="M307.255 91.8308C306.66 90.3573 305.876 89.0406 304.779 87.8807C303.431 86.4072 301.675 85.4353 300.484 83.8051C299.324 82.2063 298.32 80.4193 297.349 78.695C296.784 77.6918 296.314 76.6573 296.126 75.4973C295.938 74.3687 296.001 73.2088 296.063 72.0802C295.969 72.1115 295.906 72.1742 295.812 72.2056C296.565 72.5191 297.129 73.1147 297.725 73.6477C298.32 74.1806 299.041 74.5882 299.7 75.0584C301.205 76.1557 302.584 77.6291 303.681 79.134C304.716 80.5447 305.437 82.1749 306.127 83.7738C306.722 85.1532 307.224 86.7207 308.102 87.9434C308.196 88.0688 308.447 88.0061 308.384 87.818C307.287 84.6516 306.848 81.2971 306.942 77.974C306.973 76.4692 307.161 74.933 307.412 73.4282C307.631 71.9861 307.976 70.5126 308.729 69.2273C308.635 69.2273 308.541 69.2273 308.447 69.2273C308.823 69.917 308.885 70.7007 309.042 71.4845C309.199 72.3623 309.512 73.1774 309.826 73.9925C310.516 75.7795 310.892 77.7232 311.237 79.6042C311.613 81.6106 311.707 83.4916 311.393 85.5294C311.111 87.3791 310.61 89.1974 310.202 91.047C310.171 91.2038 310.39 91.3292 310.484 91.1724C311.049 90.0438 311.55 88.9152 312.021 87.7553C312.522 86.5013 312.867 85.1845 313.306 83.8992C313.996 81.8928 315.218 80.0745 317.131 79.0713C319.419 77.8799 324.686 76.6886 325.282 80.4193C325.344 80.3566 325.438 80.2939 325.501 80.2312C322.021 78.7578 319.325 82.0182 317.569 84.5889C316.378 86.3445 315.156 87.9747 313.807 89.6049C313.274 90.2633 312.804 91.047 312.177 91.6113C311.613 92.1129 310.547 92.8653 309.763 92.8026C309.575 92.7713 309.575 93.0848 309.763 93.1161C310.798 93.2102 312.271 92.1443 312.836 91.3605C314.027 89.7303 315.438 88.2569 316.629 86.6267C318.573 83.9305 321.175 78.7578 325.344 80.5134C325.47 80.5761 325.595 80.482 325.564 80.3253C324.968 76.6259 320.14 77.4724 317.664 78.4756C315.783 79.2594 314.466 80.6074 313.588 82.4257C312.961 83.6797 312.647 85.0278 312.209 86.3445C311.676 87.9434 310.955 89.4795 310.202 90.9843C310.296 91.0157 310.39 91.0784 310.484 91.1097C310.892 89.1974 311.425 87.285 311.707 85.3413C311.989 83.4603 311.895 81.6733 311.55 79.8237C311.205 77.8172 310.766 75.8108 310.077 73.8985C309.763 73.0834 309.481 72.2683 309.293 71.3905C309.136 70.6067 309.042 69.8229 308.666 69.0705C308.603 68.9765 308.447 68.9765 308.384 69.0705C306.942 71.5159 306.754 74.6822 306.566 77.441C306.346 80.9523 306.848 84.5889 308.008 87.9434C308.102 87.912 308.196 87.8493 308.29 87.818C307.349 86.5326 306.816 84.8397 306.189 83.3976C305.437 81.7047 304.653 80.0431 303.525 78.5696C302.521 77.2529 301.299 75.9989 299.982 74.9957C299.23 74.4001 298.383 73.9298 297.662 73.3028C297.098 72.8012 296.565 72.2996 295.844 71.9861C295.718 71.9234 295.624 71.9861 295.593 72.1115C295.436 74.1179 295.53 76.0616 296.408 77.9113C297.317 79.8237 298.509 81.642 299.637 83.3976C300.139 84.15 300.672 84.8397 301.33 85.4667C302.051 86.1564 302.866 86.6894 303.619 87.3477C305.029 88.6331 306.064 90.2006 306.785 91.9562C307.036 92.1129 307.318 92.0189 307.255 91.8308Z" fill="#FFBC45"/>
<path d="M305.123 92.0496C303.337 89.1654 301.926 85.278 298.54 83.9613C296.722 83.2716 294.527 83.6478 292.834 84.4629C290.922 85.372 289.386 87.0022 288.038 88.6011C287.944 88.7265 288.038 88.9146 288.194 88.8519C291.11 88.0055 294.747 87.8174 297.443 89.4162C298.728 90.1686 299.731 91.4853 300.766 92.5512C301.424 93.2723 301.926 94.4636 302.96 94.7144C303.148 94.7771 303.242 94.4636 303.054 94.4009C302.365 94.2441 301.894 93.4604 301.487 92.9274C301.111 92.4258 300.672 91.9869 300.233 91.5167C299.198 90.4194 298.164 89.2908 296.753 88.6638C294.088 87.5352 290.859 87.692 288.132 88.5071C288.194 88.6011 288.226 88.6952 288.288 88.7579C290.765 85.8423 294.339 82.8013 298.477 84.2121C300.17 84.8077 301.393 86.3439 302.333 87.786C303.274 89.1968 303.995 90.7329 304.904 92.1437C304.967 92.3631 305.218 92.2064 305.123 92.0496Z" fill="#FFBC45"/>
<path d="M300.358 78.4124C301.612 81.0772 303.869 83.0523 305.5 85.4662C306.315 86.6575 307.004 88.0056 307.6 89.3223C308.352 90.9525 308.102 92.6141 308.102 94.3383C308.102 94.5264 308.415 94.5264 308.415 94.3383C308.415 92.8649 308.666 91.3287 308.196 89.918C307.694 88.4445 306.816 87.0337 306.033 85.717C304.465 83.0523 301.957 81.0458 300.64 78.2243C300.546 78.0676 300.295 78.2243 300.358 78.4124Z" fill="#FFBC45"/>
<path d="M296.063 86.4698C298.383 87.6925 300.64 88.9778 302.271 91.1097C302.835 91.8621 303.399 92.6458 303.995 93.3669C304.152 93.5863 304.653 94.4014 304.998 94.3701C305.186 94.3387 305.186 94.0252 304.998 94.0566C304.747 94.0879 303.901 92.7085 303.775 92.5518C303.242 91.8621 302.741 91.141 302.208 90.4513C300.703 88.5076 298.414 87.3163 296.251 86.1877C296.063 86.125 295.906 86.3758 296.063 86.4698Z" fill="#FFBC45"/>
<path d="M309.074 77.8794C309.105 79.2588 309.481 80.5756 309.638 81.955C309.826 83.5852 309.669 85.2781 309.418 86.9083C308.98 89.8866 309.168 92.9275 308.353 95.8745C308.447 95.8745 308.572 95.9058 308.666 95.9058C308.666 95.7804 308.666 95.655 308.666 95.561C308.666 95.3729 308.353 95.3729 308.353 95.561C308.353 95.6864 308.353 95.8118 308.353 95.9058C308.353 96.0939 308.603 96.1253 308.666 95.9371C309.45 93.0843 309.387 90.1374 309.701 87.2218C309.857 85.6543 310.077 84.1181 309.983 82.5193C309.92 80.9517 309.418 79.4469 309.387 77.8794C309.387 77.66 309.074 77.66 309.074 77.8794Z" fill="#FFBC45"/>
<path d="M319.262 79.8535C316.88 81.3583 315.124 83.9917 313.745 86.4371C312.428 88.7883 311.268 91.6725 308.666 92.8325C308.478 92.9266 308.635 93.1774 308.823 93.1147C311.143 92.0801 312.397 89.6661 313.525 87.5343C314.967 84.8382 316.786 81.8286 319.419 80.167C319.607 80.0103 319.45 79.7281 319.262 79.8535Z" fill="#FFBC45"/>
<path d="M154.744 57.9851C154.744 59.6466 153.396 60.9947 151.735 60.9947C150.073 60.9947 148.725 59.6466 148.725 57.9851V55.8846C148.725 54.2231 150.073 52.875 151.735 52.875C153.396 52.875 154.744 54.2231 154.744 55.8846V57.9851Z" fill="#F68632"/>
<path d="M185.53 90.9658C184.684 86.8903 181.078 75.8863 172.3 71.9049C163.522 67.9234 155.277 71.1525 152.236 73.0021C149.195 74.8518 145.684 82.0623 144.085 88.8026C142.518 95.5429 137.157 95.4489 132.987 96.9537L134.931 103.976L177.818 104.258C177.818 104.258 177.818 104.258 177.912 103.161C189.135 102.534 186.345 95.0413 185.53 90.9658ZM141.64 101.75C143.364 101.75 150.982 96.0132 152.55 96.2013C153.333 100.402 153.428 102.628 153.522 102.91C153.616 103.161 142.11 105.199 141.64 101.75Z" fill="#00377B"/>
<path d="M156.876 74.9772C156.312 77.642 154.055 93.85 157.911 104.509C160.92 104.76 165.435 104.509 165.435 104.509C164.557 98.8974 162.833 83.379 166.407 74.4756C162.864 74.5383 156.876 74.9772 156.876 74.9772Z" fill="#FFE4B5"/>
<path d="M158.851 70.18C155.81 70.3681 155.089 73.6599 156.468 75.6976C157.848 77.7354 160.481 76.0738 160.952 75.0393C164.243 78.1429 168.538 75.3528 169.447 70.7129C169.447 70.3367 164.212 69.3335 158.851 70.18Z" fill="#FFE4B5"/>
<path d="M167.535 53.4394C167.41 50.3671 164.243 44.5046 156.751 44.8181C151.421 45.2256 150.763 50.273 150.763 50.273C150.575 50.8373 149.634 52.0286 149.634 52.0286C149.352 49.6774 150.857 43.376 157.597 43.2192C165.184 43.0311 168.789 48.9563 168.946 53.2199C168.319 54.2545 167.535 53.4394 167.535 53.4394Z" fill="#F68632"/>
<path d="M152.675 47.6389C150.104 49.3945 148.568 52.3101 149.885 55.2257C151.17 58.1412 151.547 59.3952 150.293 61.6838C148.537 64.8815 147.784 67.8598 149.101 70.5873C157.127 69.49 160.669 68.5809 160.669 68.5809C160.669 68.5809 157.566 47.2941 152.675 47.6389Z" fill="#31241C"/>
<path d="M164.588 62.248C164.588 62.248 166.563 68.2359 166.751 70.7753C166.908 73.0952 159.259 74.6314 158.694 72.2174C158.13 69.3332 157.284 64.4112 157.284 64.4112" fill="white"/>
<path d="M165.247 64.7561L164.62 62.248L157.346 64.3799C157.346 64.3799 157.597 65.8847 157.942 67.797C158.475 67.8911 159.039 67.9538 159.604 67.9224C161.955 67.8284 163.993 66.5744 165.247 64.7561Z" fill="#F6F8FC"/>
<path d="M151.86 59.3329C152.048 63.3144 155.403 66.418 159.384 66.2299C163.366 66.0418 166.469 62.6874 166.281 58.7059L165.936 51.0878C165.748 47.1063 162.394 44.0026 158.412 44.1907C154.431 44.3788 151.327 47.7333 151.515 51.7148L151.86 59.3329Z" fill="white"/>
<path d="M161.39 51.4331C160.481 50.9315 159.29 50.712 158.318 51.2136C157.973 51.4017 158.287 51.9347 158.632 51.7466C159.384 51.3704 160.356 51.5898 161.077 51.966C161.422 52.1855 161.735 51.6212 161.39 51.4331Z" fill="#31241C"/>
<path d="M152.675 52.4665C153.114 52.059 153.71 51.9022 154.305 52.0276C154.682 52.1217 154.87 51.4947 154.462 51.432C153.678 51.2752 152.832 51.4633 152.236 52.0276C151.954 52.2784 152.393 52.7173 152.675 52.4665Z" fill="#31241C"/>
<path d="M157.001 58.0158C156.939 58.0158 156.876 57.9845 156.845 57.9531L155.434 56.6991C155.371 56.6364 155.34 56.5737 155.371 56.511C155.403 56.4483 155.434 56.3543 155.497 56.3229L156.907 55.5392C157.033 55.4765 157.158 55.5078 157.221 55.6332C157.284 55.7586 157.252 55.884 157.127 55.9467L155.998 56.5737L157.158 57.6083C157.252 57.7023 157.252 57.8277 157.19 57.9531C157.127 57.9845 157.064 58.0158 157.001 58.0158Z" fill="#31241C"/>
<path d="M157.503 60.022C157.127 60.022 156.751 59.928 156.468 59.7085C156.374 59.6458 156.343 59.4891 156.406 59.395C156.468 59.301 156.625 59.2696 156.719 59.3323C157.127 59.6145 157.785 59.6145 158.255 59.3637C158.538 59.2069 158.851 58.8934 158.82 58.2664C158.82 58.141 158.914 58.0156 159.039 58.0156C159.165 58.0156 159.29 58.1097 159.29 58.2351C159.321 58.9248 159.039 59.4577 158.475 59.7712C158.193 59.928 157.848 60.022 157.503 60.022Z" fill="#31241C"/>
<path d="M158.569 55.4145C158.726 55.8534 159.259 56.1042 159.698 55.9161C160.136 55.7593 160.387 55.2264 160.199 54.7874C160.042 54.3485 159.509 54.0977 159.071 54.2858C158.632 54.4426 158.412 54.9756 158.569 55.4145Z" fill="#1A191F"/>
<path d="M153.334 55.727C153.49 56.1659 154.023 56.4167 154.462 56.2286C154.901 56.0718 155.152 55.5389 154.964 55.0999C154.807 54.661 154.274 54.4102 153.835 54.5983C153.365 54.7551 153.145 55.2881 153.334 55.727Z" fill="#1A191F"/>
<path d="M153.553 55.5082C153.522 55.5082 153.49 55.5082 153.459 55.4768L152.612 54.9439C152.518 54.8812 152.487 54.7558 152.55 54.6617C152.612 54.5677 152.738 54.5363 152.832 54.599L153.678 55.132C153.772 55.1947 153.804 55.3201 153.741 55.4141C153.678 55.4768 153.616 55.5082 153.553 55.5082Z" fill="#1A191F"/>
<path d="M159.76 55.2263C159.698 55.2263 159.635 55.1949 159.604 55.1322C159.541 55.0382 159.572 54.9128 159.666 54.8501L160.575 54.2231C160.669 54.1604 160.795 54.1917 160.858 54.2857C160.92 54.3798 160.889 54.5052 160.795 54.5679L159.886 55.1949C159.854 55.1949 159.823 55.2263 159.76 55.2263Z" fill="#1A191F"/>
<path d="M173.178 59.3955C171.987 56.8248 173.46 55.2259 172.833 52.7493C172.269 50.5861 169.73 50.6801 168.382 47.6078C166.344 42.9366 155.936 38.7357 152.079 48.2035C156.406 45.2879 160.826 46.7927 162.488 48.9559C165.874 53.3136 162.394 55.1632 163.71 57.7653C164.651 59.6463 165.278 60.9317 164.055 63.7845C162.833 66.6374 164.557 69.3649 164.557 69.3649C168.601 68.926 173.147 68.5184 177.285 67.8287C177.254 60.869 174.369 61.9662 173.178 59.3955Z" fill="#31241C"/>
<path d="M154.838 95.1348C151.327 95.4483 149.979 96.4828 146.813 98.1444C143.678 99.8059 142.988 100.182 143.74 100.496C141.891 100.621 142.956 101.593 144.273 101.185C143.395 101.562 144.618 101.969 146.342 101.311C146.781 102 149.007 101.687 150.418 100.872C151.829 100.057 155.214 99.3984 158.318 100.433C158.694 98.5206 157.503 95.1975 157.503 95.1975L154.838 95.1348Z" fill="white"/>
<path d="M157.095 95.1661C158.976 94.7585 164.306 94.3196 167.441 94.5077C167.629 96.9844 166.281 101.969 166.281 101.969L157.911 100.119C157.879 100.119 158.287 97.486 157.095 95.1661Z" fill="#F68632"/>
<path d="M156.939 95.2288C160.67 94.6958 164.463 94.6958 168.225 94.6018C170.043 94.5391 171.799 94.351 173.586 94.1315C175.31 93.9434 177.317 94.3196 178.978 94.7899C179.166 94.8526 179.26 94.5391 179.072 94.4764C177.567 94.0061 175.78 93.7239 174.182 93.7553C173.398 93.7866 172.614 93.9434 171.83 94.0375C170.733 94.1942 169.636 94.1942 168.57 94.2569C164.651 94.3823 160.764 94.351 156.876 94.9153C156.625 94.9466 156.719 95.2601 156.939 95.2288Z" fill="#1F0E03"/>
<path d="M173.617 85.6048C173.962 88.2069 174.15 90.8403 174.181 93.4423C174.181 93.6304 174.495 93.6304 174.495 93.4423C174.495 90.7776 174.307 88.1442 173.931 85.5107C173.899 85.3226 173.586 85.4167 173.617 85.6048Z" fill="#1F0E03"/>
<path d="M157.628 100.276C158.757 100.276 159.823 100.778 160.889 101.06C162.174 101.405 163.428 101.844 164.682 102.189C167.253 102.91 169.949 103.348 172.614 103.505C176.877 103.756 182.019 103.537 185.217 100.37C185.373 100.213 185.154 99.994 184.997 100.151C181.643 103.474 176.125 103.474 171.736 103.129C169.103 102.941 166.469 102.377 163.93 101.656C162.801 101.311 161.673 100.966 160.513 100.621C159.572 100.339 158.632 99.9313 157.628 99.9626C157.409 99.9626 157.409 100.276 157.628 100.276Z" fill="#1F0E03"/>
<path d="M151.358 82.3758C151.076 83.2223 151.17 84.1315 151.17 85.0093C151.202 86.2006 151.264 87.4232 151.327 88.6145C151.39 89.8058 151.421 90.9972 151.515 92.1571C151.609 93.2544 152.017 94.2889 152.079 95.3548C152.079 95.5429 152.393 95.5429 152.393 95.3548C152.33 94.3516 151.954 93.4425 151.86 92.4393C151.766 91.342 151.703 90.2761 151.672 89.1788C151.609 88.0816 151.547 86.9843 151.515 85.8871C151.484 84.7898 151.296 83.5045 151.672 82.4385C151.735 82.2818 151.421 82.1877 151.358 82.3758Z" fill="#1F0E03"/>
<path d="M156.124 71.6543C155.622 73.3785 155.277 75.6044 157.221 76.5763C157.911 76.9211 158.726 76.7644 159.384 76.4509C159.854 76.2314 160.262 75.8866 160.669 75.5417C161.077 75.1969 161.234 75.7298 161.579 75.9806C164.431 78.0184 168.193 75.1969 169.134 72.3753C169.197 72.1872 168.883 72.0932 168.82 72.2813C167.817 75.2909 163.491 78.0497 161.014 74.9774C160.951 74.9147 160.857 74.9147 160.795 74.9774C159.76 75.9179 158.412 77.0152 157.033 76.1374C155.497 75.1969 155.998 73.1278 156.374 71.7483C156.468 71.5602 156.155 71.4662 156.124 71.6543Z" fill="#1F0E03"/>
<path d="M146.186 101.562C147.189 101.374 147.973 100.778 148.788 100.245C149.948 99.5239 151.233 99.1163 152.456 98.6147C152.644 98.552 152.55 98.2385 152.362 98.3012C151.327 98.7401 150.292 99.085 149.289 99.5866C148.223 100.12 147.283 101.06 146.06 101.248C145.903 101.311 145.998 101.593 146.186 101.562Z" fill="#1F0E03"/>
<path d="M143.96 101.561C146.468 100.495 148.756 99.0219 151.327 98.1128C151.515 98.0501 151.421 97.7366 151.233 97.7993C148.631 98.7084 146.311 100.213 143.803 101.279C143.615 101.373 143.772 101.624 143.96 101.561Z" fill="#1F0E03"/>
<path d="M143.396 100.808C144.367 100.213 145.496 99.9305 146.531 99.3976C147.534 98.8646 148.537 98.3317 149.571 97.8614C149.76 97.7674 149.603 97.5166 149.415 97.5793C148.38 98.0495 147.377 98.5825 146.374 99.1154C145.371 99.6484 144.242 99.9305 143.239 100.526C143.082 100.652 143.239 100.902 143.396 100.808Z" fill="#1F0E03"/>
<path d="M159.666 77.6416C159.76 78.2059 160.544 78.1745 160.826 77.7356C160.983 77.4848 160.826 77.2027 160.607 77.0773C160.325 76.9205 159.948 76.9519 159.76 77.2027C159.635 77.3594 159.917 77.5162 160.042 77.3594C160.168 77.1713 160.763 77.3594 160.544 77.5789C160.387 77.7356 160.042 77.767 160.011 77.5162C159.917 77.3594 159.635 77.4535 159.666 77.6416Z" fill="#1F0E03"/>
<path d="M159.227 79.9615C159.133 80.5259 159.792 80.6826 160.168 80.3691C160.356 80.2124 160.45 79.8989 160.293 79.6794C160.137 79.4599 159.792 79.4913 159.572 79.554C159.384 79.6167 159.447 79.9302 159.666 79.8675C159.792 79.8362 159.948 79.7735 160.042 79.8675C160.137 79.9302 160.011 80.087 159.948 80.1497C159.823 80.2437 159.51 80.3064 159.541 80.0556C159.572 79.8675 159.259 79.7734 159.227 79.9615Z" fill="#1F0E03"/>
<path d="M159.039 82.971C159.071 83.598 159.98 83.3472 160.074 82.877C160.199 82.3127 159.165 81.9678 159.071 82.5948C159.039 82.7829 159.353 82.877 159.384 82.6889C159.415 82.4381 159.76 82.6262 159.76 82.8143C159.76 82.971 159.353 83.1591 159.321 82.971C159.353 82.7829 159.039 82.7829 159.039 82.971Z" fill="#1F0E03"/>
<path d="M152.957 100.12C152.926 100.59 152.989 101.123 153.145 101.562C153.208 101.75 153.522 101.656 153.459 101.468C153.302 101.06 153.239 100.558 153.271 100.12C153.271 99.9315 152.957 99.9315 152.957 100.12Z" fill="#1F0E03"/>
<path d="M156.876 95.2598C157.472 95.6674 157.503 96.4825 157.66 97.1095C157.879 97.9559 158.036 98.9905 157.66 99.8056C157.566 99.9937 157.848 100.15 157.942 99.9623C158.35 99.0218 158.193 97.9873 157.973 97.0154C157.785 96.263 157.691 95.4479 157.033 94.9777C156.845 94.8836 156.688 95.1344 156.876 95.2598Z" fill="#1F0E03"/>
<path d="M149.289 59.8027C148.788 63.4707 154.211 63.4707 156.531 63.3453C156.719 63.3453 156.719 63.0318 156.531 63.0318C154.462 63.1259 149.133 63.2199 149.603 59.8654C149.634 59.6773 149.321 59.5833 149.289 59.8027Z" fill="#1F0E03"/>
<path d="M157.221 64.0978C157.862 64.0978 158.381 63.6767 158.381 63.1573C158.381 62.6379 157.862 62.2168 157.221 62.2168C156.58 62.2168 156.061 62.6379 156.061 63.1573C156.061 63.6767 156.58 64.0978 157.221 64.0978Z" fill="#F68632"/>
<path d="M157.597 43.2505C153.741 43.3445 151.609 45.4136 150.543 47.6395C150.92 47.6708 151.296 47.7962 151.641 47.953C152.424 46.5736 153.961 45.0688 156.782 44.8493C164.275 44.5045 167.441 50.3983 167.567 53.4706C167.567 53.4706 168.35 54.2857 168.946 53.2825C168.789 48.9876 165.184 43.0624 157.597 43.2505Z" fill="#F68632"/>
<path d="M171.36 57.9851C171.36 59.6466 170.012 60.9947 168.35 60.9947C166.689 60.9947 165.341 59.6466 165.341 57.9851V55.8846C165.341 54.2231 166.689 52.875 168.35 52.875C170.012 52.875 171.36 54.2231 171.36 55.8846V57.9851Z" fill="#F68632"/>
<path d="M170.67 57.6717C170.545 59.7095 167.817 60.1797 167.065 58.2674C166.845 57.7031 166.971 56.888 166.971 56.2923C166.971 54.1919 169.855 53.847 170.576 55.6967C170.795 56.261 170.67 57.0761 170.67 57.6717C170.67 57.8598 170.984 57.8598 170.984 57.6717C170.984 56.4177 171.109 55.1951 169.918 54.4113C168.476 53.4708 166.751 54.7248 166.657 56.261C166.595 57.4836 166.595 58.769 167.723 59.5214C169.165 60.4619 170.89 59.2079 170.984 57.6717C170.984 57.4523 170.67 57.4523 170.67 57.6717Z" fill="#1F0E03"/>
<path d="M135.307 101.529C137.031 101.529 158.287 101.529 159.415 101.529C160.513 101.529 160.764 103.755 158.914 103.755C157.064 103.755 103.612 103.755 103.612 103.755C101.95 100.432 94.4891 80.0858 93.7367 78.1734C92.9843 76.261 93.674 74.0352 96.6837 74.0352C99.6933 74.0352 115.682 74.0352 117.876 74.0352C120.102 74.0352 122.548 74.4114 124.115 77.7972C125.683 81.183 135.307 101.529 135.307 101.529Z" fill="#5F7E91"/>
<path d="M159.478 103.661C159.541 103.63 159.604 103.598 159.666 103.567C159.666 103.567 159.666 103.567 159.698 103.567C160.638 103.034 160.325 101.529 159.415 101.529C159.227 101.529 158.506 101.529 157.44 101.529C151.891 101.529 136.749 101.529 135.307 101.529C135.307 101.529 135.307 101.498 135.276 101.498C135.276 101.467 135.244 101.435 135.244 101.404C135.15 101.216 134.994 100.871 134.743 100.369C132.674 95.9803 125.463 80.7128 124.146 77.7972C122.61 74.4114 120.134 74.0352 117.908 74.0352C117.563 74.0352 116.873 74.0352 115.933 74.0352C118.159 74.0352 120.604 74.4114 122.171 77.7972C123.708 81.183 133.332 101.529 133.332 101.529L134.179 103.692C134.179 103.692 135.213 103.724 136.875 103.755C145.496 103.755 153.396 103.755 156.939 103.755C158.036 103.755 158.726 103.755 158.914 103.755C159.039 103.755 159.133 103.755 159.227 103.724C159.29 103.724 159.353 103.692 159.384 103.692C159.415 103.692 159.447 103.692 159.478 103.661Z" fill="#49687A"/>
<path d="M115.274 89.2089C115.87 90.7137 115.149 91.9364 113.675 91.9364C112.171 91.9364 110.478 90.7137 109.851 89.2089C109.255 87.7041 109.976 86.4814 111.45 86.4814C112.954 86.4814 114.679 87.7041 115.274 89.2089Z" stroke="#1F0E03" stroke-miterlimit="10"/>
<path d="M187.693 105.479H100.728V119.274C110.258 121.311 123.143 122.785 135.809 122.942C153.145 123.161 171.14 122.973 187.693 122.158V105.479Z" fill="#F5CDB3"/>
<path d="M191.299 105.135C191.299 105.95 190.64 106.64 189.794 106.64H98.6275C97.8124 106.64 97.1227 105.981 97.1227 105.135C97.1227 104.32 97.781 103.63 98.6275 103.63H189.825C190.64 103.661 191.299 104.32 191.299 105.135Z" fill="#00377B"/>
<path d="M90.2569 52.3398C92.3261 54.2835 94.019 54.2835 94.019 52.3398C94.019 50.3961 94.019 47.1671 94.019 45.2233C94.019 43.2796 92.3261 41.6494 90.2569 41.6494C88.1878 41.6494 84.8334 41.6494 82.7642 41.6494C80.6951 41.6494 80.6951 43.2483 82.7642 45.2233C84.802 47.1671 88.1878 50.3648 90.2569 52.3398Z" fill="#F68632"/>
<path d="M139.539 33.3734C139.539 40.0196 134.147 45.4119 127.501 45.4119H83.3598C76.7135 45.4119 71.3213 40.0196 71.3213 33.3734V17.5102C71.3213 10.8639 76.7135 5.47168 83.3598 5.47168H127.532C134.178 5.47168 139.571 10.8639 139.571 17.5102V33.3734H139.539Z" fill="#00377B"/>
<path d="M102.19 17.6764V12.6758H102.796V14.9026H105.462V12.6758H106.068V17.6764H105.462V15.4398H102.796V17.6764H102.19Z" fill="white"/>
<path d="M107.28 17.6764V12.6758H110.298V13.213H107.885V14.9026H110.142V15.4398H107.885V17.1392H110.337V17.6764H107.28Z" fill="white"/>
<path d="M111.389 17.6764V12.6758H111.995V17.1392H114.319V17.6764H111.389Z" fill="white"/>
<path d="M115.257 17.6764V12.6758H116.947C117.339 12.6758 117.66 12.7466 117.909 12.8882C118.159 13.0282 118.345 13.2178 118.465 13.4571C118.586 13.6964 118.646 13.9634 118.646 14.258C118.646 14.5527 118.586 14.8204 118.465 15.0613C118.347 15.3023 118.163 15.4943 117.914 15.6376C117.665 15.7792 117.346 15.85 116.956 15.85H115.745V15.3128H116.937C117.206 15.3128 117.421 15.2664 117.584 15.1737C117.747 15.0809 117.865 14.9555 117.938 14.7976C118.013 14.6381 118.05 14.4582 118.05 14.258C118.05 14.0578 118.013 13.8787 117.938 13.7208C117.865 13.5629 117.746 13.4392 117.582 13.3497C117.417 13.2585 117.199 13.213 116.927 13.213H115.863V17.6764H115.257Z" fill="white"/>
<path d="M120.305 12.6758L120.256 16.27H119.69L119.641 12.6758H120.305ZM119.973 17.7155C119.853 17.7155 119.749 17.6724 119.663 17.5861C119.577 17.4998 119.534 17.3964 119.534 17.276C119.534 17.1555 119.577 17.0522 119.663 16.9659C119.749 16.8796 119.853 16.8365 119.973 16.8365C120.094 16.8365 120.197 16.8796 120.283 16.9659C120.37 17.0522 120.413 17.1555 120.413 17.276C120.413 17.3557 120.392 17.429 120.352 17.4957C120.313 17.5625 120.26 17.6162 120.193 17.6569C120.128 17.696 120.055 17.7155 119.973 17.7155Z" fill="white"/>
<path d="M133.113 21.1777H102.295V23.1841H133.113V21.1777Z" fill="#FFF2DB"/>
<path d="M128.912 26.0371H102.295V28.0435H128.912V26.0371Z" fill="#FFF2DB"/>
<path d="M119.946 30.8965H102.295V32.9029H119.946V30.8965Z" fill="#FFF2DB"/>
<path d="M130.824 35.7559H102.295V37.7623H130.824V35.7559Z" fill="#FFF2DB"/>
<path d="M96.1821 37.0109C95.2729 34.7224 92.0752 33.0921 90.4763 33.1235H84.99C83.2031 33.2802 80.1935 34.7224 79.2843 37.0109C81.4161 39.1427 84.4257 40.4594 87.7489 40.4594C91.0406 40.4594 94.0189 39.1427 96.1821 37.0109Z" fill="#F68632"/>
<path d="M85.4917 28.4521C85.4917 28.4521 84.9588 32.7785 84.6139 35.1924C84.3631 36.9794 90.7272 37.481 90.9467 35.5686C91.1034 33.2801 91.3229 29.424 91.3229 29.424" fill="white"/>
<path d="M85.2096 30.4272L85.4604 28.4521L91.2602 29.424C91.2602 29.424 91.1975 30.6153 91.1034 32.0888C90.6959 32.2142 90.257 32.3082 89.8181 32.3396C88.0311 32.4963 86.3382 31.7439 85.2096 30.4272Z" fill="#F6F8FC"/>
<path d="M95.0222 25.0343C95.2417 28.1066 92.9531 30.8027 89.8494 31.0222C86.7771 31.2416 84.081 28.9531 83.8615 25.8494L83.4226 19.9556C83.2032 16.8832 85.4917 14.1871 88.5954 13.9677C91.6677 13.7482 94.3638 16.0368 94.5833 19.1405L95.0222 25.0343Z" fill="white"/>
<path d="M87.4041 20.6141C88.1879 20.4573 88.8149 20.1125 89.2851 19.4541C89.5046 19.1406 88.9716 18.8271 88.7522 19.1406C88.376 19.6736 87.843 19.893 87.2474 20.0184C86.8398 20.0811 86.9966 20.6768 87.4041 20.6141Z" fill="#31241C"/>
<path d="M93.7055 19.392C93.2666 19.298 92.9844 19.1099 92.7963 18.7023C92.6082 18.3575 92.0752 18.671 92.2634 19.0158C92.5455 19.5488 92.9844 19.8623 93.5487 19.9877C93.9563 20.0504 94.113 19.4547 93.7055 19.392Z" fill="#31241C"/>
<path d="M90.9153 24.5643C90.8526 24.5643 90.7899 24.533 90.7586 24.5016C90.6645 24.4076 90.6645 24.2508 90.7272 24.1568L91.4796 23.3103L90.6332 22.9655C90.5078 22.9028 90.4451 22.7774 90.5078 22.652C90.5705 22.5265 90.6959 22.4639 90.8213 22.5266L91.9812 22.9968C92.0439 23.0282 92.1066 23.0909 92.1066 23.1536C92.138 23.2163 92.1066 23.3103 92.0439 23.373L91.0721 24.4703C91.0407 24.533 90.978 24.5643 90.9153 24.5643Z" fill="#31241C"/>
<path d="M89.5046 26.9461C89.4419 26.9461 89.3478 26.9148 89.3165 26.8521C89.2538 26.758 89.2538 26.6013 89.3792 26.5386C90.3197 25.8802 91.1348 25.6294 91.8558 25.7548C91.9812 25.7862 92.0753 25.9116 92.0439 26.037C92.0126 26.1624 91.8872 26.2564 91.7618 26.2251C91.1661 26.0997 90.4764 26.3505 89.6613 26.9148C89.5986 26.9148 89.5673 26.9461 89.5046 26.9461Z" fill="#31241C"/>
<path d="M89.4732 22.6523C89.3792 23.0285 89.0029 23.2479 88.6581 23.1539C88.2819 23.0598 88.0624 22.6836 88.1565 22.3388C88.2505 21.9626 88.6267 21.7431 88.9716 21.8372C89.3478 21.8999 89.5673 22.2761 89.4732 22.6523Z" fill="#1A191F"/>
<path d="M93.5488 22.4013C93.4547 22.7775 93.0785 22.9969 92.7337 22.9029C92.3575 22.8088 92.138 22.4326 92.232 22.0878C92.3261 21.7116 92.7023 21.4921 93.0472 21.5862C93.4234 21.6802 93.6428 22.0251 93.5488 22.4013Z" fill="#1A191F"/>
<path d="M84.9275 24.4077C85.1783 25.5049 84.52 26.6022 83.4227 26.853C82.3255 27.1038 81.2282 26.4454 80.9774 25.3482L80.8207 24.7212C80.5698 23.6239 81.2282 22.5267 82.3255 22.2759C83.4227 22.025 84.52 22.6834 84.7708 23.7807L84.9275 24.4077Z" fill="white"/>
<path d="M81.8551 22.4954C81.3849 21.1473 79.0649 15.5983 82.5135 15.4416C82.7329 13.2784 85.7425 12.1184 89.5359 11.3974C93.2979 10.645 95.6492 12.4319 95.3671 14.1875C95.0849 15.9432 92.765 16.6015 90.9153 16.0686C90.3824 17.9809 87.8744 17.3226 87.3101 16.9464C86.8711 18.796 84.7707 19.2349 85.0215 20.5203C85.2723 21.8056 85.3663 23.1224 85.429 23.3732C85.4917 23.624 84.3631 24.1569 84.1437 23.624C83.8929 23.1224 82.9524 22.1505 81.8551 22.4954Z" fill="#F68632"/>
<path d="M92.2947 52.7166C94.5832 53.1555 93.2665 45.412 93.2665 44.2206C93.2038 44.2833 93.1725 44.3147 93.1098 44.3774C98.0318 44.4088 102.954 44.4401 107.876 44.3774C111.387 44.3461 114.93 44.252 118.441 44.252C120.604 44.252 122.767 44.1579 124.93 44.0952C127.25 44.0012 129.57 44.0012 131.827 43.4055C136.154 42.2456 137.721 37.6998 138.16 33.687C138.191 33.4989 137.878 33.4989 137.847 33.687C137.502 36.6652 136.624 39.9257 134.21 41.9007C132.392 43.4055 129.758 43.5936 127.501 43.6877C125.275 43.7817 123.018 43.8758 120.792 43.9071C113.738 44.0012 106.653 44.0639 99.5993 44.0639C97.4361 44.0639 95.2416 44.0639 93.0784 44.0325C92.9844 44.0325 92.9217 44.0952 92.9217 44.1893C92.9217 45.1925 93.9562 52.6852 92.3574 52.3717C92.1693 52.3717 92.0752 52.6539 92.2947 52.7166Z" fill="#1F0E03"/>
<path d="M138.003 20.27C138.003 24.1574 138.16 28.0762 137.909 31.9636C137.909 32.1517 138.223 32.1517 138.223 31.9636C138.473 28.0762 138.317 24.1574 138.317 20.27C138.317 20.0819 138.003 20.0819 138.003 20.27Z" fill="#1F0E03"/>
<path d="M259.736 71.15C259.736 78.0471 254.156 83.6274 247.259 83.6274H201.456C194.559 83.6274 188.979 78.0471 188.979 71.15V54.7225C188.979 47.8255 194.559 42.2451 201.456 42.2451H247.259C254.156 42.2451 259.736 47.8255 259.736 54.7225V71.15Z" fill="#00377B"/>
<path d="M203.118 90.7756C200.986 92.8134 199.23 92.8134 199.23 90.7756C199.23 88.7378 199.23 85.4147 199.23 83.4083C199.23 81.3705 200.986 79.709 203.118 79.709C205.249 79.709 208.761 79.709 210.892 79.709C213.024 79.709 213.024 81.3705 210.892 83.4083C208.761 85.4461 205.249 88.7692 203.118 90.7756Z" fill="#F68632"/>
<path d="M198.475 51.1747V50.6178H202.363V51.1747H200.733V55.8022H200.105V51.1747H198.475Z" fill="white"/>
<path d="M203.332 55.8022V50.6178H203.96V52.9264H206.724V50.6178H207.352V55.8022H206.724V53.4834H203.96V55.8022H203.332Z" fill="white"/>
<path d="M208.822 55.8022H208.164L210.067 50.6178H210.715L212.619 55.8022H211.961L210.412 51.4379H210.371L208.822 55.8022ZM209.065 53.777H211.718V54.3339H209.065V53.777Z" fill="white"/>
<path d="M217.538 50.6178V55.8022H216.93L214.105 51.7316H214.054V55.8022H213.426V50.6178H214.034L216.869 54.6985H216.92V50.6178H217.538Z" fill="white"/>
<path d="M218.794 55.8022V50.6178H219.422V53.1897H219.482L221.811 50.6178H222.631L220.454 52.9568L222.631 55.8022H221.872L220.07 53.3922L219.422 54.1213V55.8022H218.794Z" fill="white"/>
<path d="M226.279 51.9139C226.249 51.6573 226.126 51.4582 225.91 51.3164C225.694 51.1747 225.429 51.1038 225.115 51.1038C224.885 51.1038 224.684 51.1409 224.512 51.2152C224.342 51.2894 224.209 51.3915 224.112 51.5215C224.018 51.6514 223.971 51.7991 223.971 51.9645C223.971 52.1029 224.004 52.2219 224.069 52.3214C224.137 52.4193 224.223 52.5012 224.328 52.567C224.432 52.6311 224.542 52.6843 224.657 52.7265C224.771 52.767 224.877 52.7999 224.973 52.8252L225.5 52.9669C225.635 53.0024 225.785 53.0513 225.95 53.1138C226.117 53.1762 226.277 53.2614 226.429 53.3694C226.582 53.4758 226.709 53.6125 226.808 53.7795C226.908 53.9466 226.958 54.1517 226.958 54.3947C226.958 54.6748 226.884 54.928 226.737 55.1541C226.592 55.3803 226.38 55.56 226.1 55.6933C225.821 55.8266 225.483 55.8933 225.084 55.8933C224.713 55.8933 224.392 55.8334 224.12 55.7136C223.85 55.5937 223.637 55.4267 223.482 55.2123C223.328 54.998 223.242 54.7491 223.221 54.4656H223.869C223.886 54.6613 223.952 54.8233 224.067 54.9516C224.183 55.0782 224.33 55.1727 224.507 55.2351C224.686 55.2959 224.879 55.3263 225.084 55.3263C225.324 55.3263 225.539 55.2874 225.73 55.2098C225.921 55.1305 226.072 55.0208 226.183 54.8807C226.294 54.739 226.35 54.5736 226.35 54.3846C226.35 54.2124 226.302 54.0723 226.206 53.9643C226.11 53.8563 225.983 53.7686 225.826 53.7011C225.669 53.6336 225.5 53.5745 225.317 53.5239L224.679 53.3416C224.274 53.2252 223.954 53.0589 223.717 52.8429C223.481 52.6269 223.363 52.3442 223.363 51.9949C223.363 51.7046 223.442 51.4514 223.598 51.2354C223.757 51.0177 223.97 50.849 224.236 50.7291C224.505 50.6076 224.804 50.5469 225.135 50.5469C225.469 50.5469 225.766 50.6068 226.026 50.7266C226.286 50.8447 226.492 51.0068 226.644 51.2126C226.797 51.4185 226.878 51.6523 226.887 51.9139H226.279Z" fill="white"/>
<path d="M228.699 50.6178L228.648 54.3441H228.061L228.01 50.6178H228.699ZM228.354 55.8427C228.23 55.8427 228.122 55.798 228.033 55.7085C227.944 55.6191 227.899 55.5119 227.899 55.387C227.899 55.2621 227.944 55.155 228.033 55.0655C228.122 54.9761 228.23 54.9314 228.354 54.9314C228.479 54.9314 228.587 54.9761 228.676 55.0655C228.765 55.155 228.81 55.2621 228.81 55.387C228.81 55.4697 228.789 55.5456 228.747 55.6148C228.706 55.684 228.651 55.7397 228.582 55.7819C228.515 55.8224 228.439 55.8427 228.354 55.8427Z" fill="white"/>
<path d="M229.232 59.3311H197.286V61.4002H229.232V59.3311Z" fill="#FFF2DB"/>
<path d="M224.875 64.3779H197.286V66.447H224.875V64.3779Z" fill="#FFF2DB"/>
<path d="M215.595 69.4258H197.286V71.4949H215.595V69.4258Z" fill="#FFF2DB"/>
<path d="M236.568 75.6956C237.509 73.3443 240.801 71.6514 242.493 71.6514H248.168C250.049 71.8395 253.153 73.3129 254.093 75.6956C251.867 77.8901 248.763 79.2695 245.315 79.2695C241.898 79.2695 238.794 77.8901 236.568 75.6956Z" fill="#F68632"/>
<path d="M247.635 66.8223C247.635 66.8223 248.168 71.3054 248.544 73.8134C248.826 75.663 242.18 76.1646 241.992 74.1896C241.804 71.8383 241.616 67.8255 241.616 67.8255" fill="white"/>
<path d="M247.917 68.8601L247.635 66.791L241.616 67.7942C241.616 67.7942 241.678 69.0169 241.772 70.553C242.18 70.6784 242.65 70.7725 243.089 70.8038C245.001 70.992 246.757 70.2082 247.917 68.8601Z" fill="#F6F8FC"/>
<path d="M237.759 63.2802C237.509 66.4779 239.923 69.2681 243.12 69.4875C246.318 69.7383 249.108 67.3243 249.328 64.1266L249.798 58.0133C250.049 54.8156 247.635 52.0254 244.437 51.806C241.239 51.5552 238.449 53.9692 238.23 57.1669L237.759 63.2802Z" fill="white"/>
<path d="M245.722 58.1075C245.409 57.5119 244.719 57.073 244.03 57.167C243.622 57.1984 243.622 57.8254 244.03 57.794C244.531 57.7313 244.97 58.0135 245.19 58.421C245.346 58.7659 245.911 58.4524 245.722 58.1075Z" fill="#31241C"/>
<path d="M239.421 57.9192C239.703 57.637 240.205 57.4489 240.581 57.543C240.957 57.637 241.145 57.0414 240.738 56.9473C240.142 56.7906 239.39 57.0414 238.982 57.4803C238.7 57.7624 239.139 58.2013 239.421 57.9192Z" fill="#31241C"/>
<path d="M242.023 62.747C241.96 62.747 241.898 62.7157 241.835 62.6843L240.832 61.5557C240.769 61.493 240.769 61.4303 240.769 61.3363C240.8 61.2736 240.832 61.2109 240.894 61.1795L242.086 60.6779C242.211 60.6152 242.337 60.6779 242.399 60.8033C242.462 60.9287 242.399 61.0541 242.274 61.1168L241.365 61.493L242.148 62.3708C242.242 62.4649 242.211 62.6216 242.117 62.7157C242.117 62.747 242.054 62.747 242.023 62.747Z" fill="#31241C"/>
<path d="M241.929 65.976C241.271 65.976 240.863 65.2863 240.581 63.8755C240.581 63.8128 240.581 63.7187 240.644 63.656C240.706 63.5933 240.769 63.562 240.832 63.5934C241.239 63.6561 241.741 63.7188 242.462 63.7188C242.838 63.7188 243.246 63.7188 243.716 63.6874C243.81 63.6874 243.873 63.7187 243.935 63.8128C243.967 63.8755 243.967 63.9696 243.935 64.0636C243.183 65.349 242.525 65.976 241.929 65.976ZM241.114 64.1263C241.302 65.0041 241.584 65.5057 241.929 65.5057C242.148 65.5057 242.587 65.3176 243.308 64.189C242.462 64.2204 241.804 64.2204 241.114 64.1263Z" fill="#31241C"/>
<path d="M244.186 61.3052C244.567 61.3052 244.876 60.9964 244.876 60.6155C244.876 60.2346 244.567 59.9258 244.186 59.9258C243.805 59.9258 243.497 60.2346 243.497 60.6155C243.497 60.9964 243.805 61.3052 244.186 61.3052Z" fill="#1A191F"/>
<path d="M239.264 60.5215C239.358 60.8977 239.735 61.1171 240.111 61.0231C240.487 60.929 240.706 60.5528 240.612 60.1766C240.518 59.8004 240.142 59.581 239.766 59.675C239.421 59.7691 239.17 60.1453 239.264 60.5215Z" fill="#1A191F"/>
<path d="M248.231 62.5907C247.948 63.7193 248.638 64.8479 249.767 65.1301C250.895 65.4122 252.024 64.7225 252.306 63.5939L252.463 62.9355C252.745 61.8069 252.055 60.6783 250.927 60.3962C249.798 60.114 248.669 60.8037 248.387 61.9323L248.231 62.5907Z" fill="white"/>
<path d="M251.397 60.6164C251.899 59.2057 254.313 53.4686 250.707 53.2805C250.488 51.0232 247.353 49.8319 243.434 49.0795C239.515 48.3271 237.07 50.1454 237.383 51.9638C237.666 53.7821 240.08 54.4718 241.992 53.9075C242.525 55.8825 245.158 55.2242 245.723 54.8166C246.161 56.729 248.325 57.1992 248.105 58.5473C247.854 59.8954 247.76 61.2434 247.698 61.5256C247.635 61.8077 248.795 62.3407 249.046 61.7764C249.296 61.2748 250.268 60.2716 251.397 60.6164Z" fill="#F68632"/>
<path d="M247.102 82.6876C251.71 82.4995 256.632 79.5839 257.636 74.8186C257.667 74.6305 257.385 74.5365 257.322 74.7246C256.382 79.3331 251.585 82.186 247.102 82.3741C246.914 82.3741 246.914 82.6876 247.102 82.6876Z" fill="#1F0E03"/>
<path d="M243.309 82.7168C244.155 82.7482 245.001 82.7482 245.817 82.7795C246.005 82.7795 246.005 82.466 245.817 82.466C244.97 82.4347 244.124 82.4347 243.309 82.4033C243.089 82.4033 243.089 82.7168 243.309 82.7168Z" fill="#1F0E03"/>
<path d="M203.024 89.6458C204.591 88.2351 206.19 86.8243 207.663 85.2881C208.353 84.5984 208.949 83.6579 209.795 83.125C210.297 82.7801 210.892 82.7488 211.457 82.7174C212.585 82.6547 213.714 82.6861 214.843 82.6547C216.88 82.6234 218.949 82.5293 220.987 82.5293C223.182 82.5293 225.376 82.6234 227.571 82.7174C231.834 82.9055 236.129 83.125 240.393 82.6861C240.581 82.6547 240.581 82.3412 240.393 82.3726C236.035 82.8115 231.646 82.592 227.257 82.4039C224.969 82.3099 222.649 82.2158 220.36 82.2158C218.291 82.2158 216.253 82.3412 214.216 82.3726C212.805 82.3726 210.861 82.0904 209.607 82.8742C208.823 83.3758 208.228 84.2222 207.632 84.8806C206.096 86.4794 204.434 87.9529 202.773 89.4577C202.647 89.5518 202.898 89.7712 203.024 89.6458Z" fill="#1F0E03"/>
<path d="M233.904 26.2249C233.904 29.8301 230.988 32.7457 227.383 32.7457H166.563C162.958 32.7457 160.042 29.8301 160.042 26.2249V20.1429C160.042 16.5376 162.958 13.6221 166.563 13.6221H227.351C230.957 13.6221 233.872 16.5376 233.872 20.1429V26.2249H233.904Z" fill="#F5CDB3"/>
<path d="M170.2 18.1681C170.419 17.6979 170.796 17.6979 171.046 18.1681L171.767 19.6416C171.987 20.1118 172.614 20.5507 173.115 20.6134L174.746 20.8642C175.247 20.9269 175.373 21.3031 174.996 21.648L173.805 22.808C173.429 23.1842 173.209 23.8739 173.304 24.4068L173.586 26.037C173.68 26.5386 173.366 26.7581 172.927 26.5386L171.454 25.7549C170.984 25.5041 170.231 25.5041 169.792 25.7549L168.319 26.5386C167.849 26.7894 167.566 26.57 167.661 26.037L167.943 24.4068C168.037 23.9052 167.786 23.1842 167.441 22.808L166.25 21.648C165.874 21.2718 165.999 20.9269 166.501 20.8642L168.131 20.6134C168.632 20.5507 169.259 20.1118 169.479 19.6416L170.2 18.1681Z" fill="#00377B"/>
<path d="M183.242 18.1681C183.461 17.6979 183.837 17.6979 184.088 18.1681L184.809 19.6416C185.029 20.1118 185.656 20.5507 186.157 20.6134L187.787 20.8642C188.289 20.9269 188.414 21.3031 188.038 21.648L186.847 22.808C186.471 23.1842 186.251 23.8739 186.345 24.4068L186.627 26.037C186.721 26.5386 186.408 26.7581 185.969 26.5386L184.496 25.7549C184.025 25.5041 183.273 25.5041 182.834 25.7549L181.361 26.5386C180.89 26.7894 180.608 26.57 180.702 26.037L180.984 24.4068C181.078 23.9052 180.828 23.1842 180.483 22.808L179.291 21.648C178.915 21.2718 179.041 20.9269 179.542 20.8642L181.173 20.6134C181.674 20.5507 182.301 20.1118 182.521 19.6416L183.242 18.1681Z" fill="#00377B"/>
<path d="M196.315 18.1681C196.534 17.6979 196.91 17.6979 197.161 18.1681L197.882 19.6416C198.102 20.1118 198.729 20.5507 199.23 20.6134L200.86 20.8642C201.362 20.9269 201.487 21.3031 201.111 21.648L199.92 22.808C199.544 23.1842 199.324 23.8739 199.418 24.4068L199.7 26.037C199.794 26.5386 199.481 26.7581 199.042 26.5386L197.569 25.7549C197.098 25.5041 196.346 25.5041 195.907 25.7549L194.434 26.5386C193.963 26.7894 193.681 26.57 193.775 26.037L194.057 24.4068C194.151 23.9052 193.901 23.1842 193.556 22.808L192.364 21.648C191.988 21.2718 192.114 20.9269 192.615 20.8642L194.246 20.6134C194.747 20.5507 195.374 20.1118 195.594 19.6416L196.315 18.1681Z" fill="#00377B"/>
<path d="M209.388 18.1681C209.607 17.6979 209.983 17.6979 210.234 18.1681L210.955 19.6416C211.175 20.1118 211.802 20.5507 212.303 20.6134L213.933 20.8642C214.435 20.9269 214.56 21.3031 214.184 21.648L212.993 22.808C212.617 23.1842 212.397 23.8739 212.491 24.4068L212.773 26.037C212.868 26.5386 212.554 26.7581 212.115 26.5386L210.642 25.7549C210.171 25.5041 209.419 25.5041 208.98 25.7549L207.507 26.5386C207.036 26.7894 206.754 26.57 206.848 26.037L207.13 24.4068C207.224 23.9052 206.974 23.1842 206.629 22.808L205.437 21.648C205.061 21.2718 205.187 20.9269 205.688 20.8642L207.319 20.6134C207.82 20.5507 208.447 20.1118 208.667 19.6416L209.388 18.1681Z" fill="#00377B"/>
<path d="M222.429 18.1681C222.649 17.6979 223.025 17.6979 223.276 18.1681L223.997 19.6416C224.216 20.1118 224.843 20.5507 225.345 20.6134L226.975 20.8642C227.477 20.9269 227.602 21.3031 227.226 21.648L226.035 22.808C225.658 23.1842 225.439 23.8739 225.533 24.4068L225.815 26.037C225.909 26.5386 225.596 26.7581 225.157 26.5386L223.683 25.7549C223.213 25.5041 222.492 25.5041 222.022 25.7549L220.548 26.5386C220.078 26.7894 219.796 26.57 219.89 26.037L220.172 24.4068C220.266 23.9052 220.015 23.1842 219.671 22.808L218.479 21.648C218.103 21.2718 218.228 20.9269 218.73 20.8642L220.36 20.6134C220.862 20.5507 221.489 20.1118 221.708 19.6416L222.429 18.1681Z" fill="#00377B"/>
<path d="M192.709 31.7739C193.744 31.7739 194.779 31.6798 195.813 31.6485C196.001 31.6485 196.001 31.335 195.813 31.335C194.779 31.335 193.744 31.429 192.709 31.4604C192.49 31.4604 192.49 31.7739 192.709 31.7739Z" fill="#1F0E03"/>
<path d="M197.224 31.6794C200.923 31.5854 204.591 31.7735 208.29 31.7108C210.14 31.6794 211.958 31.5227 213.777 31.4286C215.72 31.3346 217.633 31.3659 219.577 31.4286C221.426 31.4913 223.276 31.554 225.094 31.5854C226.38 31.6167 227.665 31.6794 228.919 31.3973C230.957 30.9584 231.834 29.2968 231.96 27.3217C231.96 27.1336 231.646 27.1336 231.646 27.3217C231.584 28.419 231.333 29.4849 230.518 30.2687C229.765 30.9897 228.668 31.1778 227.696 31.2405C226.223 31.3659 224.749 31.2405 223.276 31.2092C221.552 31.1778 219.796 31.0838 218.072 31.0524C214.592 30.9897 211.175 31.3659 207.695 31.3973C204.215 31.4286 200.735 31.3032 197.255 31.3659C197.036 31.3659 197.036 31.6794 197.224 31.6794Z" fill="#1F0E03"/>
<path d="M87.8429 73.1574C87.8429 76.7627 84.9273 79.6782 81.3221 79.6782H55.5208C51.9156 79.6782 49 76.7627 49 73.1574V65.5706C49 61.9654 51.9156 59.0498 55.5208 59.0498H81.3221C84.9273 59.0498 87.8429 61.9654 87.8429 65.5706V73.1574Z" fill="#F5CDB3"/>
<path d="M57.082 71.9568V71.3133L59.4984 68.6682C59.782 68.3584 60.0155 68.0891 60.199 67.8603C60.3825 67.6292 60.5183 67.4123 60.6065 67.2098C60.6971 67.0048 60.7423 66.7904 60.7423 66.5664C60.7423 66.309 60.6804 66.0862 60.5565 65.8979C60.4349 65.7097 60.2681 65.5643 60.056 65.4618C59.8439 65.3594 59.6056 65.3081 59.3411 65.3081C59.0599 65.3081 58.8145 65.3665 58.6048 65.4833C58.3975 65.5977 58.2366 65.7585 58.1222 65.9658C58.0102 66.1732 57.9542 66.4162 57.9542 66.6951H57.1106C57.1106 66.2661 57.2095 65.8896 57.4073 65.5655C57.6051 65.2414 57.8744 64.9888 58.2152 64.8077C58.5583 64.6266 58.9432 64.536 59.3697 64.536C59.7987 64.536 60.1788 64.6266 60.51 64.8077C60.8412 64.9888 61.101 65.2331 61.2892 65.5405C61.4775 65.8479 61.5716 66.1899 61.5716 66.5664C61.5716 66.8356 61.5228 67.099 61.4251 67.3563C61.3298 67.6113 61.1629 67.8961 60.9246 68.2106C60.6887 68.5228 60.3611 68.9041 59.9417 69.3545L58.2974 71.1132V71.1704H61.7003V71.9568H57.082Z" fill="#00377B"/>
<path d="M62.8477 70.4555V69.7262L66.0648 64.6361H66.5938V65.7657H66.2364L63.8057 69.6119V69.6691H68.138V70.4555H62.8477ZM66.2936 71.9568V70.2338V69.8943V64.6361H67.1372V71.9568H66.2936Z" fill="#00377B"/>
<path d="M72.0798 64.293L69.7207 73.0577H68.9486L71.3077 64.293H72.0798Z" fill="#00377B"/>
<path d="M73.2943 71.9568L76.5686 65.4797V65.4225H72.7939V64.6361H77.4836V65.4654L74.2237 71.9568H73.2943Z" fill="#00377B"/>
<path d="M71.384 78.5493C75.867 77.452 80.8517 79.6466 84.8959 76.8877C85.0527 76.7623 84.8959 76.5115 84.7392 76.6056C80.7263 79.3331 75.7103 77.1385 71.2899 78.2358C71.1018 78.2985 71.1959 78.612 71.384 78.5493Z" fill="#1F0E03"/>
<path d="M86.4008 66.9822C86.4635 67.6719 86.4322 68.3302 86.5262 68.9886C86.6203 69.7723 86.7457 70.5247 86.7457 71.3085C86.7457 72.8133 86.6203 74.3808 85.7425 75.6662C85.6171 75.8229 85.8992 75.9797 86.0246 75.8229C86.777 74.7257 86.9651 73.3776 87.0592 72.0609C87.0905 71.3712 87.1219 70.6815 87.0278 70.0231C86.9024 69.0199 86.8397 68.0167 86.7457 67.0135C86.683 66.7627 86.3695 66.7627 86.4008 66.9822Z" fill="#1F0E03"/>
</svg>
