<svg width="16" height="17" viewBox="0 0 16 17" fill="none" xmlns="http://www.w3.org/2000/svg">
<path d="M5.93974 14.281C5.81307 14.281 5.68641 14.2343 5.58641 14.1343C5.39307 13.941 5.39307 13.621 5.58641 13.4277L9.93307 9.08099C10.2531 8.76099 10.2531 8.24099 9.93307 7.92099L5.58641 3.57432C5.39307 3.38099 5.39307 3.06099 5.58641 2.86766C5.77974 2.67432 6.09974 2.67432 6.29307 2.86766L10.6397 7.21432C10.9797 7.55432 11.1731 8.01432 11.1731 8.50099C11.1731 8.98766 10.9864 9.44766 10.6397 9.78766L6.29307 14.1343C6.19307 14.2277 6.06641 14.281 5.93974 14.281Z" fill="#64748B"/>
</svg>
