<svg width="25" height="24" viewBox="0 0 25 24" fill="none" xmlns="http://www.w3.org/2000/svg">
<path d="M6.06971 22.6998C3.72971 22.6998 1.74971 20.7198 1.74971 18.3798V12.2198C1.69971 9.2998 2.77971 6.5498 4.79971 4.4898C6.81971 2.4398 9.52971 1.2998 12.4497 1.2998C18.4097 1.2998 23.2497 6.14981 23.2497 12.0998V18.2598C23.2497 20.6398 21.3097 22.5798 18.9297 22.5798C16.5897 22.5798 14.6097 20.5998 14.6097 18.2598V15.4498C14.6097 13.9998 15.7497 12.8598 17.1997 12.8598C18.6497 12.8598 19.7897 13.9998 19.7897 15.4498V18.4798C19.7897 18.8898 19.4497 19.2298 19.0397 19.2298C18.6297 19.2298 18.2897 18.8898 18.2897 18.4798V15.4498C18.2897 14.7698 17.7397 14.3598 17.1997 14.3598C16.5197 14.3598 16.1097 14.9098 16.1097 15.4498V18.2598C16.1097 19.7898 17.3997 21.0798 18.9297 21.0798C20.4597 21.0798 21.7497 19.7898 21.7497 18.2598V12.0998C21.7497 6.9698 17.5797 2.7998 12.4497 2.7998C9.93971 2.7998 7.60971 3.7698 5.86971 5.5398C4.12971 7.3098 3.19971 9.6798 3.24971 12.1998V18.3798C3.24971 19.9098 4.53971 21.1998 6.06971 21.1998C7.59971 21.1998 8.88971 19.9098 8.88971 18.3798V15.5698C8.88971 14.8898 8.33971 14.4798 7.79971 14.4798C7.11971 14.4798 6.70971 15.0298 6.70971 15.5698V18.4898C6.70971 18.8998 6.36971 19.2398 5.95971 19.2398C5.54971 19.2398 5.20971 18.8998 5.20971 18.4898V15.5698C5.20971 14.1198 6.34971 12.9798 7.79971 12.9798C9.24971 12.9798 10.3897 14.1198 10.3897 15.5698V18.3798C10.3897 20.7198 8.40971 22.6998 6.06971 22.6998Z" fill="#64748B"/>
</svg>
