<svg width="25" height="24" viewBox="0 0 25 24" fill="none" xmlns="http://www.w3.org/2000/svg">
<path d="M12.6605 11.62C12.6305 11.62 12.6105 11.62 12.5805 11.62C12.5305 11.61 12.4605 11.61 12.4005 11.62C9.50055 11.53 7.31055 9.25 7.31055 6.44C7.31055 3.58 9.64055 1.25 12.5005 1.25C15.3605 1.25 17.6905 3.58 17.6905 6.44C17.6805 9.25 15.4805 11.53 12.6905 11.62C12.6805 11.62 12.6705 11.62 12.6605 11.62ZM12.5005 2.75C10.4705 2.75 8.81055 4.41 8.81055 6.44C8.81055 8.44 10.3705 10.05 12.3605 10.12C12.4105 10.11 12.5505 10.11 12.6805 10.12C14.6405 10.03 16.1805 8.42 16.1905 6.44C16.1905 4.41 14.5305 2.75 12.5005 2.75Z" fill="#64748B"/>
<path d="M12.6696 22.55C10.7096 22.55 8.73961 22.05 7.24961 21.05C5.85961 20.13 5.09961 18.87 5.09961 17.5C5.09961 16.13 5.85961 14.86 7.24961 13.93C10.2496 11.94 15.1096 11.94 18.0896 13.93C19.4696 14.85 20.2396 16.11 20.2396 17.48C20.2396 18.85 19.4796 20.12 18.0896 21.05C16.5896 22.05 14.6296 22.55 12.6696 22.55ZM8.07961 15.19C7.11961 15.83 6.59961 16.65 6.59961 17.51C6.59961 18.36 7.12961 19.18 8.07961 19.81C10.5696 21.48 14.7696 21.48 17.2596 19.81C18.2196 19.17 18.7396 18.35 18.7396 17.49C18.7396 16.64 18.2096 15.82 17.2596 15.19C14.7696 13.53 10.5696 13.53 8.07961 15.19Z" fill="#64748B"/>
</svg>
