<svg width="25" height="24" viewBox="0 0 25 24" fill="none" xmlns="http://www.w3.org/2000/svg">
<path d="M12.5 2C9.88 2 7.75 4.13 7.75 6.75C7.75 9.32 9.76 11.4 12.38 11.49C12.46 11.48 12.54 11.48 12.6 11.49C12.62 11.49 12.63 11.49 12.65 11.49C12.66 11.49 12.66 11.49 12.67 11.49C15.23 11.4 17.24 9.32 17.25 6.75C17.25 4.13 15.12 2 12.5 2Z" fill="#00377B"/>
<path d="M17.58 14.1509C14.79 12.2909 10.24 12.2909 7.43002 14.1509C6.16002 15.0009 5.46002 16.1509 5.46002 17.3809C5.46002 18.6109 6.16002 19.7509 7.42002 20.5909C8.82002 21.5309 10.66 22.0009 12.5 22.0009C14.34 22.0009 16.18 21.5309 17.58 20.5909C18.84 19.7409 19.54 18.6009 19.54 17.3609C19.53 16.1309 18.84 14.9909 17.58 14.1509Z" fill="#00377B"/>
</svg>
