<svg width="9" height="18" viewBox="0 0 9 18" fill="none" xmlns="http://www.w3.org/2000/svg">
<path d="M0.909609 17.6695C0.719609 17.6695 0.529609 17.5995 0.379609 17.4495C0.0896094 17.1595 0.0896094 16.6795 0.379609 16.3895L6.89961 9.86953C7.37961 9.38953 7.37961 8.60953 6.89961 8.12953L0.379609 1.60953C0.0896094 1.31953 0.0896094 0.839531 0.379609 0.549531C0.669609 0.259531 1.14961 0.259531 1.43961 0.549531L7.95961 7.06953C8.46961 7.57953 8.75961 8.26953 8.75961 8.99953C8.75961 9.72953 8.47961 10.4195 7.95961 10.9295L1.43961 17.4495C1.28961 17.5895 1.09961 17.6695 0.909609 17.6695Z" fill="#64748B"/>
</svg>
