<svg width="341" height="341" viewBox="0 0 341 341" fill="none" xmlns="http://www.w3.org/2000/svg">
<circle cx="170.5" cy="170.5" r="170.5" fill="#F9FCFF"/>
<circle cx="210.5" cy="148.5" r="109.5" fill="#E8F0F8" fill-opacity="0.8"/>
<circle cx="128" cy="192" r="122" fill="#E8F0F8" fill-opacity="0.5"/>
<circle cx="257.5" cy="243.5" r="54.5" fill="#E8F0F8" fill-opacity="0.5"/>
<path d="M220.442 197.769H131.171V255.684H220.442V197.769Z" fill="#1E60B1"/>
<path d="M130.519 256.35H221.122V197.117H130.519V256.35ZM131.837 198.435H219.776V255.018H131.837V198.435Z" fill="white"/>
<path d="M182.127 248.956C162.636 252.259 148.596 246.483 141.039 246.714C133.482 246.945 135.493 255.018 135.493 255.018L194.061 255.807L215.903 255.018C216.854 250.587 201.618 245.653 182.127 248.956Z" fill="#223963"/>
<path d="M209.46 197.769H208.047V256.35H209.46V197.769Z" fill="white"/>
<path d="M138.891 256.35H133.454V259.109H138.891V256.35Z" fill="#223963"/>
<path d="M218.172 256.35H212.736V259.109H218.172V256.35Z" fill="#223963"/>
<path d="M220.442 135.776H131.171V193.691H220.442V135.776Z" fill="#1E60B1"/>
<path d="M130.519 194.344H221.122V135.111H130.519V194.344ZM131.837 136.429H219.776V193.012H131.837V136.429Z" fill="white"/>
<path d="M182.127 186.95C162.636 190.253 148.596 184.476 141.039 184.707C133.482 184.938 135.493 193.012 135.493 193.012L194.061 193.8L215.903 193.012C216.854 188.581 201.618 183.647 182.127 186.95Z" fill="#223963"/>
<path d="M138.891 194.344H133.454V197.103H138.891V194.344Z" fill="#223963"/>
<path d="M218.172 194.344H212.736V197.103H218.172V194.344Z" fill="#223963"/>
<path d="M285.158 256.894L292.212 256.989V216.757L282.372 217.749L285.158 256.894Z" fill="#F9B498"/>
<path d="M297.948 256.894L305.002 256.989L305.505 224.328L295.42 220.658L297.948 256.894Z" fill="#F9B498"/>
<path d="M292.334 257.709H285.987L283.405 254.991L278.688 257.709H277.669C277.315 257.709 277.003 257.94 276.935 258.266C276.84 258.715 277.193 259.109 277.642 259.109H292.416C292.525 259.109 292.606 259.028 292.606 258.919V257.981C292.62 257.832 292.497 257.709 292.334 257.709Z" fill="#C86D29"/>
<path d="M289.575 254.502C289.575 254.502 287.115 256.201 284.94 254.148L279.544 256.473C279.544 256.473 278.063 256.948 277.669 257.723H292.28V255.195C292.28 255.195 291.206 253.795 289.575 254.502Z" fill="white"/>
<path d="M292.335 255.195H292.226V257.709H292.335V255.195Z" fill="black"/>
<path d="M287.047 255.1L287.033 255.208C287.033 255.208 287.156 255.222 287.373 255.222C287.849 255.222 288.746 255.127 289.616 254.556L289.548 254.474C288.338 255.276 287.061 255.1 287.047 255.1Z" fill="black"/>
<path d="M290.907 257.152L290.961 257.247L291.655 256.799L291.6 256.703L290.907 257.152Z" fill="black"/>
<path d="M290.418 257.03L290.472 257.111L291.166 256.663L291.098 256.581L290.418 257.03Z" fill="black"/>
<path d="M292.266 257.668H277.655C277.22 257.668 276.88 258.008 276.88 258.416C276.88 258.633 276.976 258.851 277.152 258.987L277.22 258.905C277.071 258.783 276.989 258.606 276.989 258.416C276.989 258.062 277.288 257.763 277.655 257.763H292.266C292.443 257.763 292.579 257.899 292.579 258.063V258.756H292.688V258.063C292.674 257.845 292.484 257.668 292.266 257.668Z" fill="black"/>
<path d="M279.014 256.622C277.913 257.084 277.614 257.669 277.601 257.696L277.696 257.737C277.696 257.737 277.995 257.152 279.055 256.717C280.142 256.269 284.913 254.216 284.967 254.189L284.927 254.094C284.872 254.121 280.101 256.173 279.014 256.622Z" fill="black"/>
<path d="M305.138 257.709H298.981L296.48 254.991L291.914 257.709H290.935C290.595 257.709 290.283 257.94 290.215 258.266C290.133 258.715 290.473 259.109 290.908 259.109H305.234C305.342 259.109 305.424 259.028 305.424 258.919V257.981C305.41 257.832 305.288 257.709 305.138 257.709Z" fill="#F89144"/>
<path d="M302.461 254.502C302.461 254.502 300.068 256.201 297.962 254.148L292.729 256.472C292.729 256.472 291.288 256.948 290.907 257.723H305.07V255.195C305.084 255.195 304.051 253.795 302.461 254.502Z" fill="white"/>
<path d="M305.138 255.195H305.03V257.709H305.138V255.195Z" fill="black"/>
<path d="M300.014 255.1L300 255.208C300 255.208 300.123 255.222 300.326 255.222C300.789 255.222 301.658 255.127 302.501 254.556L302.447 254.474C301.264 255.276 300.027 255.1 300.014 255.1Z" fill="black"/>
<path d="M303.753 257.157L303.814 257.247L304.479 256.8L304.419 256.71L303.753 257.157Z" fill="black"/>
<path d="M303.242 257.024L303.303 257.114L303.968 256.665L303.907 256.575L303.242 257.024Z" fill="black"/>
<path d="M305.057 257.668H290.908C290.486 257.668 290.16 258.008 290.16 258.416C290.16 258.633 290.255 258.851 290.432 258.987L290.5 258.905C290.35 258.783 290.269 258.606 290.269 258.416C290.269 258.062 290.554 257.763 290.921 257.763H305.084C305.247 257.763 305.383 257.899 305.383 258.063V258.756H305.492V258.063C305.465 257.845 305.288 257.668 305.057 257.668Z" fill="black"/>
<path d="M292.226 256.622C291.152 257.084 290.867 257.669 290.853 257.696L290.948 257.737C290.948 257.737 291.234 257.152 292.267 256.717C293.313 256.269 297.948 254.216 297.989 254.189L297.948 254.094C297.907 254.121 293.273 256.173 292.226 256.622Z" fill="#49263E"/>
<path d="M281.366 199.631V224.45C286.463 225.7 292.892 225.374 292.892 225.374V227.046C298.491 229.465 308.264 227.046 308.264 227.046L307.761 199.223L281.366 199.631Z" fill="white"/>
<path d="M293.028 226.964V214.378L291.451 211.877L291.233 212.013L292.769 214.446V227.128L292.851 227.155C294.631 227.916 296.956 228.161 299.239 228.161C303.779 228.161 308.237 227.168 308.305 227.155L308.25 226.896C308.142 226.937 298.288 229.126 293.028 226.964Z" fill="#1D1D1B"/>
<path d="M281.501 224.355V212.639H281.243V224.559L281.338 224.586C281.393 224.6 285.81 225.605 290.499 225.605C291.301 225.605 292.117 225.578 292.919 225.51L292.891 225.252C287.862 225.687 282.303 224.532 281.501 224.355Z" fill="#1D1D1B"/>
<path d="M290.853 152.141C290.799 152.168 290.744 152.196 290.69 152.223C287.115 154.166 289.018 157.768 287.808 159.481C287.808 159.481 292.973 161.329 295.365 156.735C296.847 153.854 293.748 150.687 290.853 152.141Z" fill="#21111D"/>
<path d="M292.525 154.017C291.682 155.05 291.084 156.395 290.445 158.665C290.064 160.283 289.738 165.217 293.653 166.562C294.169 166.739 294.604 166.916 294.998 167.079L298.451 151.856C298.451 151.869 294.822 151.217 292.525 154.017Z" fill="#21111D"/>
<path d="M301.835 152.427L300.517 160.147L299.388 166.793C299.388 166.793 304.676 166.535 306.008 160.595C306.103 159.63 306.157 158.76 306.144 158.094C306.035 153.976 301.835 152.427 301.835 152.427Z" fill="#21111D"/>
<path d="M300.884 152.957C300.856 153.106 293.517 156.124 293.517 156.124C293.517 156.124 289.534 163.925 293.761 166.005L292.647 171.822L299.117 171.632L302.786 152.916C302.786 152.943 300.911 152.807 300.884 152.957Z" fill="#F9B498"/>
<path d="M294.93 158.923L294.903 159.005C294.903 159.019 295.256 159.807 294.93 160.514C294.726 160.962 294.305 161.275 293.666 161.452L293.612 161.465L293.625 161.52C293.625 161.56 293.775 162.349 294.305 162.58H294.319C294.346 162.58 294.373 162.566 294.387 162.539C294.4 162.512 294.387 162.471 294.346 162.457C293.952 162.294 293.789 161.737 293.748 161.547C294.387 161.356 294.821 161.017 295.039 160.554C295.392 159.793 295.025 158.978 295.012 158.951L294.93 158.923Z" fill="#ED7163"/>
<path d="M293.762 166.018L293.436 167.799C295.909 167.527 298.859 165.583 298.859 165.583C296.806 166.399 293.762 166.018 293.762 166.018Z" fill="#F89144"/>
<path d="M296.589 160.582C296.769 160.582 296.915 160.436 296.915 160.255C296.915 160.075 296.769 159.929 296.589 159.929C296.409 159.929 296.262 160.075 296.262 160.255C296.262 160.436 296.409 160.582 296.589 160.582Z" fill="black"/>
<path d="M293.544 160.011C293.724 160.011 293.87 159.865 293.87 159.685C293.87 159.504 293.724 159.358 293.544 159.358C293.364 159.358 293.218 159.504 293.218 159.685C293.218 159.865 293.364 160.011 293.544 160.011Z" fill="black"/>
<path d="M293.789 163.028C293.789 163.028 294.033 163.762 294.713 163.762C295.379 163.762 295.623 163.015 295.623 163.015C295.583 163.015 293.789 163.028 293.789 163.028Z" fill="#FBFDFC"/>
<path d="M302.786 152.943C300.72 151.502 296.276 151.217 296.208 153.487C296.208 153.487 296.29 157.497 299.62 159.726C302.95 161.941 300.639 165.652 300.639 165.652L304.377 161.9C304.39 161.9 305.641 154.914 302.786 152.943Z" fill="#21111D"/>
<path d="M296.127 158.325C296.059 158.339 296.018 158.393 296.032 158.448C296.045 158.516 296.1 158.557 296.154 158.543C297.01 158.421 297.731 159.046 297.731 159.059C297.758 159.087 297.799 159.1 297.839 159.087L297.894 159.046C297.935 159.005 297.935 158.923 297.88 158.883C297.867 158.869 297.092 158.19 296.127 158.325Z" fill="#21111D"/>
<path d="M294.74 158.149C293.816 157.836 292.946 158.353 292.905 158.366C292.851 158.393 292.837 158.475 292.864 158.516C292.878 158.543 292.919 158.57 292.96 158.57L293.028 158.557C293.041 158.557 293.857 158.067 294.672 158.353C294.727 158.38 294.794 158.339 294.822 158.285C294.835 158.244 294.808 158.176 294.74 158.149Z" fill="#21111D"/>
<path d="M296.534 155.335L298.002 153.881L296.194 155.023L296.534 155.335Z" fill="#21111D"/>
<path d="M301.468 163.558C302.467 163.558 303.276 162.749 303.276 161.751C303.276 160.752 302.467 159.943 301.468 159.943C300.47 159.943 299.66 160.752 299.66 161.751C299.66 162.749 300.47 163.558 301.468 163.558Z" fill="#F9B498"/>
<path d="M301.536 160.962C301.291 161.044 301.088 161.234 300.952 161.52L300.87 161.71L301.047 161.601C301.074 161.588 301.563 161.261 301.998 161.669C302.243 161.887 302.202 162.199 302.093 162.403C301.985 162.607 301.74 162.838 301.4 162.756C301.373 162.756 301.332 162.77 301.332 162.797C301.332 162.824 301.346 162.865 301.373 162.865H301.387C301.754 162.933 302.066 162.702 302.202 162.444C302.365 162.131 302.311 161.791 302.08 161.574C301.74 161.261 301.373 161.329 301.156 161.411C301.264 161.234 301.414 161.125 301.577 161.071C301.957 160.949 302.365 161.166 302.365 161.18C302.392 161.193 302.433 161.18 302.447 161.153C302.46 161.125 302.447 161.085 302.42 161.071C302.406 161.071 301.971 160.826 301.536 160.962Z" fill="#ED7163"/>
<path d="M308.579 158.509C308.873 156.861 307.919 155.312 306.448 155.05C304.978 154.787 303.547 155.911 303.253 157.559C302.959 159.207 303.913 160.755 305.384 161.018C306.854 161.28 308.285 160.157 308.579 158.509Z" fill="#EFA874"/>
<path d="M313.551 161.03L307.761 169.185L313.402 174.242C313.402 174.242 317.887 169.213 318.363 168.397C319.423 166.549 324.737 148.702 324.737 148.702L319.328 147.275L313.551 161.03Z" fill="#FE9F73"/>
<path d="M326.572 142.6C326.328 142.45 326.015 142.532 325.838 142.763L324.819 144.217C324.792 144.258 324.724 144.285 324.669 144.271C324.588 144.244 324.547 144.163 324.588 144.081L325.797 141.757C325.933 141.485 325.811 141.2 325.526 141.118C325.24 141.037 324.887 141.186 324.751 141.444L323.514 143.823C323.487 143.877 323.419 143.904 323.365 143.891L323.324 143.877C323.256 143.864 323.215 143.782 323.229 143.714L324.058 140.86C324.139 140.588 324.003 140.289 323.731 140.194C323.432 140.085 323.12 140.248 323.038 140.547L322.209 143.415C322.196 143.483 322.114 143.524 322.046 143.51L321.91 143.47C321.842 143.456 321.801 143.388 321.815 143.32L322.236 140.574C322.277 140.289 322.1 140.017 321.829 139.949C321.53 139.881 321.231 140.085 321.176 140.398C321.176 140.398 320.306 144.543 320.116 145.182L319.124 143.986C318.974 143.728 318.662 143.633 318.39 143.769C318.132 143.904 318.036 144.231 318.172 144.503L319.477 147.697C319.572 147.86 319.939 147.968 320.266 147.996C323.229 149.11 323.691 149.26 324.52 149.477L325.349 146.201C325.594 145.25 326.001 144.367 326.559 143.565L326.695 143.361C326.912 143.116 326.844 142.763 326.572 142.6Z" fill="#F9B498"/>
<path d="M281.828 139.392C281.57 139.242 281.243 139.338 281.094 139.609L280.102 140.805C279.911 140.167 279.042 136.021 279.042 136.021C279.001 135.722 278.702 135.518 278.389 135.573C278.104 135.641 277.941 135.912 277.981 136.198L278.403 138.943C278.416 139.011 278.376 139.066 278.308 139.093L278.172 139.134C278.104 139.147 278.036 139.12 278.009 139.039L277.179 136.171C277.098 135.872 276.772 135.709 276.486 135.817C276.214 135.912 276.079 136.211 276.16 136.483L276.989 139.338C277.003 139.406 276.976 139.473 276.894 139.501L276.853 139.514C276.799 139.528 276.731 139.501 276.704 139.446L275.467 137.068C275.331 136.796 274.978 136.646 274.692 136.742C274.407 136.823 274.284 137.109 274.42 137.38L275.63 139.705C275.671 139.773 275.63 139.868 275.548 139.895C275.494 139.908 275.44 139.895 275.399 139.84L274.38 138.386C274.216 138.155 273.89 138.074 273.646 138.223C273.374 138.386 273.306 138.74 273.482 138.984L273.618 139.188C274.176 139.99 274.583 140.887 274.828 141.825L275.657 145.101C276.486 144.869 276.948 144.734 279.911 143.619C280.224 143.605 280.605 143.497 280.7 143.32L282.005 140.126C282.181 139.868 282.086 139.541 281.828 139.392Z" fill="#F9B498"/>
<path d="M304.254 205.394L301.767 207.651C301.726 207.691 301.726 207.759 301.754 207.8C301.767 207.827 301.794 207.827 301.822 207.841C301.849 207.841 301.876 207.841 301.903 207.814L304.39 205.557C304.431 205.517 304.431 205.449 304.404 205.408C304.363 205.354 304.295 205.354 304.254 205.394Z" fill="black"/>
<path d="M313.239 161.261L304.404 169.607C304.404 169.607 291.927 168.859 291.016 168.424C290.106 167.989 284.247 157.496 284.356 157.646C284.465 157.795 281.312 143.334 281.312 143.334C281.312 143.334 276.921 143.184 275.182 143.823C275.182 143.823 277.193 162.485 277.71 163.885C278.226 165.285 279.055 166.888 279.055 166.888C280.17 169.267 283.581 175.383 283.581 175.383C283.527 176.81 280.999 204.524 280.999 204.524C280.999 204.524 287.278 207.746 308.427 207.841C308.427 207.841 308.346 198.571 308.264 190.715C308.21 185.401 308.06 180.671 308.332 180.14C308.862 179.04 315.482 172.189 317.833 169.756C318.377 169.199 318.784 168.519 319.015 167.785L324.751 149.654C324.751 149.654 320.47 147.615 318.975 147.574L313.239 161.261Z" fill="#F89144"/>
<path d="M319.002 147.466C318.947 147.452 318.893 147.466 318.879 147.52L313.144 161.221C313.13 161.275 313.144 161.329 313.198 161.343C313.212 161.343 313.225 161.357 313.239 161.357C313.279 161.357 313.307 161.329 313.32 161.302L319.056 147.602C319.07 147.547 319.056 147.493 319.002 147.466Z" fill="black"/>
<path d="M308.264 180.181C308.264 180.127 308.223 180.086 308.183 180.086C308.128 180.086 308.087 180.127 308.087 180.168C308.074 180.29 308.482 192.536 308.142 200.664C308.142 200.719 308.183 200.759 308.237 200.759C308.291 200.759 308.332 200.719 308.332 200.664C308.645 192.55 308.251 180.304 308.264 180.181Z" fill="black"/>
<path d="M283.771 174.5C283.717 174.486 283.676 174.527 283.662 174.581C283.649 174.663 282.466 182.669 281.488 197.565C281.488 197.62 281.529 197.66 281.569 197.66C281.624 197.66 281.664 197.62 281.664 197.579C282.657 182.696 283.826 174.69 283.839 174.609C283.853 174.554 283.812 174.514 283.771 174.5Z" fill="black"/>
<path d="M278.674 165.91C278.539 165.57 278.416 165.285 278.307 165.013C277.587 163.287 277.275 162.566 276.935 158.258C276.935 158.203 276.88 158.162 276.84 158.176C276.785 158.176 276.744 158.23 276.758 158.271C277.111 162.621 277.438 163.395 278.144 165.094C278.253 165.366 278.375 165.652 278.511 165.991C279.504 168.438 283.459 175.356 283.486 175.424C283.5 175.451 283.54 175.465 283.568 175.465C283.581 175.465 283.595 175.465 283.608 175.451C283.649 175.424 283.663 175.37 283.649 175.329C283.608 175.261 279.667 168.343 278.674 165.91Z" fill="black"/>
<path d="M281.38 143.225H281.312C281.271 143.225 277.329 143.021 275.141 143.714C275.087 143.728 275.059 143.782 275.087 143.837C275.1 143.891 275.155 143.918 275.209 143.891C277.193 143.252 280.7 143.388 281.244 143.402L284.044 156.409C284.057 156.45 284.098 156.477 284.139 156.477H284.152C284.207 156.463 284.234 156.423 284.22 156.368L281.38 143.225Z" fill="black"/>
<path d="M296.561 171.333C299.701 171.469 302.977 169.525 302.977 169.525L291.002 168.424C291.288 169.416 293.422 171.183 296.561 171.333Z" fill="#F9B498"/>
<path d="M314.367 161.724L313.225 161.153L313.171 161.193L304.363 169.512L300.517 169.267C300.462 169.267 300.421 169.308 300.421 169.349C300.421 169.403 300.462 169.444 300.503 169.444L304.431 169.702L304.458 169.675L313.239 161.37L314.271 161.887C314.312 161.914 314.38 161.887 314.394 161.846C314.421 161.792 314.407 161.737 314.367 161.724Z" fill="black"/>
<path d="M309.882 156.423C309.841 156.368 309.8 156.328 309.759 156.287C307.544 153.922 303.534 155.825 303.942 159.046C304.594 164.17 310.086 164.224 310.086 164.224C309.542 162.199 312.573 159.467 309.882 156.423Z" fill="#21111D"/>
<path d="M39.6839 216.676H36.585H31.5288V259.164H39.6975C37.985 259.164 36.5986 257.777 36.5986 256.065V219.788C36.5714 218.062 37.9714 216.676 39.6839 216.676Z" fill="#E3701B"/>
<path d="M70.9044 216.675H39.6839C37.9713 216.675 36.585 218.062 36.585 219.774V256.051C36.585 257.764 37.9713 259.15 39.6839 259.15H70.9044C72.617 259.15 74.0034 257.764 74.0034 256.051V219.774C74.0034 218.062 72.617 216.675 70.9044 216.675Z" fill="#F89144"/>
<path d="M54.404 226.693C53.9419 226.693 53.4798 226.72 53.0312 226.774C59.0932 227.454 63.8096 232.605 63.8096 238.844C63.8096 245.096 59.0932 250.234 53.0312 250.913C53.4798 250.968 53.9419 250.995 54.404 250.995C61.1184 250.995 66.5552 245.558 66.5552 238.844C66.5552 232.143 61.1048 226.693 54.404 226.693Z" fill="#E3701B"/>
<g opacity="0.8">
<path d="M53.0176 226.774C46.9556 227.454 42.2393 232.605 42.2393 238.844C42.2393 245.096 46.9556 250.234 53.0176 250.913C59.0796 250.234 63.796 245.082 63.796 238.844C63.796 232.605 59.0796 227.454 53.0176 226.774Z" fill="#FEC786"/>
</g>
<path d="M55.301 173.97H48.5187V216.676H55.301V173.97Z" fill="#FEC786"/>
<path d="M93.6301 80.7429L82.1993 79.275L82.7294 89.999L83.0556 92.7582C83.0556 92.7582 82.7294 98.4396 83.0964 99.5949C83.4498 100.75 85.3527 102.966 88.4788 102.707C89.471 102.626 90.3273 102.381 91.0341 102.096C92.4884 101.498 93.2903 99.9347 92.9777 98.3988L92.1214 94.2533C94.8398 93.6416 94.4456 90.5155 94.4456 90.5155L93.6301 80.7429Z" fill="#FE9F73"/>
<path d="M85.5291 92.1057C85.5291 92.1057 86.1407 97.3386 92.7463 97.2978L92.1075 94.2396C92.1075 94.2396 87.9212 95.4493 85.5291 92.1057Z" fill="#F07162"/>
<path d="M86.3584 86.2749C86.3176 86.3292 86.3176 86.4108 86.372 86.4652C86.3992 86.4924 86.4264 86.4923 86.4671 86.4923C86.5079 86.4923 86.5351 86.4788 86.5623 86.438C86.6167 86.3564 88.071 84.6167 89.6205 85.6768C89.6748 85.7176 89.7564 85.704 89.7972 85.6361C89.8379 85.5817 89.8243 85.5001 89.7564 85.4594C88.0166 84.2633 86.372 86.2477 86.3584 86.2749Z" fill="black"/>
<path d="M81.8595 85.4866L84.7274 85.84L85.2847 86.3293C85.2847 86.3293 84.6458 81.6265 84.0478 80.7294C83.4226 79.8459 81.8595 85.4866 81.8595 85.4866Z" fill="black"/>
<path d="M91.7814 85.2148C91.7271 85.2691 91.7271 85.3507 91.7678 85.405C91.795 85.4322 91.8358 85.4458 91.863 85.4458C91.8902 85.4458 91.9174 85.4322 91.9445 85.4186C91.9581 85.405 93.0726 84.44 93.6979 84.9565C93.7522 84.9973 93.8338 84.9973 93.8882 84.9429C93.9289 84.8885 93.9289 84.807 93.8746 84.7526C93.0727 84.0866 91.8222 85.1604 91.7814 85.2148Z" fill="black"/>
<path d="M83.5587 89.4827C84.8649 89.4827 85.9237 88.4238 85.9237 87.1177C85.9237 85.8115 84.8649 84.7527 83.5587 84.7527C82.2526 84.7527 81.1937 85.8115 81.1937 87.1177C81.1937 88.4238 82.2526 89.4827 83.5587 89.4827Z" fill="#FE9F73"/>
<path d="M83.3274 85.9758C82.7837 85.7311 82.1993 85.9894 82.1721 85.9894C82.1449 86.003 82.1177 86.0438 82.1313 86.0709C82.1449 86.0981 82.1857 86.1253 82.2128 86.1117C82.2128 86.1117 82.7837 85.8807 83.2594 86.0981C83.4769 86.1933 83.6536 86.3836 83.7759 86.6418C83.5177 86.5059 83.0284 86.3292 82.5391 86.6962C82.1993 86.9408 82.0905 87.3758 82.2536 87.7971C82.3895 88.1505 82.7429 88.4903 83.2322 88.4495H83.2458C83.2866 88.4495 83.3138 88.4087 83.3002 88.3816C83.3002 88.3408 83.2594 88.3136 83.2322 88.3272H83.2186C82.7701 88.368 82.4847 88.0418 82.376 87.7563C82.2672 87.4709 82.2672 87.0632 82.6206 86.8049C83.2458 86.3428 83.8575 86.8321 83.8711 86.8593L84.0478 87.0088L83.9662 86.7913C83.8575 86.3836 83.6264 86.1117 83.3274 85.9758Z" fill="#F07162"/>
<path d="M91.3874 85.5273C91.3466 85.5409 91.333 85.5681 91.333 85.6089L91.999 88.6535L90.7214 89.1971C90.6942 89.2107 90.667 89.2515 90.6806 89.2787C90.6942 89.3059 90.7214 89.3195 90.7486 89.3195C90.7622 89.3195 90.7622 89.3195 90.7622 89.3195L92.1349 88.735L91.4418 85.5817C91.4553 85.5545 91.4282 85.5273 91.3874 85.5273Z" fill="#F07162"/>
<path d="M92.2165 76.3394C92.2165 76.3394 93.1 75.2248 92.067 74.4501C91.0204 73.6754 83.2187 77.3316 81.9546 79.1529C80.6906 80.9742 81.8595 85.4867 81.8595 85.4867C83.5177 82.4693 86.1953 81.4363 86.1953 81.4363C90.4496 82.4421 97.2998 80.648 96.3348 77.8345C95.3562 75.0346 92.2165 76.3394 92.2165 76.3394Z" fill="black"/>
<path d="M91.7 91.399C92.7466 91.2359 92.9641 90.0262 92.9641 90.0262C92.9641 90.0262 90.137 90.4476 90.0962 90.4612C90.0962 90.4612 90.6535 91.5621 91.7 91.399Z" fill="white"/>
<path d="M93.0321 86.7778C93.1673 86.7778 93.2768 86.6682 93.2768 86.5331C93.2768 86.398 93.1673 86.2885 93.0321 86.2885C92.897 86.2885 92.7875 86.398 92.7875 86.5331C92.7875 86.6682 92.897 86.7778 93.0321 86.7778Z" fill="black"/>
<path d="M87.8943 86.8594C87.8535 86.8866 87.8535 86.9273 87.8671 86.9681C87.8943 87.0089 87.9351 87.0089 87.9759 86.9953C88.003 86.9817 88.4924 86.6691 89.1312 86.9545C88.8729 86.9953 88.4516 87.0768 88.1797 87.2671C88.139 87.2943 88.139 87.3351 88.1662 87.3759C88.1797 87.403 88.2069 87.4166 88.2477 87.403C88.2613 87.403 88.2749 87.403 88.2749 87.3895C88.6555 87.1312 89.3758 87.0768 89.3894 87.0768L89.6205 87.0632L89.4302 86.9409C88.6011 86.4108 87.9215 86.8458 87.8943 86.8594Z" fill="black"/>
<path d="M131.962 120.538L132.341 122.941L144.679 120.996L144.301 118.593L131.962 120.538Z" fill="white"/>
<path d="M68.92 120.2C66.6502 119.357 61.6348 116.911 58.1689 113.88C55.9398 118.066 50.3807 127.621 50.4215 129.81C50.5302 137.339 58.6174 150.578 62.3959 154.044L67.8463 147.724C66.3376 145.141 62.0561 131.658 63.1435 129.959C64.1765 128.328 66.7181 123.72 68.92 120.2Z" fill="#F59F73"/>
<path d="M111.558 110.971L98.7268 119.589C98.7268 119.589 105.319 133.833 108.255 136.633C111.204 139.433 145.605 141.607 145.605 141.607L146.502 131.006L118.816 124.699L111.558 110.971Z" fill="#F59F73"/>
<path d="M71.4618 246.958L71.5977 256.173L81.3703 256.037L81.1936 245.748L71.4618 246.958Z" fill="#F59F73"/>
<path d="M93.5758 246.958L93.7253 256.173L103.484 256.037L103.308 245.748L93.5758 246.958Z" fill="#F59F73"/>
<path d="M90.9116 257.342H89.5661L83.3138 253.523L79.8886 257.342H71.4481C71.2306 257.342 71.0675 257.519 71.0675 257.736V259.041C71.0675 259.191 71.1898 259.313 71.3258 259.313H90.9524C91.5505 259.313 92.0126 258.756 91.8903 258.131C91.7951 257.668 91.3738 257.342 90.9116 257.342Z" fill="#F5C786"/>
<path d="M88.4245 255.602L81.2616 252.34C78.3801 255.222 75.1045 252.843 75.1045 252.843C72.9434 251.837 71.5162 253.808 71.5162 253.808V257.356H90.9254C90.3953 256.282 88.4245 255.602 88.4245 255.602Z" fill="#4B222E"/>
<path d="M71.5975 253.808H71.448V257.342H71.5975V253.808Z" fill="black"/>
<path d="M75.1451 252.789L75.0636 252.911C76.2189 253.727 77.415 253.849 78.0402 253.849C78.3121 253.849 78.4752 253.822 78.4888 253.822L78.4616 253.672C78.448 253.672 76.749 253.917 75.1451 252.789Z" fill="black"/>
<path d="M72.3452 256.065L73.2559 256.69L73.3374 256.567L72.4268 255.942L72.3452 256.065Z" fill="black"/>
<path d="M72.9976 255.888L73.9218 256.513L74.0034 256.391L73.0791 255.766L72.9976 255.888Z" fill="black"/>
<path d="M90.939 257.288H71.5298C71.2308 257.288 70.9725 257.546 70.9725 257.859V258.837H71.122V257.859C71.122 257.628 71.3123 257.437 71.5298 257.437H90.939C91.4283 257.437 91.8225 257.845 91.8225 258.348C91.8225 258.62 91.7137 258.864 91.5098 259.041L91.605 259.15C91.8361 258.946 91.972 258.661 91.972 258.348C91.972 257.75 91.5099 257.288 90.939 257.288Z" fill="black"/>
<path d="M89.1311 255.82C87.6904 255.195 81.3566 252.3 81.2886 252.272L81.2343 252.408C81.3022 252.435 87.636 255.317 89.0768 255.956C90.4903 256.567 90.8709 257.383 90.8845 257.383L91.0204 257.315C90.9932 257.288 90.599 256.459 89.1311 255.82Z" fill="black"/>
<path d="M113.134 257.342H111.789L105.536 253.523L102.111 257.342H93.6707C93.4669 257.342 93.2902 257.519 93.2902 257.736V259.041C93.2902 259.191 93.4125 259.313 93.5484 259.313H113.175C113.773 259.313 114.235 258.756 114.113 258.131C114.018 257.668 113.596 257.342 113.134 257.342Z" fill="#F5C786"/>
<path d="M110.647 255.602L103.484 252.34C100.603 255.222 97.3271 252.843 97.3271 252.843C95.166 251.837 93.7389 253.808 93.7389 253.808V257.356H113.148C112.618 256.282 110.647 255.602 110.647 255.602Z" fill="#4B222E"/>
<path d="M93.8203 253.808H93.6708V257.342H93.8203V253.808Z" fill="black"/>
<path d="M97.3679 252.789L97.2864 252.911C98.4417 253.727 99.6378 253.849 100.263 253.849C100.535 253.849 100.698 253.822 100.712 253.822L100.684 253.672C100.671 253.672 98.9718 253.917 97.3679 252.789Z" fill="black"/>
<path d="M94.568 256.065L95.4787 256.69L95.5602 256.567L94.6495 255.942L94.568 256.065Z" fill="black"/>
<path d="M95.2203 255.888L96.1446 256.513L96.2261 256.391L95.3019 255.766L95.2203 255.888Z" fill="black"/>
<path d="M113.162 257.288H93.7525C93.4534 257.288 93.1952 257.546 93.1952 257.859V258.837H93.3447V257.859C93.3447 257.628 93.535 257.437 93.7525 257.437H113.162C113.651 257.437 114.045 257.845 114.045 258.348C114.045 258.62 113.936 258.864 113.733 259.041L113.828 259.15C114.059 258.946 114.195 258.661 114.195 258.348C114.195 257.75 113.733 257.288 113.162 257.288Z" fill="black"/>
<path d="M111.354 255.82C109.913 255.195 103.579 252.3 103.511 252.272L103.457 252.408C103.525 252.435 109.859 255.317 111.299 255.956C112.713 256.567 113.094 257.383 113.107 257.383L113.243 257.315C113.216 257.288 112.822 256.459 111.354 255.82Z" fill="black"/>
<path d="M105.469 143.103L86.2225 152.06C86.2225 152.06 87.5138 213.182 91.9855 248.467C91.9855 248.467 97.9251 250.342 105.401 246.836L105.713 156.735L105.618 150.564L105.469 143.103Z" fill="#2169C2"/>
<path d="M70.8501 248.399C70.8501 248.399 76.4091 251.892 84.0206 248.874L93.2223 162.294L97.1367 139.134L70.5375 152.644C70.5375 152.644 67.9278 212.897 70.8501 248.399Z" fill="#2169C2"/>
<path d="M71.8695 101.104C71.7744 101.131 69.5589 101.865 68.159 103.741C68.1182 103.809 68.1318 103.89 68.1861 103.931C68.2133 103.944 68.2405 103.958 68.2677 103.958C68.3085 103.958 68.3492 103.944 68.3764 103.904C69.722 102.11 71.9239 101.376 71.9511 101.362C72.019 101.335 72.0598 101.253 72.0462 101.185C72.0191 101.117 71.9375 101.077 71.8695 101.104Z" fill="#23121D"/>
<path d="M72.1277 102.395C72.0326 102.422 69.8171 103.156 68.4171 105.032C68.3764 105.1 68.39 105.181 68.4443 105.222C68.4715 105.235 68.4987 105.249 68.5259 105.249C68.5667 105.249 68.6074 105.235 68.6346 105.195C69.9802 103.401 72.1821 102.667 72.2093 102.653C72.2772 102.626 72.318 102.544 72.3044 102.476C72.2772 102.422 72.2093 102.381 72.1277 102.395Z" fill="#23121D"/>
<path d="M103.675 100.601C101.201 98.8747 85.7196 98.3854 85.7196 98.3854C85.5565 98.3854 82.3624 98.3446 79.0868 98.4398L75.6617 98.4669H75.5393H75.4986C72.2229 98.5349 61.5533 97.8145 50.6798 123.422C51.006 123.693 59.6776 127.581 62.6543 129.021C63.0348 129.198 65.4949 130.177 65.794 130.326C67.3842 127.771 68.023 124.957 69.9667 121.899L70.0482 151.706L70.1434 166.141C70.1434 166.141 80.5547 168.343 85.6925 165.991C85.6925 165.991 85.7604 163.749 85.8692 160.079H95.0844C95.2204 162.118 95.3563 163.694 95.4922 164.659C95.4922 164.659 99.0261 166.127 105.319 163.912C105.319 163.912 105.102 138.577 104.925 122.959L107.752 130.938L119.468 121.818C107.154 102.218 105.074 101.321 103.675 100.601Z" fill="white"/>
<path d="M100.793 99.595C100.793 99.595 101.364 118.189 101.364 121.505C101.364 124.821 78.3256 123.381 77.6189 122.973C76.8985 122.552 76.7218 98.3309 76.7218 98.3309C76.7218 98.3309 76.2733 98.195 74.7102 98.4804C74.7102 98.4804 74.1393 130.843 73.8403 134.445C73.5413 138.046 69.9395 140.534 69.9395 140.534L70.0346 173.412L79.5217 175.56L105.686 164.809C105.686 164.809 105.931 111.366 102.791 100.125L100.793 99.595Z" fill="#2169C2"/>
<g opacity="0.5">
<path d="M81.8458 127.173C81.8458 127.173 82.8924 135.11 91.2514 134.349C99.3114 133.615 98.7269 126.48 98.7269 126.48C98.7269 126.48 92.5019 127.567 81.8458 127.173Z" fill="#488ACC"/>
</g>
<path d="M69.6656 150.612L70.0734 150.614L70.1598 121.907L69.752 121.906L69.6656 150.612Z" fill="black"/>
<path d="M80.7314 98.3989C80.7314 98.3989 82.8382 102.422 88.5604 102.205C94.2825 102.001 95.0437 98.9426 95.0437 98.9426C90.4088 98.1543 80.7314 98.3989 80.7314 98.3989Z" fill="#FE9F73"/>
<path d="M92.4748 165.189L92.4612 165.257L83.7217 248.671L84.1294 248.711L92.8554 165.366L97.3815 160.745L97.0825 160.473L92.4748 165.189Z" fill="black"/>
<path d="M92.1756 248.276L88.533 206.726L88.1252 206.767L91.795 248.63L91.9446 248.657C91.9718 248.657 93.4668 248.902 95.6687 248.902C98.3191 248.902 102.016 248.548 105.468 247.012L105.305 246.645C99.6104 249.173 93.2358 248.426 92.1756 248.276Z" fill="black"/>
<path d="M101.269 108.484L100.861 108.498L101.174 120.717C101.174 120.73 101.35 121.926 100.562 122.239C98.9853 122.851 95.9272 123.557 90.2865 123.449L90.2729 123.856C90.6943 123.87 91.1156 123.87 91.5098 123.87C96.4301 123.87 99.2164 123.204 100.698 122.62C101.744 122.212 101.581 120.839 101.568 120.676L101.269 108.484Z" fill="black"/>
<path d="M80.547 106.051L80.8143 106.359L82.7851 104.648L82.5178 104.34L80.547 106.051Z" fill="black"/>
<path d="M80.5317 107.339L80.7991 107.647L82.7696 105.936L82.5023 105.629L80.5317 107.339Z" fill="black"/>
<path d="M55.3005 119.242L55.9923 121.758L56.3855 121.65L55.6937 119.134L55.3005 119.242Z" fill="black"/>
<path d="M56.4788 119.81L57.1707 122.326L57.5638 122.218L56.872 119.702L56.4788 119.81Z" fill="black"/>
<path d="M73.9354 126.48L73.6907 133.806C73.6907 133.86 73.7179 137.611 69.8442 140.357L70.0753 140.683C74.1257 137.815 74.0985 133.969 74.0985 133.806L74.3432 126.48L74.9276 98.4124L74.5198 98.3988L73.9354 126.48Z" fill="black"/>
<path d="M65.9298 129.959C64.8425 129.606 58.6854 127.526 50.938 123.34C51.604 121.777 56.7961 109.816 61.2271 105.426L60.9416 105.14C56.1573 109.884 50.5438 123.231 50.4895 123.367L50.4215 123.53L50.5846 123.612C59.2019 128.301 65.9162 130.394 65.9842 130.408L66.1473 130.462L72.3724 116.938L72.0054 116.761L65.9298 129.959Z" fill="black"/>
<path d="M105.102 133.031L111.843 127.757L104.898 121.138L105.102 133.031Z" fill="white"/>
<path d="M102.995 100.071L102.968 99.9483L100.847 99.4047L100.752 99.7988L102.628 100.275C102.818 101.321 104.123 108.647 104.504 117.224C104.925 126.602 105.442 149.396 105.469 154.696C105.469 154.995 105.414 184.34 105.401 188.717C105.387 193.093 105.292 210.464 105.292 210.641H105.7C105.7 210.464 105.795 193.093 105.809 188.717C105.822 184.34 105.876 154.995 105.876 154.696C105.849 149.382 105.333 126.588 104.911 117.21C104.49 107.954 103.009 100.152 102.995 100.071Z" fill="black"/>
<path d="M71.5297 146.365C70.2112 147.099 68.7297 147.547 68.7297 147.547L70.986 149.233C70.986 149.233 72.4403 147.71 72.6714 147.262C72.916 146.8 72.8617 145.631 71.5297 146.365Z" fill="#EF7162"/>
<path d="M78.8423 151.217C77.8229 150.075 74.2074 148.308 73.0793 148.159C72.4677 148.077 69.9668 147.724 67.8193 147.425C67.7921 147.384 67.5474 147.166 67.5202 147.126L62.3961 154.057L64.965 154.846C71.5842 156.191 75.2268 157.387 75.2268 157.387C76.355 158.026 77.4287 158.611 77.918 158.883C78.1899 159.032 78.5025 159.046 78.7743 158.923C79.1549 158.747 79.4267 158.298 78.6112 157.156C78.6112 157.156 80.6772 157.129 78.951 155.172C78.951 155.172 81.0713 155.553 79.3588 153.228C79.3724 153.215 80.6908 153.296 78.8423 151.217Z" fill="#F59F73"/>
<path d="M76.477 155.362C76.4634 155.349 76.4498 155.349 76.4362 155.349C76.3819 155.335 76.3139 155.362 76.2867 155.417C76.246 155.485 76.2731 155.566 76.3411 155.607C77.2654 156.137 78.5158 157.238 78.5294 157.252C78.5838 157.306 78.6789 157.292 78.7197 157.238C78.7741 157.184 78.7605 157.089 78.7061 157.048C78.6653 156.993 77.4285 155.906 76.477 155.362Z" fill="#EF7162"/>
<path d="M76.8169 153.663C76.8033 153.663 76.8033 153.663 76.7897 153.65C76.7218 153.636 76.6674 153.663 76.6402 153.731C76.613 153.799 76.6402 153.881 76.7218 153.908C77.9178 154.397 78.8693 155.254 78.8829 155.267C78.9372 155.322 79.0324 155.308 79.0731 155.254C79.1275 155.199 79.1139 155.118 79.0596 155.063C79.0188 155.023 78.0538 154.166 76.8169 153.663Z" fill="#EF7162"/>
<path d="M77.5236 151.788C77.5101 151.788 77.5101 151.774 77.4965 151.774C77.4285 151.761 77.3741 151.788 77.347 151.856C77.3198 151.924 77.347 152.005 77.4149 152.032C78.4343 152.481 79.277 153.296 79.277 153.31C79.3314 153.364 79.4129 153.364 79.4673 153.31C79.5217 153.256 79.5217 153.174 79.4673 153.12C79.4401 153.079 78.5838 152.263 77.5236 151.788Z" fill="#EF7162"/>
<path d="M83.9255 248.684C78.1353 251.307 71.8559 248.643 71.0268 248.263C68.5531 234.521 70.1433 168.166 70.1705 167.486C70.1705 167.378 70.0889 167.282 69.9666 167.269C69.8579 167.269 69.7627 167.364 69.7627 167.473C69.7491 168.139 68.1453 234.888 70.6462 248.439L70.6598 248.535L70.755 248.575C70.8093 248.603 74.1801 250.234 78.38 250.234C80.2013 250.234 82.1721 249.935 84.0886 249.051C84.1973 249.01 84.2381 248.888 84.1973 248.779C84.1565 248.684 84.0342 248.643 83.9255 248.684Z" fill="black"/>
<path d="M151.586 130.829C151.531 130.788 151.491 130.734 151.463 130.666L151.395 130.381C151.246 130.408 150.865 129.484 150.43 128.26C148.949 128.695 147.698 129.13 147.073 129.307L146.91 129.579L142.207 131.115C141.99 131.454 138.402 139.256 138.809 140.969L145.456 140.452C146.665 140.357 147.834 140.058 148.935 139.569C150.539 138.862 152.537 137.87 152.768 137.598C153.38 136.85 152.836 136.116 152.564 135.151C152.225 133.765 151.885 132.12 151.586 130.829Z" fill="#F9B59D"/>
<path d="M149.696 120.486C149.56 119.616 148.745 119.018 147.875 119.154L129.485 122.049C128.615 122.185 128.017 123 128.153 123.87L132.476 151.285C132.611 152.155 133.427 152.753 134.297 152.617L152.687 149.722C153.556 149.586 154.155 148.77 154.019 147.9L149.696 120.486Z" fill="#1E2C48"/>
<path d="M152.266 130.571L148.541 131.115C148.052 131.183 147.726 131.808 147.835 132.487C147.93 133.099 148.378 133.52 148.84 133.452L152.578 132.909C152.701 132.895 153.136 132.46 153.054 131.74C152.972 130.992 152.266 130.571 152.266 130.571Z" fill="#F9B59D"/>
<path d="M152.782 132.841L148.663 133.547C148.174 133.629 147.862 134.268 147.984 134.934C148.093 135.545 148.555 135.953 149.003 135.872L153.013 135.179C153.135 135.151 153.421 134.54 153.325 133.806C153.23 133.085 152.782 132.841 152.782 132.841Z" fill="#F9B59D"/>
<path d="M152.836 132.623L148.813 133.221C148.432 133.276 148.079 132.936 147.998 132.446C147.957 132.188 147.998 131.916 148.106 131.713C148.215 131.495 148.378 131.373 148.582 131.346L152.265 130.815C152.347 130.802 152.415 130.693 152.401 130.571C152.388 130.448 152.306 130.367 152.211 130.381L148.528 130.911C148.256 130.951 147.998 131.155 147.848 131.454C147.685 131.767 147.631 132.147 147.699 132.542C147.821 133.262 148.337 133.765 148.881 133.683L152.904 133.085C152.918 133.085 152.931 133.085 152.931 133.072C152.999 133.045 153.04 132.949 153.027 132.841C153.013 132.691 152.931 132.61 152.836 132.623Z" fill="#F07162"/>
<path d="M151.586 128.315L147.834 128.926C147.345 129.008 147.019 129.66 147.155 130.34C147.277 130.938 147.726 131.318 148.161 131.25L152.17 130.598C152.293 130.584 152.592 129.959 152.496 129.225C152.442 128.804 152.007 128.247 151.586 128.315Z" fill="#F9B59D"/>
<path d="M152.143 130.353L148.133 131.019C147.753 131.087 147.399 130.748 147.304 130.245C147.263 129.986 147.291 129.715 147.399 129.497C147.508 129.28 147.671 129.144 147.862 129.116L151.531 128.518C151.613 128.505 151.681 128.396 151.667 128.274C151.654 128.151 151.572 128.07 151.477 128.084L147.807 128.682C147.535 128.722 147.277 128.926 147.128 129.239C146.964 129.551 146.924 129.932 146.992 130.326C147.114 131.047 147.644 131.536 148.188 131.454L152.197 130.788C152.211 130.788 152.225 130.788 152.225 130.775C152.292 130.748 152.333 130.639 152.32 130.544C152.32 130.435 152.238 130.34 152.143 130.353Z" fill="#F07162"/>
<path d="M152.823 134.866L148.922 135.613C148.541 135.681 148.215 135.382 148.134 134.893C148.093 134.635 148.12 134.363 148.229 134.145C148.337 133.928 148.501 133.792 148.691 133.765L152.809 133.058C152.891 133.045 152.959 132.936 152.945 132.813C152.931 132.691 152.85 132.61 152.755 132.623L148.636 133.33C148.365 133.371 148.106 133.588 147.957 133.901C147.807 134.213 147.753 134.608 147.821 134.988C147.943 135.709 148.446 136.157 148.99 136.062L152.891 135.314C152.904 135.314 152.904 135.314 152.918 135.301C152.986 135.274 153.027 135.165 153.013 135.056C152.999 134.934 152.918 134.852 152.823 134.866Z" fill="#F07162"/>
<path d="M152.714 135.287L148.881 136.008C148.432 136.089 148.133 136.687 148.256 137.312C148.364 137.883 148.786 138.25 149.207 138.169L152.945 137.462C153.053 137.435 153.312 136.864 153.23 136.184C153.135 135.505 152.714 135.287 152.714 135.287Z" fill="#F9B59D"/>
<path d="M152.864 137.095L149.126 137.802C148.786 137.87 148.446 137.571 148.365 137.122C148.324 136.877 148.351 136.633 148.446 136.442C148.542 136.239 148.691 136.116 148.868 136.075L152.701 135.355C152.782 135.342 152.85 135.233 152.823 135.11C152.809 134.988 152.728 134.907 152.633 134.92L148.8 135.641C148.542 135.695 148.311 135.885 148.161 136.184C148.012 136.483 147.971 136.85 148.039 137.204C148.161 137.883 148.664 138.332 149.18 138.237L152.918 137.53C152.932 137.53 152.932 137.53 152.945 137.516C153.013 137.489 153.054 137.38 153.041 137.272C153.041 137.163 152.959 137.081 152.864 137.095Z" fill="#F07162"/>
<path d="M218.442 139.406L228.88 142.07L232.903 134.975C232.903 134.975 214.432 126.276 213.956 126.262L218.442 139.406Z" fill="#F89144"/>
<path d="M226.923 105.875C226.08 106.459 224.802 107.56 223.62 109.504C222.152 111.923 217.585 118.501 215.234 121.886L217.517 133.765L218.088 133.819L218.183 133.833C219.243 132.773 220.371 131.495 221.459 130.19C221.5 130.15 221.527 130.095 221.567 130.054C221.608 130.014 221.635 129.959 221.676 129.919C223.266 127.961 224.762 125.963 225.822 124.495C226.773 123.177 227.358 122.307 227.358 122.307C227.358 122.307 226.121 118.624 226.053 116.327C226.053 116.327 226.8 114.927 227.901 105.317C227.901 105.317 227.521 105.467 226.936 105.861C226.936 105.861 226.923 105.861 226.923 105.875Z" fill="#F9B59D"/>
<path d="M237.13 150.932C230.797 148.784 225.387 155.498 225.536 166.562C226.121 209.146 227.575 246.727 227.738 248.29L227.602 256.092L237.633 256.228L237.742 249.065C237.946 246.863 245.041 168.683 245.258 162.24C245.068 158.815 239.903 152.073 237.13 150.932Z" fill="#F9A58C"/>
<path d="M237.823 257.247H229.07L225.523 253.387L219.026 257.247H217.626C217.15 257.247 216.701 257.573 216.606 258.049C216.484 258.688 216.973 259.245 217.585 259.245H237.932C238.081 259.245 238.204 259.123 238.204 258.973V257.641C238.217 257.424 238.041 257.247 237.823 257.247Z" fill="#F89144"/>
<path d="M234.031 252.694C234.031 252.694 230.633 255.1 227.643 252.191L220.208 255.494C220.208 255.494 218.169 256.173 217.626 257.274H237.755V253.659C237.742 253.659 236.274 251.675 234.031 252.694Z" fill="#2169C2"/>
<path d="M237.823 253.659H237.674V257.234H237.823V253.659Z" fill="black"/>
<path d="M230.552 253.523L230.524 253.673C230.524 253.673 230.701 253.7 230.987 253.7C231.639 253.7 232.876 253.577 234.072 252.748L233.99 252.626C232.319 253.781 230.565 253.523 230.552 253.523Z" fill="black"/>
<path d="M235.848 256.433L235.932 256.557L236.879 255.92L236.796 255.796L235.848 256.433Z" fill="black"/>
<path d="M235.197 256.26L235.28 256.384L236.227 255.747L236.143 255.623L235.197 256.26Z" fill="black"/>
<path d="M237.728 257.179H217.612C217.028 257.179 216.539 257.655 216.539 258.253C216.539 258.566 216.674 258.865 216.919 259.069L217.014 258.96C216.81 258.783 216.688 258.525 216.688 258.253C216.688 257.75 217.096 257.329 217.612 257.329H237.728C237.959 257.329 238.15 257.519 238.15 257.75V258.742H238.299V257.75C238.299 257.438 238.041 257.179 237.728 257.179Z" fill="black"/>
<path d="M219.474 255.698C217.952 256.35 217.544 257.179 217.531 257.22L217.667 257.288C217.667 257.274 218.074 256.473 219.542 255.847C221.037 255.209 227.616 252.3 227.684 252.259L227.63 252.123C227.548 252.15 220.97 255.059 219.474 255.698Z" fill="black"/>
<path d="M254.541 164.428C253.767 161.085 247.446 154.493 244.483 153.365C237.783 151.271 233.515 157.823 235.554 168.642C243.396 210.26 251.266 246.999 251.687 248.535L252.883 256.16L262.941 256.296L261.827 249.296C261.664 247.148 255.425 170.721 254.541 164.428Z" fill="#FCB5A4"/>
<path d="M263.308 257.288H254.555L250.341 253.51L244.51 257.288H243.111C242.635 257.288 242.241 257.601 242.227 258.063C242.213 258.688 242.798 259.232 243.41 259.232H263.757C263.906 259.232 264.001 259.109 263.988 258.973L263.757 257.682C263.729 257.465 263.526 257.288 263.308 257.288Z" fill="#F89144"/>
<path d="M258.728 252.844C258.728 252.844 255.738 255.195 252.258 252.354L245.394 255.576C245.394 255.576 243.478 256.242 243.111 257.315H263.24L262.629 253.809C262.615 253.781 260.807 251.851 258.728 252.844Z" fill="#2169C2"/>
<path d="M262.547 253.781L263.145 257.274H263.294L262.696 253.781H262.547Z" fill="black"/>
<path d="M255.398 253.659V253.809C255.398 253.809 255.574 253.836 255.86 253.836C256.512 253.836 257.722 253.713 258.782 252.912L258.673 252.789C257.205 253.904 255.411 253.659 255.398 253.659Z" fill="black"/>
<path d="M261.201 256.527L261.31 256.636L262.139 256.01L262.044 255.902L261.201 256.527Z" fill="black"/>
<path d="M260.495 256.35L260.59 256.459L261.432 255.834L261.324 255.725L260.495 256.35Z" fill="black"/>
<path d="M263.186 257.22H243.07C242.486 257.22 242.078 257.696 242.187 258.267C242.241 258.579 242.431 258.865 242.703 259.068L242.785 258.96C242.553 258.783 242.39 258.538 242.336 258.267C242.254 257.764 242.594 257.369 243.097 257.369H263.213C263.444 257.369 263.675 257.56 263.716 257.791L263.879 258.756H264.029L263.866 257.791C263.811 257.478 263.512 257.22 263.186 257.22Z" fill="black"/>
<path d="M244.687 255.779C243.274 256.418 243.016 257.234 243.002 257.261L243.151 257.329C243.151 257.315 243.423 256.527 244.769 255.915C246.155 255.29 252.231 252.436 252.299 252.409L252.217 252.273C252.163 252.3 246.074 255.154 244.687 255.779Z" fill="black"/>
<path d="M254.025 156.409C251.701 150.891 249.186 145.019 247.487 140.398C246.019 136.415 245.163 133.371 245.598 132.311C246.563 129.905 253.114 111.542 252.734 110.768C252.639 110.577 251.443 106.84 249.091 105.847C245.136 104.189 233.664 104.869 229.614 104.869C228.5 104.869 227.453 105.372 226.76 106.255C224.911 108.606 221.364 113.513 220.575 117.482C220.317 118.773 220.222 120.146 220.249 121.532C220.304 124.21 220.779 126.915 221.35 129.198C221.391 129.388 221.445 129.565 221.486 129.742C221.88 131.278 222.302 132.596 222.628 133.52C222.968 134.499 222.981 135.559 222.682 136.551C221.445 140.629 218.374 152.019 219.23 162.24C219.352 163.735 219.474 165.325 219.597 166.956C220.494 179.135 221.255 193.814 221.255 193.814C221.255 193.814 251.769 196.6 264.368 192.088C264.368 192.088 259.679 169.947 254.677 157.945C254.46 157.442 254.242 156.926 254.025 156.409Z" fill="#245188"/>
<path d="M230.484 104.882C230.484 104.882 227.888 111.338 229.614 113.16C231.34 114.995 234.806 114.56 236.274 113.989C238.761 113.01 244.918 104.991 244.918 104.991L237.185 104.624L230.484 104.882Z" fill="#F9B59D"/>
<path d="M226.936 105.861C226.936 105.861 226.923 105.861 226.909 105.875C226.8 106.01 226.08 107.016 224.177 109.626C222.261 112.263 220.997 114.9 220.426 117.468C219.542 121.437 220.344 126.534 221.391 130.014C221.391 130.041 221.404 130.068 221.418 130.082C221.431 130.109 221.431 130.15 221.445 130.177C221.459 130.231 221.486 130.299 221.499 130.354C221.649 130.856 221.798 131.319 221.934 131.726C222.261 132.759 222.519 133.534 222.641 134.214C222.791 135.016 222.777 135.695 222.532 136.511C222.492 136.674 222.424 136.878 222.342 137.136C221.731 139.107 220.235 143.918 219.474 151.081C219.148 154.126 218.958 157.605 219.012 161.479H219.162H219.311C219.257 157.605 219.447 154.126 219.773 151.068C220.534 143.959 222.016 139.188 222.628 137.231C222.709 136.973 222.777 136.769 222.818 136.606C223.063 135.749 223.09 135.056 222.94 134.254C222.818 133.534 222.56 132.732 222.206 131.645C222.057 131.169 221.88 130.625 221.69 130C221.676 129.973 221.676 129.932 221.663 129.905C220.983 127.662 220.412 124.754 220.344 121.913C220.303 120.391 220.412 118.896 220.711 117.536C221.268 115.008 222.519 112.412 224.408 109.803C226.474 106.975 227.154 106.038 227.167 106.024L227.045 105.943L226.936 105.861Z" fill="#1D1D1B"/>
<path d="M221.554 130.041L221.432 129.959C221.432 129.959 221.418 129.986 221.391 130.014C221.133 130.353 219.692 132.215 218.074 133.819L218.17 133.833L218.455 133.86C219.841 132.46 221.051 130.938 221.5 130.367C221.54 130.313 221.568 130.272 221.595 130.231C221.636 130.19 221.649 130.15 221.663 130.136L221.554 130.041Z" fill="#1D1D1B"/>
<g opacity="0.1">
<path d="M238.721 125.392C234.466 123.109 230.633 124.142 225.536 124.509C221.337 124.794 220.44 122.416 220.249 121.56C220.331 126.303 221.799 131.169 222.628 133.548C222.968 134.526 222.981 135.586 222.682 136.579C221.445 140.656 218.374 152.046 219.23 162.267C219.352 163.762 219.474 165.353 219.597 166.984C219.624 166.821 221.704 151.965 227.045 144.489C232.428 136.973 227.317 136.973 227.575 132.052C227.834 127.132 232.441 128.22 234.779 128.315C237.117 128.396 242.975 127.676 238.721 125.392Z" fill="#FD7583"/>
</g>
<path d="M251.674 150.17C250.029 146.188 248.153 141.662 247.066 138.767C245.109 133.561 245.72 132.392 245.72 132.392L245.734 132.379L249.58 121.288L249.309 121.193L245.476 132.256C245.381 132.433 244.878 133.779 246.794 138.876C247.895 141.784 249.757 146.297 251.415 150.279C252.856 153.759 254.215 157.048 254.868 158.788C254.922 158.896 259.693 170.572 264.232 192.101L264.518 192.047C259.978 170.477 255.194 158.788 255.139 158.679C254.473 156.953 253.114 153.664 251.674 150.17Z" fill="#1D1D1B"/>
<path d="M239.495 85.147L238.843 102.776L243.478 103.605L244.116 102.123C244.116 102.123 244.184 103.319 244.171 103.727L245.367 103.945C245.367 103.945 247.881 93.1934 246.21 89.4964C244.524 85.7994 239.495 85.147 239.495 85.147Z" fill="#49263E"/>
<path d="M236.546 85.6363C236.559 85.4596 234.48 85.0654 234.48 85.0654L233.039 106.391L239.984 108.471L240.474 101.851C245.652 100.818 243.6 91.2226 243.6 91.2226C243.6 91.2226 236.532 85.813 236.546 85.6363Z" fill="#F9B59D"/>
<path d="M240.8 95.1914C240.664 94.4303 241.208 93.7643 241.221 93.7507C241.248 93.7235 241.235 93.6827 241.208 93.6556C241.18 93.6284 241.14 93.642 241.112 93.6692C241.085 93.6963 240.528 94.3895 240.664 95.2186C240.745 95.7215 241.085 96.1565 241.656 96.5099C241.575 96.673 241.276 97.1623 240.854 97.2302C240.813 97.2302 240.8 97.271 240.8 97.2982C240.8 97.3254 240.827 97.3526 240.854 97.3526H240.868C241.439 97.271 241.778 96.537 241.806 96.5099L241.833 96.4555L241.778 96.4283C241.208 96.0885 240.881 95.6672 240.8 95.1914Z" fill="#F07162"/>
<path d="M240.338 103.863L240.474 101.838C240.474 101.838 237.062 101.403 235.064 99.9349C235.064 99.9349 237.728 102.871 240.338 103.863Z" fill="#F07162"/>
<path d="M239.06 94.7835C239.263 94.7835 239.427 94.6192 239.427 94.4165C239.427 94.2139 239.263 94.0496 239.06 94.0496C238.857 94.0496 238.693 94.2139 238.693 94.4165C238.693 94.6192 238.857 94.7835 239.06 94.7835Z" fill="black"/>
<path d="M242.689 95.1506C242.892 95.1506 243.056 94.9863 243.056 94.7836C243.056 94.5809 242.892 94.4166 242.689 94.4166C242.487 94.4166 242.322 94.5809 242.322 94.7836C242.322 94.9863 242.487 95.1506 242.689 95.1506Z" fill="black"/>
<path d="M238.734 98.5076C239.563 98.9425 240.352 98.1678 240.352 98.1678C240.352 98.1678 238.109 97.0125 238.068 96.9989C238.055 96.9989 237.892 98.0727 238.734 98.5076Z" fill="#FBFDFC"/>
<path d="M234.48 85.0655C230.823 86.3839 230.157 94.2944 230.157 94.2944L233.705 100.451C233.705 100.451 231.693 94.7565 235.948 93.3157C240.202 91.875 241.439 87.5528 241.439 87.5528C242.037 85.0927 237.144 84.1005 234.48 85.0655Z" fill="#49263E"/>
<path d="M240.12 92.704C239.114 92.2691 238.068 92.7856 238.027 92.8128C237.959 92.84 237.932 92.9215 237.973 92.9895C237.986 93.0167 238 93.0302 238.027 93.0438C238.068 93.0574 238.109 93.071 238.149 93.0438C238.163 93.0438 239.128 92.5545 240.025 92.9487C240.093 92.9759 240.161 92.9487 240.188 92.8807C240.215 92.8128 240.188 92.7312 240.12 92.704Z" fill="#49263E"/>
<path d="M241.683 92.9214C241.615 92.9214 241.561 92.9894 241.561 93.0573C241.561 93.1253 241.629 93.1797 241.697 93.1797C242.676 93.1117 243.423 93.8728 243.437 93.8864C243.45 93.9 243.477 93.9136 243.505 93.9272C243.545 93.9408 243.586 93.9272 243.613 93.9C243.668 93.8457 243.668 93.7641 243.613 93.7233C243.6 93.669 242.784 92.8399 241.683 92.9214Z" fill="#49263E"/>
<path d="M240.569 89.4691L241.031 89.2245L239.4 87.4575L240.569 89.4691Z" fill="#F9B498"/>
<path d="M229.369 89.6457C228.309 93.2203 227.793 101.09 227.793 101.09C228.214 101.267 228.663 101.416 229.111 101.566L229.791 99.6085C229.791 99.6085 229.94 100.981 230.022 101.838C232.033 102.395 233.814 102.626 233.814 102.626L234.86 93.5194L235.676 84.7798C235.676 84.7798 230.674 85.2419 229.369 89.6457Z" fill="#49263E"/>
<path d="M233.365 97.0128C234.484 97.0128 235.39 96.1061 235.39 94.9876C235.39 93.8691 234.484 92.9624 233.365 92.9624C232.247 92.9624 231.34 93.8691 231.34 94.9876C231.34 96.1061 232.247 97.0128 233.365 97.0128Z" fill="#F9B498"/>
<path d="M233.515 94.1041C233.093 93.8323 232.549 93.9682 232.522 93.9682C232.482 93.9818 232.468 94.009 232.482 94.0497C232.495 94.0905 232.522 94.1041 232.563 94.0905C232.563 94.0905 233.066 93.9682 233.447 94.2128C233.61 94.3216 233.732 94.4847 233.814 94.7021C233.61 94.5526 233.215 94.3623 232.767 94.607C232.454 94.7701 232.291 95.1371 232.386 95.5177C232.454 95.8439 232.713 96.1837 233.148 96.2108H233.161C233.202 96.2108 233.229 96.1837 233.229 96.1429C233.229 96.1021 233.202 96.0749 233.161 96.0749C232.767 96.0477 232.563 95.7487 232.509 95.4905C232.454 95.2458 232.509 94.8924 232.835 94.7293C233.419 94.4167 233.868 94.9196 233.881 94.9332L234.031 95.1099L233.99 94.8788C233.922 94.5255 233.759 94.2672 233.515 94.1041Z" fill="#F07162"/>
<path d="M246.699 106.69C246.672 106.704 246.645 106.717 246.617 106.731C245.938 107.084 245.381 107.533 245.082 108.117C243.736 110.713 236.627 130.544 236.627 130.544L217.884 136.837L219.42 142.654C219.42 142.654 240.284 141.145 242.825 138.114C244.348 136.307 250.382 119.725 253.033 112.317C254.406 108.443 250.355 104.828 246.699 106.69Z" fill="#F9B59D"/>
<path d="M218.468 133.847L218.183 133.819L218.088 133.806L217.517 133.752L215.234 121.872L212.039 105.236C212.039 105.236 210.911 95.3953 197.795 92.6089C198.298 92.8536 196.721 92.3915 196.721 92.3915C196.721 92.3915 184.747 92.4187 180.194 92.8944C173.112 93.6283 171.78 111.801 171.78 111.801C171.373 123.884 172.229 140.48 176.252 146.011C182.328 154.37 189.871 153.392 189.871 153.392L219.501 151.068C220.263 143.905 221.758 139.093 222.369 137.122C222.451 136.864 222.519 136.66 222.56 136.497C222.791 135.668 222.818 135.002 222.668 134.2L218.468 133.847Z" fill="#F89144"/>
<path d="M222.941 134.241L222.805 134.227L222.642 134.214C222.791 135.016 222.777 135.695 222.533 136.511C222.492 136.674 222.424 136.878 222.343 137.136C221.731 139.107 220.236 143.918 219.475 151.081H219.556L219.774 151.068L223.77 150.755L224.721 150.687C224.721 150.687 224.939 149.45 225.17 147.629C225.645 143.823 226.135 137.435 224.667 134.404L222.941 134.241Z" fill="#F89144"/>
<path d="M212.244 105.222C212.216 105.018 211.877 102.477 209.824 99.5952C207.894 96.904 204.034 93.4245 196.572 92.1741C196.45 92.1605 196.341 92.2284 196.314 92.3508C196.3 92.4731 196.368 92.5818 196.491 92.609C203.789 93.8323 207.568 97.2167 209.444 99.8263C211.482 102.667 211.795 105.249 211.809 105.277V105.29L216.009 127.173L214.541 129.497C214.473 129.606 214.513 129.742 214.609 129.796C214.622 129.796 214.636 129.81 214.636 129.81C214.731 129.851 214.853 129.81 214.908 129.728L216.484 127.255L216.471 127.173L212.244 105.222Z" fill="#21111D"/>
<path d="M201.818 244.825L201.981 255.766L213.562 255.603L213.358 243.384L201.818 244.825Z" fill="#FE9F73"/>
<path d="M222.288 254.896L213.521 251.131C210.028 254.488 206.141 251.675 206.141 251.675C203.517 250.506 201.805 252.789 201.805 252.789V257.546H225.468C225.482 255.942 222.288 254.896 222.288 254.896Z" fill="#33192C"/>
<path d="M226.202 257.573H201.818V259.245H226.202C226.365 259.245 226.515 259.109 226.515 258.933V257.886C226.501 257.709 226.365 257.573 226.202 257.573Z" fill="#472A31"/>
<path d="M211.102 257.573H212.719C213.738 255.983 215.329 253.496 216.117 252.259L214.853 251.715C213.915 253.183 212.012 256.146 211.102 257.573Z" fill="#D7E4F7"/>
<path d="M213.698 257.573H215.315C216.117 256.309 217.3 254.461 218.156 253.129L216.892 252.585C215.872 254.175 214.432 256.418 213.698 257.573Z" fill="#D7E4F7"/>
<path d="M181.852 244.825L182.029 255.766L193.609 255.603L193.405 243.384L181.852 244.825Z" fill="#FE9F73"/>
<path d="M216.552 154.832C216.185 152.44 213.698 151 211.441 151.869L197.279 157.306C195.77 157.891 194.791 159.359 194.846 160.976C195.226 172.271 196.898 216.417 200.405 245.314C200.636 247.216 202.253 248.657 204.17 248.644C206.29 248.644 209.253 248.385 212.515 247.379C214.092 246.89 215.193 245.463 215.22 243.805L216.647 155.906C216.647 155.689 216.633 155.485 216.606 155.267L216.552 154.832Z" fill="#F9B870"/>
<path d="M180.833 246.496C180.955 248.086 182.206 249.337 183.796 249.459C186.038 249.636 189.464 249.609 193.31 248.576C194.615 248.222 195.566 247.094 195.689 245.749L202.403 167.881L206.535 146.256L179.283 158.693C179.283 158.706 178.318 213.006 180.833 246.496Z" fill="#FEC786"/>
<path d="M174.961 141.417C175.192 143.592 176.497 175.764 180.112 178.414C183.728 181.065 218.265 178.523 219.067 175.383C219.868 172.244 215.179 138.617 215.179 138.617L174.961 141.417Z" fill="#F89144"/>
<path d="M186.201 107.41C186.079 107.424 185.997 107.533 186.011 107.655C187.221 117.441 190.333 133.004 190.36 133.167C190.374 133.235 190.428 133.303 190.496 133.33C190.537 133.344 190.578 133.357 190.619 133.344C190.741 133.317 190.809 133.208 190.795 133.086C190.768 132.936 187.656 117.373 186.446 107.614C186.432 107.492 186.31 107.397 186.201 107.41Z" fill="#21111D"/>
<path d="M209.729 109.286C209.607 109.313 209.525 109.422 209.552 109.544C210.599 115.47 211.632 133.371 211.645 133.548C211.659 133.67 211.754 133.765 211.877 133.751C211.931 133.751 211.972 133.724 212.012 133.697C212.067 133.656 212.094 133.588 212.08 133.52C212.067 133.344 211.034 115.416 209.987 109.463C209.96 109.34 209.851 109.259 209.729 109.286Z" fill="#21111D"/>
<path d="M190.605 132.8L184.788 131.264C184.666 131.237 184.557 131.305 184.516 131.414C184.489 131.522 184.543 131.631 184.638 131.672C184.652 131.672 184.652 131.686 184.666 131.686L190.483 133.221C190.605 133.249 190.714 133.181 190.755 133.072C190.795 132.95 190.728 132.827 190.605 132.8Z" fill="#21111D"/>
<path d="M224.694 150.415C224.354 150.456 189.98 154.071 181.349 150.687C172.813 147.343 172.215 128.546 172.215 128.355C172.215 128.22 172.093 128.097 171.957 128.111C171.821 128.111 171.699 128.233 171.712 128.369C171.74 129.157 172.324 147.697 181.172 151.163C184.013 152.277 189.477 152.658 195.58 152.658C208.261 152.658 223.797 151.027 224.748 150.918C224.884 150.904 224.993 150.782 224.979 150.633C224.965 150.51 224.843 150.401 224.694 150.415Z" fill="#21111D"/>
<path d="M193.881 96.1157L186.419 93.8595L182.165 100.982C182.165 100.982 193.242 99.8127 193.677 99.8399C194.112 99.8807 197.51 96.3604 197.523 96.1021C197.537 95.8575 196.898 92.8809 196.898 92.8809L193.881 96.1157Z" fill="#F89144"/>
<path d="M182.79 178.931C179.201 178.673 178.712 175.628 177.897 170.585C177.747 169.675 177.598 168.737 177.421 167.731C176.211 161.03 175.667 144.788 175.667 144.625C175.667 144.489 175.545 144.38 175.409 144.38C175.409 144.38 175.409 144.38 175.396 144.38C175.26 144.38 175.137 144.503 175.151 144.638C175.151 144.802 175.695 161.085 176.918 167.826C177.095 168.832 177.244 169.77 177.394 170.667C178.223 175.777 178.766 179.162 182.749 179.447H182.762C182.898 179.447 183.007 179.339 183.021 179.216C183.034 179.067 182.926 178.944 182.79 178.931Z" fill="#21111D"/>
<path d="M202.335 254.896L193.568 251.131C190.075 254.488 186.188 251.675 186.188 251.675C183.564 250.506 181.852 252.789 181.852 252.789V257.546H205.515C205.515 255.942 202.335 254.896 202.335 254.896Z" fill="#49263E"/>
<path d="M206.236 257.573H181.852V259.245H206.236C206.399 259.245 206.548 259.109 206.548 258.933V257.886C206.548 257.709 206.413 257.573 206.236 257.573Z" fill="#683D46"/>
<path d="M191.149 257.573H192.766C193.785 255.983 195.376 253.496 196.164 252.259L194.9 251.715C193.962 253.183 192.059 256.146 191.149 257.573Z" fill="#D7E4F7"/>
<path d="M193.745 257.573H195.362C196.164 256.309 197.347 254.461 198.203 253.129L196.939 252.585C195.92 254.175 194.479 256.418 193.745 257.573Z" fill="#D7E4F7"/>
<path d="M216.335 127.39L215.94 129.551L216.702 133.819L218.509 133.942C218.509 133.942 222.03 132.148 222.043 132.08C222.057 131.998 221.296 129.687 221.296 129.687L216.335 127.39Z" fill="#F89144"/>
<path d="M216.335 127.01C216.226 126.969 216.09 127.01 216.049 127.119C215.995 127.227 216.049 127.363 216.158 127.404L221.486 129.742C221.445 129.565 221.391 129.388 221.35 129.198L216.335 127.01Z" fill="#21111D"/>
<path d="M192.154 74.722C192.154 74.722 188.376 73.5259 185.25 74.9394C183.442 75.7549 182.368 77.6578 182.559 79.6286L182.749 81.5587L192.304 76.3666C192.304 76.3666 193.949 76.9646 193.799 76.7472C193.636 76.5433 192.154 74.722 192.154 74.722Z" fill="#FE9F73"/>
<path d="M193.949 85.2013L192.671 75.2928L182.531 79.4248L183.306 87.5799C183.306 87.5799 183.456 90.5021 186.052 90.6245L185.943 94.5525C185.902 96.0204 186.894 97.3117 188.335 97.6243C189.028 97.7738 189.858 97.8553 190.782 97.7738C193.69 97.502 195.063 95.1642 195.199 94.0496C195.335 92.9351 194.112 87.7838 194.112 87.7838L193.949 85.2013Z" fill="#FE9F73"/>
<path d="M189.803 81.5722C189.776 81.5586 187.737 80.3081 186.555 81.8848C186.514 81.9392 186.528 82.0207 186.582 82.0615C186.637 82.1023 186.718 82.0887 186.759 82.0343C187.805 80.6343 189.613 81.7353 189.681 81.7897C189.708 81.8032 189.749 81.8168 189.776 81.8032C189.803 81.7897 189.831 81.7761 189.844 81.7489C189.885 81.6809 189.858 81.5994 189.803 81.5722Z" fill="#4C222E"/>
<path d="M182.369 81.2189C182.314 81.2597 182.314 81.3412 182.369 81.3956C182.409 81.45 182.491 81.45 182.545 81.3956C183.089 80.8655 184.19 81.6946 184.204 81.6946C184.231 81.7082 184.258 81.7218 184.285 81.7218C184.326 81.7218 184.353 81.7082 184.38 81.6675C184.421 81.6131 184.407 81.5315 184.353 81.4908C184.285 81.4636 183.062 80.5393 182.369 81.2189Z" fill="#4C222E"/>
<path d="M187.887 83.6519C188.089 83.6519 188.254 83.4876 188.254 83.285C188.254 83.0823 188.089 82.918 187.887 82.918C187.684 82.918 187.52 83.0823 187.52 83.285C187.52 83.4876 187.684 83.6519 187.887 83.6519Z" fill="black"/>
<path d="M183.986 83.6519C184.189 83.6519 184.353 83.4876 184.353 83.285C184.353 83.0823 184.189 82.918 183.986 82.918C183.783 82.918 183.619 83.0823 183.619 83.285C183.619 83.4876 183.783 83.6519 183.986 83.6519Z" fill="black"/>
<path d="M196.246 76.788C195.213 74.1648 192.141 74.5997 192.141 74.5997L192.508 75.3473L191.516 79.0443L193.392 87.9062C197.238 87.9469 196.178 82.5782 196.123 81.7762C196.083 80.9607 197.292 79.4113 196.246 76.788Z" fill="#4C222E"/>
<path d="M192.698 84.8887C193.907 84.8887 194.887 83.9089 194.887 82.7004C194.887 81.4918 193.907 80.5121 192.698 80.5121C191.49 80.5121 190.51 81.4918 190.51 82.7004C190.51 83.9089 191.49 84.8887 192.698 84.8887Z" fill="#FE9F73"/>
<path d="M193.337 82.2927C192.82 82.0344 192.399 82.2791 192.195 82.4422C192.263 82.1839 192.399 81.9936 192.589 81.8577C192.997 81.5859 193.554 81.7082 193.554 81.7082C193.582 81.7218 193.622 81.6946 193.622 81.6674C193.636 81.6402 193.609 81.5995 193.582 81.5995C193.554 81.5995 192.97 81.4636 192.521 81.7762C192.263 81.9529 192.1 82.2383 192.046 82.6189L192.019 82.8363L192.154 82.6732C192.168 82.646 192.644 82.0888 193.296 82.415C193.65 82.5917 193.718 82.9723 193.677 83.2441C193.622 83.5295 193.405 83.8693 192.997 83.9101H192.984C192.956 83.9101 192.929 83.9373 192.929 83.978C192.929 84.0052 192.956 84.0324 192.997 84.0324H193.011C193.459 83.9916 193.731 83.6247 193.799 83.2713C193.867 82.8499 193.69 82.4694 193.337 82.2927Z" fill="#F07162"/>
<path d="M186.038 90.6247L185.957 93.5197C192.005 92.4732 191.706 87.5801 191.706 87.5801C190.075 91.0324 186.038 90.6247 186.038 90.6247Z" fill="#F89144"/>
<path d="M186.473 85.7723L185.223 85.4868L185.331 82.5918C185.331 82.5646 185.304 82.5238 185.277 82.5238C185.236 82.5238 185.209 82.551 185.209 82.5782L185.087 85.582L186.446 85.8946H186.459C186.487 85.8946 186.514 85.8674 186.514 85.8538C186.527 85.813 186.514 85.7858 186.473 85.7723Z" fill="#F07162"/>
<path d="M192.44 84.5762L192.821 88.6945L194.262 88.4363L193.446 84.3723L192.44 84.5762Z" fill="#FE9F73"/>
<path d="M185.005 72.6015C182.11 71.9491 182.817 75.0073 182.817 75.0073C182.817 75.0073 180.642 75.2655 181.417 77.3859C182.192 79.5062 191.529 79.1664 191.529 79.1664C191.529 79.1664 196.49 77.549 194.778 75.0889C193.079 72.6287 187.9 73.2404 185.005 72.6015Z" fill="#4C222E"/>
<path d="M191.924 77.481C191.815 77.4403 188.648 78.3645 189.83 78.8538C191.026 79.3431 190.741 82.6595 190.877 83.1081C191.027 83.5702 191.57 83.2984 191.57 83.2984C191.176 81.8304 191.828 80.58 191.828 80.58L191.638 78.582C191.638 78.582 193.473 78.2694 193.718 78.283C193.99 78.2966 192.032 77.5218 191.924 77.481Z" fill="#4C222E"/>
<path d="M186.609 86.6555L186.636 86.8594C187.261 86.7779 187.941 86.275 187.968 86.2614L187.846 86.0983C187.832 86.0983 187.18 86.574 186.609 86.6555Z" fill="#F07162"/>
<path d="M236.301 139.338C235.567 139.379 233.746 139.474 232.088 139.61C231.49 139.664 228.024 138.481 226.773 137.951L226.76 137.965C223.498 136.524 219.746 138.4 218.931 141.866L218.509 143.646C218.509 143.646 221.866 146.8 222.981 147.153C224.096 147.52 232.305 147.452 233.759 146.854C236.396 145.753 235.132 145.237 235.132 145.237C237.755 143.837 235.621 143.239 235.621 143.239C238.082 142.192 236.179 141.241 236.179 141.241C237.456 140.534 237.375 139.99 237.103 139.664C236.926 139.433 236.614 139.311 236.301 139.338Z" fill="#FE9F73"/>
<path d="M236.152 141.118C236.138 141.118 234.48 141.594 233.393 141.675C233.311 141.675 233.257 141.743 233.257 141.825C233.257 141.893 233.311 141.934 233.365 141.947C233.379 141.947 233.393 141.947 233.406 141.947C234.521 141.866 236.152 141.404 236.22 141.376C236.301 141.349 236.342 141.281 236.315 141.2C236.315 141.132 236.233 141.091 236.152 141.118Z" fill="#F89144"/>
<path d="M235.595 143.103C235.581 143.103 234.317 143.483 232.985 143.402C232.903 143.402 232.835 143.456 232.835 143.538C232.835 143.606 232.876 143.674 232.944 143.687C232.958 143.687 232.958 143.687 232.971 143.687C234.344 143.769 235.622 143.388 235.676 143.375C235.744 143.347 235.798 143.279 235.771 143.198C235.744 143.13 235.676 143.089 235.595 143.103Z" fill="#F89144"/>
<path d="M235.105 145.101C235.091 145.101 233.95 145.495 232.808 145.454C232.726 145.454 232.658 145.509 232.658 145.59C232.658 145.658 232.699 145.712 232.767 145.726C232.781 145.726 232.781 145.726 232.794 145.726C233.99 145.767 235.146 145.373 235.2 145.359C235.268 145.332 235.309 145.25 235.282 145.182C235.255 145.114 235.173 145.074 235.105 145.101Z" fill="#F89144"/>
<path d="M223.158 137.625L222.546 140.357C222.546 140.357 229.002 140.303 228.839 138.944C228.662 137.489 231.68 137.367 231.612 136.511C231.422 134.485 223.158 137.625 223.158 137.625Z" fill="#FE9F73"/>
<path d="M219.257 137.87L217.313 145.413L224.721 150.673C226.773 139.881 224.653 134.39 224.653 134.39L219.257 137.87Z" fill="#F89144"/>
<path d="M224.816 134.187L224.68 134.173C214.676 132.977 183.293 132.841 182.98 132.841C182.858 132.841 182.762 132.936 182.762 133.058C182.762 133.154 182.817 133.235 182.898 133.262C182.926 133.276 182.953 133.276 182.98 133.276C183.293 133.276 214.364 133.398 224.489 134.594C224.721 135.274 225.74 138.753 225.21 145.046C225.196 145.169 225.291 145.278 225.414 145.278C225.536 145.291 225.645 145.196 225.645 145.074C226.256 137.951 224.911 134.445 224.856 134.309L224.816 134.187Z" fill="#21111D"/>
</svg>
