<svg width="221" height="156" viewBox="0 0 221 156" fill="none" xmlns="http://www.w3.org/2000/svg">
<path fill-rule="evenodd" clip-rule="evenodd" d="M62.8593 47.7162C53.2595 46.6653 44.3764 51.5527 39.7589 59.4434C44.9486 55.751 51.4325 53.8746 58.2314 54.6162C71.7661 56.0943 81.883 67.4179 82.4107 80.7805C83.2165 78.76 83.7599 76.5927 84.0014 74.3259C85.4242 61.0603 75.9504 49.1496 62.8593 47.7162Z" fill="white"/>
<path fill-rule="evenodd" clip-rule="evenodd" d="M80.8487 44.7759C81.1348 41.7962 78.9429 39.1625 75.974 38.89C73.0024 38.6122 70.3669 40.7899 70.0886 43.7643C69.813 46.7387 71.9997 49.3724 74.9686 49.6528C77.9375 49.9306 80.5731 47.7476 80.8487 44.7759Z" fill="white"/>
<path fill-rule="evenodd" clip-rule="evenodd" d="M84.936 94.1037C85.0699 92.2142 83.6471 90.5789 81.7597 90.4401C79.8723 90.309 78.2264 91.7242 78.0925 93.6136C77.9586 95.4952 79.3761 97.1357 81.2609 97.272C83.1536 97.4109 84.7942 95.9931 84.936 94.1037Z" fill="#F68632"/>
<path fill-rule="evenodd" clip-rule="evenodd" d="M47.6131 97.3401C57.2313 98.2573 66.0435 93.2598 70.556 85.3089C65.4162 89.0642 58.9559 91.0323 52.1439 90.385C38.5961 89.0904 28.3111 77.9083 27.6076 64.5588C26.8306 66.5872 26.3161 68.7571 26.1008 71.0318C24.8723 84.3157 34.5036 96.0953 47.6131 97.3401Z" fill="#F68632"/>
<path fill-rule="evenodd" clip-rule="evenodd" d="M39.9767 101.156C40.2497 98.1814 38.0657 95.5503 35.0941 95.2699C32.1278 94.9921 29.4923 97.1803 29.214 100.144C28.9384 103.119 31.1198 105.752 34.0914 106.03C37.0603 106.311 39.6959 104.128 39.9767 101.156Z" fill="#F68632"/>
<path fill-rule="evenodd" clip-rule="evenodd" d="M31.9599 51.1702C32.0124 49.2781 30.5266 47.7005 28.6313 47.6376C26.7387 47.5904 25.1558 49.071 25.098 50.9605C25.0481 52.8552 26.5339 54.4354 28.424 54.4931C30.3192 54.5481 31.9021 53.0649 31.9599 51.1702Z" fill="#F68632"/>
<path fill-rule="evenodd" clip-rule="evenodd" d="M49.826 48.5417C48.5134 48.0988 47.1012 47.8262 45.6443 47.7555C37.1312 47.3309 29.8835 53.8825 29.4582 62.3811C29.1564 68.6025 32.5925 74.1529 37.8059 76.8391C35.2596 73.6314 33.8184 69.5171 34.0389 65.104C34.4694 56.3328 41.3182 49.3724 49.826 48.5417Z" fill="#F68632"/>
<path fill-rule="evenodd" clip-rule="evenodd" d="M59.9639 96.5513C61.2764 97.0231 62.6808 97.3113 64.1351 97.4109C72.6455 97.9586 79.9877 91.525 80.539 83.0316C80.938 76.8024 77.5858 71.2047 72.4197 68.4374C74.9161 71.6869 76.289 75.8249 76.0081 80.2301C75.4359 89.004 68.4848 95.849 59.9639 96.5513Z" fill="#F68632"/>
<path d="M49.6395 67.7823C49.6395 68.0784 49.5293 68.3352 49.3088 68.5527C49.0883 68.7703 48.7916 68.9616 48.4215 69.1267C48.3008 68.5973 48.1117 68.199 47.8571 67.9317C47.6025 67.6644 47.2376 67.5307 46.7572 67.5307C46.4107 67.5307 46.0905 67.6198 45.8017 67.798C45.513 67.9762 45.2531 68.2147 45.0194 68.5161C44.7858 68.8174 44.5837 69.1607 44.4104 69.5538C44.2372 69.9443 44.0928 70.3531 43.9773 70.7776C43.8618 71.2022 43.7752 71.6267 43.7174 72.0539C43.6597 72.481 43.6282 72.8794 43.6282 73.2489C43.6282 73.6236 43.6649 73.9617 43.7384 74.2631C43.8119 74.5644 43.9248 74.816 44.0771 75.023C44.2293 75.2301 44.4209 75.3873 44.6546 75.4974C44.8856 75.6074 45.1638 75.6625 45.4815 75.6625C45.702 75.6625 45.933 75.6284 46.1718 75.5629C46.4107 75.4974 46.6522 75.4057 46.8964 75.2851C47.1405 75.1646 47.3794 75.023 47.6156 74.8553C47.8492 74.6902 48.0724 74.5042 48.285 74.3024C48.3375 74.4439 48.3795 74.5723 48.4163 74.685C48.4504 74.8003 48.4688 74.9051 48.4688 74.9995C48.4688 75.1593 48.4163 75.3192 48.3113 75.4764C48.2063 75.6363 48.0619 75.7883 47.8781 75.935C47.6944 76.0792 47.4791 76.2154 47.2297 76.3386C46.9804 76.4618 46.7152 76.5718 46.4291 76.6662C46.1456 76.7605 45.849 76.8339 45.5366 76.8837C45.2268 76.9361 44.9197 76.9597 44.6126 76.9597C44.0692 76.9597 43.6019 76.8811 43.2134 76.7238C42.8249 76.5666 42.5099 76.336 42.2631 76.032C42.0164 75.728 41.8353 75.3532 41.7171 74.913C41.599 74.4727 41.5413 73.9669 41.5413 73.393C41.5413 72.8112 41.6095 72.2373 41.7486 71.666C41.8878 71.0974 42.0846 70.5549 42.3366 70.0412C42.5913 69.5276 42.8958 69.0533 43.2528 68.6156C43.6098 68.1806 44.0062 67.8032 44.4446 67.4835C44.8803 67.1638 45.3502 66.9149 45.8542 66.734C46.3556 66.5532 46.8832 66.4641 47.4319 66.4641C47.7416 66.4641 48.0304 66.4903 48.2981 66.5401C48.5659 66.5925 48.7995 66.6711 48.9964 66.776C49.1933 66.8808 49.3508 67.0171 49.4636 67.1848C49.5844 67.3551 49.6395 67.5517 49.6395 67.7823Z" fill="white"/>
<path d="M55.8478 74.9496C56.0552 74.7243 56.2232 74.5592 56.3518 74.457C56.4804 74.3548 56.5775 74.3024 56.6432 74.3024C56.6852 74.3024 56.7062 74.3417 56.7062 74.4229C56.7062 74.5775 56.672 74.7452 56.6012 74.9234C56.5303 75.1016 56.4358 75.2772 56.315 75.4502C56.1943 75.6231 56.0578 75.7909 55.9029 75.9481C55.748 76.108 55.5853 76.2495 55.412 76.37C55.2414 76.4932 55.0681 76.5901 54.8949 76.6609C54.7216 76.7343 54.5589 76.771 54.4092 76.771C54.047 76.771 53.7635 76.6583 53.5614 76.4355C53.3566 76.2128 53.2542 75.8669 53.2542 75.3978C53.2542 75.3218 53.2542 75.2379 53.2569 75.1436C53.2595 75.0492 53.2647 74.9549 53.27 74.8579C53.2779 74.761 53.2831 74.6692 53.291 74.5801C53.2989 74.491 53.3067 74.415 53.3146 74.3495C52.8263 75.1462 52.3486 75.7463 51.8813 76.1499C51.4141 76.5535 50.9652 76.7657 50.5321 76.7841H50.3903C50.133 76.7841 49.9125 76.7395 49.734 76.6504C49.5555 76.5613 49.4112 76.4355 49.3009 76.273C49.1907 76.1106 49.1119 75.9193 49.062 75.6965C49.0122 75.4738 48.9885 75.23 48.9885 74.9627C48.999 74.5461 49.0568 74.1241 49.167 73.697C49.2773 73.2698 49.4269 72.8584 49.6133 72.4627C49.7997 72.067 50.0228 71.6948 50.28 71.3489C50.5373 71.003 50.8129 70.699 51.1148 70.4422C51.4141 70.1827 51.7343 69.981 52.0703 69.8342C52.4063 69.6874 52.7476 69.6115 53.0941 69.6115C53.3487 69.6115 53.5797 69.6377 53.7924 69.6927C54.005 69.7477 54.1966 69.8394 54.3699 69.9705C54.4696 69.8578 54.5878 69.7739 54.7295 69.7163C54.8713 69.6612 55.0235 69.6324 55.1863 69.6324C55.3831 69.6324 55.5774 69.6586 55.7664 69.7137C55.9554 69.7687 56.1444 69.8447 56.3334 69.9417C56.2547 70.0596 56.1654 70.2404 56.0735 70.4841C55.9816 70.7278 55.8871 71.0056 55.7926 71.3149C55.6981 71.6241 55.6089 71.9517 55.5223 72.295C55.4356 72.6383 55.3569 72.9737 55.2913 73.296C55.223 73.6184 55.1679 73.9197 55.1285 74.1975C55.0891 74.4753 55.0681 74.6954 55.0681 74.8579C55.0681 74.9234 55.0681 74.989 55.0708 75.0545C55.0734 75.12 55.0786 75.1776 55.0891 75.2301C55.097 75.2825 55.1128 75.3244 55.1311 75.3558C55.1495 75.3873 55.1758 75.403 55.2073 75.3978C55.3149 75.3873 55.4173 75.3427 55.5144 75.2563C55.6168 75.175 55.7244 75.0702 55.8478 74.9496ZM52.4877 74.2395C52.6531 74.001 52.8106 73.752 52.9628 73.49C53.1151 73.2305 53.2569 72.9737 53.3855 72.7195C53.5141 72.4653 53.6322 72.219 53.7372 71.9805C53.8422 71.742 53.9315 71.5245 54.0024 71.3253C53.9682 71.1943 53.9157 71.0816 53.8396 70.9847C53.7635 70.8877 53.6795 70.8091 53.5824 70.7488C53.4852 70.6885 53.3829 70.644 53.2752 70.6151C53.1676 70.5863 53.0626 70.5732 52.9655 70.5732C52.7922 70.5732 52.619 70.6387 52.451 70.7671C52.283 70.8956 52.1202 71.0685 51.9653 71.2834C51.8105 71.4983 51.6661 71.7472 51.5348 72.0329C51.4036 72.3159 51.2881 72.6121 51.1936 72.9213C51.0964 73.2305 51.0229 73.5424 50.9678 73.8568C50.9127 74.1713 50.8864 74.4674 50.8864 74.7505C50.8996 74.9811 50.9416 75.1514 51.0098 75.2615C51.0781 75.3716 51.1804 75.4266 51.3169 75.4266C51.4534 75.4266 51.6188 75.3244 51.8131 75.1174C52.01 74.913 52.2331 74.6194 52.4877 74.2395Z" fill="white"/>
<path d="M61.6597 74.8448C62.1295 74.3521 62.4183 74.1241 62.5285 74.1634C62.6388 74.2001 62.5653 74.4857 62.308 75.0151C62.2004 75.2352 62.0534 75.4475 61.8723 75.6545C61.6885 75.8616 61.4916 76.045 61.2764 76.2049C61.0638 76.3647 60.8485 76.4931 60.6306 76.5901C60.4154 76.6897 60.2185 76.7368 60.0453 76.7368C59.8615 76.7368 59.6961 76.7133 59.5517 76.6661C59.4047 76.6189 59.284 76.5455 59.1842 76.4433C59.0845 76.3438 59.0136 76.2153 58.969 76.0607C58.9244 75.9061 58.9165 75.72 58.9454 75.5052C58.9585 75.3741 58.9821 75.23 59.0162 75.0701C59.0504 74.9103 59.0871 74.7504 59.1291 74.5879C59.1711 74.4255 59.2157 74.2682 59.2604 74.1162C59.305 73.9642 59.347 73.8306 59.3837 73.7179C59.4074 73.6393 59.4415 73.5292 59.4861 73.3929C59.5307 73.2567 59.5806 73.1047 59.6331 72.9396C59.6882 72.7719 59.7434 72.6041 59.8011 72.4286C59.8589 72.2556 59.914 72.0905 59.9665 71.9359C60.019 71.7813 60.061 71.645 60.0978 71.5323C60.1319 71.417 60.1581 71.3358 60.1713 71.2886C60.2133 71.1576 60.2395 71.0606 60.2474 71.0003C60.2579 70.94 60.2185 70.9165 60.1345 70.9296C60.1056 70.9348 60.0531 70.9427 59.9796 70.9531C59.9035 70.9636 59.8142 70.9741 59.7119 70.9846C59.6095 70.9951 59.494 71.0029 59.3706 71.0134C59.2446 71.0239 59.1212 71.0265 58.9926 71.0265C58.9454 71.1576 58.885 71.32 58.8141 71.5113C58.7406 71.7026 58.6435 71.9044 58.5227 72.1167C58.4046 72.329 58.276 72.5308 58.1342 72.7247C57.9925 72.9186 57.8507 73.0706 57.7037 73.178C57.5383 73.2986 57.3625 73.3851 57.1761 73.4296C56.9871 73.4768 56.8059 73.4663 56.6274 73.4008C56.7954 73.2043 56.9372 73.013 57.0527 72.8321C57.1682 72.6487 57.2653 72.4652 57.3415 72.2766C57.4176 72.0879 57.4753 71.8939 57.5147 71.6895C57.5515 71.4851 57.5777 71.265 57.5908 71.0239C57.3887 70.9479 57.2443 70.8431 57.1577 70.7068C57.0711 70.5705 57.0264 70.4264 57.0264 70.2718C57.0264 70.1172 57.058 69.9599 57.121 69.8001C57.184 69.6402 57.2627 69.4987 57.3598 69.3755C57.457 69.2524 57.5593 69.1528 57.6722 69.0846C57.7851 69.0139 57.8848 68.9877 57.9741 69.006C57.9688 69.0611 57.9531 69.1318 57.9268 69.2131C57.9006 69.2943 57.8901 69.3755 57.8927 69.4568C57.8953 69.5354 57.9295 69.6114 57.9951 69.6821C58.0607 69.7529 58.1867 69.8027 58.3731 69.8341C58.5595 69.8656 58.8194 69.8708 59.1554 69.8551C59.4914 69.8394 59.9297 69.7844 60.4705 69.69C60.5781 69.6664 60.712 69.6402 60.8695 69.6088C61.027 69.5773 61.1819 69.5695 61.3394 69.5852C61.4943 69.5983 61.6334 69.6455 61.7594 69.7267C61.8828 69.8053 61.9668 69.9416 62.0088 70.1355C62.056 70.3556 62.0613 70.5836 62.0219 70.8143C61.9852 71.0475 61.9274 71.2807 61.8513 71.514C61.7752 71.7472 61.6912 71.983 61.5967 72.2137C61.5021 72.4469 61.4234 72.6696 61.3578 72.8845C61.2449 73.254 61.1373 73.5947 61.0349 73.904C60.9325 74.2132 60.8695 74.4884 60.8511 74.7268C60.8459 74.7976 60.8433 74.8683 60.8406 74.9417C60.838 75.0151 60.8406 75.078 60.8433 75.1356C60.8485 75.1907 60.859 75.2379 60.8774 75.2719C60.8958 75.306 60.9246 75.3217 60.9614 75.3165C61.0375 75.3112 61.132 75.2614 61.2501 75.1645C61.3761 75.0754 61.51 74.9653 61.6597 74.8448Z" fill="white"/>
<path d="M66.0855 75.7804C66.5501 75.7332 66.9649 75.6126 67.3324 75.4187C67.6972 75.2248 68.0516 74.9627 68.3876 74.6352C68.4769 74.8003 68.5163 74.9732 68.5031 75.1593C68.49 75.3453 68.4244 75.5131 68.301 75.6624C68.1934 75.7987 68.0569 75.9271 67.8967 76.045C67.734 76.1656 67.5476 76.2704 67.3376 76.3648C66.6945 76.6556 66.0093 76.8024 65.2796 76.8024C64.5183 76.8024 63.9277 76.6373 63.5077 76.3097C63.0877 75.9822 62.8619 75.4816 62.8278 74.8107C62.8147 74.4779 62.8304 74.1477 62.8803 73.8201C62.9302 73.4926 63.0089 73.1729 63.1165 72.8636C63.2242 72.5544 63.3633 72.2583 63.5313 71.9779C63.6993 71.6974 63.8988 71.4354 64.1246 71.1969C64.5656 70.6702 65.0538 70.2745 65.5893 70.0045C66.1248 69.7346 66.6866 69.601 67.272 69.601C67.818 69.601 68.2196 69.7136 68.4848 69.9416C68.7473 70.1696 68.8759 70.5051 68.8654 70.9506C68.8654 71.1707 68.7971 71.4013 68.6606 71.6424C68.5241 71.8835 68.3299 72.122 68.0752 72.3605C67.8206 72.5963 67.5161 72.8217 67.1591 73.0313C66.8021 73.2436 66.4057 73.4244 65.9673 73.579C65.865 73.6157 65.739 73.6655 65.5946 73.7258C65.4502 73.7861 65.3111 73.8542 65.1798 73.9302C65.0486 74.0062 64.9357 74.0874 64.8412 74.1739C64.7467 74.2604 64.6968 74.3469 64.6942 74.4307C64.6837 74.5906 64.6916 74.7347 64.7152 74.8632C64.7388 74.9916 64.7808 75.099 64.8412 75.1829C64.9829 75.3925 65.1614 75.555 65.3793 75.6651C65.6025 75.7725 65.8361 75.8118 66.0855 75.7804ZM64.9567 72.9658C64.9462 73.013 64.9357 73.0654 64.9199 73.1204C64.9094 73.1728 64.8989 73.2331 64.8806 73.3039C64.8648 73.3746 64.8464 73.4533 64.8281 73.5424C64.8832 73.4244 64.9488 73.3249 65.0249 73.241C65.0984 73.1571 65.1824 73.0811 65.2743 73.0156C65.3662 72.9501 65.466 72.8872 65.5736 72.8296C65.6812 72.7719 65.7967 72.709 65.9201 72.6435C66.1275 72.5308 66.3007 72.4181 66.4372 72.3054C66.5763 72.1927 66.6892 72.0827 66.7785 71.9752C66.8677 71.8678 66.936 71.7577 66.9859 71.645C67.0357 71.5324 67.0751 71.4197 67.1092 71.307C67.1407 71.1943 67.1565 71.0868 67.1512 70.9846C67.146 70.8824 67.125 70.7907 67.083 70.7147C67.0436 70.6387 66.9832 70.5758 66.9071 70.5313C66.8284 70.4867 66.7312 70.4631 66.6157 70.4631C66.264 70.4631 65.9437 70.678 65.6602 71.1078C65.382 71.535 65.1457 72.1534 64.9567 72.9658Z" fill="white"/>
<path d="M194.185 47.5773H179.191V97.4817H194.185V47.5773Z" fill="white"/>
<path fill-rule="evenodd" clip-rule="evenodd" d="M130.284 47.5773C134.402 49.6476 137.182 55.0801 137.159 59.5142H146.273V97.4817H161.23V59.5142H175.345V47.5773H130.284Z" fill="white"/>
<path fill-rule="evenodd" clip-rule="evenodd" d="M129.717 51.4375C127.029 48.8562 122.96 47.5747 117.557 47.5747H92.6851V97.4817H107.713V77.9791H115.896C121.931 77.9791 126.414 76.6006 129.352 73.8595C132.294 71.1131 133.764 67.3001 133.764 62.4179C133.764 57.6719 132.407 53.9952 129.717 51.4375ZM117.45 66.6895C116.279 67.6827 114.271 68.1859 111.373 68.1859H107.716V57.4046H111.977C114.764 57.4046 116.675 57.9288 117.676 58.9953C118.689 60.0357 119.201 61.3303 119.201 62.8477C119.203 64.4017 118.613 65.6884 117.45 66.6895Z" fill="white"/>
<path d="M57.5094 105.776C57.4622 106.546 57.1839 107.212 56.6773 107.775C56.1706 108.339 55.4697 108.8 54.5799 109.162C55.0077 109.251 55.3831 109.382 55.706 109.552C56.0289 109.725 56.3019 109.93 56.5198 110.165C56.7403 110.401 56.903 110.669 57.0133 110.965C57.1235 111.261 57.1787 111.578 57.1787 111.916V111.995C57.1603 112.6 57.0106 113.148 56.7298 113.638C56.4489 114.13 56.0551 114.571 55.5511 114.961C54.9999 115.407 54.3698 115.732 53.6637 115.944C52.9576 116.156 52.1989 116.258 51.3852 116.258C51.2067 116.258 50.9967 116.251 50.7525 116.235C50.5084 116.219 50.2617 116.198 50.0149 116.172C49.7655 116.146 49.5266 116.117 49.2983 116.083C49.0699 116.051 48.8783 116.02 48.7234 115.988C48.621 115.965 48.5213 115.912 48.4215 115.834C48.3217 115.755 48.2299 115.658 48.1485 115.546C48.0671 115.433 48.0041 115.31 47.9516 115.176C47.9017 115.042 47.8755 114.909 47.8755 114.772C47.8755 114.683 47.8781 114.589 47.8807 114.492C47.8834 114.395 47.8965 114.296 47.9201 114.196C48.0514 113.646 48.1879 113.066 48.3349 112.464C48.4792 111.861 48.6236 111.258 48.7654 110.661C48.9071 110.063 49.0436 109.484 49.1749 108.923C49.3061 108.362 49.4216 107.851 49.5214 107.39C49.6211 106.929 49.7025 106.531 49.7603 106.2C49.8206 105.868 49.8495 105.632 49.8495 105.49C49.8495 105.433 49.8469 105.37 49.8416 105.309C49.8364 105.247 49.8285 105.191 49.818 105.142C49.8101 105.092 49.797 105.053 49.7839 105.026C49.7681 105 49.7498 104.99 49.7261 104.995C49.6133 105.019 49.5109 105.032 49.4138 105.034C49.3193 105.037 49.2458 105.04 49.1906 105.04C49.1434 105.021 49.1276 104.929 49.146 104.764C49.146 104.688 49.1539 104.61 49.167 104.528C49.1828 104.45 49.209 104.374 49.251 104.303C49.3219 104.154 49.3875 104.038 49.4505 103.957C49.5135 103.873 49.5791 103.808 49.6474 103.761C49.7156 103.713 49.7918 103.677 49.8731 103.651C49.9571 103.624 50.0569 103.593 50.175 103.556C50.7027 103.415 51.2355 103.305 51.7737 103.231C52.3118 103.158 52.8526 103.121 53.3986 103.121H53.7556C53.8737 103.121 53.9971 103.126 54.1205 103.14C54.6665 103.168 55.1495 103.239 55.5721 103.349C55.9948 103.459 56.3465 103.617 56.6326 103.824C56.9188 104.031 57.134 104.295 57.2837 104.62C57.4333 104.94 57.5094 105.325 57.5094 105.776ZM54.7137 112.165C54.7137 111.573 54.5326 111.117 54.1703 110.797C53.8081 110.477 53.2778 110.268 52.5769 110.165C52.4929 110.147 52.4116 110.137 52.3328 110.134C52.2514 110.131 52.1701 110.134 52.0887 110.147C52.0047 110.158 51.9233 110.165 51.8393 110.165H51.5821C51.5217 110.165 51.4613 110.152 51.3957 110.126C51.33 110.1 51.2723 110.045 51.2172 109.961C51.1463 110.244 51.0728 110.553 50.994 110.881C50.9179 111.208 50.8392 111.541 50.763 111.877C50.6869 112.212 50.6134 112.54 50.5452 112.862C50.4769 113.184 50.4218 113.486 50.3798 113.764C50.3693 113.881 50.3614 113.992 50.3588 114.091C50.3562 114.193 50.3535 114.29 50.3535 114.385C50.5504 114.558 50.7814 114.686 51.0465 114.772C51.3143 114.859 51.6109 114.906 51.9364 114.919C52.3932 114.919 52.7869 114.854 53.1151 114.723C53.4432 114.592 53.7346 114.392 53.984 114.128C54.4591 113.606 54.7032 112.977 54.7137 112.244V112.165ZM55.1862 106.007C55.1862 105.71 55.1364 105.464 55.034 105.265C54.9342 105.066 54.7951 104.906 54.6166 104.785C54.4381 104.665 54.2281 104.576 53.9892 104.523C53.7503 104.471 53.4852 104.445 53.2017 104.445C53.1545 104.445 53.0836 104.45 52.9891 104.458C52.8946 104.466 52.7896 104.479 52.6741 104.494C52.5586 104.51 52.4404 104.526 52.3223 104.547C52.2042 104.568 52.0992 104.586 52.0099 104.604C52.0677 104.717 52.1097 104.83 52.1333 104.943C52.1569 105.055 52.1701 105.184 52.1701 105.325C52.1701 105.419 52.1648 105.524 52.1517 105.64C52.1386 105.755 52.1176 105.891 52.0887 106.043C52.0414 106.274 51.9916 106.512 51.9364 106.759C51.8839 107.005 51.8288 107.249 51.7711 107.492C51.7133 107.736 51.6608 107.975 51.6057 108.208C51.5532 108.441 51.498 108.661 51.4455 108.868C51.5348 108.863 51.6372 108.855 51.7527 108.847C51.8682 108.839 51.9863 108.829 52.1097 108.821C52.2304 108.813 52.3486 108.803 52.4614 108.79C52.5743 108.777 52.6741 108.763 52.7633 108.745C53.1492 108.674 53.4905 108.559 53.7871 108.399C54.0837 108.239 54.3331 108.043 54.5379 107.812C54.7426 107.582 54.8975 107.322 55.0051 107.034C55.1127 106.746 55.1705 106.442 55.1836 106.122V106.007H55.1862Z" fill="white"/>
<path d="M66.5527 113.819C66.8126 113.536 67.0252 113.326 67.188 113.197C67.3507 113.066 67.4741 113.001 67.5581 113.001C67.6132 113.001 67.6395 113.051 67.6395 113.153C67.6395 113.349 67.5949 113.559 67.5056 113.784C67.4164 114.01 67.2956 114.233 67.146 114.45C66.9937 114.67 66.8205 114.88 66.6262 115.082C66.4294 115.283 66.2246 115.462 66.0067 115.614C65.7915 115.768 65.571 115.891 65.3531 115.983C65.1326 116.075 64.9278 116.122 64.7388 116.122C64.2821 116.122 63.9251 115.981 63.6652 115.7C63.4079 115.42 63.2767 114.982 63.2767 114.39C63.2767 114.296 63.2793 114.188 63.2819 114.07C63.2845 113.952 63.2898 113.832 63.3003 113.711C63.3082 113.591 63.3187 113.473 63.3265 113.36C63.337 113.247 63.3449 113.15 63.358 113.066C62.7412 114.073 62.1374 114.833 61.5468 115.341C60.9561 115.85 60.3891 116.117 59.8431 116.14H59.6646C59.3391 116.14 59.0635 116.085 58.8377 115.97C58.612 115.857 58.4308 115.7 58.2891 115.496C58.15 115.291 58.0476 115.048 57.9872 114.767C57.9242 114.487 57.8927 114.175 57.8927 113.84C57.9032 113.313 57.9793 112.778 58.1185 112.241C58.2576 111.701 58.4466 111.182 58.6828 110.682C58.9191 110.181 59.2 109.712 59.5255 109.272C59.8484 108.834 60.2001 108.452 60.5807 108.127C60.9614 107.802 61.363 107.545 61.7883 107.359C62.2135 107.173 62.644 107.078 63.0824 107.078C63.4027 107.078 63.6967 107.112 63.9644 107.181C64.2322 107.249 64.4737 107.367 64.6942 107.532C64.8176 107.39 64.9698 107.283 65.1483 107.212C65.3268 107.141 65.5185 107.105 65.7258 107.105C65.9752 107.105 66.2193 107.139 66.4609 107.207C66.6997 107.275 66.9386 107.372 67.1775 107.495C67.0777 107.644 66.9675 107.87 66.8494 108.179C66.7312 108.488 66.6131 108.837 66.4924 109.227C66.3742 109.618 66.2587 110.032 66.1511 110.467C66.0408 110.902 65.9437 111.324 65.8571 111.733C65.7705 112.141 65.7022 112.521 65.6523 112.87C65.6025 113.218 65.5762 113.499 65.5762 113.706C65.5762 113.79 65.5788 113.871 65.5815 113.955C65.5841 114.039 65.592 114.112 65.6025 114.178C65.613 114.243 65.6313 114.296 65.655 114.337C65.6786 114.379 65.7101 114.398 65.7521 114.39C65.8886 114.377 66.0172 114.319 66.1406 114.212C66.2587 114.102 66.3979 113.971 66.5527 113.819ZM62.3054 112.92C62.5128 112.618 62.7123 112.301 62.9065 111.974C63.0982 111.643 63.2767 111.321 63.4394 111.001C63.6022 110.682 63.7518 110.37 63.8857 110.068C64.0196 109.767 64.1298 109.492 64.2191 109.243C64.1771 109.078 64.1088 108.934 64.0143 108.813C63.9198 108.693 63.8122 108.593 63.6888 108.514C63.5681 108.438 63.4368 108.381 63.3029 108.347C63.1664 108.31 63.0352 108.294 62.9118 108.294C62.6913 108.294 62.476 108.376 62.2608 108.538C62.0481 108.701 61.8434 108.918 61.6465 109.191C61.4496 109.463 61.2685 109.778 61.1031 110.137C60.9378 110.496 60.7934 110.87 60.6726 111.261C60.5519 111.651 60.4547 112.047 60.3865 112.443C60.3182 112.841 60.2841 113.216 60.2841 113.572C60.3025 113.863 60.355 114.078 60.439 114.217C60.5256 114.356 60.6543 114.427 60.8275 114.427C60.9981 114.427 61.2081 114.296 61.4549 114.036C61.7016 113.771 61.9852 113.399 62.3054 112.92ZM64.9068 102.584C65.1562 102.584 65.3898 102.61 65.6103 102.66C65.8308 102.71 66.0225 102.781 66.1878 102.872C66.3532 102.964 66.4871 103.077 66.5869 103.21C66.6892 103.344 66.747 103.493 66.7654 103.658C66.7706 103.724 66.7706 103.792 66.7654 103.863C66.7601 103.934 66.7444 104.01 66.7155 104.088C66.6892 104.169 66.6446 104.248 66.5816 104.329C66.5186 104.408 66.4346 104.487 66.327 104.565C66.2745 104.602 66.1826 104.644 66.0566 104.699C65.928 104.751 65.7941 104.819 65.6523 104.903H65.6707C65.5106 105.011 65.3662 105.126 65.235 105.254C65.1037 105.383 65.0486 105.537 65.067 105.721C65.0722 105.786 65.046 105.836 64.9882 105.873C64.9305 105.91 64.8569 105.936 64.7756 105.954C64.6916 105.972 64.6102 105.983 64.5314 105.986C64.4501 105.988 64.3923 105.991 64.3582 105.991C64.2742 105.991 64.1823 105.97 64.0773 105.928C63.9723 105.886 63.8804 105.831 63.7964 105.76C63.7124 105.689 63.6521 105.606 63.6101 105.511C63.5681 105.417 63.5681 105.312 63.6101 105.199C63.7229 105.076 63.8621 104.966 64.0248 104.874C64.1876 104.783 64.3477 104.686 64.5052 104.586C64.6627 104.487 64.8044 104.371 64.9278 104.243C65.0538 104.117 65.1326 103.955 65.1693 103.758C65.1641 103.674 65.1457 103.606 65.1168 103.554C65.088 103.501 65.0538 103.459 65.0145 103.43C64.9751 103.402 64.9357 103.381 64.8937 103.368C64.8517 103.354 64.8149 103.349 64.7782 103.349C64.7309 103.349 64.6732 103.36 64.6102 103.386C64.5446 103.409 64.4973 103.465 64.4684 103.554C64.4396 103.601 64.3687 103.651 64.2558 103.7C64.1429 103.75 63.9566 103.792 63.6941 103.821C63.5864 103.797 63.4998 103.766 63.4368 103.727C63.3712 103.687 63.3213 103.651 63.2845 103.611C63.2478 103.572 63.2242 103.538 63.2137 103.504C63.2032 103.472 63.1953 103.446 63.1953 103.428C63.1822 103.315 63.2242 103.208 63.316 103.103C63.4079 102.998 63.5339 102.909 63.6914 102.833C63.8489 102.757 64.0327 102.694 64.2427 102.649C64.4448 102.608 64.6679 102.584 64.9068 102.584Z" fill="white"/>
<path d="M69.1699 108.887C69.6818 108.318 70.2514 107.87 70.8788 107.545C71.5088 107.22 72.1808 107.057 72.9001 107.057C73.3463 107.057 73.7506 107.123 74.1207 107.257C74.4882 107.39 74.8059 107.581 75.0684 107.83C75.3335 108.079 75.5382 108.383 75.6826 108.745C75.827 109.107 75.9005 109.513 75.9005 109.964C75.9005 110.48 75.8375 110.988 75.7089 111.491C75.5802 111.995 75.4017 112.477 75.1707 112.935C74.9397 113.394 74.6615 113.821 74.3386 114.214C74.0157 114.607 73.6561 114.948 73.2623 115.236C72.8686 115.525 72.4433 115.75 71.9892 115.912C71.535 116.075 71.0652 116.156 70.5769 116.156C70.1254 116.156 69.7159 116.085 69.3484 115.947C68.9809 115.808 68.6659 115.608 68.4007 115.346C68.1356 115.087 67.9335 114.767 67.7917 114.39C67.65 114.015 67.5791 113.588 67.5791 113.114C67.5791 112.314 67.713 111.562 67.9834 110.857C68.2511 110.152 68.6475 109.497 69.1699 108.887ZM73.4592 109.961C73.4592 109.725 73.4408 109.502 73.4067 109.295C73.37 109.088 73.3122 108.908 73.2282 108.753C73.1442 108.598 73.0366 108.478 72.8974 108.394C72.7609 108.307 72.5956 108.265 72.3987 108.265C72.1546 108.265 71.9262 108.347 71.7135 108.507C71.4983 108.666 71.304 108.881 71.1255 109.151C70.947 109.421 70.7869 109.73 70.6452 110.076C70.5034 110.422 70.3826 110.784 70.2855 111.156C70.1884 111.528 70.1149 111.9 70.0624 112.272C70.0125 112.642 69.9863 112.985 69.9863 113.3C69.9863 113.543 70.0046 113.766 70.044 113.971C70.0834 114.175 70.1438 114.351 70.2304 114.5C70.317 114.649 70.4299 114.765 70.569 114.846C70.7082 114.93 70.8762 114.969 71.073 114.969C71.3093 114.969 71.535 114.89 71.7503 114.731C71.9629 114.571 72.1572 114.358 72.3331 114.094C72.5089 113.829 72.6664 113.525 72.8056 113.179C72.9447 112.833 73.0628 112.474 73.1626 112.105C73.2597 111.735 73.3358 111.363 73.3857 110.994C73.4356 110.616 73.4592 110.275 73.4592 109.961Z" fill="white"/>
<path d="M89.3145 113.819C89.5744 113.536 89.787 113.326 89.9498 113.198C90.1125 113.066 90.2359 113.001 90.3199 113.001C90.3724 113.001 90.3987 113.051 90.3987 113.153C90.3987 113.349 90.354 113.559 90.2648 113.785C90.1755 114.01 90.0548 114.233 89.9051 114.45C89.7529 114.67 89.5796 114.88 89.3828 115.082C89.1859 115.284 88.9811 115.462 88.7633 115.614C88.5454 115.768 88.3275 115.891 88.1096 115.983C87.8891 116.075 87.6844 116.122 87.4954 116.122C87.0386 116.122 86.6816 115.981 86.4217 115.7C86.1645 115.42 86.0332 114.982 86.0332 114.39C86.0332 114.296 86.0358 114.188 86.0385 114.07C86.0411 113.952 86.0463 113.832 86.0568 113.711C86.0647 113.591 86.0752 113.473 86.0831 113.36C86.091 113.247 86.1014 113.15 86.1146 113.066C85.4977 114.073 84.8939 114.833 84.3033 115.341C83.7127 115.85 83.1457 116.117 82.5996 116.14H82.4211C82.0956 116.14 81.8174 116.085 81.5942 115.973C81.3685 115.86 81.1874 115.703 81.0456 115.496C80.9065 115.291 80.8041 115.048 80.7437 114.767C80.6807 114.487 80.6519 114.175 80.6519 113.84C80.6624 113.313 80.7385 112.778 80.8776 112.241C81.0167 111.701 81.2057 111.182 81.442 110.682C81.6783 110.181 81.9591 109.712 82.282 109.272C82.6049 108.834 82.9566 108.452 83.3373 108.127C83.7179 107.802 84.1195 107.545 84.5448 107.359C84.9701 107.173 85.4006 107.078 85.8389 107.078C86.1592 107.078 86.4532 107.112 86.721 107.181C86.9887 107.249 87.2302 107.367 87.4507 107.532C87.5767 107.39 87.7264 107.283 87.9049 107.212C88.0834 107.141 88.275 107.105 88.4824 107.105C88.7318 107.105 88.9759 107.139 89.2174 107.207C89.4589 107.275 89.6978 107.372 89.934 107.495C89.8343 107.644 89.724 107.872 89.6033 108.179C89.4851 108.486 89.367 108.837 89.2463 109.227C89.1281 109.618 89.0126 110.032 88.905 110.467C88.7947 110.902 88.6976 111.324 88.611 111.733C88.5244 112.141 88.4561 112.521 88.4062 112.87C88.3564 113.218 88.3301 113.499 88.3301 113.706C88.3301 113.79 88.3327 113.871 88.3354 113.955C88.338 114.039 88.3459 114.112 88.359 114.178C88.3695 114.243 88.3879 114.296 88.4115 114.337C88.4351 114.379 88.4666 114.395 88.5086 114.39C88.6451 114.377 88.7737 114.319 88.8971 114.212C89.0205 114.102 89.1596 113.973 89.3145 113.819ZM85.0672 112.92C85.2746 112.618 85.4741 112.301 85.6683 111.974C85.86 111.643 86.0385 111.321 86.2012 111.001C86.364 110.682 86.5136 110.37 86.6475 110.068C86.7813 109.767 86.8916 109.492 86.9808 109.243C86.9388 109.078 86.8706 108.934 86.7761 108.813C86.6816 108.693 86.574 108.593 86.4506 108.514C86.3298 108.438 86.2012 108.381 86.0621 108.344C85.9256 108.307 85.7943 108.292 85.6709 108.292C85.4504 108.292 85.2352 108.373 85.0199 108.535C84.8073 108.698 84.6026 108.915 84.4057 109.188C84.2114 109.461 84.0303 109.775 83.8623 110.134C83.6969 110.493 83.5525 110.868 83.4292 111.258C83.3084 111.649 83.2139 112.044 83.1456 112.44C83.0774 112.838 83.0433 113.213 83.0433 113.57C83.0617 113.861 83.1142 114.075 83.1982 114.214C83.2848 114.353 83.4134 114.424 83.584 114.424C83.7547 114.424 83.9647 114.293 84.2114 114.033C84.4634 113.771 84.7469 113.399 85.0672 112.92Z" fill="white"/>
<path d="M96.3917 109.081C96.2788 109.081 96.1476 109.141 95.9953 109.264C95.8431 109.385 95.6803 109.547 95.5044 109.754C95.3286 109.958 95.1448 110.194 94.9532 110.464C94.7615 110.734 94.5699 111.02 94.3783 111.321C94.1762 111.646 94.0055 111.94 93.8612 112.202C93.7194 112.461 93.5829 112.734 93.4569 113.014C93.3283 113.294 93.1944 113.606 93.0553 113.947C92.9161 114.288 92.7481 114.699 92.5513 115.179C92.4909 115.325 92.4253 115.457 92.3544 115.564C92.2835 115.674 92.1969 115.766 92.0971 115.839C91.9974 115.912 91.8714 115.968 91.7244 116.004C91.5747 116.041 91.3989 116.057 91.1889 116.057C91.0235 116.057 90.8345 116.046 90.6245 116.025C90.4145 116.004 90.1756 115.973 89.9078 115.931C90.0916 115.475 90.2648 115.014 90.4276 114.55C90.5904 114.086 90.74 113.622 90.8765 113.158C91.1967 112.099 91.4251 111.188 91.5616 110.425C91.6981 109.662 91.7664 109.06 91.7664 108.617C91.7664 108.41 91.7506 108.216 91.7217 108.035C91.6929 107.854 91.6456 107.694 91.58 107.558C91.9422 107.393 92.2677 107.272 92.5539 107.202C92.8426 107.131 93.092 107.094 93.3073 107.094C93.407 107.094 93.5094 107.11 93.6144 107.139C93.7194 107.167 93.8113 107.215 93.8953 107.278C93.9793 107.34 94.0475 107.419 94.1 107.519C94.1525 107.616 94.1814 107.736 94.1814 107.878C94.1814 108.216 94.121 108.635 94.0003 109.141C93.8795 109.644 93.7404 110.218 93.5855 110.865C93.8402 110.391 94.1368 109.927 94.4754 109.471C94.814 109.015 95.1684 108.606 95.5438 108.25C95.9166 107.891 96.2972 107.603 96.6778 107.382C97.0611 107.162 97.4233 107.055 97.7672 107.055C97.951 107.055 98.1216 107.084 98.2739 107.144C98.4287 107.204 98.56 107.285 98.6702 107.393C98.7805 107.5 98.8671 107.626 98.9275 107.77C98.9905 107.914 99.022 108.074 99.022 108.245C99.022 108.617 98.9695 109.081 98.8619 109.631C98.7542 110.181 98.6256 110.781 98.4707 111.426C98.4104 111.628 98.3526 111.83 98.2975 112.031C98.2424 112.233 98.1899 112.432 98.1426 112.626C98.0954 112.823 98.056 113.006 98.0271 113.182C97.9982 113.357 97.9825 113.517 97.9825 113.667C97.9825 113.75 97.9851 113.832 97.9877 113.916C97.9904 113.999 97.9982 114.075 98.0114 114.144C98.0245 114.212 98.0402 114.267 98.0639 114.309C98.0875 114.351 98.119 114.372 98.161 114.372C98.245 114.372 98.3579 114.319 98.5022 114.212C98.6466 114.104 98.7989 113.968 98.9511 113.803C99.2189 113.53 99.4263 113.326 99.5733 113.19C99.7203 113.053 99.841 112.985 99.9303 112.985C99.967 112.985 99.9933 112.993 100.009 113.011C100.027 113.03 100.035 113.064 100.035 113.119C100.035 113.321 99.9906 113.533 99.9014 113.758C99.8121 113.984 99.6914 114.206 99.5391 114.429C99.3869 114.652 99.2136 114.862 99.0141 115.061C98.8146 115.26 98.6072 115.436 98.392 115.59C98.1767 115.745 97.9562 115.868 97.7383 115.96C97.5178 116.051 97.3131 116.099 97.1241 116.099C96.691 116.099 96.3366 115.978 96.0636 115.734C95.7906 115.491 95.6541 115.113 95.6541 114.597C95.6541 114.311 95.6856 114.023 95.7512 113.727C95.8168 113.431 95.8903 113.095 95.9743 112.723C96.1869 111.793 96.3523 111.046 96.4652 110.485C96.5781 109.922 96.6332 109.578 96.6332 109.455C96.6332 109.319 96.607 109.225 96.5571 109.17C96.5151 109.107 96.4573 109.081 96.3917 109.081Z" fill="white"/>
<path d="M111.284 113.339C111.336 113.433 111.373 113.525 111.391 113.614C111.41 113.703 111.417 113.798 111.417 113.9C111.417 114.136 111.352 114.356 111.218 114.558C111.084 114.759 110.906 114.943 110.685 115.113C110.462 115.281 110.21 115.43 109.924 115.561C109.64 115.692 109.346 115.8 109.047 115.886C108.748 115.973 108.454 116.038 108.165 116.085C107.876 116.133 107.619 116.156 107.385 116.156C105.417 116.156 104.43 115.236 104.43 113.391C104.43 112.846 104.498 112.312 104.634 111.788C104.771 111.264 104.962 110.768 105.209 110.299C105.456 109.83 105.75 109.398 106.091 109.002C106.432 108.606 106.81 108.263 107.225 107.975C107.64 107.686 108.086 107.461 108.561 107.299C109.037 107.136 109.525 107.055 110.031 107.055C110.738 107.055 111.257 107.141 111.593 107.312C111.929 107.482 112.097 107.741 112.097 108.085C112.097 108.239 112.058 108.386 111.982 108.525C111.906 108.664 111.795 108.792 111.656 108.91C111.517 109.028 111.352 109.136 111.163 109.23C110.974 109.324 110.769 109.408 110.549 109.479C110.496 109.243 110.436 109.041 110.37 108.876C110.304 108.711 110.228 108.577 110.139 108.48C110.05 108.383 109.945 108.313 109.824 108.268C109.703 108.224 109.559 108.2 109.391 108.2C109.047 108.2 108.727 108.307 108.435 108.525C108.141 108.742 107.887 109.054 107.669 109.463C107.454 109.872 107.283 110.37 107.162 110.957C107.041 111.544 106.981 112.207 106.981 112.949C106.981 113.198 107.005 113.433 107.052 113.659C107.099 113.884 107.173 114.081 107.27 114.251C107.367 114.419 107.496 114.552 107.653 114.652C107.811 114.749 108 114.799 108.218 114.799C108.509 114.799 108.798 114.765 109.086 114.697C109.375 114.628 109.651 114.531 109.913 114.403C110.176 114.275 110.425 114.123 110.656 113.944C110.882 113.764 111.092 113.562 111.284 113.339Z" fill="white"/>
<path d="M119.883 107.099C120.014 107.112 120.14 107.133 120.261 107.162C120.382 107.191 120.492 107.241 120.587 107.309C120.681 107.377 120.755 107.466 120.81 107.576C120.862 107.686 120.891 107.825 120.891 107.99C120.891 108.163 120.873 108.349 120.833 108.554C120.794 108.758 120.744 108.978 120.679 109.217C120.566 109.62 120.453 110.019 120.335 110.417C120.219 110.813 120.114 111.198 120.022 111.573C119.93 111.945 119.854 112.304 119.797 112.645C119.736 112.985 119.707 113.3 119.707 113.591C119.707 113.674 119.71 113.756 119.713 113.84C119.715 113.923 119.723 113.999 119.734 114.065C119.747 114.133 119.762 114.188 119.786 114.23C119.81 114.272 119.841 114.293 119.883 114.293C119.959 114.293 120.054 114.259 120.164 114.191C120.274 114.123 120.39 114.036 120.516 113.929C120.642 113.821 120.765 113.709 120.889 113.591C121.015 113.473 121.13 113.36 121.235 113.253C121.343 113.145 121.435 113.059 121.516 112.991C121.595 112.922 121.65 112.888 121.681 112.888C121.747 112.888 121.778 112.935 121.778 113.03C121.778 113.226 121.734 113.436 121.645 113.661C121.555 113.887 121.435 114.11 121.285 114.332C121.133 114.555 120.959 114.765 120.76 114.966C120.56 115.168 120.353 115.346 120.138 115.504C119.923 115.661 119.702 115.784 119.479 115.876C119.256 115.968 119.048 116.015 118.851 116.015C118.395 116.015 118.038 115.871 117.778 115.585C117.521 115.297 117.389 114.856 117.389 114.264C117.389 114.039 117.405 113.829 117.434 113.633C117.463 113.436 117.5 113.226 117.542 113.001C116.906 114.039 116.279 114.822 115.654 115.357C115.032 115.889 114.384 116.156 113.714 116.156C113.412 116.156 113.166 116.106 112.979 116.009C112.793 115.912 112.649 115.784 112.549 115.627C112.449 115.47 112.381 115.291 112.344 115.09C112.31 114.888 112.292 114.683 112.292 114.476C112.292 114.264 112.32 113.992 112.381 113.659C112.441 113.329 112.512 112.967 112.599 112.574C112.685 112.183 112.78 111.777 112.882 111.355C112.987 110.936 113.082 110.532 113.166 110.147C113.252 109.762 113.326 109.406 113.384 109.081C113.444 108.756 113.473 108.488 113.473 108.281C113.473 108.145 113.462 108.003 113.441 107.854C113.42 107.705 113.376 107.568 113.302 107.445C113.604 107.327 113.898 107.238 114.179 107.183C114.46 107.128 114.707 107.099 114.914 107.099C115.103 107.099 115.26 107.123 115.381 107.17C115.502 107.217 115.599 107.283 115.67 107.367C115.741 107.451 115.791 107.545 115.822 107.655C115.851 107.765 115.867 107.88 115.867 108.006C115.867 108.171 115.848 108.342 115.809 108.517C115.77 108.693 115.733 108.853 115.699 109.002C115.568 109.576 115.442 110.121 115.316 110.637C115.192 111.153 115.079 111.623 114.977 112.05C114.877 112.477 114.796 112.854 114.733 113.182C114.67 113.509 114.638 113.777 114.638 113.978C114.638 114.091 114.659 114.191 114.701 114.277C114.743 114.364 114.825 114.406 114.951 114.406C115.064 114.406 115.208 114.34 115.386 114.206C115.565 114.073 115.759 113.887 115.969 113.643C116.179 113.399 116.402 113.111 116.636 112.773C116.87 112.435 117.101 112.063 117.326 111.654C117.749 110.889 118.064 110.181 118.274 109.531C118.484 108.879 118.589 108.331 118.589 107.888C118.589 107.804 118.581 107.713 118.568 107.613C118.552 107.513 118.523 107.419 118.473 107.338C118.686 107.262 118.922 107.204 119.182 107.165C119.442 107.118 119.676 107.099 119.883 107.099Z" fill="white"/>
<path d="M123.23 108.887C123.739 108.318 124.309 107.87 124.939 107.545C125.569 107.22 126.241 107.057 126.96 107.057C127.407 107.057 127.811 107.123 128.181 107.257C128.548 107.39 128.866 107.582 129.129 107.831C129.394 108.08 129.598 108.384 129.743 108.745C129.887 109.107 129.961 109.513 129.961 109.964C129.961 110.48 129.898 110.988 129.769 111.492C129.643 111.995 129.462 112.477 129.231 112.936C129 113.394 128.722 113.821 128.399 114.214C128.076 114.607 127.716 114.948 127.323 115.236C126.929 115.525 126.504 115.75 126.049 115.913C125.595 116.075 125.125 116.156 124.64 116.156C124.188 116.156 123.779 116.085 123.411 115.947C123.044 115.808 122.726 115.609 122.464 115.346C122.198 115.087 121.996 114.767 121.855 114.39C121.713 114.015 121.642 113.588 121.642 113.114C121.642 112.314 121.776 111.562 122.046 110.857C122.311 110.152 122.708 109.497 123.23 108.887ZM125.446 117.543C125.446 117.674 125.425 117.818 125.383 117.978C125.341 118.137 125.286 118.313 125.215 118.502C125.041 118.591 124.866 118.662 124.679 118.714C124.495 118.766 124.32 118.795 124.154 118.795C123.928 118.795 123.755 118.748 123.634 118.656C123.514 118.565 123.443 118.436 123.424 118.268V118.064C123.453 117.881 123.485 117.718 123.514 117.574C123.542 117.432 123.558 117.32 123.558 117.236V117.157C123.558 117.134 123.556 117.108 123.55 117.076C123.913 116.887 124.257 116.793 124.582 116.793C124.86 116.793 125.076 116.859 125.223 116.99C125.372 117.121 125.446 117.304 125.446 117.543ZM127.519 109.961C127.519 109.725 127.501 109.503 127.467 109.295C127.43 109.088 127.372 108.908 127.288 108.753C127.204 108.598 127.097 108.478 126.958 108.394C126.821 108.308 126.656 108.266 126.459 108.266C126.215 108.266 125.986 108.347 125.774 108.507C125.561 108.667 125.364 108.881 125.186 109.151C125.007 109.421 124.847 109.731 124.705 110.076C124.564 110.422 124.443 110.784 124.346 111.156C124.249 111.528 124.175 111.9 124.123 112.273C124.073 112.642 124.047 112.985 124.047 113.3C124.047 113.543 124.065 113.766 124.104 113.971C124.144 114.175 124.204 114.351 124.291 114.5C124.377 114.649 124.49 114.765 124.629 114.846C124.768 114.93 124.936 114.969 125.133 114.969C125.37 114.969 125.595 114.89 125.811 114.731C126.026 114.571 126.217 114.359 126.393 114.094C126.569 113.829 126.724 113.525 126.866 113.179C127.005 112.833 127.123 112.474 127.223 112.105C127.32 111.735 127.393 111.363 127.446 110.994C127.493 110.616 127.519 110.276 127.519 109.961ZM129.869 105.572C129.798 105.666 129.717 105.739 129.627 105.789C129.538 105.839 129.454 105.876 129.373 105.899C129.294 105.923 129.223 105.936 129.163 105.938C129.102 105.941 129.066 105.944 129.047 105.944C128.958 105.944 128.845 105.912 128.709 105.847C128.572 105.781 128.422 105.692 128.26 105.577C128.097 105.462 127.924 105.325 127.743 105.168C127.561 105.011 127.386 104.838 127.212 104.649C126.958 104.838 126.7 105.013 126.443 105.173C126.186 105.333 125.939 105.469 125.703 105.587C125.469 105.703 125.254 105.792 125.062 105.855C124.868 105.918 124.711 105.949 124.587 105.949C124.48 105.949 124.375 105.931 124.272 105.897C124.167 105.86 124.117 105.797 124.117 105.7C124.254 105.582 124.396 105.459 124.545 105.336C124.671 105.228 124.808 105.11 124.96 104.977C125.112 104.843 125.262 104.715 125.409 104.589C125.664 104.363 125.913 104.156 126.152 103.968C126.393 103.779 126.616 103.617 126.829 103.483C127.039 103.349 127.231 103.244 127.399 103.171C127.567 103.098 127.714 103.061 127.84 103.061C128.005 103.061 128.139 103.092 128.241 103.158C128.302 103.331 128.388 103.522 128.504 103.735C128.619 103.947 128.751 104.164 128.895 104.384C129.039 104.605 129.197 104.817 129.367 105.024C129.535 105.228 129.703 105.412 129.869 105.572Z" fill="white"/>
<path d="M137.206 113.339C137.258 113.433 137.295 113.525 137.313 113.614C137.332 113.703 137.34 113.798 137.34 113.9C137.34 114.136 137.274 114.356 137.14 114.558C137.006 114.759 136.828 114.943 136.607 115.113C136.384 115.281 136.13 115.43 135.846 115.561C135.56 115.692 135.269 115.8 134.969 115.886C134.67 115.973 134.376 116.038 134.087 116.085C133.798 116.133 133.539 116.156 133.308 116.156C131.339 116.156 130.352 115.236 130.352 113.391C130.352 112.846 130.42 112.312 130.557 111.788C130.693 111.264 130.885 110.768 131.131 110.299C131.378 109.83 131.672 109.398 132.013 109.002C132.355 108.606 132.733 108.263 133.147 107.975C133.562 107.686 134.008 107.461 134.484 107.299C134.959 107.136 135.447 107.055 135.954 107.055C136.66 107.055 137.18 107.141 137.516 107.312C137.852 107.482 138.02 107.741 138.02 108.085C138.02 108.239 137.98 108.386 137.904 108.525C137.828 108.664 137.718 108.792 137.579 108.91C137.439 109.028 137.274 109.136 137.085 109.23C136.896 109.324 136.691 109.408 136.471 109.479C136.418 109.243 136.358 109.041 136.292 108.876C136.227 108.711 136.151 108.577 136.061 108.48C135.972 108.383 135.867 108.313 135.746 108.268C135.626 108.224 135.481 108.2 135.313 108.2C134.969 108.2 134.649 108.307 134.358 108.525C134.064 108.742 133.809 109.054 133.591 109.463C133.376 109.872 133.205 110.37 133.084 110.957C132.964 111.544 132.901 112.207 132.901 112.949C132.901 113.198 132.924 113.433 132.972 113.659C133.019 113.884 133.092 114.081 133.189 114.251C133.287 114.419 133.415 114.552 133.573 114.652C133.73 114.749 133.919 114.799 134.137 114.799C134.428 114.799 134.717 114.765 135.006 114.697C135.295 114.628 135.57 114.531 135.833 114.403C136.098 114.275 136.345 114.123 136.576 113.944C136.804 113.764 137.014 113.562 137.206 113.339Z" fill="white"/>
<path d="M146.997 107.836C146.664 107.836 146.422 107.925 146.268 108.103C146.113 108.281 146.037 108.53 146.037 108.85C146.037 109.015 146.073 109.175 146.147 109.33C146.22 109.484 146.325 109.641 146.462 109.801C146.64 110.013 146.814 110.226 146.982 110.433C147.152 110.64 147.302 110.857 147.436 111.083C147.57 111.308 147.677 111.547 147.761 111.798C147.845 112.05 147.887 112.325 147.887 112.621C147.887 113.114 147.782 113.572 147.575 113.999C147.367 114.427 147.089 114.796 146.737 115.111C146.388 115.425 145.984 115.671 145.533 115.847C145.078 116.025 144.603 116.114 144.105 116.114C143.821 116.114 143.535 116.07 143.246 115.981C142.957 115.892 142.697 115.761 142.466 115.585C142.235 115.409 142.044 115.197 141.897 114.951C141.747 114.702 141.674 114.419 141.674 114.096C141.674 113.96 141.695 113.837 141.737 113.724C141.779 113.612 141.831 113.512 141.892 113.423C141.955 113.334 142.023 113.258 142.102 113.192C142.178 113.127 142.256 113.074 142.333 113.032C142.427 113.287 142.54 113.53 142.666 113.761C142.795 113.992 142.939 114.199 143.102 114.379C143.264 114.56 143.448 114.707 143.653 114.82C143.858 114.932 144.083 114.995 144.333 115.006C144.719 115.006 145.026 114.898 145.254 114.681C145.483 114.463 145.596 114.133 145.596 113.69C145.596 113.502 145.556 113.321 145.48 113.153C145.404 112.985 145.302 112.82 145.178 112.66C145.055 112.5 144.913 112.341 144.756 112.181C144.598 112.021 144.441 111.851 144.278 111.675C144.07 111.421 143.91 111.138 143.797 110.831C143.684 110.522 143.629 110.21 143.629 109.89C143.629 109.364 143.75 108.908 143.989 108.525C144.228 108.142 144.543 107.828 144.929 107.582C145.315 107.335 145.745 107.154 146.22 107.036C146.695 106.919 147.171 106.858 147.646 106.858C147.942 106.858 148.16 106.895 148.299 106.966C148.438 107.036 148.533 107.168 148.58 107.356C148.58 107.521 148.538 107.681 148.452 107.831C148.365 107.983 148.197 108.142 147.948 108.315C147.782 108.155 147.617 108.038 147.459 107.959C147.299 107.875 147.144 107.836 146.997 107.836Z" fill="white"/>
<path d="M150.594 108.887C151.103 108.318 151.672 107.87 152.302 107.545C152.933 107.22 153.605 107.055 154.324 107.055C154.77 107.055 155.174 107.12 155.544 107.254C155.912 107.388 156.23 107.579 156.492 107.828C156.757 108.077 156.962 108.381 157.106 108.743C157.251 109.104 157.324 109.51 157.324 109.961C157.324 110.477 157.261 110.986 157.133 111.489C157.004 111.992 156.825 112.474 156.594 112.933C156.363 113.391 156.085 113.819 155.762 114.212C155.439 114.605 155.08 114.945 154.686 115.234C154.292 115.522 153.867 115.747 153.413 115.91C152.959 116.072 152.489 116.154 152.001 116.154C151.549 116.154 151.14 116.083 150.772 115.944C150.405 115.805 150.087 115.606 149.824 115.344C149.562 115.084 149.357 114.765 149.215 114.39C149.074 114.013 149.003 113.588 149.003 113.114C149.003 112.314 149.137 111.562 149.407 110.857C149.675 110.152 150.071 109.495 150.594 108.887ZM154.883 109.961C154.883 109.725 154.865 109.502 154.83 109.295C154.794 109.088 154.736 108.908 154.652 108.753C154.568 108.598 154.46 108.478 154.321 108.394C154.185 108.307 154.019 108.266 153.822 108.266C153.578 108.266 153.35 108.344 153.137 108.507C152.925 108.667 152.728 108.881 152.549 109.151C152.371 109.421 152.211 109.728 152.069 110.076C151.927 110.422 151.806 110.784 151.709 111.156C151.612 111.528 151.536 111.9 151.486 112.272C151.436 112.642 151.41 112.985 151.41 113.3C151.41 113.543 151.428 113.766 151.468 113.971C151.507 114.175 151.57 114.351 151.654 114.5C151.741 114.649 151.854 114.765 151.993 114.846C152.132 114.93 152.3 114.969 152.497 114.969C152.733 114.969 152.959 114.89 153.174 114.731C153.387 114.571 153.581 114.358 153.757 114.096C153.933 113.832 154.09 113.528 154.229 113.182C154.368 112.836 154.487 112.477 154.586 112.107C154.683 111.738 154.76 111.366 154.809 110.996C154.859 110.616 154.883 110.276 154.883 109.961ZM157.232 105.572C157.161 105.666 157.08 105.739 156.993 105.789C156.904 105.839 156.82 105.876 156.739 105.899C156.657 105.923 156.589 105.936 156.529 105.938C156.468 105.941 156.432 105.944 156.413 105.944C156.324 105.944 156.211 105.912 156.075 105.847C155.938 105.781 155.789 105.692 155.626 105.577C155.463 105.461 155.29 105.325 155.109 105.168C154.928 105.011 154.752 104.838 154.578 104.649C154.324 104.838 154.067 105.013 153.809 105.173C153.552 105.333 153.305 105.472 153.069 105.587C152.835 105.703 152.62 105.792 152.428 105.855C152.237 105.917 152.077 105.949 151.953 105.949C151.846 105.949 151.741 105.931 151.638 105.897C151.533 105.86 151.483 105.797 151.483 105.7C151.62 105.582 151.762 105.459 151.911 105.336C152.035 105.228 152.174 105.11 152.326 104.977C152.478 104.843 152.628 104.715 152.775 104.589C153.03 104.363 153.279 104.156 153.518 103.968C153.757 103.779 153.983 103.617 154.195 103.483C154.405 103.349 154.597 103.247 154.765 103.171C154.933 103.098 155.08 103.061 155.206 103.061C155.371 103.061 155.505 103.092 155.607 103.158C155.668 103.328 155.754 103.522 155.87 103.735C155.985 103.947 156.117 104.164 156.261 104.384C156.405 104.605 156.563 104.817 156.734 105.024C156.899 105.228 157.067 105.412 157.232 105.572ZM156.476 103.839C156.476 103.774 156.51 103.719 156.584 103.672C156.886 103.483 157.156 103.292 157.395 103.103C157.631 102.914 157.852 102.723 158.054 102.534C158.256 102.346 158.442 102.149 158.61 101.947C158.781 101.745 158.946 101.536 159.114 101.316C159.745 101.316 160.209 101.392 160.511 101.546C160.813 101.701 160.965 101.903 160.965 102.152C160.965 102.306 160.879 102.474 160.708 102.655C160.535 102.836 160.283 103.003 159.952 103.158C159.787 103.252 159.595 103.347 159.377 103.444C159.159 103.538 158.931 103.63 158.687 103.714C158.442 103.797 158.193 103.879 157.933 103.949C157.676 104.02 157.419 104.08 157.164 104.128C157.098 104.141 157.025 104.141 156.946 104.133C156.867 104.122 156.791 104.107 156.723 104.08C156.655 104.054 156.597 104.02 156.55 103.978C156.5 103.931 156.476 103.886 156.476 103.839Z" fill="white"/>
<path d="M163.829 109.081C163.716 109.081 163.585 109.141 163.433 109.264C163.28 109.385 163.118 109.547 162.944 109.754C162.769 109.958 162.585 110.194 162.393 110.464C162.202 110.734 162.01 111.02 161.818 111.321C161.616 111.646 161.446 111.94 161.301 112.202C161.159 112.461 161.023 112.734 160.897 113.014C160.768 113.294 160.637 113.606 160.495 113.947C160.356 114.288 160.188 114.699 159.991 115.179C159.931 115.325 159.868 115.457 159.794 115.564C159.724 115.674 159.637 115.766 159.537 115.839C159.437 115.912 159.311 115.968 159.164 116.004C159.017 116.041 158.839 116.057 158.631 116.057C158.466 116.057 158.277 116.046 158.067 116.025C157.857 116.004 157.618 115.973 157.35 115.931C157.534 115.475 157.707 115.014 157.87 114.55C158.033 114.086 158.183 113.622 158.319 113.158C158.639 112.099 158.868 111.188 159.004 110.425C159.141 109.662 159.209 109.06 159.209 108.617C159.209 108.41 159.193 108.216 159.164 108.035C159.136 107.854 159.088 107.694 159.023 107.558C159.385 107.393 159.71 107.272 159.997 107.202C160.285 107.131 160.535 107.094 160.75 107.094C160.85 107.094 160.952 107.11 161.057 107.139C161.162 107.167 161.254 107.215 161.338 107.278C161.422 107.34 161.49 107.419 161.543 107.519C161.595 107.616 161.621 107.736 161.621 107.878C161.621 108.216 161.561 108.635 161.438 109.141C161.317 109.644 161.178 110.218 161.023 110.865C161.278 110.391 161.574 109.927 161.913 109.471C162.251 109.015 162.606 108.606 162.981 108.25C163.354 107.891 163.735 107.603 164.115 107.382C164.498 107.162 164.861 107.055 165.205 107.055C165.388 107.055 165.559 107.084 165.711 107.144C165.866 107.204 165.997 107.285 166.108 107.393C166.218 107.5 166.305 107.626 166.365 107.77C166.428 107.914 166.459 108.074 166.459 108.245C166.459 108.617 166.407 109.081 166.299 109.631C166.192 110.181 166.063 110.781 165.908 111.426C165.848 111.628 165.79 111.83 165.735 112.031C165.68 112.233 165.627 112.432 165.58 112.626C165.533 112.823 165.493 113.006 165.464 113.182C165.436 113.357 165.42 113.517 165.42 113.667C165.42 113.75 165.422 113.832 165.425 113.916C165.428 113.999 165.436 114.075 165.449 114.144C165.459 114.212 165.478 114.267 165.501 114.309C165.525 114.351 165.556 114.372 165.598 114.372C165.682 114.372 165.795 114.319 165.942 114.212C166.087 114.104 166.239 113.968 166.391 113.803C166.659 113.53 166.866 113.326 167.013 113.19C167.163 113.053 167.281 112.985 167.37 112.985C167.407 112.985 167.433 112.993 167.452 113.011C167.47 113.03 167.478 113.064 167.478 113.119C167.478 113.321 167.433 113.533 167.344 113.758C167.255 113.984 167.134 114.206 166.984 114.429C166.832 114.652 166.659 114.862 166.459 115.061C166.26 115.26 166.052 115.436 165.835 115.59C165.617 115.745 165.399 115.868 165.181 115.96C164.96 116.051 164.756 116.099 164.567 116.099C164.134 116.099 163.782 115.978 163.509 115.734C163.236 115.491 163.099 115.113 163.099 114.597C163.099 114.311 163.133 114.023 163.196 113.727C163.262 113.431 163.336 113.095 163.42 112.723C163.632 111.793 163.798 111.046 163.91 110.485C164.023 109.922 164.078 109.578 164.078 109.455C164.078 109.319 164.052 109.225 164.002 109.17C163.952 109.107 163.895 109.081 163.829 109.081Z" fill="white"/>
<path d="M175.277 117.569C175.521 117.723 175.684 117.841 175.77 117.925C175.857 118.009 175.899 118.061 175.899 118.085C175.857 118.085 175.77 118.046 175.642 117.964C175.511 117.883 175.345 117.799 175.143 117.71C175.148 117.71 175.101 117.689 175.001 117.645C174.899 117.6 174.778 117.548 174.636 117.485C174.495 117.422 174.342 117.359 174.182 117.294C174.022 117.228 173.886 117.178 173.773 117.142C173.345 117.841 172.775 118.376 172.064 118.751C171.352 119.123 170.536 119.311 169.615 119.311C169.153 119.311 168.701 119.264 168.263 119.173C167.824 119.081 167.431 118.958 167.087 118.803C166.743 118.648 166.467 118.473 166.26 118.279C166.053 118.082 165.948 117.878 165.948 117.666C165.948 117.501 165.995 117.32 166.087 117.128C166.179 116.935 166.344 116.759 166.585 116.594C166.827 116.431 167.155 116.295 167.572 116.185C167.99 116.075 168.531 116.02 169.189 116.02C169.651 116.02 170.127 116.043 170.61 116.091C171.093 116.138 171.536 116.206 171.94 116.295C172.095 115.868 172.25 115.349 172.408 114.736C172.565 114.123 172.731 113.405 172.901 112.582C172.552 113.066 172.206 113.483 171.87 113.826C171.531 114.175 171.2 114.461 170.872 114.681C170.547 114.901 170.229 115.061 169.924 115.16C169.62 115.263 169.326 115.312 169.048 115.312C168.751 115.312 168.499 115.255 168.297 115.139C168.092 115.024 167.924 114.864 167.793 114.665C167.662 114.463 167.567 114.225 167.509 113.95C167.449 113.674 167.42 113.373 167.42 113.048C167.42 112.555 167.481 112.068 167.599 111.581C167.717 111.096 167.885 110.632 168.103 110.189C168.321 109.749 168.578 109.337 168.882 108.957C169.184 108.577 169.525 108.25 169.901 107.972C170.279 107.694 170.683 107.474 171.116 107.314C171.549 107.154 172.003 107.073 172.479 107.073C172.794 107.073 173.096 107.11 173.387 107.183C173.678 107.257 173.954 107.372 174.214 107.524C174.369 107.388 174.542 107.285 174.739 107.217C174.936 107.149 175.138 107.115 175.345 107.115C175.76 107.115 176.201 107.236 176.663 107.479C176.555 107.639 176.456 107.82 176.364 108.022C176.272 108.224 176.18 108.459 176.088 108.729C175.996 108.999 175.904 109.311 175.812 109.662C175.721 110.016 175.621 110.422 175.513 110.883C175.358 111.683 175.203 112.438 175.046 113.15C174.888 113.861 174.747 114.466 174.623 114.964C174.623 114.969 174.621 114.977 174.615 114.982C174.513 115.401 174.405 115.766 174.29 116.07C174.174 116.374 174.056 116.644 173.938 116.874C174.127 116.945 174.348 117.042 174.597 117.168C174.841 117.294 175.07 117.425 175.277 117.569ZM171.316 117.461C171.476 117.283 171.641 117.008 171.814 116.636C171.429 116.552 171.006 116.492 170.547 116.452C170.087 116.413 169.641 116.395 169.208 116.395H168.691C168.507 116.395 168.334 116.408 168.174 116.431C168.013 116.455 167.88 116.494 167.772 116.552C167.664 116.607 167.612 116.688 167.612 116.796C167.612 116.848 167.63 116.903 167.664 116.955C167.914 117.304 168.226 117.582 168.604 117.781C168.979 117.983 169.389 118.082 169.827 118.082C170.447 118.082 170.943 117.875 171.316 117.461ZM170.329 113.57C170.578 113.57 170.856 113.441 171.161 113.182C171.465 112.925 171.775 112.587 172.087 112.17C172.4 111.754 172.699 111.282 172.991 110.758C173.282 110.234 173.537 109.702 173.757 109.162C173.739 109.054 173.684 108.949 173.592 108.847C173.5 108.742 173.387 108.651 173.253 108.567C173.119 108.483 172.972 108.417 172.812 108.368C172.652 108.318 172.497 108.292 172.35 108.292C172.001 108.292 171.67 108.423 171.363 108.687C171.053 108.952 170.785 109.298 170.557 109.728C170.329 110.158 170.148 110.645 170.014 111.19C169.88 111.735 169.814 112.288 169.814 112.852C169.814 113.087 169.864 113.268 169.961 113.389C170.056 113.509 170.179 113.57 170.329 113.57Z" fill="white"/>
</svg>
