<svg width="31" height="26" viewBox="0 0 31 26" fill="none" xmlns="http://www.w3.org/2000/svg">
<path d="M25.4902 14C25.3233 14 25.166 14.038 25.0028 14.0544L23.7341 8.73724C23.9908 8.89036 24.2703 9 24.582 9H26.0389C26.2374 9 26.3984 8.82265 26.3984 8.60417V5.39583C26.3984 5.17734 26.2374 5 26.0389 5H24.582C23.9378 5 23.3971 5.39297 23.0747 5.95156L22.1845 2.2401C21.8756 0.920052 20.7858 0 19.5507 0H17.3164C16.8079 0 16.4082 0.439844 16.4082 1C16.4082 1.56016 16.8079 2 17.3164 2H19.5507C19.9684 2 20.3135 2.3 20.4225 2.7401L20.7314 4H17.3164C15.8089 4 14.5918 5.33984 14.5918 7V12H22.6386L23.2488 14.5456C21.3622 15.4898 20.041 17.5734 20.041 20C20.041 23.3086 22.4854 26 25.4902 26C28.4951 26 31 23.3086 31 20C31 16.6914 28.4951 14 25.4902 14ZM25.4902 24C23.4867 24 21.8574 22.206 21.8574 20C21.8574 18.5036 22.6159 17.2125 23.7235 16.5266L24.6185 20.2599C24.7275 20.7 25.0908 21 25.4902 21C25.5628 21 25.6357 20.9799 25.7263 20.9599C26.1986 20.82 26.4893 20.2799 26.362 19.7398L25.4682 16.0023C25.4758 16.0023 25.4827 16 25.4902 16C27.4937 16 29.1836 17.794 29.1836 20C29.1836 22.206 27.4937 24 25.4902 24Z" fill="#00377B"/>
<path d="M1.41388 13.3509C2.6111 12.4673 4.06683 12.0004 5.50978 12.0004H12.7754V6.00037H8.23439C5.97665 6.00037 4.11342 7.82927 3.76622 10.209C2.59289 10.4616 1.40915 10.9465 0.402794 11.6889C-0.0141751 11.9965 -0.125099 12.6176 0.153511 13.0764C0.432831 13.535 0.99691 13.6577 1.41388 13.3509Z" fill="#F68632"/>
<path d="M9.52502 15.9999C8.49312 14.7421 7.0705 13.9999 5.50977 13.9999C2.50489 13.9999 0 16.6913 0 19.9999C0 23.3085 2.50489 25.9999 5.50977 25.9999C7.83372 25.9999 9.87411 24.3569 10.6343 21.9999H13.0687L10.889 15.9999H9.52502ZM5.50977 23.9999C3.50628 23.9999 1.81641 22.2059 1.81641 19.9999C1.81641 17.7939 3.50628 15.9999 5.50977 15.9999C6.02796 15.9999 6.52061 16.1335 6.9759 16.3551C6.10885 16.8574 5.50977 17.8481 5.50977 18.9999C5.50977 20.654 6.73205 21.9999 8.23437 21.9999H8.64945C8.01253 23.2048 6.82926 23.9999 5.50977 23.9999Z" fill="#F68632"/>
<path d="M12.119 13.9999L15.0253 21.9999H17.3164C17.6879 21.9999 18.0216 21.7509 18.16 21.371L20.8378 13.9999H12.119Z" fill="#00377B"/>
</svg>
