<svg width="16" height="16" viewBox="0 0 16 16" fill="none" xmlns="http://www.w3.org/2000/svg">
<path d="M12.5267 4.6661C12.2358 4.6661 12 4.90189 12 5.19276V11.0861C12 12.3269 10.9942 13.3328 9.75335 13.3328H5.96669C4.72589 13.3328 3.72002 12.3269 3.72002 11.0861V5.19276C3.72002 4.90189 3.48422 4.6661 3.19335 4.6661C2.90248 4.6661 2.66669 4.90189 2.66669 5.19276V11.0861C2.68497 12.914 4.17201 14.3862 6.00002 14.3861H9.78669C11.6017 14.368 13.0686 12.9011 13.0867 11.0861V5.19276C13.087 5.04711 13.0269 4.90784 12.9208 4.80805C12.8147 4.70827 12.672 4.65688 12.5267 4.6661Z" fill="#262628"/>
<path fill-rule="evenodd" clip-rule="evenodd" d="M12.5267 3.71967H3.19335C2.90248 3.71967 2.66669 3.48388 2.66669 3.19301C2.66669 2.90214 2.90248 2.66634 3.19335 2.66634H4.96002L5.74669 1.81301C6.0474 1.50728 6.45786 1.33446 6.88669 1.33301H8.83335C9.25593 1.333 9.66121 1.50087 9.96002 1.79967L10.76 2.66634H12.5267C12.8176 2.66634 13.0534 2.90214 13.0534 3.19301C13.0534 3.48388 12.8176 3.71967 12.5267 3.71967ZM8.83335 2.38634H6.88669C6.75341 2.38639 6.62498 2.43633 6.52669 2.52634L6.40002 2.65967H9.32002L9.19335 2.52634C9.09578 2.43518 8.96688 2.38505 8.83335 2.38634Z" fill="#262628"/>
<path d="M5.36005 5.85937V7.85937C5.36005 8.13552 5.5839 8.35937 5.86005 8.35937C6.13619 8.35937 6.36005 8.13552 6.36005 7.85937V5.85937C6.36005 5.58323 6.13619 5.35938 5.86005 5.35938C5.5839 5.35938 5.36005 5.58323 5.36005 5.85937Z" fill="#262628"/>
<path d="M7.36005 5.85938V11.1927C7.36005 11.4689 7.5839 11.6927 7.86005 11.6927C8.13619 11.6927 8.36005 11.4689 8.36005 11.1927V5.85938C8.36005 5.58323 8.13619 5.35938 7.86005 5.35938C7.5839 5.35938 7.36005 5.58323 7.36005 5.85938Z" fill="#262628"/>
<path d="M9.36005 5.85937V7.85937C9.36005 8.13552 9.5839 8.35937 9.86005 8.35937C10.1362 8.35937 10.36 8.13552 10.36 7.85937V5.85937C10.36 5.58323 10.1362 5.35938 9.86005 5.35938C9.5839 5.35938 9.36005 5.58323 9.36005 5.85937Z" fill="#262628"/>
</svg>
