<svg width="16" height="16" viewBox="0 0 16 16" fill="none" xmlns="http://www.w3.org/2000/svg">
<path d="M8.00053 9.44655C6.58053 9.44655 5.42053 8.29321 5.42053 6.86655C5.42053 5.43988 6.58053 4.29321 8.00053 4.29321C9.42053 4.29321 10.5805 5.44655 10.5805 6.87321C10.5805 8.29988 9.42053 9.44655 8.00053 9.44655ZM8.00053 5.29321C7.13387 5.29321 6.42053 5.99988 6.42053 6.87321C6.42053 7.74655 7.1272 8.45321 8.00053 8.45321C8.87387 8.45321 9.58053 7.74655 9.58053 6.87321C9.58053 5.99988 8.8672 5.29321 8.00053 5.29321Z" fill="white"/>
<path d="M7.99975 15.1733C7.01308 15.1733 6.01975 14.7999 5.24642 14.0599C3.27975 12.1666 1.10642 9.14659 1.92642 5.55325C2.66642 2.29325 5.51308 0.833252 7.99975 0.833252C7.99975 0.833252 7.99975 0.833252 8.00642 0.833252C10.4931 0.833252 13.3398 2.29325 14.0798 5.55992C14.8931 9.15325 12.7198 12.1666 10.7531 14.0599C9.97975 14.7999 8.98642 15.1733 7.99975 15.1733ZM7.99975 1.83325C6.05975 1.83325 3.56642 2.86659 2.90642 5.77325C2.18642 8.91325 4.15975 11.6199 5.94642 13.3333C7.09975 14.4466 8.90642 14.4466 10.0598 13.3333C11.8398 11.6199 13.8131 8.91325 13.1064 5.77325C12.4397 2.86659 9.93975 1.83325 7.99975 1.83325Z" fill="white"/>
</svg>
