<svg width="26" height="26" viewBox="0 0 26 26" fill="none" xmlns="http://www.w3.org/2000/svg">
<path fill-rule="evenodd" clip-rule="evenodd" d="M13.2931 0C13.645 0.312782 13.2931 1.09474 13.4886 1.44662C13.5668 1.68121 13.9186 1.60301 14.1141 1.7203C14.8179 2.11128 15.3653 2.65864 15.8344 3.24511C16.8119 4.57443 17.2419 6.17744 17.5156 7.81955C17.5938 8.05414 17.6329 8.24963 17.6329 8.48422C17.672 8.64061 17.672 8.797 17.4374 8.6797C16.2254 8.24963 14.9743 8.05413 13.7231 7.93684C12.6675 7.81954 11.651 7.97594 10.6735 8.21053C10.0871 8.32782 9.4224 8.48421 8.87503 8.6406C8.60135 8.7579 8.56226 8.6406 8.56226 8.44512C8.64045 7.93684 8.71863 7.42857 8.83592 6.95939C9.1487 5.55188 9.61789 4.18345 10.5562 3.04962C10.9863 2.50225 11.4946 1.91579 12.2374 1.7203C12.7848 1.48571 12.7848 1.48572 12.8239 0.860155C12.8239 0.547373 12.7066 0.273687 12.9412 0.0391001C13.0585 2.38575e-06 13.1758 0 13.2931 0Z" fill="#00377B"/>
<path fill-rule="evenodd" clip-rule="evenodd" d="M21.0737 8.25062C20.8782 8.25062 20.7218 8.17242 20.5654 8.13332C19.9007 7.97693 19.2361 8.01603 18.5714 8.25062C18.1413 8.36791 18.1413 8.3679 18.1022 7.93783C17.9849 6.80399 17.7113 5.74836 17.2812 4.69272C16.8511 3.59798 16.1865 2.62054 15.3263 1.79949C15.2481 1.7213 15.0917 1.68219 15.0526 1.5258C15.1699 1.44761 15.2481 1.4867 15.3654 1.4867C18.1804 2.11227 20.5654 4.65363 20.9955 7.50776C20.9955 7.58596 21.0346 7.62506 21.0737 7.70325C21.0737 7.89874 21.0737 8.05513 21.0737 8.25062Z" fill="#F68632"/>
<path fill-rule="evenodd" clip-rule="evenodd" d="M13.0587 9.22784C14.8181 9.22784 16.6165 9.26694 18.3759 9.22784C19.7835 9.18874 20.7609 9.7361 21.3083 11.1045C21.4647 11.5346 21.7384 11.9647 21.8556 12.3948C22.2075 13.8023 23.0677 14.3105 24.4752 14.1151C25.1007 14.0369 25.9609 13.8023 26 15.0143C26 16.0308 25.5699 16.2654 24.7098 16.2654C23.8887 16.1872 24.006 16.8128 24.006 17.3602C23.9669 19.5887 23.9278 21.8564 24.006 24.085C24.0451 25.1797 23.6541 25.5707 22.5985 25.4925C22.0902 25.4143 21.5429 25.4143 21.0346 25.4925C19.588 25.6489 18.6887 25.297 18.9624 23.5767C19.0797 22.9511 18.6887 22.7557 18.1023 22.7557C14.7007 22.7948 11.3383 22.7948 7.93684 22.7557C7.07669 22.7557 6.9985 23.2248 7.03759 23.8895C7.19398 25.0624 6.803 25.5316 5.59097 25.4925C1.40751 25.3752 2.11128 25.9617 2.03309 22.0128C2.03309 20.4489 2.03308 18.885 2.07218 17.282C2.07218 16.6173 1.91578 16.1481 1.09473 16.2654C0.156386 16.3436 0.0390977 15.7572 0 15.0143C0 14.1541 0.547368 13.9978 1.17293 14.1542C3.08872 14.5842 3.83157 13.4895 4.41804 11.8865C5.31729 9.46242 5.70828 9.26694 8.36693 9.26694C9.93084 9.22784 11.4947 9.22784 13.0587 9.22784Z" fill="#00377B"/>
<path fill-rule="evenodd" clip-rule="evenodd" d="M4.92639 8.25062C5.12188 8.25062 5.27829 8.17242 5.43468 8.13332C6.09934 7.97693 6.764 8.01603 7.42866 8.25062C7.85873 8.36791 7.85874 8.3679 7.89783 7.93783C8.01513 6.80399 8.3279 5.74836 8.71888 4.69272C9.14895 3.59798 9.81361 2.62054 10.6738 1.79949C10.752 1.7213 10.9084 1.68219 10.9084 1.5258C10.8302 1.44761 10.7129 1.4867 10.6347 1.4867C7.81964 2.11227 5.43467 4.65363 5.00459 7.50776C5.00459 7.58596 4.96549 7.62506 4.92639 7.70325C4.92639 7.89874 4.92639 8.05513 4.92639 8.25062Z" fill="#F68632"/>
<path fill-rule="evenodd" clip-rule="evenodd" d="M12.9804 15.3269C15.6 15.3269 18.2195 15.2878 20.8782 15.3269C21.9729 15.3269 22.403 15.0532 21.8165 13.9585C21.3864 13.0592 20.9954 12.1209 20.6045 11.1825C20.1744 10.1269 19.3924 9.6968 18.2586 9.73589C15.6 9.77499 12.9022 9.73589 10.2436 9.73589C5.19995 9.77499 6.29469 9.18852 4.18341 13.8021C4.14431 13.8803 4.10522 13.9976 4.06612 14.0757C3.55785 15.0532 3.94881 15.3269 4.92625 15.3269C7.624 15.3269 10.2827 15.3269 12.9804 15.3269Z" fill="#FEFEFE"/>
<path fill-rule="evenodd" clip-rule="evenodd" d="M4.22247 16.4988H8.44502C8.64051 16.4988 8.836 16.6552 8.836 16.8507V17.9845C8.836 18.1409 8.64051 18.2973 8.44502 18.2973H4.22247C4.02698 18.2973 3.87061 18.1409 3.87061 17.9845V16.8507C3.9097 16.6552 4.06608 16.4988 4.22247 16.4988Z" fill="#F68632"/>
<path fill-rule="evenodd" clip-rule="evenodd" d="M17.7111 16.4988H21.9337C22.1683 16.4988 22.3246 16.6552 22.3246 16.8507V17.9845C22.3246 18.1409 22.1683 18.2973 21.9337 18.2973H17.7111C17.5156 18.2973 17.3593 18.1409 17.3593 17.9845V16.8507C17.3593 16.6552 17.5156 16.4988 17.7111 16.4988Z" fill="#F68632"/>
</svg>
