<svg width="48" height="48" viewBox="0 0 48 48" fill="none" xmlns="http://www.w3.org/2000/svg">
<circle cx="24" cy="24" r="24" fill="#F2F5F8"/>
<path d="M29.62 22.7496C29.19 22.7496 28.85 22.3996 28.85 21.9796C28.85 21.6096 28.48 20.8396 27.86 20.1696C27.25 19.5196 26.58 19.1396 26.02 19.1396C25.59 19.1396 25.25 18.7896 25.25 18.3696C25.25 17.9496 25.6 17.5996 26.02 17.5996C27.02 17.5996 28.07 18.1396 28.99 19.1096C29.85 20.0196 30.4 21.1496 30.4 21.9696C30.4 22.3996 30.05 22.7496 29.62 22.7496Z" fill="#00377B"/>
<path d="M33.23 22.75C32.8 22.75 32.46 22.4 32.46 21.98C32.46 18.43 29.57 15.55 26.03 15.55C25.6 15.55 25.26 15.2 25.26 14.78C25.26 14.36 25.6 14 26.02 14C30.42 14 34 17.58 34 21.98C34 22.4 33.65 22.75 33.23 22.75Z" fill="#00377B"/>
<path d="M23.05 26.95L21.2 28.8C20.81 29.19 20.19 29.19 19.79 28.81C19.68 28.7 19.57 28.6 19.46 28.49C18.43 27.45 17.5 26.36 16.67 25.22C15.85 24.08 15.19 22.94 14.71 21.81C14.24 20.67 14 19.58 14 18.54C14 17.86 14.12 17.21 14.36 16.61C14.6 16 14.98 15.44 15.51 14.94C16.15 14.31 16.85 14 17.59 14C17.87 14 18.15 14.06 18.4 14.18C18.66 14.3 18.89 14.48 19.07 14.74L21.39 18.01C21.57 18.26 21.7 18.49 21.79 18.71C21.88 18.92 21.93 19.13 21.93 19.32C21.93 19.56 21.86 19.8 21.72 20.03C21.59 20.26 21.4 20.5 21.16 20.74L20.4 21.53C20.29 21.64 20.24 21.77 20.24 21.93C20.24 22.01 20.25 22.08 20.27 22.16C20.3 22.24 20.33 22.3 20.35 22.36C20.53 22.69 20.84 23.12 21.28 23.64C21.73 24.16 22.21 24.69 22.73 25.22C22.83 25.32 22.94 25.42 23.04 25.52C23.44 25.91 23.45 26.55 23.05 26.95Z" fill="#00377B"/>
<path d="M33.97 30.33C33.97 30.61 33.92 30.9 33.82 31.18C33.79 31.26 33.76 31.34 33.72 31.42C33.55 31.78 33.33 32.12 33.04 32.44C32.55 32.98 32.01 33.37 31.4 33.62C31.39 33.62 31.38 33.63 31.37 33.63C30.78 33.87 30.14 34 29.45 34C28.43 34 27.34 33.76 26.19 33.27C25.04 32.78 23.89 32.12 22.75 31.29C22.36 31 21.97 30.71 21.6 30.4L24.87 27.13C25.15 27.34 25.4 27.5 25.61 27.61C25.66 27.63 25.72 27.66 25.79 27.69C25.87 27.72 25.95 27.73 26.04 27.73C26.21 27.73 26.34 27.67 26.45 27.56L27.21 26.81C27.46 26.56 27.7 26.37 27.93 26.25C28.16 26.11 28.39 26.04 28.64 26.04C28.83 26.04 29.03 26.08 29.25 26.17C29.47 26.26 29.7 26.39 29.95 26.56L33.26 28.91C33.52 29.09 33.7 29.3 33.81 29.55C33.91 29.8 33.97 30.05 33.97 30.33Z" fill="#00377B"/>
</svg>
