<svg width="32" height="32" viewBox="0 0 32 32" fill="none" xmlns="http://www.w3.org/2000/svg">
<path d="M25.08 8.33331H26.8933C26.64 7.97331 26.3733 7.63997 26.0933 7.30664L25.08 8.33331Z" fill="#00377B"/>
<path d="M24.6933 5.89326C24.36 5.61326 24.0266 5.3466 23.6666 5.09326V6.90659L24.6933 5.89326Z" fill="#00377B"/>
<path d="M26.1067 7.30659L30.04 3.37326C30.4267 2.98659 30.4267 2.34659 30.04 1.95992C29.6534 1.57326 29.0134 1.57326 28.6267 1.95992L24.6934 5.89326C25.2 6.33326 25.6667 6.81326 26.1067 7.30659Z" fill="#00377B"/>
<path d="M23.6667 4C23.6667 3.45333 23.2134 3 22.6667 3C22.1334 3 21.7067 3.42667 21.6801 3.94667C22.3734 4.28 23.0401 4.65333 23.6667 5.09333V4Z" fill="#00377B"/>
<path d="M29 9.3335C29 8.78683 28.5466 8.3335 28 8.3335H26.8933C27.3333 8.96016 27.72 9.62683 28.04 10.3202C28.5733 10.2935 29 9.86683 29 9.3335Z" fill="#00377B"/>
<path d="M17 19.6666H17.4C17.92 19.6666 18.3333 19.1999 18.3333 18.6266C18.3333 17.9066 18.1333 17.7999 17.68 17.6399L17 17.3999V19.6666Z" fill="#00377B"/>
<path d="M28.0533 10.3198C28.04 10.3198 28.0266 10.3332 28 10.3332H22.6666C22.5333 10.3332 22.4133 10.3065 22.28 10.2532C22.04 10.1465 21.84 9.95984 21.7333 9.7065C21.6933 9.5865 21.6666 9.4665 21.6666 9.33317V3.99984C21.6666 3.9865 21.68 3.97317 21.68 3.9465C19.9466 3.13317 18.0266 2.6665 16 2.6665C8.63996 2.6665 2.66663 8.63984 2.66663 15.9998C2.66663 23.3598 8.63996 29.3332 16 29.3332C23.36 29.3332 29.3333 23.3598 29.3333 15.9998C29.3333 13.9732 28.8666 12.0532 28.0533 10.3198ZM18.3333 15.7598C19.1866 16.0532 20.3333 16.6798 20.3333 18.6398C20.3333 20.3065 19.0133 21.6798 17.4 21.6798H17V22.0132C17 22.5598 16.5466 23.0132 16 23.0132C15.4533 23.0132 15 22.5598 15 22.0132V21.6798H14.8933C13.12 21.6798 11.6666 20.1865 11.6666 18.3465C11.6666 17.7865 12.12 17.3332 12.6666 17.3332C13.2133 17.3332 13.6666 17.7865 13.6666 18.3332C13.6666 19.0665 14.2133 19.6665 14.8933 19.6665H15V16.7065L13.6666 16.2398C12.8133 15.9465 11.6666 15.3198 11.6666 13.3598C11.6666 11.6932 12.9866 10.3198 14.6 10.3198H15V9.99984C15 9.45317 15.4533 8.99984 16 8.99984C16.5466 8.99984 17 9.45317 17 9.99984V10.3332H17.1066C18.88 10.3332 20.3333 11.8265 20.3333 13.6665C20.3333 14.2132 19.88 14.6665 19.3333 14.6665C18.7866 14.6665 18.3333 14.2132 18.3333 13.6665C18.3333 12.9332 17.7866 12.3332 17.1066 12.3332H17V15.2932L18.3333 15.7598Z" fill="#00377B"/>
<path d="M13.6666 13.3735C13.6666 14.0935 13.8666 14.2002 14.32 14.3602L15 14.6002V12.3335H14.6C14.0933 12.3335 13.6666 12.8002 13.6666 13.3735Z" fill="#00377B"/>
</svg>
