<svg width="16" height="16" viewBox="0 0 16 16" fill="none" xmlns="http://www.w3.org/2000/svg">
<path d="M3.69332 13.0137C3.28666 13.0137 2.90666 12.8737 2.63332 12.6137C2.28666 12.287 2.11999 11.7937 2.17999 11.2604L2.42666 9.10036C2.47332 8.69369 2.71999 8.15369 3.00666 7.86036L8.47999 2.06702C9.84666 0.620358 11.2733 0.580358 12.72 1.94703C14.1667 3.31369 14.2067 4.74036 12.84 6.18702L7.36666 11.9804C7.08666 12.2804 6.56666 12.5604 6.15999 12.627L4.01332 12.9937C3.89999 13.0004 3.79999 13.0137 3.69332 13.0137ZM10.62 1.94036C10.1067 1.94036 9.65999 2.26036 9.20666 2.74036L3.73332 8.54036C3.59999 8.68036 3.44666 9.01369 3.41999 9.20703L3.17332 11.367C3.14666 11.587 3.19999 11.767 3.31999 11.8804C3.43999 11.9937 3.61999 12.0337 3.83999 12.0004L5.98666 11.6337C6.17999 11.6004 6.49999 11.427 6.63332 11.287L12.1067 5.49369C12.9333 4.61369 13.2333 3.80036 12.0267 2.66702C11.4933 2.15369 11.0333 1.94036 10.62 1.94036Z" fill="#262628"/>
<path d="M11.5603 7.30023C11.5469 7.30023 11.5269 7.30023 11.5136 7.30023C9.4336 7.09356 7.76027 5.51356 7.44027 3.44689C7.40027 3.17356 7.58694 2.92023 7.86027 2.87356C8.1336 2.83356 8.38694 3.02023 8.4336 3.29356C8.68694 4.90689 9.9936 6.14689 11.6203 6.30689C11.8936 6.33356 12.0936 6.58023 12.0669 6.85356C12.0336 7.10689 11.8136 7.30023 11.5603 7.30023Z" fill="#262628"/>
<path d="M14 15.167H2C1.72667 15.167 1.5 14.9403 1.5 14.667C1.5 14.3937 1.72667 14.167 2 14.167H14C14.2733 14.167 14.5 14.3937 14.5 14.667C14.5 14.9403 14.2733 15.167 14 15.167Z" fill="#262628"/>
</svg>
