<svg width="327" height="208" viewBox="0 0 327 208" fill="none" xmlns="http://www.w3.org/2000/svg">
<defs>
<linearGradient id="paint0_linear_1257_46492" x1="189" y1="-31.3359" x2="182.989" y2="343.664" gradientUnits="userSpaceOnUse">
<stop stop-color="#DAE3FE"/>
<stop offset="1" stop-color="#E9EFFD"/>
</linearGradient>
<linearGradient id="paint1_linear_1257_46492" x1="148.863" y1="193.769" x2="153.436" y2="193.769" gradientUnits="userSpaceOnUse">
<stop stop-color="#FF928E"/>
<stop offset="1" stop-color="#FEB3B1"/>
</linearGradient>
<linearGradient id="paint2_linear_1257_46492" x1="132.384" y1="193.535" x2="136.332" y2="193.535" gradientUnits="userSpaceOnUse">
<stop stop-color="#FF928E"/>
<stop offset="1" stop-color="#FEB3B1"/>
</linearGradient>
<linearGradient id="paint3_linear_1257_46492" x1="187.436" y1="47.2663" x2="179.369" y2="70.3159" gradientUnits="userSpaceOnUse">
<stop stop-color="#FF928E"/>
<stop offset="1" stop-color="#FEB3B1"/>
</linearGradient>
<linearGradient id="paint4_linear_1257_46492" x1="145.952" y1="69.9004" x2="143.637" y2="85.9538" gradientUnits="userSpaceOnUse">
<stop stop-color="#FF928E"/>
<stop offset="1" stop-color="#FEB3B1"/>
</linearGradient>
<linearGradient id="paint5_linear_1257_46492" x1="269.295" y1="134.542" x2="255.009" y2="126.357" gradientUnits="userSpaceOnUse">
<stop stop-color="#FF928E"/>
<stop offset="1" stop-color="#FEB3B1"/>
</linearGradient>
<linearGradient id="paint6_linear_1257_46492" x1="267.209" y1="138.181" x2="252.924" y2="129.996" gradientUnits="userSpaceOnUse">
<stop stop-color="#FF928E"/>
<stop offset="1" stop-color="#FEB3B1"/>
</linearGradient>
<linearGradient id="paint7_linear_1257_46492" x1="129.476" y1="161.902" x2="119.974" y2="93.6619" gradientUnits="userSpaceOnUse">
<stop stop-color="#FF928E"/>
<stop offset="1" stop-color="#FEB3B1"/>
</linearGradient>
<linearGradient id="paint8_linear_1257_46492" x1="128.345" y1="155.338" x2="120.762" y2="100.882" gradientUnits="userSpaceOnUse">
<stop stop-color="#FF928E"/>
<stop offset="1" stop-color="#FEB3B1"/>
</linearGradient>
<linearGradient id="paint9_linear_1257_46492" x1="183.049" y1="76.3388" x2="209.704" y2="76.3388" gradientUnits="userSpaceOnUse">
<stop stop-color="#DAE3FE"/>
<stop offset="1" stop-color="#E9EFFD"/>
</linearGradient>
<linearGradient id="paint10_linear_1257_46492" x1="194.103" y1="33.8887" x2="193.525" y2="53.2686" gradientUnits="userSpaceOnUse">
<stop stop-color="#FF928E"/>
<stop offset="1" stop-color="#FEB3B1"/>
</linearGradient>
<linearGradient id="paint11_linear_1257_46492" x1="189.084" y1="33.7388" x2="188.506" y2="53.1187" gradientUnits="userSpaceOnUse">
<stop stop-color="#FF928E"/>
<stop offset="1" stop-color="#FEB3B1"/>
</linearGradient>
<linearGradient id="paint12_linear_1257_46492" x1="190.453" y1="33.7799" x2="189.875" y2="53.1597" gradientUnits="userSpaceOnUse">
<stop stop-color="#FF928E"/>
<stop offset="1" stop-color="#FEB3B1"/>
</linearGradient>
<linearGradient id="paint13_linear_1257_46492" x1="192.196" y1="33.8324" x2="191.618" y2="53.2122" gradientUnits="userSpaceOnUse">
<stop stop-color="#FF928E"/>
<stop offset="1" stop-color="#FEB3B1"/>
</linearGradient>
<linearGradient id="paint14_linear_1257_46492" x1="53.8834" y1="17.7653" x2="73.3212" y2="94.1938" gradientUnits="userSpaceOnUse">
<stop stop-color="#09005D"/>
<stop offset="1" stop-color="#1A0F91"/>
</linearGradient>
<linearGradient id="paint15_linear_1257_46492" x1="77.4273" y1="8.74352" x2="56.6503" y2="23.2758" gradientUnits="userSpaceOnUse">
<stop stop-color="#09005D"/>
<stop offset="1" stop-color="#1A0F91"/>
</linearGradient>
<linearGradient id="paint16_linear_1257_46492" x1="65.396" y1="6.64274" x2="73.0347" y2="28.9092" gradientUnits="userSpaceOnUse">
<stop stop-color="#09005D"/>
<stop offset="1" stop-color="#1A0F91"/>
</linearGradient>
<linearGradient id="paint17_linear_1257_46492" x1="66.7402" y1="8.29512" x2="70.4058" y2="28.5323" gradientUnits="userSpaceOnUse">
<stop stop-color="#09005D"/>
<stop offset="1" stop-color="#1A0F91"/>
</linearGradient>
<linearGradient id="paint18_linear_1257_46492" x1="28.8355" y1="43.6958" x2="32.9304" y2="56.2736" gradientUnits="userSpaceOnUse">
<stop stop-color="#FF928E"/>
<stop offset="1" stop-color="#FEB3B1"/>
</linearGradient>
<linearGradient id="paint19_linear_1257_46492" x1="22.3238" y1="54.105" x2="26.4186" y2="66.6828" gradientUnits="userSpaceOnUse">
<stop stop-color="#FF928E"/>
<stop offset="1" stop-color="#FEB3B1"/>
</linearGradient>
<linearGradient id="paint20_linear_1257_46492" x1="31.0614" y1="50.8075" x2="35.1563" y2="63.3853" gradientUnits="userSpaceOnUse">
<stop stop-color="#FF928E"/>
<stop offset="1" stop-color="#FEB3B1"/>
</linearGradient>
<linearGradient id="paint21_linear_1257_46492" x1="272.005" y1="128.108" x2="278.41" y2="128.108" gradientUnits="userSpaceOnUse">
<stop stop-color="#DAE3FE"/>
<stop offset="1" stop-color="#E9EFFD"/>
</linearGradient>
<linearGradient id="paint22_linear_1257_46492" x1="272.544" y1="128.108" x2="277.871" y2="128.108" gradientUnits="userSpaceOnUse">
<stop stop-color="#DAE3FE"/>
<stop offset="1" stop-color="#E9EFFD"/>
</linearGradient>
<linearGradient id="paint23_linear_1257_46492" x1="277.515" y1="156.524" x2="287.016" y2="156.524" gradientUnits="userSpaceOnUse">
<stop stop-color="#DAE3FE"/>
<stop offset="1" stop-color="#E9EFFD"/>
</linearGradient>
<linearGradient id="paint24_linear_1257_46492" x1="282.158" y1="156.618" x2="282.694" y2="156.618" gradientUnits="userSpaceOnUse">
<stop stop-color="#DAE3FE"/>
<stop offset="1" stop-color="#E9EFFD"/>
</linearGradient>
<linearGradient id="paint25_linear_1257_46492" x1="277.847" y1="155.89" x2="286.643" y2="155.89" gradientUnits="userSpaceOnUse">
<stop stop-color="#DAE3FE"/>
<stop offset="1" stop-color="#E9EFFD"/>
</linearGradient>
<linearGradient id="paint26_linear_1257_46492" x1="277.301" y1="160.743" x2="287.229" y2="160.743" gradientUnits="userSpaceOnUse">
<stop stop-color="#DAE3FE"/>
<stop offset="1" stop-color="#E9EFFD"/>
</linearGradient>
<linearGradient id="paint27_linear_1257_46492" x1="277.783" y1="144.738" x2="287.284" y2="144.738" gradientUnits="userSpaceOnUse">
<stop stop-color="#DAE3FE"/>
<stop offset="1" stop-color="#E9EFFD"/>
</linearGradient>
<linearGradient id="paint28_linear_1257_46492" x1="282.427" y1="144.83" x2="282.963" y2="144.83" gradientUnits="userSpaceOnUse">
<stop stop-color="#DAE3FE"/>
<stop offset="1" stop-color="#E9EFFD"/>
</linearGradient>
<linearGradient id="paint29_linear_1257_46492" x1="278.115" y1="144.103" x2="286.911" y2="144.103" gradientUnits="userSpaceOnUse">
<stop stop-color="#DAE3FE"/>
<stop offset="1" stop-color="#E9EFFD"/>
</linearGradient>
<linearGradient id="paint30_linear_1257_46492" x1="277.569" y1="148.955" x2="287.498" y2="148.955" gradientUnits="userSpaceOnUse">
<stop stop-color="#DAE3FE"/>
<stop offset="1" stop-color="#E9EFFD"/>
</linearGradient>
<linearGradient id="paint31_linear_1257_46492" x1="262.699" y1="156.403" x2="272.2" y2="156.403" gradientUnits="userSpaceOnUse">
<stop stop-color="#DAE3FE"/>
<stop offset="1" stop-color="#E9EFFD"/>
</linearGradient>
<linearGradient id="paint32_linear_1257_46492" x1="267.343" y1="156.496" x2="267.879" y2="156.496" gradientUnits="userSpaceOnUse">
<stop stop-color="#DAE3FE"/>
<stop offset="1" stop-color="#E9EFFD"/>
</linearGradient>
<linearGradient id="paint33_linear_1257_46492" x1="263.032" y1="155.768" x2="271.828" y2="155.768" gradientUnits="userSpaceOnUse">
<stop stop-color="#DAE3FE"/>
<stop offset="1" stop-color="#E9EFFD"/>
</linearGradient>
<linearGradient id="paint34_linear_1257_46492" x1="262.486" y1="160.62" x2="272.415" y2="160.62" gradientUnits="userSpaceOnUse">
<stop stop-color="#DAE3FE"/>
<stop offset="1" stop-color="#E9EFFD"/>
</linearGradient>
<linearGradient id="paint35_linear_1257_46492" x1="262.969" y1="144.616" x2="272.469" y2="144.616" gradientUnits="userSpaceOnUse">
<stop stop-color="#DAE3FE"/>
<stop offset="1" stop-color="#E9EFFD"/>
</linearGradient>
<linearGradient id="paint36_linear_1257_46492" x1="267.612" y1="144.71" x2="268.148" y2="144.71" gradientUnits="userSpaceOnUse">
<stop stop-color="#DAE3FE"/>
<stop offset="1" stop-color="#E9EFFD"/>
</linearGradient>
<linearGradient id="paint37_linear_1257_46492" x1="263.301" y1="143.982" x2="272.096" y2="143.982" gradientUnits="userSpaceOnUse">
<stop stop-color="#DAE3FE"/>
<stop offset="1" stop-color="#E9EFFD"/>
</linearGradient>
<linearGradient id="paint38_linear_1257_46492" x1="262.754" y1="148.834" x2="272.683" y2="148.834" gradientUnits="userSpaceOnUse">
<stop stop-color="#DAE3FE"/>
<stop offset="1" stop-color="#E9EFFD"/>
</linearGradient>
<linearGradient id="paint39_linear_1257_46492" x1="144.268" y1="31.2008" x2="153.047" y2="21.0114" gradientUnits="userSpaceOnUse">
<stop stop-color="#E1473D"/>
<stop offset="1" stop-color="#E9605A"/>
</linearGradient>
<linearGradient id="paint40_linear_1257_46492" x1="156.263" y1="31.1401" x2="171.545" y2="13.4021" gradientUnits="userSpaceOnUse">
<stop stop-color="#E1473D"/>
<stop offset="1" stop-color="#E9605A"/>
</linearGradient>
<linearGradient id="paint41_linear_1257_46492" x1="163.669" y1="57.1129" x2="179.394" y2="38.8606" gradientUnits="userSpaceOnUse">
<stop stop-color="#E1473D"/>
<stop offset="1" stop-color="#E9605A"/>
</linearGradient>
<linearGradient id="paint42_linear_1257_46492" x1="182.997" y1="36.1655" x2="194.518" y2="22.7922" gradientUnits="userSpaceOnUse">
<stop stop-color="#E1473D"/>
<stop offset="1" stop-color="#E9605A"/>
</linearGradient>
<linearGradient id="paint43_linear_1257_46492" x1="249.716" y1="55.2151" x2="257.959" y2="55.2151" gradientUnits="userSpaceOnUse">
<stop stop-color="#09005D"/>
<stop offset="1" stop-color="#1A0F91"/>
</linearGradient>
<linearGradient id="paint44_linear_1257_46492" x1="296.141" y1="55.2151" x2="304.384" y2="55.2151" gradientUnits="userSpaceOnUse">
<stop stop-color="#09005D"/>
<stop offset="1" stop-color="#1A0F91"/>
</linearGradient>
<linearGradient id="paint45_linear_1257_46492" x1="635.43" y1="408.586" x2="611.918" y2="394.22" gradientUnits="userSpaceOnUse">
<stop stop-color="#FF928E"/>
<stop offset="1" stop-color="#FEB3B1"/>
</linearGradient>
<linearGradient id="paint46_linear_1257_46492" x1="213.682" y1="221.251" x2="219.293" y2="155.671" gradientUnits="userSpaceOnUse">
<stop stop-color="#FF928E"/>
<stop offset="1" stop-color="#FEB3B1"/>
</linearGradient>
<linearGradient id="paint47_linear_1257_46492" x1="224.969" y1="222.226" x2="230.582" y2="156.629" gradientUnits="userSpaceOnUse">
<stop stop-color="#FF928E"/>
<stop offset="1" stop-color="#FEB3B1"/>
</linearGradient>
<linearGradient id="paint48_linear_1257_46492" x1="214.731" y1="141.8" x2="213.67" y2="157.131" gradientUnits="userSpaceOnUse">
<stop stop-color="#FF928E"/>
<stop offset="1" stop-color="#FEB3B1"/>
</linearGradient>
<linearGradient id="paint49_linear_1257_46492" x1="217.411" y1="160.366" x2="224.413" y2="160.366" gradientUnits="userSpaceOnUse">
<stop stop-color="#FF928E"/>
<stop offset="1" stop-color="#FEB3B1"/>
</linearGradient>
<linearGradient id="paint50_linear_1257_46492" x1="345.226" y1="-129.535" x2="340.823" y2="-120.505" gradientUnits="userSpaceOnUse">
<stop stop-color="#FF928E"/>
<stop offset="1" stop-color="#FEB3B1"/>
</linearGradient>
<linearGradient id="paint51_linear_1257_46492" x1="210.361" y1="132.956" x2="217.113" y2="143.377" gradientUnits="userSpaceOnUse">
<stop stop-color="#09005D"/>
<stop offset="1" stop-color="#1A0F91"/>
</linearGradient>
<linearGradient id="paint52_linear_1257_46492" x1="347.134" y1="-128.605" x2="342.731" y2="-119.575" gradientUnits="userSpaceOnUse">
<stop stop-color="#FF928E"/>
<stop offset="1" stop-color="#FEB3B1"/>
</linearGradient>
<linearGradient id="paint53_linear_1257_46492" x1="637.524" y1="405.156" x2="614.013" y2="390.791" gradientUnits="userSpaceOnUse">
<stop stop-color="#FF928E"/>
<stop offset="1" stop-color="#FEB3B1"/>
</linearGradient>
<linearGradient id="paint54_linear_1257_46492" x1="196.49" y1="134.95" x2="196.875" y2="150.763" gradientUnits="userSpaceOnUse">
<stop stop-color="#FF928E"/>
<stop offset="1" stop-color="#FEB3B1"/>
</linearGradient>
</defs>
<path d="M59.1252 16.9332C36.1008 39.1043 70.406 63.4015 54.2803 76.0417C38.1545 88.682 -30.2824 115.742 43.0284 155.774C116.339 195.806 121.314 217.254 169.735 185.711C218.141 154.169 213.094 157.336 255.701 173.736C298.307 190.137 339.584 157.596 322.59 123.277C305.582 88.9568 296.254 90.0126 311.57 66.3807C326.885 42.7634 292.812 -29.6363 238.186 22.3133C183.561 74.2628 175.419 46.2344 149.357 22.7761C135.227 10.0924 95.5131 -18.1096 59.1252 16.9332Z" fill="url(#paint0_linear_1257_46492)"/>
<path d="M0.450538 120.007C-0.171353 119.848 -0.142429 118.951 0.493925 118.836C10.5743 116.956 47.8589 112.328 84.319 137.088C117.67 159.75 137.368 181.112 144.368 189.355C145.756 190.99 144.874 193.506 142.777 193.911C130.339 196.341 95.137 201.301 74.8894 184.973C50.6935 165.492 30.0554 127.933 0.450538 120.007Z" fill="#91B3FA"/>
<path d="M114.85 130.001C114.85 130.001 86.4306 47.5785 35.1608 7.21344C31.7187 4.49448 25.8035 6.47585 24.7477 10.7134C17.7189 38.9877 6.00422 123.579 114.85 130.001Z" fill="#BDD0FB"/>
<path d="M104.668 125.75C104.928 125.923 104.624 126.285 104.335 126.14C93.9655 121.006 53.5137 94.4529 35.5801 33.4352C35.5222 33.2328 35.8549 33.1171 35.9416 33.3051C41.6544 47.2615 64.6065 98.4301 104.668 125.75Z" fill="#DCE5FE"/>
<path d="M164.876 143.235C164.876 143.235 212.819 54.3332 274.647 15.6892C278.797 13.086 284.423 16.0942 284.539 20.9825C285.32 53.6969 278.089 150.292 164.876 143.235Z" fill="#91B3FA"/>
<path d="M176.287 139.807C175.983 139.966 176.214 140.414 176.533 140.299C188.349 135.887 235.93 111.344 268.225 45.1348C268.327 44.9178 268.008 44.7443 267.893 44.9467C258.868 59.8577 223.652 114.338 176.287 139.807Z" fill="#DCE5FE"/>
<path d="M294.417 117.693C287.446 132.951 243.22 220.059 154.014 193.246C154.014 193.246 168.361 128.395 292.985 115.697C294.07 115.582 294.865 116.695 294.417 117.693Z" fill="#BDD0FB"/>
<path d="M279.636 125.778C275.702 129.669 271.624 133.4 267.502 137.073C263.366 140.732 259.142 144.305 254.847 147.776C250.552 151.261 246.184 154.631 241.73 157.914L240.066 159.143L238.374 160.344L236.682 161.544C236.118 161.949 235.554 162.354 234.99 162.73L231.577 165.087L228.12 167.387C226.978 168.168 225.806 168.891 224.635 169.643C223.463 170.381 222.306 171.133 221.12 171.841L217.577 173.996L213.99 176.079L213.094 176.6L212.182 177.106L210.36 178.104L208.538 179.102C207.93 179.434 207.309 179.738 206.701 180.056C205.472 180.693 204.243 181.329 203.013 181.951L199.267 183.744L198.327 184.192L197.373 184.612L195.478 185.451L193.584 186.29C192.947 186.564 192.296 186.81 191.66 187.085L189.737 187.866L188.768 188.256C188.449 188.387 188.131 188.517 187.799 188.632L183.894 190.05C178.658 191.843 173.307 193.347 167.869 194.446C167.609 194.504 167.363 194.331 167.305 194.07C167.247 193.81 167.421 193.564 167.681 193.506C173.076 192.451 178.383 190.975 183.604 189.211L187.495 187.823C187.827 187.707 188.146 187.577 188.464 187.447L189.418 187.056L191.342 186.29C191.978 186.029 192.629 185.783 193.251 185.509L195.146 184.684L197.04 183.86L197.98 183.44L198.92 182.992L202.652 181.213C203.881 180.606 205.11 179.969 206.34 179.333C206.947 179.015 207.569 178.711 208.176 178.378L209.999 177.395L211.821 176.412L212.732 175.92L213.629 175.399L217.215 173.331L220.759 171.191C221.945 170.482 223.102 169.744 224.273 169.007C225.43 168.269 226.616 167.546 227.759 166.78L231.215 164.494L234.628 162.151C235.207 161.761 235.771 161.37 236.321 160.966L238.013 159.765L239.705 158.565L241.368 157.35C245.822 154.096 250.205 150.741 254.514 147.284C258.81 143.827 263.047 140.284 267.198 136.639C271.334 132.995 275.427 129.278 279.361 125.417C279.433 125.344 279.564 125.344 279.65 125.417C279.708 125.576 279.708 125.706 279.636 125.778Z" fill="#DCE5FE"/>
<path d="M76.5381 39.3061C77.6807 38.2359 79.2137 37.7008 80.7757 37.8454C97.4221 39.3495 128.502 31.3228 148.808 10.5401C150.211 9.09381 152.785 9.91818 154.405 11.1186C176.981 27.9964 214.424 31.4963 227.412 32.205C230.102 32.3496 232.286 34.4323 232.56 37.1223C244.376 151.261 170.068 192.624 154.651 199.913C152.973 200.709 150.977 200.593 149.401 199.609C72.5754 151.767 75.8584 89.5347 74.8026 43.4424C74.7592 41.8805 75.3956 40.3764 76.5381 39.3061Z" fill="#00377B"/>
<path d="M152.568 191.468C152.249 191.468 151.946 191.381 151.671 191.207C122.254 172.406 103.077 149.917 93.0541 122.481C84.1018 97.9669 83.6679 73.0045 83.2774 50.9636C83.263 49.9801 83.2485 48.9966 83.2196 48.0277C83.2051 47.5793 83.3787 47.1599 83.6969 46.8417C84.015 46.5235 84.4344 46.35 84.8828 46.35H84.8972C94.5727 46.35 106.027 44.0938 117.149 40.0154C129.89 35.344 141.489 28.5032 150.688 20.2595C151.252 19.7533 152.076 19.6955 152.712 20.1149C162.2 26.4061 183.951 37.3977 223.116 40.2757C223.926 40.3336 224.577 40.9699 224.649 41.7798C228.554 86.2667 219.298 123.898 197.156 153.604C180.611 175.79 160.999 187.346 153.349 191.28C153.074 191.41 152.828 191.468 152.568 191.468ZM153.117 190.903L153.218 191.091L153.117 190.903C160.753 186.984 180.292 175.457 196.78 153.344C218.864 123.725 228.091 86.2089 224.201 41.8087C224.143 41.2013 223.666 40.7241 223.058 40.6807C215.118 40.1022 202.941 38.7571 189.997 35.6621C174.869 32.0465 162.229 26.9267 152.452 20.4475C151.989 20.1438 151.367 20.1872 150.948 20.5632C141.706 28.8358 130.064 35.7055 117.279 40.3914C106.114 44.4988 94.6016 46.7549 84.8828 46.7549H84.8683C84.5357 46.7549 84.2175 46.8851 83.9716 47.131C83.7402 47.3624 83.6101 47.6806 83.6245 48.0132C83.639 48.9822 83.6535 49.9656 83.6824 50.9491C84.0729 72.9467 84.5068 97.8802 93.4302 122.322C103.424 149.671 122.543 172.073 151.873 190.831C152.264 191.077 152.741 191.106 153.117 190.903Z" fill="#91B3FA"/>
<path d="M149.299 193.782C149.299 193.782 148.764 196.804 148.504 199.784C148.402 200.955 149.299 201.968 150.471 202.011C154.448 202.17 162.966 202.503 166.018 202.358C166.481 202.344 166.77 201.866 166.611 201.447C166.466 201.085 166.191 200.796 165.844 200.637L151.787 194.172L149.299 193.782Z" fill="#335F95"/>
<path d="M148.865 192.002L149.299 195.617C149.299 195.617 151.758 196.76 153.45 195.473L152.423 191.452L148.865 192.002Z" fill="url(#paint1_linear_1257_46492)"/>
<path d="M149.184 124.144C148.996 125.084 148.186 171.191 153.117 191.843C153.204 192.176 153.031 192.523 152.713 192.653C151.96 192.957 150.471 193.405 148.706 193.463C148.157 193.477 147.665 193.13 147.506 192.595C146.103 187.808 139.349 163.786 138.467 140.848C137.483 115.22 138.467 139.98 138.467 139.98L139.045 124.129L149.184 124.144Z" fill="#335F95"/>
<path d="M133.13 195.358C133.13 195.358 132.277 196.876 131.467 200.926C131.322 201.664 131.828 202.358 132.566 202.43C133.882 202.56 135.907 202.719 137.527 202.719C138.279 202.719 138.857 202.069 138.77 201.316C138.597 199.841 138.033 197.412 136.312 195.531L133.13 195.358Z" fill="#335F95"/>
<path d="M132.378 190.715L133.376 196.167C133.376 196.167 134.359 196.905 136.326 196.37L135.849 190.498L132.378 190.715Z" fill="url(#paint2_linear_1257_46492)"/>
<path d="M129.688 125.561C125.653 149.887 130.556 185.682 132.219 192.682C132.32 193.116 132.667 193.434 133.101 193.507C133.839 193.622 135.054 193.723 136.254 193.376C136.673 193.261 136.963 192.885 136.977 192.451C137.194 186.781 136.804 152.013 140.549 138.274C140.737 137.58 141.171 136.972 141.75 136.553L149.039 131.375L149.603 123.001L129.688 125.561Z" fill="#335F95"/>
<path d="M155.359 79.4694C143.283 79.2669 129.948 82.6367 129.948 82.6367C126.347 103.651 129.312 127.876 129.312 127.876C138.669 130.334 149.212 126.372 149.212 126.372C150.774 117.593 158.035 92.8906 158.035 92.8906C163.935 92.153 168.795 90.4609 172.801 88.2048C169.749 84.6614 168.303 80.1636 167.681 77.5024C163.415 78.8185 159.09 79.5272 155.359 79.4694Z" fill="#F68632"/>
<path d="M191.038 61.6804C189.852 60.2486 188.348 60.9283 188.348 60.9283C186.569 68.4344 177.255 74.5232 167.681 77.5024C168.303 80.1636 169.749 84.6759 172.801 88.2048C188.681 79.2669 191.038 61.6804 191.038 61.6804Z" fill="url(#paint3_linear_1257_46492)"/>
<path d="M134.591 94.3365L129.963 82.6362C129.963 82.6362 118.682 90.3014 116.831 100.02C118.957 100.179 122.847 100.729 126.636 102.652C127.461 98.0678 134.591 94.3365 134.591 94.3365Z" fill="#F68632"/>
<path d="M143.123 69.6634L139.276 80.7707C139.219 80.9587 139.291 81.1611 139.464 81.2479C140.506 81.8264 144.28 83.5041 148.836 80.6116C149.313 80.3078 149.632 79.8161 149.704 79.2665L150.948 69.6489H143.123V69.6634Z" fill="url(#paint4_linear_1257_46492)"/>
<path d="M151.484 59.3657C151.484 59.3657 155.707 67.3057 155.157 70.5164C154.622 73.7271 149.387 73.4957 144.816 70.8924L141.62 62.3161L151.484 59.3657Z" fill="url(#paint5_linear_1257_46492)"/>
<path d="M145.033 66.6837C145.221 66.597 145.293 66.38 145.178 66.2065C144.845 65.6858 144.209 64.63 144.006 63.7189C144.006 63.7189 143.254 63.2272 145.944 62.5908C148.634 61.94 152.64 60.9421 153.494 58.657C154.318 56.4298 152.163 50.8183 148.707 55.2872C148.576 55.4608 148.316 55.4608 148.186 55.2872C147.622 54.5496 146.132 53.0311 144.079 53.9567C142.155 54.8244 141.938 56.2417 141.953 56.9504C141.967 57.1529 141.779 57.3264 141.562 57.2831C140.593 57.095 138.25 56.936 137.151 59.3367C136.254 61.3181 136.833 62.4317 137.368 62.9813C137.541 63.1549 137.469 63.4441 137.223 63.5164C136.587 63.7189 135.748 64.254 135.835 65.7581C135.951 67.8407 138.265 67.6527 138.93 67.5515C139.031 67.537 139.147 67.5659 139.219 67.6527C139.783 68.2746 142.343 70.9357 145.105 71.2684C145.351 71.2973 145.525 71.0659 145.452 70.8345L144.252 67.3635C144.194 67.2044 144.281 67.0308 144.426 66.9585L145.033 66.6837Z" fill="#335F95"/>
<path d="M145.51 67.1757C145.51 67.1757 142.502 65.1075 142.285 66.843C142.068 68.5786 144.99 69.3595 146.436 68.7087L145.51 67.1757Z" fill="url(#paint6_linear_1257_46492)"/>
<path d="M126.622 102.652C126.622 102.652 122.674 120.441 126.246 130.435C121.864 132.459 122.674 132.083 122.674 132.083C122.674 132.083 114.025 106.774 116.816 100.02C122.341 99.4413 125.074 100.917 126.622 102.652Z" fill="url(#paint7_linear_1257_46492)"/>
<path d="M126.26 130.435C126.26 130.435 128.517 133.356 128.343 134.513C128.17 135.67 128.126 136.147 128.126 136.147C128.126 136.147 126.998 135.366 127.07 134.383C127.229 137.521 128.285 141.108 127.331 140.934C126.376 140.761 121.415 136.191 122.544 131.331C125.046 129.567 125.769 129.769 126.26 130.435Z" fill="url(#paint8_linear_1257_46492)"/>
<path d="M145.684 84.1689L149.458 109.869C149.531 110.346 149.458 110.838 149.27 111.257L146.508 117.389C146.248 117.982 145.496 117.968 145.235 117.389L142.488 111.156C142.328 110.795 142.256 110.39 142.285 109.985L143.919 84.4727L145.684 84.1689Z" fill="#FBCFAD"/>
<path d="M145.64 81.8696L148.07 86.0348C148.301 86.541 149.213 86.5699 149.502 86.0926L152.51 79.4399L149.733 78.9771L145.64 81.8696Z" fill="#FAB684"/>
<path d="M139.797 79.2954L144.063 81.8842L142.892 86.0061C142.675 86.5701 141.648 86.6135 141.345 86.0639L138.307 80.626L139.797 79.2954Z" fill="#FAB684"/>
<path d="M143.746 81.8555L146.219 81.3927C146.334 81.3782 146.436 81.465 146.421 81.5807L145.915 85.4856C145.9 85.5579 145.857 85.6158 145.785 85.6302L144.02 86.0063C143.919 86.0207 143.818 85.9484 143.818 85.8472L143.615 82.0435C143.601 81.9423 143.673 81.87 143.746 81.8555Z" fill="#FAB684"/>
<path d="M210.143 96.5932H182.636C182.26 96.5932 181.941 96.2894 181.941 95.899V56.9657C181.941 56.5897 182.245 56.2715 182.636 56.2715H210.143C210.519 56.2715 210.838 56.5752 210.838 56.9657V95.9134C210.838 96.2894 210.519 96.5932 210.143 96.5932Z" fill="#CCD7E5"/>
<path d="M208.943 95.0456H183.822C183.402 95.0456 183.055 94.6984 183.055 94.279V58.3974C183.055 57.978 183.402 57.6309 183.822 57.6309H208.943C209.363 57.6309 209.71 57.978 209.71 58.3974V94.279C209.71 94.6984 209.363 95.0456 208.943 95.0456ZM183.807 57.7755C183.46 57.7755 183.185 58.0503 183.185 58.3974V94.279C183.185 94.6261 183.46 94.9009 183.807 94.9009H208.943C209.29 94.9009 209.565 94.6261 209.565 94.279V58.3974C209.565 58.0503 209.29 57.7755 208.943 57.7755H183.807Z" fill="url(#paint9_linear_1257_46492)"/>
<path d="M207.656 67.2484H185.34C185.109 67.2484 184.921 67.0603 184.921 66.8289V66.7422C184.921 66.5108 185.109 66.3228 185.34 66.3228H207.656C207.887 66.3228 208.075 66.5108 208.075 66.7422V66.8289C208.075 67.0603 207.887 67.2484 207.656 67.2484Z" fill="#6687B0"/>
<path d="M207.656 71.1239H185.34C185.109 71.1239 184.921 70.9358 184.921 70.7044V70.6177C184.921 70.3863 185.109 70.1982 185.34 70.1982H207.656C207.887 70.1982 208.075 70.3863 208.075 70.6177V70.7044C208.075 70.9503 207.887 71.1239 207.656 71.1239Z" fill="#6687B0"/>
<path d="M207.656 75.0286H185.34C185.109 75.0286 184.921 74.8406 184.921 74.6092V74.5224C184.921 74.291 185.109 74.103 185.34 74.103H207.656C207.887 74.103 208.075 74.291 208.075 74.5224V74.6092C208.075 74.8406 207.887 75.0286 207.656 75.0286Z" fill="#6687B0"/>
<path d="M207.656 79.0638H185.34C185.109 79.0638 184.921 78.8758 184.921 78.6444V78.5576C184.921 78.3262 185.109 78.1382 185.34 78.1382H207.656C207.887 78.1382 208.075 78.3262 208.075 78.5576V78.6444C208.075 78.8758 207.887 79.0638 207.656 79.0638Z" fill="#6687B0"/>
<path d="M207.555 83.1566H185.239C185.008 83.1566 184.82 82.9685 184.82 82.7371V82.6504C184.82 82.419 185.008 82.231 185.239 82.231H207.555C207.786 82.231 207.974 82.419 207.974 82.6504V82.7371C207.96 82.9685 207.772 83.1566 207.555 83.1566Z" fill="#6687B0"/>
<path d="M207.526 87.5101H185.21C184.979 87.5101 184.791 87.3221 184.791 87.0907V87.0039C184.791 86.7725 184.979 86.5845 185.21 86.5845H207.526C207.757 86.5845 207.945 86.7725 207.945 87.0039V87.0907C207.945 87.3221 207.757 87.5101 207.526 87.5101Z" fill="#6687B0"/>
<path d="M194.162 54.6365L194.9 58.0063C194.986 58.3823 194.769 58.7439 194.408 58.8596C194.017 58.9897 193.598 58.8017 193.439 58.4257L192.022 55.1572C191.92 54.9402 191.935 54.6944 192.065 54.4919C192.311 54.1014 192.831 53.5807 193.8 54.1158C193.974 54.2315 194.119 54.4196 194.162 54.6365Z" fill="url(#paint10_linear_1257_46492)"/>
<path d="M188.97 55.967L189.563 58.7149C189.635 59.0186 189.462 59.3223 189.158 59.4091C188.84 59.5103 188.493 59.3657 188.363 59.062L187.206 56.3864C187.133 56.2129 187.133 56.0104 187.235 55.8368C187.437 55.5187 187.856 55.0992 188.652 55.5331C188.825 55.6344 188.941 55.779 188.97 55.967Z" fill="url(#paint11_linear_1257_46492)"/>
<path d="M190.431 55.5767L191.111 58.7006C191.183 59.0477 190.995 59.3804 190.648 59.4961C190.286 59.6118 189.896 59.4382 189.751 59.1056L188.435 56.0684C188.348 55.866 188.363 55.6346 188.479 55.4465C188.71 55.085 189.187 54.6077 190.084 55.0994C190.257 55.2007 190.388 55.3742 190.431 55.5767Z" fill="url(#paint12_linear_1257_46492)"/>
<path d="M192.296 54.9986L193.048 58.6866C193.135 59.0915 192.904 59.4965 192.513 59.6266C192.094 59.7713 191.645 59.5688 191.472 59.1638L189.982 55.5916C189.881 55.3602 189.895 55.0854 190.026 54.854C190.286 54.4201 190.85 53.8561 191.877 54.4346C192.108 54.5503 192.253 54.7527 192.296 54.9986Z" fill="url(#paint13_linear_1257_46492)"/>
<path d="M44.2432 89.4771C63.7566 89.4771 79.5753 73.6584 79.5753 54.1451C79.5753 34.6317 63.7566 18.813 44.2432 18.813C24.7298 18.813 8.91113 34.6317 8.91113 54.1451C8.91113 73.6584 24.7298 89.4771 44.2432 89.4771Z" fill="#7D97F4"/>
<path d="M44.3158 86.4832C61.9681 86.4832 76.2781 72.1732 76.2781 54.5209C76.2781 36.8686 61.9681 22.5586 44.3158 22.5586C26.6635 22.5586 12.3535 36.8686 12.3535 54.5209C12.3535 72.1732 26.6635 86.4832 44.3158 86.4832Z" fill="white"/>
<path d="M83.6827 22.7609L54.2803 13.0276C52.6604 12.4924 50.896 13.3168 50.2741 14.9077L34.0037 56.8347C33.5265 58.0785 34.1628 59.4814 35.4211 59.9297L68.9164 71.6878C70.1023 72.1072 71.404 71.4708 71.7944 70.2704L85.9822 27.36C86.633 25.4509 85.5917 23.3972 83.6827 22.7609Z" fill="url(#paint14_linear_1257_46492)"/>
<path d="M64.245 69.3303C64.2016 69.3159 64.1726 69.2725 64.1871 69.2291C64.2016 69.1857 64.245 69.1568 64.2884 69.1713L68.0775 70.3717C69.249 70.7477 70.5362 70.0969 70.9122 68.9254L72.7923 63.2271C72.8068 63.1838 72.8502 63.1548 72.8936 63.1693C72.937 63.1838 72.9659 63.2271 72.9514 63.2705L71.0713 68.9688C70.6519 70.227 69.2779 70.9357 68.0197 70.5307L64.245 69.3303Z" fill="#BDD0FB"/>
<path d="M73.4431 61.5643C73.3997 61.5499 73.3708 61.5065 73.3852 61.4486L73.6889 60.523C73.7034 60.4797 73.7468 60.4507 73.7902 60.4652C73.8336 60.4797 73.8625 60.523 73.848 60.5664L73.5443 61.492C73.5299 61.5499 73.4865 61.5788 73.4431 61.5643Z" fill="#BDD0FB"/>
<path d="M83.7117 22.3856C79.5175 21.6046 65.1562 18.7121 54.02 14.0696C53.5138 13.8527 52.9353 14.0985 52.7328 14.6192L36.2889 56.6764C36.0575 57.2549 36.3467 57.9057 36.9252 58.1371C41.64 60.0028 61.0488 67.6535 68.3379 69.2443C68.7863 69.3456 69.2346 69.0853 69.3792 68.6514L84.5216 23.7595C84.724 23.1521 84.348 22.5013 83.7117 22.3856Z" fill="#91B3FA"/>
<path d="M82.9162 23.3536C78.8811 22.6015 65.0549 19.8247 54.3526 15.3413C53.8609 15.1388 53.2968 15.3702 53.1088 15.862L37.2723 56.3572C37.0554 56.9068 37.3301 57.5431 37.8797 57.7601C42.4065 59.5679 61.0922 66.9149 68.1065 68.4479C68.5404 68.5347 68.9598 68.3033 69.1044 67.8839L83.6827 24.6841C83.8852 24.0912 83.5236 23.4693 82.9162 23.3536Z" fill="#BDD0FB"/>
<path d="M67.6292 15.6452L71.0569 16.4551L72.344 13.4903C72.6044 12.8973 72.4164 12.1886 71.8812 11.8271C71.2883 11.4221 70.3771 11.104 69.0755 11.4944C66.5156 12.2465 67.6292 15.6452 67.6292 15.6452ZM69.1767 13.3312C69.3358 12.8684 69.8275 12.6225 70.2904 12.7816C70.7532 12.9407 70.999 13.4324 70.8399 13.8952C70.6808 14.358 70.1891 14.6039 69.7263 14.4448C69.278 14.2857 69.0176 13.7795 69.1767 13.3312Z" fill="url(#paint15_linear_1257_46492)"/>
<path d="M71.1147 15.139C71.0279 15.0956 70.9845 14.9944 71.0279 14.9076L71.2304 14.4304C71.2737 14.3436 71.375 14.3002 71.4618 14.3436C71.5485 14.387 71.5919 14.4882 71.5485 14.575L71.346 15.0523C71.3171 15.1101 71.2593 15.1535 71.187 15.1535C71.1725 15.1535 71.1436 15.1535 71.1147 15.139ZM71.5196 14.2134C71.4328 14.17 71.3894 14.0688 71.4328 13.982L71.5919 13.6205C71.7944 13.1577 71.6353 12.6225 71.2304 12.3478C70.9122 12.1164 70.5361 11.9862 70.1457 11.9428C70.0444 11.9283 69.9866 11.8416 69.9866 11.7548C70.001 11.6536 70.0878 11.5957 70.1746 11.5957C70.6229 11.6536 71.0423 11.8126 71.4184 12.0585C71.9535 12.4345 72.156 13.1432 71.8956 13.7506L71.7365 14.1122C71.7076 14.17 71.6498 14.2134 71.5775 14.2134C71.5775 14.2279 71.5485 14.2279 71.5196 14.2134Z" fill="#BDD0FB"/>
<path d="M74.9762 19.941L75.4824 18.408C75.6559 17.8729 75.3522 17.3088 74.8171 17.1498L64.0859 13.9969C63.6086 13.8523 63.1024 14.0982 62.9288 14.561L62.3503 16.0072L74.9762 19.941Z" fill="url(#paint16_linear_1257_46492)"/>
<path d="M72.098 16.8895L71.6352 16.7449C71.5918 16.7304 71.5629 16.687 71.5774 16.6436C71.5918 16.6003 71.6352 16.5713 71.6786 16.5858L72.1414 16.7304C72.1848 16.7449 72.2137 16.7883 72.1993 16.8317C72.1848 16.875 72.1414 16.904 72.098 16.8895Z" fill="white"/>
<path d="M74.5857 19.3626C74.658 19.3626 74.7158 19.3192 74.7447 19.2469L74.9472 18.625C75.034 18.3647 75.0051 18.0899 74.8894 17.8585C74.7737 17.6126 74.5567 17.4391 74.3109 17.3523L72.6332 16.8027C72.5464 16.7738 72.4452 16.8172 72.4163 16.9184C72.3873 17.0052 72.4307 17.1065 72.532 17.1354L74.2096 17.685C74.5567 17.8007 74.7447 18.1767 74.629 18.5238L74.4266 19.1457C74.3976 19.2325 74.441 19.3337 74.5423 19.3626C74.5423 19.3626 74.5712 19.3626 74.5857 19.3626Z" fill="#BDD0FB"/>
<path d="M78.476 20.4761L59.9205 14.344C59.2552 14.1271 58.5177 14.4163 58.1995 15.0382L58.1561 15.125C57.7945 15.8047 58.1272 16.6436 58.8648 16.8894L77.8975 23.1806C78.3314 23.3253 78.8087 23.0794 78.9244 22.6311L79.1702 21.7633C79.3148 21.2137 79.0111 20.6497 78.476 20.4761Z" fill="url(#paint17_linear_1257_46492)"/>
<g opacity="0.7">
<path d="M75.7139 41.3603L78.3895 32.1332C78.4184 32.0319 78.3606 31.9307 78.2738 31.9018L51.8796 22.9494C51.8362 22.935 51.7784 22.935 51.735 22.9639C51.6916 22.9928 51.6627 23.0362 51.6482 23.0796L49.1606 32.6828C49.1317 32.784 49.1896 32.8708 49.2908 32.8997L75.4825 41.4905C75.5838 41.5194 75.685 41.476 75.7139 41.3748C75.7139 41.3603 75.7139 41.3603 75.7139 41.3603ZM77.9846 32.2055L77.435 34.0856L51.4602 25.3068L51.9664 23.3689L77.9846 32.2055ZM49.5656 32.6104L51.359 25.6684L77.3337 34.4472L75.4102 41.0855L49.5656 32.6104Z" fill="white"/>
<path d="M52.4435 28.6042L64.2739 32.4801C64.5053 32.5525 64.7512 32.4223 64.809 32.1909L64.8235 32.1475C64.8813 31.9016 64.7367 31.6558 64.5053 31.569L52.7183 27.7075C52.4869 27.6352 52.241 27.7653 52.1687 27.9967L52.1543 28.0401C52.082 28.286 52.2121 28.5319 52.4435 28.6042Z" fill="white"/>
<path d="M63.8979 33.9547L52.0097 30.0498C51.7783 29.9775 51.5324 30.1076 51.4601 30.339L51.4456 30.3824C51.3733 30.6283 51.5035 30.8741 51.7349 30.9609L63.6665 34.8803C63.8979 34.9526 64.1438 34.8224 64.2016 34.5766L64.2161 34.5332C64.274 34.3018 64.1293 34.0414 63.8979 33.9547Z" fill="white"/>
<path d="M74.1086 35.7048C74.3545 35.7916 74.6003 35.6469 74.6582 35.3866C74.716 35.1263 74.5569 34.8515 74.3111 34.7792L69.119 33.0726C68.8731 32.9858 68.6273 33.1304 68.5694 33.3908C68.5116 33.6511 68.6562 33.9114 68.9165 33.9982L74.1086 35.7048Z" fill="white"/>
<path d="M74.1375 37.8315C74.1954 37.5712 74.0363 37.2964 73.7904 37.2097L68.555 35.4886C68.3091 35.4018 68.0488 35.5465 67.9909 35.8068C67.9331 36.0671 68.0777 36.3419 68.338 36.4287L73.5879 38.1642C73.8338 38.2365 74.0797 38.0919 74.1375 37.8315Z" fill="white"/>
<path d="M78.8525 26.666C78.7657 26.9264 78.5054 27.071 78.2595 26.9987L53.9045 19.3913C53.6297 19.3046 53.4851 19.0153 53.5719 18.7405L53.5863 18.6971C53.6731 18.4224 53.9624 18.2777 54.2371 18.35L78.5921 26.0007C78.838 26.0731 78.9682 26.3479 78.8958 26.6082L78.8525 26.666Z" fill="white"/>
<path d="M78.2015 28.7191C78.1148 28.9794 77.8545 29.124 77.6086 29.0517L53.2391 21.5456C52.9643 21.4589 52.8197 21.1696 52.892 20.8948L52.9065 20.8514C52.9933 20.5767 53.2825 20.432 53.5573 20.5043L77.9123 28.0683C78.1582 28.1406 78.2883 28.4154 78.216 28.6757L78.2015 28.7191Z" fill="white"/>
<path d="M51.4459 42.025C51.4459 42.025 51.4314 42.0105 51.4459 42.025L47.9604 40.9258C47.4542 40.7667 47.1505 40.3039 47.2373 39.8267L47.8158 36.8184C47.8447 36.6449 47.9604 36.4858 48.1195 36.3846C48.293 36.2689 48.5244 36.2255 48.7414 36.2833C49.0451 36.3556 49.45 36.4424 49.9128 36.5437C50.9108 36.7606 52.0388 36.992 52.6752 37.18H52.6897C53.1525 37.3246 53.4562 37.7296 53.4562 38.1635C53.4272 38.8866 53.0368 40.1593 52.5884 41.5043C52.4438 41.9382 51.9231 42.1696 51.4459 42.025ZM48.6835 36.5581C48.5389 36.5292 48.4087 36.5437 48.293 36.616C48.2063 36.6738 48.1484 36.7606 48.1195 36.8618L47.541 39.87C47.4831 40.1882 47.7001 40.5209 48.0616 40.6221L51.5327 41.7068C51.8653 41.808 52.2124 41.6634 52.3136 41.3742C52.7475 40.0581 53.1525 38.8143 53.1669 38.1201C53.1814 37.8164 52.9355 37.5126 52.6029 37.4259C51.9665 37.2379 50.7951 36.992 49.855 36.7895C49.3922 36.7172 48.9728 36.6304 48.6835 36.5581Z" fill="white"/>
<path opacity="0.6" d="M48.9584 36.9636C49.7104 37.1371 51.3447 37.4553 52.0968 37.6723C52.415 37.759 52.6319 38.0483 52.6319 38.3375C52.6174 38.916 52.2703 39.9863 51.9377 40.9697C51.8364 41.259 51.4893 41.4181 51.1712 41.3168L48.3944 40.4491C48.0473 40.3478 47.8448 40.0152 47.9026 39.7115L48.3654 37.2962C48.4233 37.0648 48.6836 36.9057 48.9584 36.9636Z" fill="white"/>
<g opacity="0.6">
<path d="M55.6834 40.001C55.3797 39.8998 55.1194 40.0733 55.1194 40.3915L55.0905 41.1146C55.076 41.4328 55.3218 41.7655 55.6256 41.8667L72.6191 47.0443C72.9228 47.1311 73.241 46.9575 73.3278 46.6538L73.3856 46.4658C73.4724 46.1621 73.2988 45.8294 72.9951 45.7282L55.6834 40.001Z" fill="white"/>
</g>
<path d="M48.9728 37.4694C49.2765 37.397 49.5802 37.5851 49.6525 37.8888L49.9707 39.335C49.9996 39.4797 50.1876 39.523 50.2744 39.4218L53.1235 36.1533C53.2681 35.9942 53.5285 36.1388 53.4562 36.3413C53.0801 37.4983 52.1111 39.6098 49.6959 40.8825C49.6959 40.8825 48.7992 40.1739 48.5244 38.1202C48.4955 37.8165 48.6835 37.5417 48.9728 37.4694Z" fill="#F68632"/>
<path d="M48.9726 49.7051L45.4871 48.606C44.9809 48.4469 44.6772 47.9841 44.764 47.5068L45.3425 44.4986C45.3714 44.3251 45.4871 44.166 45.6462 44.0647C45.8198 43.949 46.0512 43.9057 46.2681 43.9635C46.5718 44.0358 46.9768 44.1226 47.4396 44.2238C48.4375 44.4408 49.5656 44.6722 50.2019 44.8602H50.2164C50.6792 45.0048 50.9829 45.4098 50.9829 45.8436C50.954 46.5668 50.5635 47.8395 50.1152 49.1845C49.9705 49.6184 49.4643 49.8498 48.9726 49.7051ZM46.2103 44.2528C46.0656 44.2238 45.9355 44.2383 45.8198 44.3106C45.733 44.3685 45.6751 44.4552 45.6462 44.5565L45.0677 47.5647C45.0099 47.8829 45.2268 48.2155 45.5884 48.3167L49.0594 49.4014C49.392 49.5027 49.7391 49.358 49.8404 49.0688C50.2742 47.7527 50.6792 46.5089 50.6937 45.8147C50.7081 45.511 50.4623 45.2073 50.1296 45.1205C49.4933 44.9325 48.3218 44.6866 47.3817 44.4842C46.9334 44.4118 46.514 44.3106 46.2103 44.2528Z" fill="white"/>
<path opacity="0.6" d="M46.4995 44.6577C47.2516 44.8312 48.8859 45.1494 49.6379 45.3663C49.9561 45.4531 50.173 45.7424 50.173 46.0316C50.1586 46.6101 49.8115 47.6804 49.4788 48.6638C49.3776 48.9531 49.0305 49.1122 48.7123 49.0109L45.9355 48.1432C45.5884 48.0419 45.3859 47.7093 45.4438 47.4056L45.9066 44.9903C45.95 44.7445 46.2247 44.5854 46.4995 44.6577Z" fill="white"/>
<g opacity="0.6">
<path d="M53.2247 47.6944C52.921 47.5931 52.6606 47.7667 52.6606 48.0849L52.6317 48.808C52.6172 49.1262 52.8631 49.4588 53.1668 49.56L70.1604 54.7232C70.4641 54.81 70.7822 54.6364 70.869 54.3327L70.9269 54.1447C71.0136 53.841 70.8401 53.5083 70.5364 53.4071L53.2247 47.6944Z" fill="white"/>
</g>
<path d="M46.514 57.3839C46.514 57.3839 46.4995 57.3839 46.514 57.3839L43.0285 56.2847C42.5223 56.1256 42.2186 55.6628 42.3054 55.1855L42.8839 52.1773C42.9128 52.0038 43.0285 51.8447 43.1876 51.7435C43.3612 51.6278 43.5926 51.5844 43.8095 51.6422C44.1132 51.7145 44.5182 51.8013 44.981 51.9025C45.9789 52.1195 47.107 52.3509 47.7433 52.5389H47.7578C48.2206 52.6835 48.5243 53.0885 48.5243 53.5223C48.4954 54.2455 48.1049 55.5182 47.6565 56.8632C47.5119 57.2971 47.0057 57.5285 46.514 57.3839ZM43.7516 51.9315C43.607 51.9025 43.4769 51.917 43.3612 51.9893C43.2744 52.0472 43.2165 52.1339 43.1876 52.2352L42.6091 55.2434C42.5512 55.5616 42.7682 55.8942 43.1297 55.9954L46.6008 57.0801C46.9334 57.1814 47.2805 57.0368 47.3817 56.7475C47.8156 55.4314 48.2206 54.1876 48.235 53.4934C48.2495 53.1897 48.0036 52.886 47.671 52.7992C47.0346 52.6112 45.8632 52.3653 44.9231 52.1629C44.4603 52.0906 44.0409 52.0038 43.7516 51.9315Z" fill="white"/>
<path opacity="0.6" d="M44.0265 52.3369C44.7786 52.5105 46.4128 52.8287 47.1649 53.0456C47.4831 53.1324 47.7 53.4216 47.7 53.7109C47.6855 54.2894 47.3384 55.3596 47.0058 56.3431C46.9046 56.6323 46.5575 56.7914 46.2393 56.6902L43.4625 55.8224C43.1154 55.7212 42.9129 55.3885 42.9707 55.0848L43.4335 52.6696C43.4914 52.4237 43.7517 52.2791 44.0265 52.3369Z" fill="white"/>
<g opacity="0.6">
<path d="M50.7515 55.3745C50.4478 55.2733 50.1875 55.4469 50.1875 55.765L50.1586 56.4882C50.1441 56.8063 50.39 57.139 50.6937 57.2402L67.6872 62.4034C67.9909 62.4901 68.3091 62.3166 68.3959 62.0129L68.4537 61.8249C68.5405 61.5211 68.367 61.1885 68.0632 61.0873L50.7515 55.3745Z" fill="white"/>
</g>
</g>
<path d="M36.925 60.349L21.5079 64.8613C20.1484 65.2663 18.7022 64.4708 18.2972 63.1113L7.04531 24.612C6.64036 23.2525 7.4358 21.8062 8.79528 21.4013L24.2124 16.8889C25.5719 16.484 27.0181 17.2794 27.4231 18.6389L38.675 57.1383C39.0799 58.5122 38.2845 59.9585 36.925 60.349Z" fill="#91B3FA"/>
<path d="M13.7418 29.0378C15.4271 29.0378 16.7934 27.6715 16.7934 25.9862C16.7934 24.3008 15.4271 22.9346 13.7418 22.9346C12.0564 22.9346 10.6902 24.3008 10.6902 25.9862C10.6902 27.6715 12.0564 29.0378 13.7418 29.0378Z" fill="#BDD0FB"/>
<path d="M22.6939 26.4196C24.3793 26.4196 25.7455 25.0534 25.7455 23.368C25.7455 21.6827 24.3793 20.3164 22.6939 20.3164C21.0086 20.3164 19.6423 21.6827 19.6423 23.368C19.6423 25.0534 21.0086 26.4196 22.6939 26.4196Z" fill="#BDD0FB"/>
<path d="M16.1858 37.1511C17.8711 37.1511 19.2374 35.7848 19.2374 34.0995C19.2374 32.4141 17.8711 31.0479 16.1858 31.0479C14.5004 31.0479 13.1342 32.4141 13.1342 34.0995C13.1342 35.7848 14.5004 37.1511 16.1858 37.1511Z" fill="#BDD0FB"/>
<path d="M25.1526 34.5329C26.8379 34.5329 28.2042 33.1666 28.2042 31.4813C28.2042 29.7959 26.8379 28.4297 25.1526 28.4297C23.4672 28.4297 22.101 29.7959 22.101 31.4813C22.101 33.1666 23.4672 34.5329 25.1526 34.5329Z" fill="#BDD0FB"/>
<path d="M18.8324 45.5827C20.5177 45.5827 21.884 44.2164 21.884 42.5311C21.884 40.8457 20.5177 39.4795 18.8324 39.4795C17.147 39.4795 15.7808 40.8457 15.7808 42.5311C15.7808 44.2164 17.147 45.5827 18.8324 45.5827Z" fill="#BDD0FB"/>
<path d="M27.7993 42.966C29.4846 42.966 30.8509 41.5998 30.8509 39.9144C30.8509 38.229 29.4846 36.8628 27.7993 36.8628C26.1139 36.8628 24.7477 38.229 24.7477 39.9144C24.7477 41.5998 26.1139 42.966 27.7993 42.966Z" fill="#BDD0FB"/>
<path d="M21.2911 53.6965C22.9765 53.6965 24.3427 52.3302 24.3427 50.6449C24.3427 48.9595 22.9765 47.5933 21.2911 47.5933C19.6058 47.5933 18.2395 48.9595 18.2395 50.6449C18.2395 52.3302 19.6058 53.6965 21.2911 53.6965Z" fill="#BDD0FB"/>
<path d="M30.2435 51.0793C31.9289 51.0793 33.2951 49.713 33.2951 48.0277C33.2951 46.3423 31.9289 44.9761 30.2435 44.9761C28.5581 44.9761 27.1919 46.3423 27.1919 48.0277C27.1919 49.713 28.5581 51.0793 30.2435 51.0793Z" fill="url(#paint18_linear_1257_46492)"/>
<path d="M23.8365 61.7809C25.5219 61.7809 26.8881 60.4147 26.8881 58.7293C26.8881 57.044 25.5219 55.6777 23.8365 55.6777C22.1512 55.6777 20.7849 57.044 20.7849 58.7293C20.7849 60.4147 22.1512 61.7809 23.8365 61.7809Z" fill="url(#paint19_linear_1257_46492)"/>
<path d="M32.7889 59.1638C34.4743 59.1638 35.8405 57.7975 35.8405 56.1122C35.8405 54.4268 34.4743 53.0605 32.7889 53.0605C31.1036 53.0605 29.7373 54.4268 29.7373 56.1122C29.7373 57.7975 31.1036 59.1638 32.7889 59.1638Z" fill="url(#paint20_linear_1257_46492)"/>
<path d="M53.5283 56.5168H36.3178C33.7724 56.5168 31.7042 54.4487 31.7042 51.9033V37.0213C31.7042 34.4759 33.7724 32.4077 36.3178 32.4077H53.5283C56.0737 32.4077 58.1418 34.4759 58.1418 37.0213V51.9033C58.1274 54.4487 56.0737 56.5168 53.5283 56.5168ZM36.3178 34.0998C34.7124 34.0998 33.3963 35.4015 33.3963 37.0213V51.9033C33.3963 53.5086 34.698 54.8247 36.3178 54.8247H53.5283C55.1336 54.8247 56.4497 53.5231 56.4497 51.9033V37.0213C56.4497 35.4159 55.1481 34.0998 53.5283 34.0998H36.3178Z" fill="#335F95"/>
<path d="M64.1293 75.1011H25.6154C21.8696 75.1011 18.818 72.0351 18.818 68.3037V48.8082C18.818 45.0623 21.8841 42.0107 25.6154 42.0107H64.1148C67.8461 42.0107 70.9122 45.0623 70.9122 48.8082V68.3037C70.9267 72.0495 67.8606 75.1011 64.1293 75.1011Z" fill="#00377B"/>
<path d="M45.2557 68.2317C50.6233 68.2317 54.9746 63.8804 54.9746 58.5128C54.9746 53.1452 50.6233 48.7939 45.2557 48.7939C39.8881 48.7939 35.5369 53.1452 35.5369 58.5128C35.5369 63.8804 39.8881 68.2317 45.2557 68.2317Z" fill="#F68632"/>
<path d="M50.8094 55.8368H47.5843V53.06C47.5843 52.4091 47.0491 51.874 46.3983 51.874H44.0265C43.3756 51.874 42.8405 52.4091 42.8405 53.06V55.8368H39.6154C38.9646 55.8368 38.4294 56.3719 38.4294 57.0227V59.7706C38.4294 60.4214 38.9646 60.9565 39.6154 60.9565H42.8405V63.7333C42.8405 64.3842 43.3756 64.9193 44.0265 64.9193H46.3983C47.0491 64.9193 47.5843 64.3842 47.5843 63.7333V60.9565H50.8094C51.4602 60.9565 51.9953 60.4214 51.9953 59.7706V57.0227C51.9953 56.3574 51.4602 55.8368 50.8094 55.8368Z" fill="white"/>
<path d="M48.1916 193.217C69.1427 193.217 86.1269 176.233 86.1269 155.282C86.1269 134.33 69.1427 117.346 48.1916 117.346C27.2405 117.346 10.2562 134.33 10.2562 155.282C10.2562 176.233 27.2405 193.217 48.1916 193.217Z" fill="#7D97F4"/>
<path d="M48.2639 190.007C67.2182 190.007 82.5836 174.641 82.5836 155.687C82.5836 136.733 67.2182 121.367 48.2639 121.367C29.3097 121.367 13.9442 136.733 13.9442 155.687C13.9442 174.641 29.3097 190.007 48.2639 190.007Z" fill="white"/>
<path d="M79.937 158.319C79.2428 174.113 64.8525 186.319 47.8156 185.567C30.7642 184.815 17.502 171.408 18.1962 155.615C18.8904 139.822 33.2807 127.615 50.3176 128.367C67.3545 129.119 80.6312 142.526 79.937 158.319Z" fill="#00377B"/>
<g opacity="0.68">
<path d="M56.9848 157.104C56.9848 159.635 56.8835 162.152 56.6955 164.683C56.493 167.199 56.1893 169.716 55.741 172.203C55.5096 173.447 55.2493 174.691 54.9456 175.906C54.6274 177.135 54.2658 178.35 53.8319 179.536C53.3836 180.722 52.8629 181.893 52.1687 182.963C51.8216 183.498 51.4167 184.005 50.925 184.424C50.6791 184.627 50.4043 184.815 50.1006 184.945C49.7969 185.075 49.4787 185.162 49.1461 185.176C48.8134 185.191 48.4808 185.118 48.1771 185.003C47.8733 184.887 47.5986 184.699 47.3382 184.511C46.832 184.106 46.4271 183.6 46.0655 183.079C45.3569 182.023 44.8217 180.852 44.3734 179.666C43.9251 178.48 43.5635 177.265 43.2453 176.036C42.9271 174.806 42.6668 173.577 42.4354 172.333C41.9871 169.846 41.6689 167.329 41.4664 164.813C41.264 162.296 41.1483 159.765 41.1338 157.234C41.1338 155.976 41.1627 154.703 41.2061 153.445C41.2495 152.187 41.3218 150.929 41.423 149.656C41.6111 147.14 41.8858 144.623 42.3053 142.135C42.5077 140.892 42.7536 139.648 43.0573 138.419C43.3466 137.189 43.6937 135.974 44.1131 134.774C44.547 133.588 45.0387 132.402 45.7329 131.346C46.08 130.811 46.4849 130.305 46.9767 129.9C47.2225 129.698 47.4973 129.524 47.801 129.408C48.1047 129.293 48.4229 129.235 48.7556 129.235C49.0737 129.249 49.4064 129.322 49.6956 129.452C49.9849 129.582 50.2597 129.756 50.5055 129.958C50.9973 130.363 51.4167 130.855 51.7782 131.375C52.5014 132.417 53.051 133.574 53.5282 134.745C54.0055 135.917 54.3815 137.131 54.7286 138.346C55.0613 139.561 55.3505 140.79 55.5964 142.034C56.0881 144.507 56.4352 147.024 56.6521 149.54C56.8691 152.042 56.9848 154.573 56.9848 157.104ZM56.5654 157.104C56.5654 154.588 56.4786 152.071 56.2616 149.569C56.0592 147.067 55.741 144.565 55.2782 142.092C55.0468 140.863 54.772 139.633 54.4538 138.419C54.1356 137.204 53.7596 136.003 53.3113 134.832C52.8485 133.66 52.3278 132.518 51.6192 131.477C51.2721 130.956 50.8671 130.479 50.3898 130.074C50.144 129.871 49.8981 129.698 49.6089 129.582C49.3341 129.452 49.0304 129.379 48.7266 129.365C48.4229 129.351 48.1192 129.423 47.83 129.539C47.5407 129.654 47.2804 129.828 47.049 130.016C46.5717 130.406 46.1812 130.913 45.8486 131.433C45.1833 132.489 44.706 133.66 44.2866 134.846C43.8817 136.032 43.5635 137.247 43.2742 138.476C42.9995 139.706 42.7681 140.935 42.58 142.179C41.8135 147.154 41.5677 152.201 41.5821 157.22C41.5677 159.736 41.6544 162.253 41.8425 164.755C42.0305 167.257 42.3197 169.759 42.7536 172.247C42.9705 173.49 43.2164 174.72 43.5201 175.935C43.8238 177.149 44.1709 178.364 44.6048 179.536C45.0387 180.707 45.5449 181.864 46.2391 182.905C46.5862 183.426 46.9767 183.903 47.4539 184.294C47.6853 184.482 47.9457 184.655 48.2349 184.771C48.5097 184.887 48.8134 184.945 49.1171 184.945C49.4208 184.93 49.7101 184.858 49.9849 184.728C50.2597 184.598 50.5055 184.424 50.7514 184.222C51.2142 183.817 51.6047 183.325 51.9373 182.804C52.6171 181.763 53.1088 180.606 53.5427 179.42C53.9766 178.234 54.3237 177.034 54.6129 175.819C54.9166 174.604 55.1625 173.36 55.3794 172.131C55.8133 169.658 56.0881 167.156 56.2761 164.639C56.4786 162.137 56.5654 159.621 56.5654 157.104Z" fill="white"/>
<path d="M69.7264 157.104C69.7119 160.358 69.2925 163.612 68.4248 166.75C67.5425 169.874 66.1975 172.897 64.3897 175.601C62.5819 178.291 60.2679 180.692 57.5055 182.428C56.1316 183.295 54.6419 183.99 53.0799 184.452C51.518 184.915 49.8982 185.161 48.2639 185.176C46.6296 185.176 45.0098 184.93 43.4479 184.467C41.8859 184.004 40.3963 183.31 39.0223 182.442C36.26 180.707 33.946 178.32 32.1237 175.616C30.3014 172.911 28.9564 169.903 28.0742 166.765C27.6403 165.203 27.3076 163.597 27.0907 161.978C26.8738 160.358 26.7725 158.738 26.7581 157.104C26.7725 155.469 26.8738 153.85 27.0907 152.23C27.3076 150.61 27.6403 149.019 28.0742 147.443C28.9708 144.319 30.3159 141.296 32.1381 138.606C33.9604 135.916 36.2744 133.515 39.0368 131.794C40.4107 130.941 41.9148 130.247 43.4623 129.784C45.0243 129.321 46.6441 129.075 48.2639 129.075C49.8837 129.075 51.518 129.321 53.0655 129.798C54.6274 130.261 56.1171 130.955 57.491 131.809C60.2534 133.544 62.5529 135.93 64.3752 138.62C66.1975 141.325 67.5281 144.333 68.4248 147.457C69.2925 150.596 69.7119 153.85 69.7264 157.104ZM69.2491 157.104C69.2491 153.893 68.8442 150.668 68.0053 147.573C67.152 144.478 65.8793 141.484 64.1149 138.794C63.2327 137.449 62.2348 136.191 61.1067 135.034C59.9786 133.891 58.7493 132.85 57.3898 131.982C56.0303 131.129 54.5696 130.435 53.0221 129.957C51.4891 129.495 49.8837 129.249 48.2639 129.234C46.6586 129.234 45.0532 129.495 43.5057 129.957C41.9727 130.42 40.4975 131.114 39.138 131.982C37.7785 132.85 36.5492 133.891 35.4211 135.034C34.3075 136.191 33.2951 137.449 32.4274 138.794C30.663 141.484 29.3902 144.478 28.537 147.573C28.1175 149.12 27.8138 150.697 27.5969 152.288C27.3944 153.879 27.2932 155.484 27.2787 157.089C27.2787 158.695 27.38 160.3 27.5969 161.891C27.7994 163.482 28.1175 165.058 28.537 166.606C29.3902 169.701 30.663 172.68 32.4274 175.37C33.3096 176.715 34.3075 177.973 35.4211 179.13C36.5492 180.273 37.7785 181.314 39.138 182.182C40.4975 183.035 41.9582 183.729 43.4913 184.192C45.0243 184.669 46.6296 184.915 48.235 184.915C49.8403 184.915 51.4457 184.655 52.9787 184.192C54.5117 183.729 55.9869 183.035 57.3464 182.182C58.7059 181.314 59.9497 180.287 61.0633 179.13C62.1914 177.988 63.1893 176.715 64.0715 175.37C65.8359 172.68 67.1231 169.701 67.9764 166.606C68.8442 163.525 69.2346 160.314 69.2491 157.104Z" fill="white"/>
<path d="M23.229 145.996L29.6648 145.938L36.1007 145.909C38.2412 145.895 40.3961 145.895 42.5365 145.895L48.9724 145.88L61.8585 145.909L68.2944 145.938L74.7302 145.996C74.7447 145.996 74.7447 146.011 74.7447 146.011C74.7447 146.025 74.7302 146.025 74.7302 146.025L68.2944 146.083L61.8585 146.112L48.9724 146.141L42.5365 146.126C40.3961 146.126 38.2412 146.126 36.1007 146.112L29.6648 146.083L23.229 146.025C23.2145 146.025 23.2001 146.011 23.2001 145.996C23.2001 146.011 23.2145 145.996 23.229 145.996Z" fill="white"/>
<path d="M30.7064 135.207C32.2249 135.179 33.758 135.164 35.2765 135.15L39.8467 135.121C41.3653 135.106 42.8983 135.106 44.4169 135.106L48.987 135.092L53.5572 135.106C55.0758 135.106 56.6088 135.106 58.1274 135.121L62.6976 135.15C64.2161 135.164 65.7492 135.179 67.2677 135.207C67.2822 135.207 67.2822 135.222 67.2822 135.222C67.2822 135.236 67.2677 135.236 67.2677 135.236C65.7492 135.265 64.2161 135.28 62.6976 135.294L58.1274 135.323C56.6088 135.338 55.0758 135.338 53.5572 135.338L48.987 135.352L44.4169 135.338C42.8983 135.338 41.3653 135.338 39.8467 135.323L35.2765 135.294C33.758 135.28 32.2249 135.265 30.7064 135.236C30.6919 135.236 30.6774 135.222 30.6774 135.207C30.663 135.222 30.6774 135.207 30.7064 135.207Z" fill="white"/>
<path d="M20.9874 156.786L27.9873 156.728L34.9872 156.699L48.987 156.67L62.9867 156.699L69.9866 156.728L76.9865 156.786C77.001 156.786 77.001 156.801 77.001 156.801C77.001 156.815 76.9865 156.815 76.9865 156.815L69.9866 156.873L62.9867 156.902L48.987 156.96L34.9872 156.931L27.9873 156.902L20.9874 156.844C20.973 156.844 20.9585 156.829 20.9585 156.815C20.9585 156.801 20.973 156.786 20.9874 156.786Z" fill="white"/>
<path d="M23.229 167.575L29.6648 167.517L36.1007 167.488C38.2412 167.473 40.3961 167.473 42.5365 167.473L48.9724 167.459L61.8585 167.488L68.2944 167.517L74.7302 167.575C74.7447 167.575 74.7447 167.589 74.7447 167.589C74.7447 167.604 74.7302 167.604 74.7302 167.604L68.2944 167.661L61.8585 167.69L48.9724 167.719L42.5365 167.705C40.3961 167.705 38.2412 167.705 36.1007 167.69L29.6648 167.661L23.229 167.604C23.2145 167.604 23.2001 167.589 23.2001 167.575C23.2001 167.589 23.2145 167.575 23.229 167.575Z" fill="white"/>
<path d="M68.2077 178.508H31.6174C31.5596 178.508 31.5017 178.465 31.5017 178.393C31.5017 178.335 31.5451 178.277 31.6174 178.277H68.1933C68.2511 178.277 68.309 178.32 68.309 178.393C68.309 178.45 68.2656 178.508 68.2077 178.508Z" fill="white"/>
</g>
<path d="M63.8689 161.515L61.5982 155.47C61.5549 155.34 61.4536 155.239 61.3379 155.181L54.7864 151.999C54.6128 151.912 54.3959 151.927 54.2368 152.057C54.0777 152.173 54.0054 152.375 54.0343 152.563L55.0756 158.218L63.8689 161.515Z" fill="#F68632"/>
<path d="M22.347 137.58C22.347 137.58 82.3378 168.645 83.8853 170.887C85.4328 173.129 87.4431 178.133 88.5134 178.972C89.598 179.81 92.8811 183.383 89.815 185.335C86.7489 187.287 36.6505 161.978 32.9192 156.309C29.1734 150.639 18.8326 137.435 18.8326 137.435C18.8326 137.435 19.0496 134.673 22.347 137.58Z" fill="#F68632"/>
<path d="M39.5574 146.764L35.2186 136.712C34.9439 136.076 34.8571 135.382 34.9583 134.716L36.1587 126.82C36.26 126.198 35.9273 125.576 35.3633 125.301C33.541 124.419 29.7084 122.655 29.4047 123.002C29.0142 123.479 21.1899 136.944 21.1899 136.944L39.5574 146.764Z" fill="#F68632"/>
<path d="M21.4791 139.706L18.8614 141.803C18.413 142.15 18.1816 142.67 18.1816 143.234C18.1816 143.798 18.4564 144.319 18.9048 144.666L21.5803 146.734C21.9998 147.067 22.5349 147.212 23.0555 147.096L32.0223 145.332L21.4791 139.706Z" fill="#F68632"/>
<path d="M42.4499 169.571C42.4499 169.571 42.5366 172.811 45.1688 174.85C47.801 176.889 51.6191 178.668 52.9352 178.205C54.2658 177.742 60.9041 171.856 54.772 168.703C48.6688 165.565 40.0057 163.858 42.4499 169.571Z" fill="#FAB684"/>
<path d="M44.9665 160.141L59.1688 167.604L38.2559 172.984C37.9666 173.056 37.6484 173.013 37.4026 172.839L29.4337 167.676C29.0866 167.459 28.8986 167.054 28.942 166.649C28.9853 166.244 29.2601 165.897 29.6506 165.753L44.9665 160.141Z" fill="#F68632"/>
<path d="M52.1109 177.873C52.1398 177.902 52.1688 177.931 52.1977 177.945C52.3857 178.046 52.6894 178.003 53.0944 177.815C54.4105 177.193 56.4497 175.255 56.8402 172.869C56.9559 172.16 56.71 171.466 56.1749 170.989C55.741 170.598 55.0468 170.28 54.208 170.974C52.9063 172.059 51.8361 176.036 51.9518 177.367C51.9807 177.612 52.0241 177.772 52.1109 177.873ZM56.1604 171.394C56.4931 171.784 56.6522 172.319 56.5654 172.84C56.1894 175.082 54.208 176.991 52.9787 177.569C52.6171 177.743 52.4146 177.757 52.3568 177.714C52.3423 177.714 52.27 177.656 52.2555 177.367C52.1398 175.993 53.2679 172.175 54.4105 171.22C54.96 170.772 55.4807 170.772 56.0013 171.234C56.0447 171.278 56.1026 171.336 56.1604 171.394Z" fill="#F89E5B"/>
<path d="M27.4523 126.14L28.7539 127.138L23.5618 136.365L21.942 135.627L27.4523 126.14Z" fill="#FAB684"/>
<path d="M41.0615 152.606C41.3942 152.172 42.0016 152.1 42.4355 152.433L42.4789 152.476C42.9128 152.809 42.9851 153.416 42.6524 153.85L42.2619 154.356C41.9293 154.79 41.3219 154.862 40.888 154.53L40.8446 154.486C40.4107 154.154 40.3384 153.546 40.6711 153.112L41.0615 152.606Z" fill="#00377B"/>
<path d="M44.1997 154.675C44.5324 154.241 45.1398 154.168 45.5737 154.501L45.6171 154.544C46.0509 154.877 46.1232 155.484 45.7906 155.918L45.4001 156.425C45.0675 156.858 44.4601 156.931 44.0262 156.598L43.9828 156.555C43.5489 156.222 43.4766 155.615 43.8092 155.181L44.1997 154.675Z" fill="#00377B"/>
<path d="M47.6852 156.295C48.0178 155.861 48.6253 155.788 49.0591 156.121L49.1025 156.165C49.5364 156.497 49.6087 157.105 49.2761 157.538L48.8856 158.045C48.553 158.479 47.9455 158.551 47.5116 158.218L47.4683 158.175C47.0344 157.842 46.9621 157.235 47.2947 156.801L47.6852 156.295Z" fill="#00377B"/>
<path d="M50.78 157.943C51.1127 157.509 51.7201 157.436 52.154 157.769L52.1974 157.812C52.6313 158.145 52.7036 158.753 52.3709 159.186L51.9804 159.693C51.6478 160.126 51.0404 160.199 50.6065 159.866L50.5631 159.823C50.1292 159.49 50.0569 158.883 50.3896 158.449L50.78 157.943Z" fill="#00377B"/>
<path d="M54.3235 159.968C54.6561 159.534 55.2636 159.462 55.6974 159.794L55.7408 159.838C56.1747 160.17 56.247 160.778 55.9144 161.212L55.5239 161.718C55.1913 162.152 54.5838 162.224 54.15 161.892L54.1066 161.848C53.6727 161.516 53.6004 160.908 53.933 160.474L54.3235 159.968Z" fill="#00377B"/>
<path d="M57.6353 161.804C57.9679 161.371 58.5753 161.298 59.0092 161.631L59.0526 161.674C59.4865 162.007 59.5588 162.614 59.2262 163.048L58.8357 163.554C58.503 163.988 57.8956 164.061 57.4617 163.728L57.4183 163.685C56.9845 163.352 56.9121 162.745 57.2448 162.311L57.6353 161.804Z" fill="#00377B"/>
<path d="M61.121 163.41C61.4536 162.976 62.0611 162.904 62.4949 163.236L62.5383 163.28C62.9722 163.612 63.0445 164.22 62.7119 164.654L62.3214 165.16C61.9887 165.594 61.3813 165.666 60.9474 165.333L60.9041 165.29C60.4702 164.957 60.3979 164.35 60.7305 163.916L61.121 163.41Z" fill="#00377B"/>
<path d="M64.028 165.304C64.3606 164.87 64.968 164.798 65.4019 165.13L65.4453 165.174C65.8792 165.506 65.9515 166.114 65.6189 166.548L65.2284 167.054C64.8957 167.488 64.2883 167.56 63.8544 167.227L63.811 167.184C63.3772 166.851 63.3048 166.244 63.6375 165.81L64.028 165.304Z" fill="#00377B"/>
<path d="M67.3543 167.14C67.6869 166.707 68.2943 166.634 68.7282 166.967L68.7716 167.01C69.2055 167.343 69.2778 167.95 68.9452 168.384L68.5547 168.89C68.222 169.324 67.6146 169.397 67.1807 169.064L67.1373 169.021C66.7035 168.688 66.6311 168.08 66.9638 167.647L67.3543 167.14Z" fill="#00377B"/>
<path d="M70.8397 168.746C71.1724 168.312 71.7798 168.24 72.2137 168.573L72.2571 168.616C72.691 168.949 72.7633 169.556 72.4306 169.99L72.0401 170.496C71.7075 170.93 71.1001 171.003 70.6662 170.67L70.6228 170.626C70.1889 170.294 70.1166 169.686 70.4493 169.253L70.8397 168.746Z" fill="#00377B"/>
<path d="M73.7468 170.641C74.0795 170.207 74.6869 170.135 75.1208 170.467L75.1642 170.511C75.5981 170.843 75.6704 171.451 75.3377 171.885L74.9472 172.391C74.6146 172.825 74.0072 172.897 73.5733 172.564L73.5299 172.521C73.096 172.188 73.0237 171.581 73.3564 171.147L73.7468 170.641Z" fill="#00377B"/>
<path d="M86.2858 175.356L79.9657 172.782C79.4884 172.594 78.9389 172.767 78.6641 173.186C78.3314 173.693 77.9843 174.3 78.1289 174.329C78.3748 174.401 88.1226 178.639 88.1226 178.639L86.2858 175.356Z" fill="#00377B"/>
<path opacity="0.68" d="M89.7137 171.104C89.7571 169.195 90.2344 167.3 91.1166 165.536C92.9533 161.862 95.1372 158.753 93.1124 154.588C91.8542 151.984 89.8728 149.699 89.1641 146.893C88.3687 143.726 89.3666 140.241 91.4782 137.768C93.5897 135.294 96.7425 133.79 99.9677 133.356C97.2921 134.412 95.195 136.813 94.4864 139.604C92.7219 146.604 100.72 151.001 98.5648 158.449C97.6103 161.746 96.381 165.16 96.6558 168.645C96.8293 170.829 100.763 183.194 93.7777 180.186C92.6207 179.695 91.8108 178.624 91.2178 177.511C90.1621 175.5 89.6559 173.302 89.7137 171.104Z" fill="white"/>
<path d="M274.936 192.292C295.751 192.292 312.625 175.418 312.625 154.603C312.625 133.787 295.751 116.913 274.936 116.913C254.121 116.913 237.246 133.787 237.246 154.603C237.246 175.418 254.121 192.292 274.936 192.292Z" fill="#7D97F4"/>
<path d="M275.008 189.124C293.843 189.124 309.111 173.856 309.111 155.021C309.111 136.187 293.843 120.918 275.008 120.918C256.174 120.918 240.906 136.187 240.906 155.021C240.906 173.856 256.174 189.124 275.008 189.124Z" fill="white"/>
<path d="M295.429 181.256H254.327C253.372 181.256 252.591 180.475 252.591 179.521V141.903C252.591 140.949 253.372 140.168 254.327 140.168H295.429C296.384 140.168 297.165 140.949 297.165 141.903V179.521C297.165 180.475 296.384 181.256 295.429 181.256Z" fill="#00377B"/>
<path d="M249.395 146.879L275.659 110.665L299.45 147.718L249.395 146.879Z" fill="#00377B"/>
<path d="M289.89 177.887H284.886C284.264 177.887 283.758 177.38 283.758 176.758C283.758 176.137 284.264 175.63 284.886 175.63H289.89C290.512 175.63 291.018 176.137 291.018 176.758C291.018 177.38 290.512 177.887 289.89 177.887Z" fill="#6687B0"/>
<path d="M293.52 180.678H288.516C287.894 180.678 287.388 180.172 287.388 179.55C287.388 178.928 287.894 178.422 288.516 178.422H293.52C294.142 178.422 294.648 178.928 294.648 179.55C294.648 180.172 294.142 180.678 293.52 180.678Z" fill="#6687B0"/>
<path d="M295.285 175.211H290.281C289.659 175.211 289.153 174.705 289.153 174.083C289.153 173.461 289.659 172.955 290.281 172.955H295.285C295.907 172.955 296.413 173.461 296.413 174.083C296.413 174.705 295.907 175.211 295.285 175.211Z" fill="#6687B0"/>
<path d="M291.654 172.492H286.65C286.028 172.492 285.522 171.986 285.522 171.364C285.522 170.742 286.028 170.236 286.65 170.236H291.654C292.276 170.236 292.782 170.742 292.782 171.364C292.782 171.986 292.276 172.492 291.654 172.492Z" fill="#6687B0"/>
<path d="M293.52 166.765H288.516C287.894 166.765 287.388 166.259 287.388 165.637C287.388 165.015 287.894 164.509 288.516 164.509H293.52C294.142 164.509 294.648 165.015 294.648 165.637C294.648 166.259 294.142 166.765 293.52 166.765Z" fill="#6687B0"/>
<path d="M294.605 161.326H289.601C288.979 161.326 288.473 160.82 288.473 160.198C288.473 159.577 288.979 159.07 289.601 159.07H294.605C295.227 159.07 295.733 159.577 295.733 160.198C295.733 160.82 295.227 161.326 294.605 161.326Z" fill="#6687B0"/>
<path d="M292.768 156.323H289.182C288.56 156.323 288.053 155.817 288.053 155.195C288.053 154.573 288.56 154.067 289.182 154.067H292.768C293.39 154.067 293.896 154.573 293.896 155.195C293.896 155.817 293.39 156.323 292.768 156.323Z" fill="#6687B0"/>
<path d="M296.037 153.517H291.033C290.411 153.517 289.905 153.011 289.905 152.389C289.905 151.767 290.411 151.261 291.033 151.261H296.037C296.659 151.261 297.165 151.767 297.165 152.389C297.165 153.011 296.659 153.517 296.037 153.517Z" fill="#6687B0"/>
<path d="M297.165 175.63H292.739C292.291 175.63 291.915 175.934 291.915 176.325V177.192C291.915 177.568 292.291 177.887 292.739 177.887H297.165V175.63Z" fill="#6687B0"/>
<path d="M297.165 167.575C297.121 167.575 297.064 167.561 297.02 167.561H291.423C290.975 167.561 290.599 167.864 290.599 168.255V169.122C290.599 169.499 290.975 169.817 291.423 169.817H297.02C297.064 169.817 297.121 169.817 297.165 169.802V167.575Z" fill="#6687B0"/>
<path d="M297.165 161.877C297.121 161.877 297.064 161.862 297.02 161.862H291.423C290.975 161.862 290.599 162.166 290.599 162.556V163.424C290.599 163.8 290.975 164.118 291.423 164.118H297.02C297.064 164.118 297.121 164.118 297.165 164.104V161.877Z" fill="#6687B0"/>
<path d="M297.165 156.453H292.739C292.291 156.453 291.915 156.757 291.915 157.147V158.015C291.915 158.391 292.291 158.709 292.739 158.709H297.165V156.453Z" fill="#6687B0"/>
<path d="M297.179 153.965H295.126C294.677 153.965 294.301 154.269 294.301 154.66V155.527C294.301 155.903 294.677 156.221 295.126 156.221H297.179V153.965Z" fill="#6687B0"/>
<path d="M297.107 149.208H291.857C291.409 149.208 291.033 149.453 291.033 149.743V150.422C291.033 150.712 291.409 150.957 291.857 150.957H297.107V149.208Z" fill="#6687B0"/>
<path d="M277.467 130.378C276.223 131.636 274.184 131.636 272.94 130.378C271.696 129.119 271.696 127.095 272.94 125.836C274.184 124.578 276.223 124.578 277.467 125.836C278.725 127.095 278.725 129.119 277.467 130.378Z" fill="url(#paint21_linear_1257_46492)"/>
<path d="M276.961 129.857C275.992 130.826 274.43 130.826 273.461 129.857C272.492 128.888 272.492 127.326 273.461 126.357C274.43 125.388 275.992 125.388 276.961 126.357C277.915 127.326 277.915 128.888 276.961 129.857Z" fill="#F68632"/>
<path d="M275.211 130.782C274.502 130.782 273.837 130.507 273.331 130.001C272.824 129.495 272.55 128.83 272.55 128.121C272.55 127.412 272.824 126.733 273.331 126.241C273.837 125.735 274.502 125.46 275.211 125.46C275.919 125.46 276.585 125.735 277.091 126.241C277.597 126.747 277.872 127.412 277.872 128.121C277.872 128.83 277.597 129.509 277.091 130.001C276.585 130.493 275.919 130.782 275.211 130.782ZM275.211 125.822C274.603 125.822 274.025 126.053 273.591 126.487C273.157 126.921 272.926 127.499 272.926 128.107C272.926 128.714 273.157 129.293 273.591 129.726C274.025 130.16 274.589 130.392 275.211 130.392C275.833 130.392 276.397 130.16 276.83 129.726C277.264 129.293 277.496 128.714 277.496 128.107C277.496 127.499 277.264 126.921 276.83 126.487C276.397 126.053 275.818 125.822 275.211 125.822Z" fill="url(#paint22_linear_1257_46492)"/>
<path d="M281.169 181.242H269.975V169.05C269.975 165.796 272.607 163.164 275.861 163.164C278.797 163.164 281.169 165.536 281.169 168.472V181.242Z" fill="#F68632"/>
<path d="M271.378 173.505C271.69 173.505 271.942 173.265 271.942 172.97C271.942 172.674 271.69 172.435 271.378 172.435C271.067 172.435 270.814 172.674 270.814 172.97C270.814 173.265 271.067 173.505 271.378 173.505Z" fill="#FAB684"/>
<path d="M286.78 152.303H277.741V160.734H286.78V152.303Z" fill="#FAB684"/>
<path d="M287.012 160.936H277.51V152.114H287.012V160.936ZM277.973 160.546H286.564V152.49H277.973V160.546Z" fill="url(#paint23_linear_1257_46492)"/>
<path d="M282.615 160.836H282.153L282.239 152.39H282.688L282.615 160.836Z" fill="url(#paint24_linear_1257_46492)"/>
<path d="M286.636 156.106L277.843 156.048L277.857 155.672L286.636 155.73V156.106Z" fill="url(#paint25_linear_1257_46492)"/>
<path d="M286.81 161.169H277.727C277.496 161.169 277.308 160.981 277.308 160.749C277.308 160.518 277.496 160.33 277.727 160.33H286.81C287.041 160.33 287.229 160.518 287.229 160.749C287.229 160.981 287.041 161.169 286.81 161.169Z" fill="url(#paint26_linear_1257_46492)"/>
<path d="M287.055 140.516H278.016V148.947H287.055V140.516Z" fill="#FAB684"/>
<path d="M287.287 149.15H277.785V140.328H287.287V149.15ZM278.248 148.759H286.839V140.704H278.248V148.759Z" fill="url(#paint27_linear_1257_46492)"/>
<path d="M282.89 149.062L282.427 149.048L282.5 140.602H282.963L282.89 149.062Z" fill="url(#paint28_linear_1257_46492)"/>
<path d="M286.911 144.319L278.117 144.261V143.885L286.911 143.943V144.319Z" fill="url(#paint29_linear_1257_46492)"/>
<path d="M286.998 149.38H278.074C277.8 149.38 277.568 149.192 277.568 148.961C277.568 148.73 277.8 148.542 278.074 148.542H286.998C287.272 148.542 287.504 148.73 287.504 148.961C287.504 149.192 287.272 149.38 286.998 149.38Z" fill="url(#paint30_linear_1257_46492)"/>
<path d="M271.971 152.187H262.932V160.618H271.971V152.187Z" fill="#FAB684"/>
<path d="M272.202 160.807H262.7V151.984H272.202V160.807ZM263.163 160.431H271.754V152.375H263.163V160.431Z" fill="url(#paint31_linear_1257_46492)"/>
<path d="M267.806 160.72H267.343L267.415 152.273H267.878L267.806 160.72Z" fill="url(#paint32_linear_1257_46492)"/>
<path d="M271.826 155.99L263.033 155.932V155.556L271.826 155.6V155.99Z" fill="url(#paint33_linear_1257_46492)"/>
<path d="M271.913 161.038H262.99C262.715 161.038 262.484 160.85 262.484 160.618C262.484 160.387 262.715 160.199 262.99 160.199H271.913C272.188 160.199 272.419 160.387 272.419 160.618C272.419 160.85 272.188 161.038 271.913 161.038Z" fill="url(#paint34_linear_1257_46492)"/>
<path d="M272.231 140.399H263.192V148.831H272.231V140.399Z" fill="#FAB684"/>
<path d="M272.463 149.019H262.961V140.197H272.463V149.019ZM263.424 148.643H272.015V140.588H263.424V148.643Z" fill="url(#paint35_linear_1257_46492)"/>
<path d="M268.066 148.933H267.618L267.69 140.487H268.153L268.066 148.933Z" fill="url(#paint36_linear_1257_46492)"/>
<path d="M272.087 144.203L263.308 144.146V143.77L272.101 143.827L272.087 144.203Z" fill="url(#paint37_linear_1257_46492)"/>
<path d="M272.173 149.251H263.25C262.975 149.251 262.744 149.063 262.744 148.832C262.744 148.6 262.975 148.412 263.25 148.412H272.173C272.448 148.412 272.68 148.6 272.68 148.832C272.68 149.063 272.448 149.251 272.173 149.251Z" fill="url(#paint38_linear_1257_46492)"/>
<path d="M276.512 109.941L274.054 108.77C273.837 108.669 273.547 108.727 273.417 108.915L270.033 113.774L269.122 119.675L266.186 119.313L264.045 122.394L264.667 125.821L261.196 126.501L246.126 148.195C245.996 148.383 246.068 148.614 246.3 148.73L248.758 149.902C248.975 150.003 249.265 149.945 249.395 149.757L276.7 110.462C276.801 110.289 276.729 110.043 276.512 109.941Z" fill="#00377B"/>
<path d="M275.659 110.664L249.728 146.401C249.583 146.618 249.757 146.878 250.06 146.878L251.969 146.864C253.155 146.85 254.24 146.329 254.833 145.476L274.546 117.519C274.69 117.317 275.052 117.317 275.196 117.519L297.02 147.5C297.107 147.616 297.252 147.674 297.411 147.645C298.814 147.457 299.58 146.184 298.929 145.143L276.585 109.507C276.455 109.276 275.804 110.447 275.659 110.664Z" fill="#6687B0"/>
<path d="M303.557 148.282L277.438 110.679L276.281 109.016C276.252 108.973 276.194 108.929 276.151 108.9L275.182 107.555C274.979 107.281 274.502 107.281 274.314 107.57L272.492 110.289L272.969 110.332C272.954 110.419 272.969 110.52 273.027 110.607L300.318 149.887C300.448 150.075 300.752 150.148 300.983 150.032L303.413 148.875C303.615 148.716 303.687 148.47 303.557 148.282Z" fill="#00377B"/>
<path d="M258.087 179.26C258.087 179.448 262.079 175.485 262.079 175.485L257.841 170.264L262.513 164.841L257.364 159.07L264.234 165.304L260.011 170.12C260.011 170.12 265.521 176.57 265.405 176.599C265.304 176.628 258.087 179.26 258.087 179.26Z" fill="#6687B0"/>
<path d="M282.876 131.781C282.442 131.52 274.95 132.084 274.95 132.084L275.731 137.32C275.731 137.32 266.764 138.318 266.822 138.202C266.895 138.072 277.727 139.026 277.727 139.026L276.425 133.4L282.876 131.781Z" fill="#6687B0"/>
<path d="M295.212 144.695C294.778 145.129 294.315 145.505 293.838 145.823C289.485 148.716 282.037 150.336 279.144 144.681C278.783 143.972 278.537 143.206 278.58 142.41C278.71 140.096 281.747 139.344 282.398 137.189C283.035 135.136 281.646 133.154 281.386 131.158C281.082 128.902 282.861 126.993 284.466 125.619C286.332 124.014 288.357 122.568 289.962 120.716C291.568 118.865 292.739 116.421 292.421 113.991C293.766 115.351 293.997 117.448 293.78 119.342C293.563 121.222 292.898 123.146 293.072 125.041C293.158 126.053 292.898 127.094 292.349 127.933C291.944 128.555 291.38 129.09 291.192 129.799C290.917 130.811 291.481 132.619 292.074 133.472C292.898 134.673 294.475 135.092 295.444 133.834C295.877 133.27 296.08 132.59 296.34 131.939C297.468 129.119 299.739 126.776 302.516 125.547C300.043 126.631 300.867 130.695 300.867 132.749C300.867 133.516 300.867 134.297 300.78 135.063C300.52 137.247 299.493 139.228 298.22 140.993C297.382 142.179 296.355 143.582 295.212 144.695Z" fill="#F68632"/>
<path d="M281.791 141.008C282.269 139.851 282.919 138.708 283.368 137.71C283.932 136.452 284.322 135.064 284.293 133.675C284.279 132.793 284.076 131.925 284.004 131.043C283.932 130.161 283.99 129.235 284.423 128.469C284.742 127.919 285.233 127.485 285.537 126.936C285.248 127.673 285.19 128.512 285.407 129.278C285.465 129.481 285.552 129.698 285.74 129.785C285.971 129.886 287.692 127.413 288.025 127.051C286.911 128.237 286.781 130.146 286.925 131.665C287.114 133.603 288.487 135.252 288.213 137.262C288.111 137.985 287.692 138.491 287.504 139.171C287.244 140.068 287.33 141.167 287.49 142.078C287.923 140.892 289.066 140.111 290.237 139.648C291.409 139.185 292.667 138.968 293.839 138.491C296.182 137.522 298.018 135.425 298.698 132.995C298.713 133.53 298.539 134.037 298.38 134.543C298.076 135.454 297.772 136.351 297.483 137.262C297.122 138.347 296.76 139.431 296.225 140.444C294.374 143.9 289.804 146.995 285.783 146.851C284.886 146.822 283.975 146.778 283.165 146.402C281.907 145.824 281.112 144.392 281.256 143.018C281.3 142.382 281.516 141.687 281.791 141.008Z" fill="#FAB684"/>
<path d="M252.143 139.634C251.68 137.782 251.116 135.382 249.713 134.008C250.118 135.179 249.901 136.524 249.265 137.594C248.484 138.939 247.211 139.46 246.126 140.516C245.663 140.964 245.23 141.47 244.926 142.049C244.145 143.524 244.217 145.332 244.752 146.923C245.287 148.514 246.242 149.916 247.182 151.29C244.767 149.83 242.699 147.834 240.182 146.561C241.99 147.458 242.756 149.569 243.798 151.305C245.548 154.241 248.397 156.468 251.188 158.334C254.066 160.257 257.812 160.575 261.196 160.518C264.566 160.474 268.283 159.361 269.353 155.774C269.874 154.038 269.7 152.158 269.31 150.365C269.021 149.049 268.616 147.747 267.965 146.547C266.952 144.638 265.419 143.061 264.176 141.297C263.12 139.822 261.442 137.811 261.269 135.989C261.211 135.338 261.341 134.687 261.471 134.051C261.789 132.475 262.151 130.811 263.279 129.625C260.242 130.985 257.986 133.849 257.422 137.045C257.262 137.956 257.234 138.896 256.973 139.793C256.727 140.689 256.207 141.557 255.353 141.962C253.459 142.873 252.504 141.08 252.143 139.634Z" fill="#F68632"/>
<path d="M263.626 149.872C263.858 150.494 264.089 151.116 264.263 151.767C264.552 151.637 264.696 151.405 264.812 151.087C265.188 150.06 265.232 148.918 264.942 147.877C265 148.093 265.767 148.571 265.94 148.802C266.244 149.236 266.403 149.684 266.548 150.191C266.822 151.131 267.054 152.013 267.112 152.996C267.242 155.44 267.546 158.998 264.537 159.765C261.529 160.517 257.885 159.504 255.281 157.87C253.56 156.786 252.1 155.339 250.812 153.763C250.147 152.953 250.104 152.114 249.713 151.188C249.294 150.205 248.686 149.323 248.585 148.224C248.412 146.286 249.438 144.434 250.653 142.974C248.513 145.519 252.476 149.323 254.471 150.465C255.585 151.102 256.8 151.521 257.942 152.1C259.085 152.678 260.184 153.445 260.792 154.573C261.052 153.083 260.141 151.651 259.996 150.147C259.75 147.486 261.905 144.854 261.052 142.337C261.645 144.087 262.339 145.779 262.831 147.558C263.033 148.383 263.337 149.12 263.626 149.872Z" fill="#FAB684"/>
<path d="M153.219 27.3604C156.837 27.3604 159.77 24.4272 159.77 20.8089C159.77 17.1906 156.837 14.2573 153.219 14.2573C149.6 14.2573 146.667 17.1906 146.667 20.8089C146.667 24.4272 149.6 27.3604 153.219 27.3604Z" fill="url(#paint39_linear_1257_46492)"/>
<path d="M153.219 27.1291C156.709 27.1291 159.539 24.2994 159.539 20.8089C159.539 17.3184 156.709 14.4888 153.219 14.4888C149.728 14.4888 146.899 17.3184 146.899 20.8089C146.899 24.2994 149.728 27.1291 153.219 27.1291Z" fill="#F68632"/>
<path opacity="0.71" d="M148.012 18.4231C147.969 18.4231 147.94 18.4087 147.896 18.3942C147.781 18.3363 147.723 18.1917 147.781 18.0616C148.822 15.9934 150.905 14.7207 153.219 14.7207C153.595 14.7207 153.956 14.7496 154.318 14.8219C154.448 14.8509 154.535 14.981 154.52 15.1112C154.491 15.2414 154.376 15.3281 154.231 15.3137C153.898 15.2558 153.566 15.2269 153.219 15.2269C151.093 15.2269 149.184 16.4128 148.215 18.3074C148.186 18.3797 148.099 18.4231 148.012 18.4231Z" fill="white"/>
<path opacity="0.71" d="M153.363 26.2907C156.319 26.2907 158.715 23.8949 158.715 20.9395C158.715 17.9842 156.319 15.5884 153.363 15.5884C150.408 15.5884 148.012 17.9842 148.012 20.9395C148.012 23.8949 150.408 26.2907 153.363 26.2907Z" fill="white"/>
<path d="M152.843 24.9303V24.3518C152.235 24.3229 151.628 24.1782 151.208 23.9902C151.049 23.9179 150.977 23.7588 151.02 23.5853L151.165 23.0357C151.223 22.8332 151.44 22.732 151.628 22.8187C152.047 22.9923 152.568 23.1369 153.132 23.1369C153.71 23.1369 154.159 22.9344 154.159 22.5295C154.159 22.1679 153.826 21.951 153.002 21.7196C151.845 21.4014 151.006 20.8952 151.006 19.8684C151.006 18.9428 151.686 18.2486 152.857 18.0606V17.4821C152.857 17.294 153.016 17.1494 153.19 17.1494H153.537C153.725 17.1494 153.869 17.3085 153.869 17.4821V18.0027C154.433 18.0316 154.838 18.1184 155.171 18.2341C155.345 18.292 155.431 18.4655 155.388 18.6391L155.258 19.1453C155.2 19.3333 154.998 19.449 154.81 19.3767C154.506 19.2609 154.086 19.1453 153.537 19.1453C152.843 19.1453 152.64 19.4345 152.64 19.6948C152.64 20.013 153.06 20.2299 153.956 20.5047C155.243 20.8952 155.779 21.4303 155.779 22.3849C155.779 23.2671 155.128 24.0625 153.855 24.265V24.9158C153.855 25.1038 153.696 25.2485 153.522 25.2485H153.175C152.987 25.2629 152.843 25.1183 152.843 24.9303Z" fill="#F68632"/>
<path d="M171.861 24.4385C178.155 24.4385 183.258 19.3361 183.258 13.042C183.258 6.7479 178.155 1.64551 171.861 1.64551C165.567 1.64551 160.465 6.7479 160.465 13.042C160.465 19.3361 165.567 24.4385 171.861 24.4385Z" fill="url(#paint40_linear_1257_46492)"/>
<path d="M171.861 24.0629C177.947 24.0629 182.881 19.1289 182.881 13.0425C182.881 6.95601 177.947 2.02197 171.861 2.02197C165.774 2.02197 160.84 6.95601 160.84 13.0425C160.84 19.1289 165.774 24.0629 171.861 24.0629Z" fill="#F68632"/>
<path opacity="0.71" d="M162.764 8.71814C162.72 8.71814 162.692 8.70368 162.648 8.68922C162.532 8.63137 162.475 8.48674 162.532 8.35658C164.311 4.82771 167.884 2.62939 171.832 2.62939C172.468 2.62939 173.09 2.68724 173.712 2.80295C173.842 2.83187 173.929 2.96203 173.915 3.0922C173.886 3.22236 173.77 3.30914 173.625 3.29467C173.032 3.19343 172.439 3.13558 171.832 3.13558C168.057 3.13558 164.673 5.23266 162.966 8.58798C162.952 8.66029 162.865 8.71814 162.764 8.71814Z" fill="white"/>
<path opacity="0.71" d="M172.092 22.6162C177.244 22.6162 181.421 18.4398 181.421 13.2878C181.421 8.13592 177.244 3.95947 172.092 3.95947C166.94 3.95947 162.764 8.13592 162.764 13.2878C162.764 18.4398 166.94 22.6162 172.092 22.6162Z" fill="white"/>
<path d="M171.181 20.2162V19.2038C170.126 19.1604 169.084 18.9145 168.332 18.5819C168.072 18.4662 167.927 18.1625 168.014 17.8877L168.274 16.9476C168.376 16.6005 168.752 16.427 169.084 16.5571C169.822 16.8609 170.733 17.1067 171.716 17.1067C172.729 17.1067 173.495 16.7596 173.495 16.051C173.495 15.4146 172.902 15.0386 171.499 14.6481C169.475 14.0985 168.028 13.2163 168.028 11.4374C168.028 9.83204 169.2 8.60272 171.239 8.28455V7.27217C171.239 6.93953 171.499 6.6792 171.832 6.6792H172.425C172.758 6.6792 173.018 6.93953 173.018 7.27217V8.18331C174.002 8.2267 174.71 8.38579 175.274 8.58826C175.563 8.6895 175.723 9.00768 175.636 9.29693L175.404 10.1647C175.318 10.4973 174.956 10.6853 174.623 10.5696C174.103 10.3672 173.365 10.1647 172.411 10.1647C171.196 10.1647 170.863 10.6709 170.863 11.1192C170.863 11.6688 171.586 12.0448 173.163 12.5365C175.404 13.2163 176.344 14.1419 176.344 15.8196C176.344 17.3526 175.202 18.741 172.989 19.0881V20.2162C172.989 20.5488 172.729 20.8091 172.396 20.8091H171.803C171.442 20.8091 171.181 20.5344 171.181 20.2162Z" fill="#F68632"/>
<path d="M179.715 50.2259C186.192 50.2259 191.444 44.9746 191.444 38.4967C191.444 32.0189 186.192 26.7676 179.715 26.7676C173.237 26.7676 167.985 32.0189 167.985 38.4967C167.985 44.9746 173.237 50.2259 179.715 50.2259Z" fill="url(#paint41_linear_1257_46492)"/>
<path d="M179.714 49.835C185.976 49.835 191.053 44.7585 191.053 38.4964C191.053 32.2342 185.976 27.1577 179.714 27.1577C173.452 27.1577 168.375 32.2342 168.375 38.4964C168.375 44.7585 173.452 49.835 179.714 49.835Z" fill="#F68632"/>
<path opacity="0.71" d="M170.371 34.0276C170.328 34.0276 170.299 34.0132 170.256 33.9987C170.14 33.9408 170.082 33.7962 170.14 33.6661C171.977 30.0359 175.636 27.7798 179.7 27.7798C180.35 27.7798 181.001 27.8376 181.638 27.9533C181.768 27.9823 181.855 28.1124 181.84 28.2426C181.811 28.3728 181.695 28.4595 181.551 28.4451C180.943 28.3294 180.322 28.286 179.714 28.286C175.838 28.286 172.338 30.4409 170.588 33.9119C170.545 33.9842 170.458 34.0276 170.371 34.0276Z" fill="white"/>
<path opacity="0.71" d="M179.96 48.3312C185.256 48.3312 189.549 44.0382 189.549 38.7425C189.549 33.4468 185.256 29.1538 179.96 29.1538C174.664 29.1538 170.371 33.4468 170.371 38.7425C170.371 44.0382 174.664 48.3312 179.96 48.3312Z" fill="white"/>
<path d="M179.02 45.8725V44.8312C177.935 44.7878 176.851 44.5274 176.099 44.1948C175.824 44.0791 175.694 43.7754 175.766 43.4861L176.026 42.5172C176.128 42.1556 176.518 41.982 176.851 42.1122C177.603 42.4304 178.543 42.6762 179.555 42.6762C180.597 42.6762 181.378 42.3147 181.378 41.5915C181.378 40.9407 180.77 40.5502 179.324 40.1598C177.241 39.5957 175.752 38.6846 175.752 36.8623C175.752 35.2136 176.966 33.9553 179.049 33.6082V32.5669C179.049 32.2343 179.324 31.9595 179.656 31.9595H180.264C180.597 31.9595 180.871 32.2343 180.871 32.5669V33.507C181.884 33.5504 182.607 33.7239 183.185 33.9264C183.489 34.0276 183.648 34.3458 183.561 34.664L183.316 35.5607C183.229 35.9078 182.853 36.0958 182.52 35.9656C181.985 35.7631 181.233 35.5462 180.249 35.5462C179.006 35.5462 178.644 36.0668 178.644 36.5296C178.644 37.0937 179.396 37.4842 181.002 37.9904C183.316 38.6846 184.27 39.6391 184.27 41.3601C184.27 42.9366 183.099 44.3684 180.828 44.7155V45.8869C180.828 46.2196 180.553 46.4944 180.221 46.4944H179.613C179.295 46.4799 179.02 46.2051 179.02 45.8725Z" fill="#F68632"/>
<path d="M194.755 31.1063C199.5 31.1063 203.346 27.2601 203.346 22.5156C203.346 17.771 199.5 13.9248 194.755 13.9248C190.011 13.9248 186.164 17.771 186.164 22.5156C186.164 27.2601 190.011 31.1063 194.755 31.1063Z" fill="url(#paint42_linear_1257_46492)"/>
<path d="M194.756 30.8169C199.34 30.8169 203.057 27.1002 203.057 22.5154C203.057 17.9306 199.34 14.2139 194.756 14.2139C190.171 14.2139 186.454 17.9306 186.454 22.5154C186.454 27.1002 190.171 30.8169 194.756 30.8169Z" fill="#F68632"/>
<path opacity="0.71" d="M187.9 19.3193C187.857 19.3193 187.828 19.3048 187.784 19.2904C187.669 19.2325 187.611 19.0879 187.669 18.9577C189.028 16.2677 191.733 14.6045 194.741 14.6045C195.218 14.6045 195.695 14.6479 196.173 14.7347C196.303 14.7636 196.39 14.8937 196.375 15.0239C196.346 15.1541 196.231 15.2408 196.086 15.2264C195.652 15.1396 195.204 15.1107 194.741 15.1107C191.921 15.1107 189.39 16.6726 188.117 19.1891C188.074 19.2759 187.987 19.3193 187.9 19.3193Z" fill="white"/>
<path opacity="0.71" d="M194.929 29.7319C198.811 29.7319 201.958 26.585 201.958 22.7031C201.958 18.8212 198.811 15.6743 194.929 15.6743C191.047 15.6743 187.9 18.8212 187.9 22.7031C187.9 26.585 191.047 29.7319 194.929 29.7319Z" fill="white"/>
<path d="M194.249 27.9246V27.1581C193.454 27.1292 192.658 26.9412 192.109 26.6953C191.906 26.6085 191.805 26.3771 191.863 26.1747L192.051 25.466C192.123 25.2057 192.412 25.0755 192.658 25.1767C193.208 25.4081 193.902 25.5962 194.64 25.5962C195.406 25.5962 195.985 25.3358 195.985 24.8007C195.985 24.3235 195.536 24.0342 194.481 23.7449C192.962 23.3255 191.863 22.6603 191.863 21.3297C191.863 20.1148 192.745 19.1892 194.278 18.9434V18.1769C194.278 17.931 194.481 17.7285 194.726 17.7285H195.175C195.421 17.7285 195.623 17.931 195.623 18.1769V18.8566C196.361 18.8855 196.896 19.0157 197.33 19.1603C197.547 19.2326 197.662 19.4785 197.604 19.6954L197.431 20.3607C197.359 20.621 197.084 20.7512 196.838 20.6644C196.447 20.5198 195.898 20.3607 195.175 20.3607C194.264 20.3607 194.003 20.7367 194.003 21.0694C194.003 21.4888 194.553 21.778 195.739 22.1396C197.431 22.6458 198.14 23.3545 198.14 24.6127C198.14 25.7697 197.286 26.811 195.609 27.0713V27.9246C195.609 28.1705 195.406 28.373 195.16 28.373H194.712C194.437 28.373 194.249 28.1705 194.249 27.9246Z" fill="#F68632"/>
<path d="M277.221 81.5946C297.789 81.5946 314.462 64.9212 314.462 44.3534C314.462 23.7857 297.789 7.1123 277.221 7.1123C256.653 7.1123 239.98 23.7857 239.98 44.3534C239.98 64.9212 256.653 81.5946 277.221 81.5946Z" fill="#7D97F4"/>
<path d="M277.293 78.4567C295.904 78.4567 310.991 63.3696 310.991 44.7589C310.991 26.1481 295.904 11.061 277.293 11.061C258.682 11.061 243.595 26.1481 243.595 44.7589C243.595 63.3696 258.682 78.4567 277.293 78.4567Z" fill="white"/>
<path d="M257.956 50.7028C257.956 48.8371 256.452 47.333 254.587 47.333H253.082C251.217 47.333 249.713 48.8371 249.713 50.7028V59.7274C249.713 61.5931 251.217 63.0972 253.082 63.0972H254.587C256.452 63.0972 257.956 61.5931 257.956 59.7274V50.7028Z" fill="url(#paint43_linear_1257_46492)"/>
<path d="M304.381 50.7028C304.381 48.8371 302.877 47.333 301.012 47.333H299.507C297.642 47.333 296.138 48.8371 296.138 50.7028V59.7274C296.138 61.5931 297.642 63.0972 299.507 63.0972H301.012C302.877 63.0972 304.381 61.5931 304.381 59.7274V50.7028Z" fill="url(#paint44_linear_1257_46492)"/>
<path d="M254.283 33.9548C254.182 33.9259 254.051 33.8391 254.051 33.7378V33.0436C254.051 32.3784 253.733 31.7709 253.14 31.4672C252.374 31.0767 251.492 31.0623 250.725 31.4238L249.337 32.0891C248.657 32.4073 248.266 33.1015 248.266 33.8535V34.3742C248.266 35.3432 248.946 36.1676 249.915 36.2977L255.801 37.1076L256.496 34.4176L254.283 33.9548Z" fill="#00377B"/>
<path d="M300.23 33.9548C300.332 33.9259 300.332 33.8391 300.332 33.7378V33.0436C300.332 32.3784 300.78 31.7709 301.373 31.4672C302.14 31.0767 303.08 31.0623 303.861 31.4238L305.365 32.0891C306.044 32.4073 306.551 33.1015 306.551 33.8535V34.3742C306.551 35.3432 305.784 36.1676 304.815 36.2977L298.885 37.1076L298.104 34.4176L300.23 33.9548Z" fill="#00377B"/>
<path d="M304.613 39.8846C303.759 37.0066 299.348 34.2876 299.348 34.2876C299.348 34.2876 295.646 22.8911 291.669 22.8911C288.472 22.8911 280.793 22.8911 277.886 22.8911C277.886 22.8911 277.466 22.8911 276.743 22.8911C273.836 22.8911 266.142 22.8911 262.946 22.8911C258.954 22.8911 255.266 34.2876 255.266 34.2876C255.266 34.2876 250.855 36.9777 250.002 39.8557C249.38 41.9673 250.725 50.1531 251.506 54.3328C251.781 55.8079 253.169 57.0083 254.789 57.0083H276.758H277.9H299.84C301.46 57.0083 302.863 55.8079 303.123 54.3472C303.889 50.1675 305.235 41.9962 304.613 39.8846Z" fill="#00377B"/>
<path d="M304.063 52.0773C303.817 51.7881 303.441 51.6724 303.036 51.6724H251.564C251.159 51.6724 250.783 51.7881 250.537 52.0629C250.291 52.3376 250.19 52.6847 250.277 53.0318L251.116 56.445C251.246 56.9801 251.781 57.4429 252.388 57.4429H302.125C302.733 57.4429 303.253 56.9801 303.398 56.445L304.28 53.0752C304.396 52.7426 304.309 52.3521 304.063 52.0773Z" fill="#335F95"/>
<path d="M263.395 46.7981C263.395 46.7981 262.108 42.951 260.502 42.6184C258.882 42.2858 252.056 40.8684 251.911 42.0544C251.767 43.2403 250.393 47.3187 254.471 47.6948C258.564 48.0852 264.06 48.4034 263.395 46.7981Z" fill="#F68632"/>
<path d="M291.192 46.7981C291.192 46.7981 292.479 42.951 294.084 42.6184C295.704 42.2858 302.53 40.8684 302.675 42.0544C302.82 43.2403 304.194 47.3187 300.115 47.6948C296.037 48.0852 290.541 48.4034 291.192 46.7981Z" fill="#F68632"/>
<path d="M290.28 43.5002C290.15 43.2978 289.918 43.1387 289.672 43.1387H264.913C264.667 43.1387 264.421 43.2978 264.291 43.5147C264.161 43.7316 264.161 44.0209 264.276 44.2378L265.665 46.8845C266.185 47.8535 267.198 48.4898 268.297 48.4898H286.491C287.662 48.4898 288.732 47.7812 289.21 46.7109L290.323 44.1944C290.425 43.9775 290.41 43.7027 290.28 43.5002Z" fill="#6687B0"/>
<path d="M297.02 35.2421C296.861 35.488 296.586 35.6182 296.297 35.6182H258.304C258 35.6182 257.725 35.488 257.566 35.2277C257.407 34.9818 257.393 34.6636 257.508 34.4033C258.376 32.581 259.996 29.2257 260.893 27.3456C260.936 27.2588 260.979 27.1575 261.037 27.0708C261.471 26.3766 262.252 25.9282 263.076 25.9282H291.814C292.652 25.9282 293.433 26.391 293.867 27.0997C293.925 27.2009 293.983 27.3166 294.026 27.4179L297.078 34.4178C297.208 34.6925 297.179 34.9963 297.02 35.2421Z" fill="#CCD7E5"/>
<path d="M293.867 27.0997C291.857 27.4902 285.942 28.5026 277.018 28.5026C268.023 28.5026 262.744 27.4757 261.037 27.0853C261.471 26.3911 262.252 25.9427 263.076 25.9427H291.813C292.652 25.9282 293.433 26.3911 293.867 27.0997Z" fill="#99AFCA"/>
<path d="M262.787 41.5766C262.758 41.5766 262.715 41.5621 262.686 41.5332L257.768 36.8762C257.711 36.8184 257.711 36.7316 257.768 36.6738C257.826 36.6159 257.913 36.6159 257.971 36.6738L262.888 41.3307C262.946 41.3886 262.946 41.4753 262.888 41.5332C262.859 41.5621 262.816 41.5766 262.787 41.5766Z" fill="#7D97F4"/>
<path d="M291.452 41.5766C291.409 41.5766 291.38 41.5621 291.351 41.5332C291.293 41.4753 291.293 41.3886 291.351 41.3307L296.268 36.6738C296.326 36.6159 296.413 36.6159 296.47 36.6738C296.528 36.7316 296.528 36.8184 296.47 36.8762L291.553 41.5332C291.524 41.5621 291.481 41.5766 291.452 41.5766Z" fill="#7D97F4"/>
<path d="M216.073 138.23C216.073 138.23 217.621 138.983 217.91 139.85C218.141 140.544 219.848 140.631 220.021 142.005C220.108 142.714 220.629 143.278 221.338 143.379C223.087 143.654 225.792 144.551 226.211 147.602C226.544 149.916 225.358 150.798 224.114 151.102C223.203 151.319 222.596 152.216 222.784 153.127C222.957 154.009 222.697 155.036 221.164 155.831C217.736 157.639 214.309 151.551 214.309 151.551L213.615 140.906L216.073 138.23Z" fill="#335F95"/>
<path d="M197.431 135.713C197.431 135.713 204.272 146.531 212.414 148.628C212.414 148.628 210.823 153.141 209.608 153.661C209.608 153.661 199.6 145.302 197.026 137.246L197.431 135.713Z" fill="url(#paint45_linear_1257_46492)"/>
<path d="M230.16 204.946L230.377 206.768C230.42 207.116 230.695 207.39 231.042 207.434C231.621 207.506 232.561 207.564 233.486 207.477C233.891 207.434 234.152 207.029 234.021 206.638C233.804 205.93 233.385 204.874 232.792 204.252H230.767C230.406 204.237 230.116 204.57 230.16 204.946Z" fill="#6687B0"/>
<path d="M214.323 183.585L213.976 185.596C213.976 185.596 215.119 197.18 215.321 201.808C215.35 202.531 215.162 203.255 214.786 203.876L212.805 207.102L217.852 204.122L217.953 203.5L217.129 202.358L218.214 189.385C218.272 188.618 218.127 187.852 217.765 187.187L216.724 185.22L214.323 183.585Z" fill="url(#paint46_linear_1257_46492)"/>
<path d="M212.472 207.564H214.077C214.381 207.564 214.67 207.42 214.844 207.188C215.35 206.537 216.391 205.265 216.883 205.221C217.548 205.178 217.462 207.564 217.462 207.564H217.838L218.315 204.599C218.431 203.847 218.069 203.11 217.389 202.763C217.389 202.763 217.23 203.891 216.406 204.397C215.582 204.903 213.022 206.697 213.022 206.697C213.022 206.697 212.704 206.653 212.371 206.711C211.879 206.812 211.951 207.564 212.472 207.564Z" fill="#6687B0"/>
<path d="M221.236 184.54C221.236 184.54 227.932 197.238 229.003 200.145C230.073 203.052 230.435 205.467 230.449 205.699C230.478 206.06 230.912 206.393 232.141 206.393C232.777 206.393 233.081 206.132 233.24 205.887C233.37 205.684 233.37 205.409 233.269 205.192C232.879 204.411 231.649 201.909 231.201 200.767C230.651 199.407 229.494 193.261 228.844 191.12C228.207 188.98 227.484 186.666 224.678 184.525C224.693 184.54 222.769 182.66 221.236 184.54Z" fill="url(#paint47_linear_1257_46492)"/>
<path d="M217.013 163.714C215.292 156.396 219.66 152.26 219.66 152.26C216.898 149.613 211.865 148.398 211.865 148.398C211.865 148.398 207.063 151.913 207.627 154.661C207.96 156.266 210.997 164.307 210.997 164.307C210.997 164.307 213.817 165.638 217.013 163.714Z" fill="#F89E5B"/>
<path d="M220.846 167.344C220.137 165.232 217.013 163.714 217.013 163.714C213.832 165.623 211.011 164.292 211.011 164.292C211.011 164.292 210.375 166.708 210.809 168.949C211.243 171.191 213.976 185.581 213.976 185.581C218.272 186.449 224.895 184.699 224.895 184.699C222.162 179.854 221.54 169.456 220.846 167.344Z" fill="#335F95"/>
<path d="M215.003 143.567L216.406 149.872C216.536 150.422 216.03 150.335 215.466 150.234C214.54 150.06 213.354 149.699 212.964 148.99C212.92 148.918 212.906 148.831 212.891 148.759L212.284 144.391C212.24 144.044 212.428 143.711 212.747 143.567L213.918 143.046C214.366 142.829 214.887 143.089 215.003 143.567Z" fill="url(#paint48_linear_1257_46492)"/>
<path d="M219.66 152.259C219.66 152.259 229.465 159.274 220.918 166.65C220.918 166.65 220.585 167.011 219.949 167.214C219.631 167.315 218.662 168.038 218.185 168.414C218.026 168.53 217.809 168.501 217.693 168.327C217.606 168.197 217.606 168.038 217.664 167.893L218.879 165.333C219.211 165.015 219.732 165.001 220.094 165.276C220.325 165.464 220.658 165.377 220.788 165.117C221.453 163.771 222.697 159.809 217.592 155.34C217.404 155.166 217.346 154.891 217.476 154.66C217.838 153.966 218.647 152.592 219.66 152.259Z" fill="url(#paint49_linear_1257_46492)"/>
<path d="M212.313 137.811C212.313 137.811 210.824 138.823 210.173 141.398C209.536 143.972 210.578 144.898 211.648 144.84C212.718 144.782 214.266 144.449 215.611 142.598C216.956 140.761 214.28 136.582 212.313 137.811Z" fill="url(#paint50_linear_1257_46492)"/>
<path d="M214.265 141.571C214.265 141.571 214.815 137.883 211.749 138.447L211.127 139.098C211.127 139.098 209.623 137.406 211.286 136.133C212.949 134.861 215.249 135.179 216.521 137.507C217.794 139.836 218.257 141.47 217.187 142.916C216.117 144.362 215.307 143.119 215.307 143.119C215.307 143.119 215.798 141.86 215.393 141.325C214.988 140.79 214.468 141.643 214.468 141.643L214.265 141.571Z" fill="url(#paint51_linear_1257_46492)"/>
<path d="M214.685 141.889C214.685 141.889 214.96 139.995 215.929 140.53C216.898 141.079 215.582 142.309 215.047 142.728L214.685 141.889Z" fill="url(#paint52_linear_1257_46492)"/>
<path d="M197.474 137.941C197.46 138.158 198.284 138.317 198.544 137.363C198.472 136.943 198.342 135.135 198.024 134.86C196.332 133.356 193.323 131.679 193.323 131.679C192.991 132.199 193.425 132.532 193.425 132.532L194.929 133.544C194.77 134.065 194.538 134.528 194.524 135.121C194.509 135.569 194.669 136.003 194.972 136.35C195.276 136.697 195.666 137.131 196.042 137.464C196.722 138.1 197.474 137.941 197.474 137.941Z" fill="url(#paint53_linear_1257_46492)"/>
<path d="M196.707 137.175C196.693 137.161 195.97 135.382 195.652 135.049C195.478 134.861 195.391 134.702 195.406 134.543C195.42 134.413 195.478 134.297 195.608 134.196L195.652 134.167L197.04 134.905L197.604 135.787L197.488 135.859L196.939 135.006L195.681 134.326C195.608 134.398 195.565 134.471 195.565 134.543C195.565 134.659 195.623 134.789 195.767 134.933C196.115 135.295 196.823 137.031 196.852 137.103L196.707 137.175Z" fill="url(#paint54_linear_1257_46492)"/>

</svg>
