<svg width="24" height="24" viewBox="0 0 24 24" fill="none" xmlns="http://www.w3.org/2000/svg">
<path d="M16 2H8C4.68629 2 2 4.68629 2 8V16C2 19.3137 4.68629 22 8 22H16C19.3137 22 22 19.3137 22 16V8C22 4.68629 19.3137 2 16 2Z" fill="#00377B"/>
<path fill-rule="evenodd" clip-rule="evenodd" d="M10.9665 16.7169C10.5445 16.7169 10.1345 16.5479 9.8355 16.2479L6.2925 12.7059C5.9025 12.3159 5.9025 11.6829 6.2925 11.2919C6.6835 10.9019 7.3165 10.9019 7.7065 11.2919L10.9435 14.5279L16.2405 8.34794C16.6005 7.92994 17.2325 7.88194 17.6505 8.23994C18.0705 8.59894 18.1185 9.23094 17.7585 9.64994L12.1795 16.1569C11.8915 16.4939 11.4715 16.6979 11.0285 16.7159C11.0075 16.7159 10.9875 16.7169 10.9665 16.7169Z" fill="white"/>
</svg>
