<svg width="1024" height="1024" viewBox="0 0 1024 1024" fill="none" xmlns="http://www.w3.org/2000/svg">
<path d="M270.1 749.102H251.9V842.202H270.1V749.102Z" fill="#F28021"/>
<mask id="mask0_5611_36800" style="mask-type:luminance" maskUnits="userSpaceOnUse" x="1" y="37" width="1022" height="950">
<path d="M1022.9 37.1992H1.5V986.499H1022.9V37.1992Z" fill="white"/>
</mask>
<g mask="url(#mask0_5611_36800)">
<path d="M340.2 780.1C345 784.9 347.3 791.5 347.3 800V842.3H330.3V802.3C330.3 793.5 325.2 788.7 317.2 788.7C308.4 788.7 302.7 794.1 302.7 804.9V842.4H285.7V774.8H302.7V782.2C306.7 776 313.2 773.1 322.3 773.1C329.7 772.7 335.7 775.2 340.2 780.1Z" fill="#F28021"/>
</g>
<mask id="mask1_5611_36800" style="mask-type:luminance" maskUnits="userSpaceOnUse" x="1" y="37" width="1022" height="950">
<path d="M1022.9 37.1992H1.5V986.499H1022.9V37.1992Z" fill="white"/>
</mask>
<g mask="url(#mask1_5611_36800)">
<path d="M389.4 800.498C399.1 802.498 411.5 806.998 411.3 821.198C411.3 827.998 408.7 833.098 403.6 836.798C398.5 840.198 392.2 842.198 384.9 842.198C371.3 842.198 362.2 837.098 357.4 826.598L372.2 818.398C374.2 824.098 378.4 826.898 385 826.898C391 826.898 394.1 825.198 394.1 821.198C394.1 817.798 389 815.798 382.2 814.098C372.5 811.498 360.3 807.598 360.3 793.898C360.3 787.398 362.6 782.298 367.4 778.598C372.2 774.898 378.2 772.898 385.3 772.898C395.8 772.898 405.2 777.998 410.3 786.798L395.8 794.798C393.8 790.298 390.1 787.998 385.3 787.998C381 787.998 377.6 789.998 377.6 793.398C377.4 796.798 382.8 798.798 389.4 800.498Z" fill="#F28021"/>
</g>
<mask id="mask2_5611_36800" style="mask-type:luminance" maskUnits="userSpaceOnUse" x="1" y="37" width="1022" height="950">
<path d="M1022.9 37.1992H1.5V986.499H1022.9V37.1992Z" fill="white"/>
</mask>
<g mask="url(#mask2_5611_36800)">
<path d="M465.5 774.699H482.5V842.299H465.5V832.899C461.5 839.099 455 841.999 445.9 841.999C438.8 841.999 432.8 839.699 428 834.899C423.5 830.099 421.2 823.499 421.2 814.999V774.699H438.2V812.799C438.2 821.599 443.3 826.399 451.3 826.399C460.1 826.399 465.8 820.999 465.8 810.199V774.699H465.5Z" fill="#F28021"/>
</g>
<mask id="mask3_5611_36800" style="mask-type:luminance" maskUnits="userSpaceOnUse" x="1" y="37" width="1022" height="950">
<path d="M1022.9 37.1992H1.5V986.499H1022.9V37.1992Z" fill="white"/>
</mask>
<g mask="url(#mask3_5611_36800)">
<path d="M514.9 786C518 777.5 526 773.5 534.8 773.5V792.5C529.7 791.9 524.9 792.8 520.9 795.6C516.9 798.4 514.9 802.7 514.9 809.2V842.4H497.9V774.8H514.9V786Z" fill="#F28021"/>
</g>
<mask id="mask4_5611_36800" style="mask-type:luminance" maskUnits="userSpaceOnUse" x="1" y="37" width="1022" height="950">
<path d="M1022.9 37.1992H1.5V986.499H1022.9V37.1992Z" fill="white"/>
</mask>
<g mask="url(#mask4_5611_36800)">
<path d="M591.8 774.698H608.8V842.298H591.8V832.598C586.7 839.098 579.6 842.298 570.5 842.298C561.7 842.298 554.3 838.898 548.1 832.398C541.9 825.598 538.7 817.298 538.7 807.698C538.7 797.998 541.8 789.798 548.1 783.298C554.3 776.498 561.7 773.098 570.5 773.098C579.6 773.098 586.7 776.198 591.8 782.798V774.698ZM573.7 826.098C578.8 826.098 583.4 824.398 586.8 820.998C590.2 817.598 591.9 812.998 591.9 807.698C591.9 802.298 590.2 797.798 586.8 794.398C583.4 790.998 579.1 789.298 573.7 789.298C568.6 789.298 564 790.998 560.6 794.398C557.2 797.798 555.5 802.398 555.5 807.698C555.5 813.098 557.2 817.598 560.6 820.998C564.3 824.298 568.5 826.098 573.7 826.098Z" fill="#F28021"/>
</g>
<mask id="mask5_5611_36800" style="mask-type:luminance" maskUnits="userSpaceOnUse" x="1" y="37" width="1022" height="950">
<path d="M1022.9 37.1992H1.5V986.499H1022.9V37.1992Z" fill="white"/>
</mask>
<g mask="url(#mask5_5611_36800)">
<path d="M678.4 780.1C683.2 784.9 685.5 791.5 685.5 800V842.3H668.5V802.3C668.5 793.5 663.4 788.7 655.4 788.7C646.6 788.7 640.9 794.1 640.9 804.9V842.4H623.9V774.8H640.9V782.2C644.9 776 651.4 773.1 660.5 773.1C667.9 772.7 673.9 775.2 678.4 780.1Z" fill="#F28021"/>
</g>
<mask id="mask6_5611_36800" style="mask-type:luminance" maskUnits="userSpaceOnUse" x="1" y="37" width="1022" height="950">
<path d="M1022.9 37.1992H1.5V986.499H1022.9V37.1992Z" fill="white"/>
</mask>
<g mask="url(#mask6_5611_36800)">
<path d="M706.3 831.999C699.8 825.199 696.4 817.199 696.4 807.299C696.4 797.399 699.8 789.399 706.3 782.599C713.1 775.799 721.4 772.699 731 772.699C743.8 772.699 755.1 779.199 760.2 789.699L745.7 798.199C743.1 792.799 737.5 789.399 730.6 789.399C720.4 789.399 713 796.799 713 807.299C713 812.399 714.7 816.699 718.1 820.099C721.5 823.499 725.5 825.199 730.6 825.199C737.4 825.199 743.1 821.799 745.7 816.699L760.5 825.199C754.8 835.699 743.5 842.199 731 842.199C721.3 841.999 713.1 838.799 706.3 831.999Z" fill="#F28021"/>
</g>
<mask id="mask7_5611_36800" style="mask-type:luminance" maskUnits="userSpaceOnUse" x="1" y="37" width="1022" height="950">
<path d="M1022.9 37.1992H1.5V986.499H1022.9V37.1992Z" fill="white"/>
</mask>
<g mask="url(#mask7_5611_36800)">
<path d="M784.6 814.401C786.9 822.601 793.1 826.601 803.1 826.601C809.6 826.601 814.5 824.301 817.9 820.101L831.5 828.101C825 837.501 815.6 842.001 802.8 842.001C792 842.001 783.2 838.601 776.7 832.101C770.2 825.601 766.8 817.301 766.8 807.401C766.8 797.501 770.2 789.201 776.5 782.701C783 775.901 791.3 772.801 801.5 772.801C811.2 772.801 819.1 776.201 825.4 782.701C831.6 789.501 834.8 797.501 834.8 807.401C834.8 809.701 834.5 811.901 834.2 814.201H784.8V814.401H784.6ZM817.9 801.301C815.9 792.501 809.4 788.001 801.7 788.001C792.6 788.001 786.4 792.801 784.4 801.301H817.9Z" fill="#F28021"/>
</g>
<mask id="mask8_5611_36800" style="mask-type:luminance" maskUnits="userSpaceOnUse" x="1" y="37" width="1022" height="950">
<path d="M1022.9 37.1992H1.5V986.499H1022.9V37.1992Z" fill="white"/>
</mask>
<g mask="url(#mask8_5611_36800)">
<path d="M504.1 356.701H562.3V296.801H641.5V357.001H710.8V427.701H641.5V555.501C641.5 570.301 642.4 582.201 643.8 591.301C645.2 600.401 648.6 607.501 653.5 612.301C658.4 617.101 665.4 620.301 674.5 622.001C683.6 623.401 698.4 624.301 713.7 624.301V698.401H700C673.6 698.401 651.4 696.101 633.8 691.301C616.2 686.801 602 678.801 591.5 667.701C581 656.601 573.6 642.101 569.1 624.001C564.6 605.801 562.3 583.401 562.3 556.101V427.601H504.1V356.701Z" fill="white"/>
</g>
<mask id="mask9_5611_36800" style="mask-type:luminance" maskUnits="userSpaceOnUse" x="1" y="37" width="1022" height="950">
<path d="M1022.9 37.1992H1.5V986.499H1022.9V37.1992Z" fill="white"/>
</mask>
<g mask="url(#mask9_5611_36800)">
<path d="M834.3 356.898H755.1V698.198H834.3V356.898Z" fill="white"/>
</g>
<mask id="mask10_5611_36800" style="mask-type:luminance" maskUnits="userSpaceOnUse" x="1" y="37" width="1022" height="950">
<path d="M1022.9 37.1992H1.5V986.499H1022.9V37.1992Z" fill="white"/>
</mask>
<g mask="url(#mask10_5611_36800)">
<path d="M320.6 357.5C226.9 357.5 150.8 433.3 150.2 527V842.2H228V670.7C254.7 688 286.5 698 320.6 698C414.6 698 491 621.6 491 527.6C491 433.6 414.6 357.5 320.6 357.5ZM320.6 620.5C269.5 620.5 228 579 228 527.9C228 476.8 269.5 435.3 320.6 435.3C371.7 435.3 413.2 476.8 413.2 527.9C413.2 579 371.8 620.5 320.6 620.5Z" fill="white"/>
</g>
<mask id="mask11_5611_36800" style="mask-type:luminance" maskUnits="userSpaceOnUse" x="1" y="37" width="1022" height="950">
<path d="M1022.9 37.1992H1.5V986.499H1022.9V37.1992Z" fill="white"/>
</mask>
<g mask="url(#mask11_5611_36800)">
<path d="M608.9 233.399C711.4 233.399 804.6 273.199 873.8 338.199C822.4 244.799 723 181.699 608.9 181.699C494.8 181.699 395.4 244.999 344 338.199C413.2 273.199 506.4 233.399 608.9 233.399Z" fill="#F28021"/>
</g>
<mask id="mask12_5611_36800" style="mask-type:luminance" maskUnits="userSpaceOnUse" x="1" y="37" width="1022" height="950">
<path d="M1022.9 37.1992H1.5V986.499H1022.9V37.1992Z" fill="white"/>
</mask>
<g mask="url(#mask12_5611_36800)">
<path d="M320.6 583.298C289.9 583.298 264.9 558.298 264.9 527.598C264.9 496.898 289.9 471.898 320.6 471.898C351.3 471.898 376.3 497.198 376.3 527.798C376.3 558.598 351.3 583.298 320.6 583.298Z" fill="#F28021"/>
</g>
</svg>
